<svg width="74" height="74" viewBox="0 0 74 74" fill="none" xmlns="http://www.w3.org/2000/svg">
<circle cx="37" cy="37" r="37" fill="#5E5E5E"/>
<path d="M53.5 36.634C54.1667 37.0189 54.1667 37.9811 53.5 38.366L30.25 51.7894C29.5833 52.1743 28.75 51.6932 28.75 50.9234L28.75 24.0766C28.75 23.3068 29.5833 22.8257 30.25 23.2106L53.5 36.634Z" stroke="#09CEF6" stroke-width="4"/>
<circle cx="37" cy="37" r="37" fill="#5E5E5E"/>
<path d="M53.5 36.634C54.1667 37.0189 54.1667 37.9811 53.5 38.366L30.25 51.7894C29.5833 52.1743 28.75 51.6932 28.75 50.9234L28.75 24.0766C28.75 23.3068 29.5833 22.8257 30.25 23.2106L53.5 36.634Z" stroke="#09CEF6" stroke-width="4"/>
</svg>
