<svg width="1440" height="810" viewBox="0 0 1440 810" fill="none" xmlns="http://www.w3.org/2000/svg">
<g clip-path="url(#clip0_192_90)">
<g clip-path="url(#clip1_192_90)">
<g opacity="0.5">
<path d="M1796.34 227.646C1784.48 237.774 1772.33 245.224 1759.74 250.118C1742.39 256.861 1723.78 258.841 1704.43 255.999C1683.1 252.867 1660.12 243.763 1636.15 228.955C1580.26 194.415 1522.23 139.857 1466.1 87.0919C1403.82 28.531 1339.4 -32.0255 1278.11 -64.8795C1209.44 -101.693 1151.86 -99.1389 1102.07 -57.0711C1101.71 -56.7693 1101.35 -56.4554 1100.99 -56.1536C1011.65 20.2022 972.276 161.629 937.517 286.486C934.209 298.374 930.785 310.667 927.428 322.503C917.782 356.524 908.584 391.892 899.688 426.098C871.244 535.47 841.828 648.563 791.927 742.277C774.907 774.241 756.137 798.894 734.979 816.98C728.471 822.544 721.738 827.483 714.754 831.825C698.051 842.212 679.684 849.175 660.161 852.515C639.294 856.085 616.394 855.642 592.103 851.201C526.417 839.191 456.864 808.955 389.603 779.716C355.108 764.719 319.437 749.213 284.97 736.493C153.754 688.066 61.1614 679.898 -6.42956 710.788C-87.5963 747.887 -124.721 836.427 -160.623 922.057L-160.733 922.312L-161.12 922.005L-161.01 921.749C-143.301 879.509 -124.984 835.833 -101.008 798.22C-73.9148 755.72 -43.0664 726.981 -6.70035 710.363C12.6084 701.54 34.4475 695.857 58.2119 693.464C80.1123 691.262 104.378 691.791 130.332 695.034C174.518 700.557 225.088 713.976 284.941 736.067C319.42 748.791 355.099 764.302 389.601 779.301C456.835 808.528 526.362 838.752 591.999 850.755C678.839 866.634 744.109 831.045 791.544 741.953C841.427 648.266 870.84 535.189 899.28 425.833C908.175 391.628 917.376 356.257 927.022 322.23C930.379 310.394 933.8 298.097 937.111 286.213C954.96 222.106 973.412 155.812 998.881 95.3016C1027.82 26.5416 1061.46 -23.4291 1101.74 -57.469C1115.26 -68.8941 1129.52 -77.5263 1144.11 -83.1281C1158.03 -88.4685 1172.71 -91.2257 1187.76 -91.3249C1215.54 -91.5099 1245.1 -82.9887 1278.15 -65.2743C1305.69 -50.5131 1336.2 -28.92 1371.45 0.745077C1402.88 27.194 1435.12 57.4962 1466.29 86.8027C1522.39 139.542 1580.39 194.076 1636.23 228.578C1743.25 294.708 1803.3 230.612 1839.16 176.646C1889.38 101.083 1925.65 10.2722 1960.72 -77.5521C1968.48 -96.9722 1976.5 -117.054 1984.51 -136.565L1984.9 -136.26C1976.89 -116.751 1968.87 -96.6726 1961.11 -77.2486C1926.03 10.586 1889.76 101.411 1839.53 176.995C1825.44 198.204 1811.12 215.008 1796.34 227.648L1796.34 227.646Z" fill="white" stroke="white"/>
<path d="M1775.37 217.909C1766.19 225.749 1756.84 231.93 1747.13 236.637C1729.93 244.98 1711.43 248.432 1692.12 246.891C1670.84 245.191 1647.81 237.383 1623.68 223.681C1569.62 192.986 1513.18 143.475 1458.61 95.5942C1432.98 73.1147 1406.48 49.8666 1380.5 28.7865C1288.02 -46.3836 1190.08 -105.715 1100.36 -31.4999C1064.18 -1.7833 1032.97 39.4538 1004.98 94.5629C972.888 157.689 949.912 228.969 927.696 297.905C923.733 310.205 919.632 322.919 915.616 335.157C904.549 369.032 893.917 404.278 883.634 438.365C866.288 495.877 848.346 555.342 827.405 611.43C808.602 661.818 789.315 704.245 768.441 741.143C751.095 771.871 732.29 795.803 711.42 813.643C704.605 819.467 697.57 824.637 690.293 829.191C673.621 839.613 655.401 846.785 636.136 850.508C615.545 854.487 593.048 854.664 569.278 851.037C517.508 843.257 463.145 824.161 416.797 806.507C402.004 800.877 386.972 794.979 372.434 789.278C338.403 775.927 303.214 762.121 269.268 751.048C188.949 724.849 72.2122 694.971 -13.8877 737.807C-93.1184 777.23 -129.795 865.821 -165.266 951.49L-165.653 951.182C-148.17 908.957 -130.094 865.294 -106.38 827.179C-79.7472 784.377 -49.5846 754.999 -14.1673 737.376C4.6069 728.035 25.827 721.641 48.9072 718.374C70.1716 715.363 93.7317 714.903 118.94 717.014C161.736 720.596 210.895 731.584 269.227 750.612C303.184 761.688 338.38 775.497 372.422 788.851C386.959 794.552 401.989 800.452 416.779 806.079C463.106 823.722 517.438 842.81 569.173 850.585C655.178 863.709 718.379 828.823 768.076 740.804C788.946 703.923 808.223 661.505 827.025 611.13C847.963 555.051 865.897 495.585 883.243 438.08C893.527 403.993 904.158 368.741 915.225 334.865C919.241 322.628 923.342 309.913 927.305 297.613C949.525 228.667 972.503 157.373 1004.61 94.2326C1032.62 39.0948 1063.83 -2.16266 1100.05 -31.9041C1140.44 -65.3133 1185.09 -74.0017 1236.55 -58.4577C1258.76 -51.7522 1282.13 -40.6475 1308.01 -24.5075C1329.68 -10.9909 1353.44 6.33688 1380.65 28.4531C1406.65 49.5411 1433.15 72.7892 1458.78 95.2768C1513.33 143.134 1569.74 192.62 1623.74 223.284C1670.18 249.646 1710.45 253.873 1746.85 236.202C1772.82 223.621 1796.21 200.459 1820.46 163.308C1847.76 121.475 1870.9 76.1305 1888.02 41.3035C1904.94 6.95687 1921.23 -28.0458 1936.98 -61.8966C1948.77 -87.2245 1960.96 -113.414 1973.12 -138.684L1973.5 -138.364C1961.34 -113.094 1949.15 -86.9044 1937.36 -61.5787C1921.61 -27.7258 1905.32 7.2769 1888.4 41.6256C1871.28 76.4608 1848.13 121.811 1820.82 163.655C1805.62 186.95 1790.74 204.755 1775.36 217.903L1775.37 217.909Z" fill="white" stroke="white"/>
<path d="M1754.07 208.477C1746.3 215.12 1738.42 220.55 1730.32 224.883C1713.75 233.783 1695.86 237.997 1677.17 237.413C1656.71 236.773 1634.52 230.378 1611.21 218.399C1558.83 191.48 1503.89 146.903 1450.75 103.797C1425.88 83.6245 1400.17 62.7703 1374.85 43.7931C1284.2 -24.4581 1188 -77.7146 1098.65 -5.93028C1061.91 23.597 1029.84 63.5794 1000.61 116.317C967.226 176.444 942.21 244.12 918.022 309.574C913.356 322.199 908.532 335.254 903.801 347.807C891.177 381.625 878.975 416.85 867.177 450.916C848.424 505.055 829.038 561.04 807.051 614.082C786.82 662.944 766.506 704.128 744.956 740C721.219 779.665 695.328 807.947 665.804 826.469C649.164 836.905 631.092 844.286 612.081 848.402C591.774 852.802 569.688 853.632 546.45 850.876C495.397 844.817 442.41 828.434 397.313 813.209C383.367 808.508 369.201 803.583 355.502 798.817C321.855 787.118 287.063 775.018 253.561 765.601C175.508 743.674 62.091 719.735 -21.3543 764.819C-98.6579 806.595 -136.458 899.071 -169.81 980.664L-170.2 980.358C-153.783 940.203 -135.181 894.687 -111.693 856.026C-85.5416 812.984 -56.0863 783.011 -21.6416 764.394C-3.39899 754.541 17.2019 747.435 39.595 743.289C60.2227 739.465 83.0837 738.024 107.537 738.997C148.96 740.645 196.708 749.207 253.499 765.161C287.016 774.579 321.814 786.681 355.467 798.382C369.163 803.144 383.328 808.07 397.274 812.771C442.349 827.988 495.312 844.363 546.328 850.418C630.393 860.399 693.392 825.203 744.583 739.656C766.127 703.794 786.435 662.622 806.661 613.77C828.643 560.732 848.029 504.753 866.779 450.617C878.577 416.55 890.78 381.325 903.405 347.499C908.133 334.943 912.958 321.893 917.624 309.268C941.82 243.808 966.838 176.118 1000.23 115.977C1029.47 63.2084 1061.56 23.1972 1098.33 -6.3405C1138.57 -38.6764 1182.8 -47.8977 1233.55 -34.5371C1255.42 -28.7783 1278.4 -18.9244 1303.81 -4.40831C1325.05 7.7298 1348.34 23.383 1374.97 43.4418C1400.31 62.4249 1426.02 83.2872 1450.89 103.462C1504 146.55 1558.92 191.1 1611.25 217.994C1656.23 241.11 1695.08 243.222 1730.03 224.456C1754.93 211.13 1777.72 187.467 1801.76 149.977C1827.46 109.856 1851.1 65.0889 1870.1 29.1139C1873.63 22.4547 1877.15 15.8263 1880.65 9.21636C1908.35 -43.0388 1934.51 -92.3964 1961.74 -140.801L1962.11 -140.465C1934.88 -92.0662 1908.72 -42.7086 1881.03 9.54453C1877.53 16.1524 1874.01 22.7829 1870.48 29.442C1851.48 65.417 1827.83 110.193 1802.13 150.32C1785.89 175.647 1770.22 194.674 1754.08 208.469L1754.07 208.477Z" fill="white" stroke="white"/>
<path d="M1732.65 199.354C1726.35 204.746 1719.99 209.314 1713.5 213.133C1697.56 222.579 1680.3 227.559 1662.2 227.94C1642.56 228.353 1621.21 223.37 1598.74 213.124C1547.49 189.753 1495.88 151.469 1441.24 110.937C1417.67 93.4521 1393.3 75.3704 1369.2 58.8015C1280.08 -2.46794 1185.41 -49.6208 1096.94 19.6472C1059.71 48.7969 1026.77 87.5351 996.232 138.085C961.589 195.284 934.589 259.454 908.48 321.509C903.068 334.376 897.47 347.676 891.984 360.465C877.628 394.343 863.689 429.671 850.207 463.832C830.22 514.487 809.554 566.869 786.696 616.743C765.016 664.093 743.682 704.042 721.47 738.866C696.989 777.467 670.774 805.25 641.325 823.797C624.718 834.259 606.788 841.848 588.039 846.35C568.007 851.165 546.337 852.632 523.625 850.712C473.578 846.479 421.841 832.767 377.831 819.903C364.82 816.114 351.62 812.14 338.851 808.297C305.494 798.259 271.002 787.882 237.856 780.152C162.09 762.495 52.0138 744.491 -28.8185 791.83C-104.197 835.998 -141.468 928.351 -174.349 1009.83L-174.739 1009.53C-158.58 969.484 -140.264 924.102 -116.994 884.871C-91.3252 841.59 -62.5774 811.02 -29.1082 791.413C5.27859 771.273 46.2469 761.316 96.14 760.981C136.21 760.711 182.541 766.839 237.778 779.712C270.938 787.444 305.439 797.827 338.799 807.863C351.565 811.702 364.764 815.676 377.776 819.465C421.765 832.318 473.48 846.029 523.492 850.257C605.567 857.2 668.355 821.688 721.101 738.511C743.305 703.693 764.635 663.755 786.31 616.414C809.165 566.549 829.83 514.169 849.817 463.52C863.298 429.353 877.237 394.025 891.596 360.145C897.079 347.358 902.674 334.054 908.089 321.192C934.203 259.126 961.208 194.946 995.861 137.733C1026.41 87.1579 1059.37 48.397 1096.62 19.2328C1136.61 -12.0772 1180.4 -21.8329 1230.47 -10.5915C1269.94 -1.73285 1312.75 19.5548 1369.3 58.4302C1393.41 75.007 1417.79 93.0926 1441.36 110.582C1495.98 151.095 1547.56 189.356 1598.75 212.702C1642.26 232.548 1679.7 232.55 1713.21 212.702C1737.02 198.666 1759.21 174.498 1783.05 136.635C1801.47 107.34 1818.85 76.298 1835.66 46.2848C1841.06 36.632 1846.65 26.6495 1852.17 16.9139C1882.74 -36.6635 1914.85 -88.9469 1950.34 -142.925L1950.71 -142.575C1915.22 -88.6043 1883.11 -36.323 1852.55 17.2502C1847.02 26.9858 1841.44 36.9643 1836.03 46.6191C1819.23 76.6384 1801.84 107.676 1783.42 136.98C1766.05 164.573 1749.55 184.902 1732.66 199.34L1732.65 199.354Z" fill="white" stroke="white"/>
<path d="M1711.5 190.299C1706.63 194.464 1701.71 198.135 1696.69 201.386C1681.37 211.372 1664.73 217.116 1647.23 218.473C1628.39 219.931 1607.88 216.357 1586.27 207.85C1536.16 188.125 1485.5 154.252 1431.86 118.39C1409.55 103.472 1386.47 88.0453 1363.55 73.812C1276.02 19.4505 1182.92 -21.6339 1095.23 45.2206C1057.49 73.9952 1023.68 111.487 991.862 159.847C955.132 215.497 925.591 277.682 897.023 337.824C891.49 349.47 885.769 361.512 880.177 373.121C863.289 408.158 846.922 444.843 831.096 480.321C810.572 526.326 789.347 573.898 766.348 619.403C743.199 665.266 720.839 703.97 697.994 737.736C672.771 775.274 646.231 802.557 616.855 821.138C600.276 831.623 582.497 839.426 564.006 844.317C544.253 849.544 522.993 851.646 500.809 850.561C451.815 848.163 401.307 837.111 358.362 826.613C346.394 823.702 334.263 820.647 322.528 817.696C289.355 809.348 255.054 800.724 222.16 794.716C142.495 780.186 41.1246 769.8 -36.2705 818.857C-109.736 865.446 -146.468 957.661 -178.876 1039.02L-179.263 1038.72C-146.84 957.323 -110.089 865.073 -36.5627 818.442C-3.20869 797.297 36.4742 785.702 84.7545 782.976C123.496 780.789 168.413 784.486 222.071 794.272C254.975 800.277 289.283 808.91 322.464 817.258C334.196 820.21 346.328 823.259 358.292 826.172C401.22 836.665 451.705 847.716 500.671 850.109C580.746 854.029 643.332 818.206 697.635 737.387C720.477 703.629 742.83 664.931 765.973 619.079C788.968 573.578 810.193 526.012 830.714 480.009C846.543 444.529 862.91 407.844 879.798 372.801C885.393 361.196 891.11 349.15 896.643 337.504C925.213 277.353 954.76 215.159 991.5 159.494C1023.33 111.112 1057.16 73.5993 1094.92 44.8143C1134.66 14.516 1178 4.20938 1227.43 13.3092C1266.15 20.44 1308.16 38.9824 1363.63 73.4308C1386.56 87.67 1409.64 103.098 1431.96 118.021C1485.57 153.861 1536.2 187.715 1586.26 207.42C1628.3 223.969 1664.32 221.856 1696.4 200.963C1719.41 186.063 1740.37 162.116 1764.35 123.31C1777.19 102.511 1789.71 80.8561 1801.81 59.9146C1812.36 41.6637 1823.28 22.7958 1834.26 4.72997C1870.63 -54.619 1907.6 -104.282 1938.97 -145.031L1939.32 -144.666C1907.96 -103.921 1871 -54.2621 1834.63 5.07658C1823.65 23.1425 1812.74 42.0081 1802.19 60.2571C1790.08 81.1985 1777.56 102.855 1764.72 123.656C1745.95 154.038 1729.01 175.324 1711.5 190.294L1711.5 190.299Z" fill="white" stroke="white"/>
<path d="M1689.68 181.967C1686.5 184.686 1683.23 187.252 1679.88 189.636C1665.18 200.15 1649.14 206.668 1632.23 209.007C1614.2 211.503 1594.54 209.338 1573.8 202.576C1524.52 186.5 1474.54 156.938 1421.62 125.644C1400.84 113.355 1379.35 100.647 1357.9 88.8223C1271.89 41.396 1180.32 6.38485 1093.51 70.7959C1055.23 99.2019 1020.55 135.452 987.482 181.611C949.287 234.728 917.644 293.852 887.044 351.027C880.908 362.491 874.564 374.346 868.357 385.78C849.097 421.277 830.38 458.535 812.28 494.565C791.129 536.668 769.261 580.208 745.986 622.067C721.337 666.46 697.957 703.929 674.503 736.605C656.65 761.689 638.367 782.189 619.168 798.597C610.442 806.055 601.529 812.665 592.372 818.482C575.823 828.996 558.189 837.003 539.957 842.283C520.482 847.924 499.629 850.656 477.982 850.405C430.094 849.846 380.792 841.452 338.879 833.32C328.092 831.239 317.164 829.059 306.594 826.951C273.473 820.34 239.219 813.502 206.46 809.283C129.327 799.363 31.1856 794.558 -43.7303 845.883C-115.292 894.94 -151.485 986.992 -183.414 1068.21L-183.803 1067.91C-165.551 1021.48 -148.722 980.006 -127.589 942.593C-102.883 898.851 -75.5532 867.079 -44.0332 845.477C-11.7088 823.332 26.6903 810.083 73.3531 804.977C111.309 800.822 153.569 802.052 206.345 808.839C239.118 813.06 273.378 819.9 306.505 826.513C317.075 828.622 328.003 830.801 338.79 832.882C380.686 841.014 429.971 849.403 477.831 849.964C555.898 850.872 618.281 814.741 674.149 736.258C697.598 703.586 720.973 666.128 745.617 621.739C768.89 579.887 790.755 536.35 811.906 494.247C830.009 458.215 848.723 420.953 867.989 385.458C874.193 374.026 880.537 362.171 886.673 350.707C917.281 293.525 948.926 234.394 987.131 181.262C1020.21 135.08 1054.91 98.8181 1093.21 70.3976C1180.14 5.89336 1271.83 40.9476 1357.95 88.4354C1379.41 100.266 1400.9 112.974 1421.68 125.265C1474.58 156.543 1524.53 186.087 1573.76 202.146C1614.3 215.374 1648.91 211.148 1679.57 189.231C1707.59 169.342 1729.61 136.439 1745.65 109.994C1754.13 95.9852 1762.58 81.5603 1770.76 67.6129C1785.43 42.5828 1800.6 16.7003 1816.34 -7.44386C1853.42 -63.8042 1893.2 -109.099 1927.58 -147.129L1927.92 -146.754C1893.55 -108.727 1853.77 -63.4431 1816.7 -7.09316C1800.97 17.0469 1785.8 42.9254 1771.13 67.9533C1762.95 81.9008 1754.5 96.3257 1746.01 110.336C1731.88 133.635 1713.11 161.95 1689.68 181.976L1689.68 181.967Z" fill="white" stroke="white"/>
<path d="M1668.21 173.686C1666.52 175.133 1664.81 176.534 1663.07 177.884C1648.98 188.916 1633.56 196.207 1617.24 199.547C1599.99 203.08 1581.19 202.32 1561.34 197.296C1512.49 184.931 1462.81 159.589 1410.2 132.761C1391.33 123.137 1371.82 113.185 1352.26 103.829C1267.68 63.365 1177.6 34.4582 1091.81 96.3733C1052.95 124.417 1017.4 159.423 983.117 203.377C943.463 254.008 909.736 310.115 877.118 364.373C870.362 375.607 863.379 387.229 856.548 398.438C834.552 434.558 813.132 472.581 792.421 509.35C770.995 547.385 748.841 586.715 725.635 624.724C699.081 668.291 675.369 703.481 651.024 735.471C624.3 770.901 597.11 797.185 567.903 815.829C533.381 837.859 496.505 849.116 455.166 850.247C408.583 851.52 362.389 846.086 319.406 840.02C309.957 838.702 300.381 837.316 291.126 835.975C257.896 831.164 223.535 826.186 190.761 823.836C116.196 818.505 21.3092 819.266 -51.1858 872.899C-120.853 924.478 -156.501 1016.33 -187.944 1097.38L-188.333 1097.08C-170.388 1050.84 -153.831 1009.47 -132.885 971.439C-108.662 927.473 -82.0401 895.105 -51.4971 872.493C-20.195 849.336 16.9158 834.444 61.9583 826.96C98.6166 820.869 139.499 819.732 190.626 823.389C223.409 825.739 257.778 830.716 291.014 835.53C300.271 836.868 309.845 838.257 319.294 839.574C362.259 845.634 408.436 851.069 454.994 849.796C531.048 847.718 593.223 811.275 650.67 735.111C675.015 703.128 698.718 667.945 725.271 624.385C748.474 586.378 770.625 547.051 792.049 509.018C812.763 472.247 834.182 434.218 856.181 398.096C863.009 386.883 869.992 375.267 876.748 364.032C909.372 309.77 943.101 253.655 982.764 203.016C1017.06 159.043 1052.63 124.025 1091.51 95.9689C1130.69 67.6907 1173.15 56.2781 1221.31 61.0838C1268.88 65.8326 1316.29 86.2033 1352.28 103.426C1371.85 112.788 1391.37 122.742 1410.24 132.366C1462.82 159.178 1512.48 184.507 1561.27 196.859C1599.76 206.6 1633.9 200.082 1662.76 177.488C1689.11 157.021 1709.99 125.143 1726.95 96.66C1731.96 88.2201 1737.02 79.5905 1741.92 71.2458C1759.87 40.6353 1778.44 8.9798 1798.42 -19.638C1835.52 -72.2237 1876.95 -112.502 1916.2 -149.247L1916.53 -148.857C1877.29 -112.12 1835.87 -71.8484 1798.79 -19.2791C1778.81 9.32842 1760.24 40.9819 1742.29 71.5903C1737.4 79.9329 1732.34 88.5646 1727.32 97.0045C1711.47 123.626 1692.19 153.214 1668.22 173.699L1668.21 173.686Z" fill="white" stroke="white"/>
<path d="M1646.59 165.847C1646.44 165.979 1646.29 166.107 1646.13 166.241C1632.69 177.731 1617.92 185.758 1602.23 190.106C1585.77 194.667 1567.82 195.308 1548.87 192.017C1499.92 183.517 1449.98 162.319 1397.1 139.875C1380.68 132.907 1363.7 125.702 1346.62 118.833C1263.37 85.3803 1174.69 62.6054 1090.1 121.943C1050.62 149.644 1014.19 183.397 978.745 225.135C937.629 273.328 901.826 326.478 867.202 377.873C859.823 388.823 852.196 400.151 844.736 411.086C819.528 448.059 794.939 487.118 771.156 524.89C749.922 558.619 727.964 593.491 705.282 627.376C677.096 669.557 652.393 703.541 627.54 734.328C600.058 768.714 572.544 794.504 543.425 813.169C508.968 835.26 472.63 847.33 432.341 850.077C387.042 853.166 341.932 850.284 299.927 846.711C292.009 846.052 283.998 845.355 276.244 844.683C241.161 841.629 208.022 838.745 175.059 838.385C103.097 837.623 11.4993 843.922 -58.6496 899.91C-126.441 954.062 -163.063 1049.7 -192.486 1126.55L-192.874 1126.25C-175.895 1081.91 -158.937 1038.91 -138.192 1000.28C-114.455 956.092 -88.538 923.126 -58.966 899.507C-28.681 875.334 7.14642 858.795 50.561 848.938C85.9518 840.902 125.464 837.404 174.901 837.93C207.878 838.291 241.02 841.173 276.111 844.228C283.862 844.902 291.879 845.6 299.792 846.258C341.783 849.829 386.878 852.709 432.158 849.623C506.18 844.578 568.151 807.826 627.185 733.957C652.034 703.172 676.735 669.196 704.916 627.019C727.593 593.138 749.55 558.267 770.785 524.538C794.567 486.765 819.162 447.702 844.373 410.727C851.829 399.788 859.459 388.464 866.839 377.514C901.465 326.111 937.273 272.957 978.399 224.756C1013.86 183.005 1050.3 149.235 1089.8 121.528C1128.68 94.2564 1170.69 82.2888 1218.26 84.9438C1264.65 87.5297 1311.22 104.186 1346.61 118.408C1363.69 125.276 1380.68 132.484 1397.1 139.454C1449.96 161.886 1499.88 183.074 1548.77 191.563C1585.69 197.975 1618.34 189.32 1645.82 165.837C1645.97 165.705 1646.13 165.577 1646.28 165.445C1670.82 144.464 1690.57 113.583 1708.24 83.3162C1710.44 79.5518 1712.63 75.7834 1714.82 72.0151C1735.38 36.6467 1756.64 0.0693047 1780.5 -31.84C1818.15 -81.6301 1860.79 -116.792 1904.82 -151.373L1905.13 -150.971C1861.12 -116.398 1818.49 -81.2444 1780.86 -31.477C1757.01 0.420025 1735.75 36.9872 1715.19 72.3535C1713 76.1219 1710.81 79.8902 1708.62 83.6546C1690.93 113.936 1671.17 144.842 1646.6 165.841L1646.59 165.847Z" fill="white" stroke="white"/>
<path d="M1624.71 158.623C1599.48 180.184 1569.8 189.638 1536.4 186.737C1486.59 182.412 1435.52 165.313 1381.46 147.215C1368.3 142.806 1354.69 138.251 1340.97 133.841C1264.54 109.272 1175.69 88.036 1088.39 147.518C1048.77 174.518 1010.41 207.952 974.367 246.897C931.776 292.702 893.903 342.949 857.275 391.544C849.276 402.155 841.005 413.13 832.918 423.738C803.836 461.897 775.42 502.39 747.941 541.547C727.54 570.616 706.448 600.678 684.922 630.032C654.995 670.927 629.295 703.703 604.053 733.194C587.311 752.957 570.473 770.099 553.369 784.722C508.472 823.094 461.677 844.135 409.516 849.92C365.647 854.788 321.558 854.476 280.449 853.415C274.304 853.268 268.176 853.108 262.064 852.949C226.406 852.02 192.725 851.138 159.357 852.94C90.0352 856.703 1.76408 868.512 -66.1081 926.928C-127.079 979.446 -161.469 1061.62 -197.019 1155.73L-197.411 1155.43C-180.742 1111.31 -164.074 1068.45 -143.49 1029.14C-120.239 984.731 -95.0322 951.171 -66.4293 926.537C-66.2047 926.34 -65.9771 926.148 -65.7494 925.956C-36.6156 901.06 -2.28847 883.058 39.167 870.933C73.3262 860.942 111.464 855.081 159.182 852.492C192.565 850.691 226.251 851.569 261.915 852.499C268.027 852.659 274.155 852.819 280.296 852.962C321.395 854.025 365.469 854.335 409.325 849.472C481.292 841.485 543.058 804.419 603.709 732.826C628.951 703.342 654.646 670.57 684.57 629.678C706.093 600.325 727.186 570.263 747.584 541.196C775.066 502.037 803.482 461.544 832.566 423.383C840.653 412.775 848.924 401.8 856.924 391.189C893.556 342.589 931.432 292.335 974.031 246.524C1010.08 207.564 1048.46 174.119 1088.09 147.11C1126.63 120.855 1168.2 108.328 1215.2 108.81C1260 109.269 1303.9 121.504 1340.93 133.411C1354.64 137.82 1368.26 142.378 1381.43 146.787C1435.47 164.881 1486.51 181.967 1536.28 186.29C1571.72 189.37 1602.96 178.5 1629.12 153.994C1653.32 131.535 1673 98.8579 1689.54 69.9927C1711.95 30.7976 1735.13 -9.73338 1762.59 -44.0176C1801.09 -91.5387 1844.62 -121.706 1893.44 -153.477L1893.74 -153.062C1844.94 -121.304 1801.42 -91.1449 1762.94 -43.6505C1735.49 -9.37658 1712.32 31.1442 1689.91 70.3291C1673.36 99.2086 1653.68 131.902 1629.46 154.384C1627.89 155.847 1626.31 157.261 1624.71 158.629L1624.71 158.623Z" fill="white" stroke="white"/>
<path d="M1602.98 151.679C1580.13 171.203 1553.6 181.207 1523.94 181.456C1472.07 181.889 1418.48 168.922 1361.74 155.192C1353.14 153.109 1344.25 150.957 1335.33 148.845C1259.82 130.955 1172.1 116.597 1086.68 173.089C1046.29 199.799 1007.03 231.952 969.992 268.657C925.896 312.137 885.938 359.556 847.291 405.416C838.691 415.621 829.798 426.18 821.101 436.396C787.181 476.252 754.001 518.774 721.909 559.893C703.276 583.768 684.009 608.461 664.563 632.689C632.704 672.453 606.013 704.029 580.561 732.057C551.529 764.381 523.365 789.184 494.466 807.885C460.119 830.11 424.863 843.804 386.683 849.756C346.833 855.968 307.604 858.39 260.962 860.113C256.911 860.272 252.865 860.427 248.83 860.58C212.255 861.976 177.707 863.293 143.647 867.496C77.0071 875.738 -7.90468 893.018 -73.58 953.945C-132.849 1008.98 -166.61 1091.1 -201.569 1184.91L-201.96 1184.61C-186.26 1142.48 -169.223 1098 -148.805 1057.99C-126.042 1013.37 -101.546 979.211 -73.9097 953.553C-45.6329 927.32 -12.3776 907.484 27.7558 892.916C60.7181 880.949 97.4844 872.729 143.447 867.041C177.518 862.836 212.074 861.519 248.655 860.126C252.69 859.972 256.736 859.817 260.787 859.658C307.418 857.937 346.639 855.515 386.475 849.308C456.359 838.415 517.921 801.035 580.213 731.68C605.662 703.654 632.351 672.086 664.205 632.319C683.65 608.092 702.915 583.401 721.548 559.526C753.639 518.401 786.822 475.876 820.745 436.019C829.439 425.804 838.332 415.246 846.932 405.041C885.579 359.175 925.542 311.751 969.646 268.266C1006.7 231.548 1045.97 199.386 1086.37 172.671C1124.52 147.436 1165.66 134.346 1212.12 132.65C1255.38 131.069 1298.63 139.721 1335.24 148.399C1344.16 150.511 1353.05 152.663 1361.65 154.746C1418.37 168.47 1471.94 181.43 1523.76 180.998C1557.64 180.716 1587.43 167.671 1612.29 142.243C1634.64 119.587 1653.46 87.5377 1670.82 56.6549C1693.69 15.8782 1716.54 -23.4369 1744.65 -56.2136C1787.34 -105.402 1839.85 -133.235 1882.04 -155.597L1882.32 -155.174C1840.14 -132.819 1787.65 -105 1745 -55.8424C1716.9 -23.078 1694.06 16.2248 1671.19 56.9873C1653.82 87.8823 1635 119.946 1612.62 142.622C1609.48 145.837 1606.26 148.855 1602.96 151.671L1602.98 151.679Z" fill="white" stroke="white"/>
<path d="M1580.77 145.636C1560.45 163.007 1537.22 173.254 1511.47 176.168C1455.62 182.493 1399.68 174.211 1334.91 164.619L1329.68 163.847C1251.39 152.268 1168 145.416 1084.97 198.664C1043.69 225.14 1003.54 256.005 965.621 290.421C919.968 331.641 877.886 376.317 837.192 419.522C828.033 429.249 818.556 439.303 809.292 449.053C769.052 491.401 731.406 534.891 691.551 580.933C676.12 598.759 660.163 617.194 644.213 635.351C620.906 661.932 589.94 696.82 557.084 730.928C527.249 762.243 498.767 786.554 470.002 805.253C435.699 827.555 400.983 842.06 363.87 849.602C321.75 858.16 280.32 862.796 241.495 866.814L236.818 867.309C198.89 871.319 163.067 875.111 127.959 882.052C64.0552 894.713 -17.4526 917.396 -81.0236 980.965C-138.538 1038.53 -173.001 1124.08 -206.087 1214.09L-206.479 1213.79C-191.09 1171.92 -174.367 1127.64 -154.089 1086.84C-131.819 1042.02 -108.027 1007.26 -81.3585 980.577C-54.0709 953.292 -22.1016 931.811 16.3758 914.906C48.1867 900.934 83.5729 890.349 127.742 881.598C162.864 874.652 198.692 870.862 236.629 866.852L241.306 866.357C280.125 862.337 321.547 857.702 363.656 849.146C431.41 835.383 492.768 797.695 556.748 730.535C589.605 696.432 620.569 661.547 643.873 634.967C659.823 616.81 675.778 598.377 691.209 580.551C731.065 534.508 768.709 491.013 808.957 448.666C818.222 438.915 827.695 428.863 836.857 419.134C877.556 375.925 919.641 331.247 965.299 290.023C1003.22 255.601 1043.39 224.725 1084.68 198.248C1167.79 144.954 1251.23 151.807 1329.58 163.399L1334.81 164.171C1399.56 173.759 1455.48 182.04 1511.28 175.719C1543.57 172.063 1571.9 156.846 1595.49 130.498C1615.91 107.9 1632.53 78.8953 1652.13 43.3226C1672.35 6.56653 1696.45 -35.4103 1726.75 -68.4062C1745.93 -89.0466 1768.55 -106.683 1795.88 -122.331C1819.72 -135.969 1843.85 -146.425 1870.68 -157.712L1870.94 -157.28C1824.06 -137.554 1770.93 -115.192 1727.09 -68.0308C1696.81 -35.0555 1672.72 6.90906 1652.51 43.6528C1632.9 79.2378 1616.27 108.255 1595.83 130.874C1591.01 136.26 1585.99 141.183 1580.78 145.633L1580.77 145.636Z" fill="white" stroke="white"/>
<path d="M1557.86 140.849C1540.29 155.867 1520.58 165.934 1499 170.89C1442.28 183.911 1383.87 182.084 1324.04 178.852C1242.72 174.46 1163.11 174.622 1083.26 224.242C1040.89 250.568 999.835 280.159 961.241 312.185C913.942 351.237 869.661 393.26 826.842 433.904C817.197 443.056 807.227 452.522 797.472 461.708C748.425 507.91 702.534 555.856 653.944 606.616C644.108 616.895 633.936 627.522 623.854 638.007C595.397 667.658 564.77 699.303 533.594 729.79C502.928 760.118 474.119 783.944 445.527 802.624C411.262 825.013 377.084 840.326 341.04 849.437C301.86 859.341 263.954 866.198 222.011 873.51C187.692 879.576 148.798 886.456 112.249 896.602C21.4611 921.845 -40.4478 956.197 -88.4929 1007.98C-144.367 1068.25 -178.151 1153.66 -210.634 1243.27L-211.028 1242.97C-178.537 1153.34 -144.738 1067.9 -88.8383 1007.6C-62.5278 979.241 -31.8442 956.115 4.96514 936.895C35.2377 921.093 70.2509 907.766 112.007 896.154C148.568 886.005 187.47 879.126 221.791 873.058C263.731 865.748 301.633 858.895 340.804 848.991C406.363 832.417 467.513 794.416 533.254 729.401C564.427 698.915 595.051 667.273 623.508 637.622C633.59 627.136 643.762 616.509 653.598 606.231C702.188 555.465 748.081 507.517 797.131 461.312C806.886 452.126 816.855 442.661 826.501 433.509C869.326 392.866 913.606 350.837 960.913 311.779C999.515 279.746 1040.57 250.152 1082.96 223.818C1120.19 200.679 1160.44 186.449 1205.98 180.309C1246.47 174.853 1286.43 176.371 1323.89 178.395C1383.71 181.629 1442.09 183.45 1498.77 170.438C1529.44 163.395 1556.32 146.005 1578.66 118.751C1598.29 95.0129 1615.3 63.5272 1631.75 33.0819L1633.42 29.9894C1654.45 -9.01802 1678.14 -49.4117 1708.82 -80.5976C1728.63 -100.494 1752.19 -116.804 1780.85 -130.452C1805.61 -142.241 1831.02 -150.728 1859.28 -159.825L1859.52 -159.385C1810.18 -143.51 1754.26 -125.517 1709.15 -80.216C1678.49 -49.0527 1654.82 -8.67335 1633.79 30.3157L1632.12 33.4081C1615.66 63.8657 1598.65 95.3596 1579 119.117C1572.35 127.235 1565.29 134.482 1557.85 140.837L1557.86 140.849Z" fill="white" stroke="white"/>
<path d="M1533.89 137.82C1519.45 150.171 1503.61 159.463 1486.53 165.603C1439.82 182.388 1391.1 190.571 1318.4 193.854L1316.6 193.938C1244.58 197.183 1162.95 200.861 1081.55 249.817C1037.73 276.175 995.781 304.479 956.869 333.949C907.751 370.954 861.125 410.466 816.035 448.678C806.063 457.13 795.752 465.868 785.661 474.367C723.21 526.969 662.357 584.772 603.501 640.671L595.939 647.872C568.08 674.388 539.272 701.808 510.114 728.664C478.563 758.046 449.436 781.381 421.067 800.009C386.822 822.499 353.179 838.616 318.222 849.287C281.08 860.622 244.178 869.828 208.489 878.731L202.536 880.217C168.022 888.925 131.405 898.486 96.5537 911.164C9.99441 942.686 -49.3732 980.879 -95.9472 1035.01C-150.211 1098.12 -183.301 1183.34 -215.163 1272.45L-215.555 1272.16C-198.071 1223.26 -182.731 1182.85 -164.692 1144.55C-143.413 1099.37 -121.039 1063.42 -96.2919 1034.63C-70.9463 1005.18 -41.5462 980.406 -6.4163 958.9C22.7935 941.016 56.3956 925.257 96.3045 910.729C131.169 898.047 167.789 888.483 202.312 879.775L208.265 878.289C243.951 869.388 280.85 860.184 317.983 848.849C382.102 829.28 441.254 792.096 509.788 728.276C538.946 701.42 567.751 674.003 595.61 647.486L603.172 640.286C662.024 584.382 722.883 526.575 785.342 473.973C795.433 465.474 805.745 456.735 815.716 448.284C860.809 410.07 907.441 370.56 956.561 333.547C995.478 304.073 1037.43 275.763 1081.26 249.401C1117.66 227.509 1157.13 212.763 1201.94 204.311C1241.4 196.869 1279.55 195.151 1316.43 193.485L1318.22 193.403C1390.9 190.122 1439.59 181.944 1486.28 165.167C1515.3 154.741 1540.72 135.175 1561.85 107.015C1579.12 84.2019 1594.47 55.0828 1609.31 26.924C1611.11 23.5045 1612.91 20.0809 1614.72 16.6654C1634.21 -20.2067 1658.5 -62.0397 1690.91 -92.7798C1737.39 -136.349 1796.11 -149.939 1847.91 -161.927L1848.13 -161.481C1796.36 -149.501 1737.68 -135.918 1691.24 -92.3901C1658.86 -61.6747 1634.58 -19.8601 1615.1 16.9935C1613.29 20.4091 1611.49 23.8286 1609.68 27.2522C1594.84 55.4212 1579.48 84.5465 1562.2 107.374C1553.49 119 1544.03 129.161 1533.9 137.822L1533.89 137.82Z" fill="white" stroke="white"/>
<path d="M1508.33 137.375C1497.6 146.544 1486.16 154.204 1474.06 160.319C1426.64 184.267 1376.89 199.233 1312.75 208.852C1306.76 209.752 1300.59 210.65 1294.62 211.521C1228.96 221.096 1154.54 231.946 1079.84 275.389C1033.18 302.524 991.529 328.793 952.491 355.705C901.219 390.876 851.925 428.091 804.256 464.08C794.271 471.617 783.947 479.414 773.836 487.012C705.17 538.629 638.902 594.988 583.138 643.318C567.891 656.552 552.337 670.163 537.294 683.321C520.75 697.796 503.643 712.761 486.62 727.515C439.072 769.172 374.359 820.642 295.389 849.11C265.518 859.875 235.857 869.589 207.172 878.979C199.092 881.625 191.046 884.256 183.047 886.897C150.035 897.881 114.802 910.182 80.8385 925.698C-0.278754 962.783 -58.8284 1006.1 -103.421 1062.01C-156.084 1128.08 -189.747 1216.6 -219.715 1301.61L-220.106 1301.32C-190.131 1216.29 -156.46 1127.74 -103.774 1061.64C-79.3772 1031.05 -51.2628 1004.63 -17.8294 980.871C10.365 960.836 42.5533 942.647 80.5672 925.267C114.542 909.748 149.78 897.443 182.797 886.455C190.799 883.812 198.842 881.183 206.923 878.537C235.605 869.15 265.263 859.438 295.134 848.672C374.072 820.217 438.757 768.762 486.293 727.115C503.312 712.357 520.42 697.392 536.966 682.921C552.009 669.764 567.561 656.154 582.81 642.918C638.581 594.59 704.85 538.223 773.522 486.601C783.633 479.004 793.957 471.206 803.941 463.67C851.613 427.679 900.91 390.461 952.185 355.289C991.225 328.374 1032.89 302.099 1079.54 274.962C1154.28 231.496 1228.73 220.639 1294.41 211.062C1300.38 210.193 1306.55 209.291 1312.54 208.396C1376.66 198.781 1426.39 183.819 1473.78 159.884C1501.11 146.085 1525.08 124.342 1545.02 95.2639C1560.01 73.5936 1573.67 46.9026 1586.88 21.0897C1589.86 15.2594 1592.95 9.23048 1596.01 3.32784C1615.03 -33.3833 1639.04 -74.9605 1672.99 -104.974C1673.5 -105.426 1674.03 -105.876 1674.54 -106.322C1722.19 -147.042 1782.89 -156.071 1836.52 -164.041L1836.73 -163.591C1783.14 -155.623 1722.46 -146.598 1674.87 -105.922C1674.35 -105.478 1673.83 -105.028 1673.31 -104.574C1639.4 -74.5853 1615.4 -33.0327 1596.39 3.66001C1593.33 9.56267 1590.24 15.5895 1587.26 21.4219C1574.05 47.2429 1560.39 73.9402 1545.38 95.6227C1534.25 111.859 1521.86 125.81 1508.33 137.373L1508.33 137.375Z" fill="white" stroke="white"/>
<path d="M1480.35 140.778C1474.3 145.952 1468.04 150.703 1461.59 155.024C1413.39 187.315 1365.74 208.538 1307.1 223.844C1294.69 227.086 1282.21 230.122 1269.01 233.335C1210.7 247.527 1144.61 263.614 1078.13 300.958C1026.48 329.969 985.173 354.28 948.119 377.463C893.929 411.204 841.236 446.549 790.276 480.732C780.835 487.065 771.421 493.379 762.024 499.665C699.676 541.375 636.365 587.868 562.784 645.976C530.649 671.397 498.644 697.431 463.139 726.383C428.998 754.496 400.084 776.229 372.143 794.768C337.838 817.534 305.266 835.256 272.571 848.953C252.617 857.314 232.719 865.384 213.475 873.186C197.022 879.86 180.008 886.762 163.574 893.596C122.584 910.76 92.2267 925.151 65.1395 940.251C-11.5914 983.073 -67.5216 1030.35 -110.877 1089.02C-162.039 1158.32 -194.935 1246.46 -224.245 1330.79L-224.639 1330.5C-210.926 1291.03 -194.338 1244.93 -175.308 1202.23C-155.041 1156.75 -134.082 1119.6 -111.234 1088.66C-67.8628 1029.95 -11.909 982.659 64.8547 939.823C91.944 924.715 122.31 910.324 163.308 893.155C179.741 886.314 196.759 879.417 213.211 872.742C232.452 864.936 252.35 856.867 272.307 848.51C347.128 817.166 410.599 768.978 462.823 725.974C498.33 697.021 530.335 670.986 562.47 645.566C636.056 587.453 699.37 540.959 761.723 499.244C771.117 492.96 780.534 486.645 789.975 480.311C840.935 446.128 893.632 410.787 947.823 377.038C984.88 353.853 1026.2 329.538 1077.84 300.525C1144.35 263.163 1210.46 247.075 1268.79 232.88C1281.99 229.668 1294.46 226.632 1306.87 223.392C1365.49 208.092 1413.12 186.875 1461.29 154.601C1486.89 137.454 1509.4 113.538 1528.21 83.5117C1541.03 63.2027 1552.45 40.0754 1564.54 15.5911C1568.7 7.17719 1572.99 -1.52319 1577.31 -10.0145C1594.82 -44.5013 1619.47 -87.8619 1655.07 -117.174C1704.38 -157.384 1768.54 -162.049 1825.15 -166.162L1825.33 -165.713C1768.76 -161.603 1704.64 -156.94 1655.39 -116.774C1619.83 -87.4887 1595.19 -44.1547 1577.69 -9.68838C1573.37 -1.19705 1569.08 7.50328 1564.93 15.9151C1552.83 40.4055 1541.41 63.5369 1528.58 83.8582C1514.49 106.341 1498.33 125.407 1480.36 140.766L1480.35 140.778Z" fill="white" stroke="white"/>
<path d="M1458.85 142.214C1455.71 144.904 1452.46 147.421 1449.11 149.744C1440.4 155.773 1431.79 161.89 1423.48 167.802C1385.08 195.107 1348.82 220.894 1301.45 238.844C1281.31 246.474 1260.52 253.407 1238.51 260.745C1186.51 278.082 1132.75 296.007 1076.42 326.535C1069.22 330.432 1062.03 334.324 1054.85 338.207C1018.1 358.089 980.103 378.651 943.742 399.225C884.335 432.688 825.999 467.322 769.581 500.817C763.112 504.657 756.657 508.492 750.206 512.317C680.552 553.642 612.584 598.23 542.428 648.63C511.203 671.095 478.546 695.441 439.656 725.246C382.402 769.519 319.769 815.125 249.746 848.79C243.693 851.703 237.664 854.591 231.667 857.466C201.27 872.051 172.557 885.819 144.09 900.292C106.355 919.569 76.2781 936.891 49.4348 954.801C-22.7903 1003.03 -76.1009 1054.26 -118.337 1116.04C-168.083 1188.85 -201.431 1280.13 -228.78 1359.97L-229.174 1359.68C-201.817 1279.83 -168.463 1188.52 -118.7 1115.69C-76.4459 1053.89 -23.1173 1002.63 49.1346 954.393C75.9857 936.477 106.068 919.15 143.814 899.871C172.286 885.4 201 871.626 231.393 857.043C237.39 854.168 243.417 851.275 249.472 848.367C319.477 814.711 382.099 769.112 439.342 724.848C478.233 695.043 510.892 670.695 542.12 648.228C612.287 597.826 680.258 553.235 749.917 511.906C756.368 508.081 762.823 504.246 769.292 500.407C825.71 466.911 884.049 432.275 943.455 398.812C979.819 378.236 1017.82 357.674 1054.57 337.79C1061.75 333.907 1068.94 330.015 1076.14 326.116C1132.49 295.58 1186.26 277.649 1238.27 260.309C1260.28 252.969 1281.07 246.042 1301.2 238.411C1348.54 220.473 1384.79 194.691 1423.18 167.395C1431.49 161.477 1440.09 155.362 1448.81 149.335C1475.45 130.91 1495.39 99.79 1511.39 71.782C1522.16 53.0748 1531.94 32.4113 1542.3 10.5324C1547.58 -0.61268 1553.03 -12.1321 1558.61 -23.3281C1575.75 -57.7855 1600.16 -100.974 1637.15 -129.346C1659.52 -146.337 1686.87 -157.316 1720.77 -162.917C1752.1 -168.092 1786.29 -168.18 1813.77 -168.253L1813.93 -167.8C1754.99 -167.646 1688.18 -167.471 1637.47 -128.942C1600.51 -100.601 1576.12 -57.4409 1558.99 -23.0061C1553.42 -11.8081 1547.96 -0.286508 1542.68 10.8525C1532.32 32.7374 1522.53 53.405 1511.76 72.1204C1497.77 96.6269 1480.74 123.513 1458.86 142.216L1458.85 142.214Z" fill="white" stroke="white"/>
<path d="M1385.53 193.872C1356.82 218.404 1327.79 237.716 1295.81 253.843C1266.28 268.732 1234.65 281.685 1201.16 295.404C1160.46 312.077 1118.37 329.319 1074.71 352.115C1045.02 367.617 1014.79 382.874 985.545 397.623C970.368 405.28 954.673 413.201 939.37 420.995C868.028 457.188 798.225 493.649 738.395 524.977C661.189 565.406 590.43 606.728 522.075 651.295C487.971 673.564 453.328 697.382 416.172 724.116C353.934 769.25 292.624 812.735 226.927 848.634C196.258 865.394 160.116 885.43 124.614 906.994C89.8433 928.198 60.1178 948.597 33.736 969.361C-32.9145 1021.84 -85.0963 1078.66 -125.795 1143.07C-171.937 1216.13 -204.74 1304.52 -233.313 1389.16L-233.707 1388.87C-205.127 1304.21 -172.317 1215.81 -126.163 1142.72C-104.465 1108.38 -80.2055 1077.02 -52.0042 1046.86C-26.6428 1019.73 1.30079 994.243 33.4191 968.953C59.8094 948.189 89.5394 927.78 124.322 906.573C159.826 885.007 195.967 864.965 226.642 848.207C292.332 812.314 353.633 768.835 415.866 723.706C453.025 696.97 487.667 673.145 521.777 650.878C590.14 606.305 660.905 564.985 738.118 524.55C797.951 493.219 867.754 456.759 939.097 420.566C954.4 412.771 970.091 404.853 985.271 397.194C1014.51 382.445 1044.74 367.188 1074.44 351.686C1118.1 328.883 1160.2 311.644 1200.91 294.966C1234.39 281.25 1266.02 268.295 1295.54 253.412C1346.41 227.76 1389.83 194.034 1436.32 144.064C1458.25 120.483 1477.85 92.2117 1494.58 60.0367C1503.4 43.1796 1511.57 25.059 1520.22 5.87467C1526.54 -8.15096 1533.07 -22.6511 1539.91 -36.6676C1564.86 -87.8685 1589.32 -120.211 1619.24 -141.542C1642.26 -157.811 1670.56 -167.458 1705.76 -171.038C1738.32 -174.352 1773.85 -172.139 1802.4 -170.363L1802.54 -169.914C1741.24 -173.726 1671.77 -178.047 1619.55 -141.133C1589.66 -119.827 1565.22 -87.5097 1540.3 -36.3457C1533.46 -22.3313 1526.93 -7.83104 1520.6 6.18851C1511.95 25.3749 1503.78 43.4975 1494.96 60.3628C1478.22 92.5582 1458.61 120.85 1436.66 144.445C1419.38 163.025 1402.51 179.36 1385.54 193.87L1385.53 193.872Z" fill="white" stroke="white"/>
<path d="M1337.65 233.636C1322.37 246.696 1306.67 258.297 1290.15 268.835C1248.96 295.106 1202.62 316.564 1153.57 339.285C1127.47 351.373 1100.49 363.873 1073 377.682C1027.27 400.651 980.359 422.053 934.987 442.749L919.1 449.974C855.72 478.788 790.181 508.586 726.572 537.627C639.143 578.043 567.691 615.006 501.71 653.949C465.796 675.167 429.113 698.39 392.68 722.979C379.651 731.83 366.421 740.879 353.622 749.627C304.908 782.942 254.534 817.393 204.094 848.47C166.599 871.57 134.229 892.904 105.13 913.689C72.6039 936.989 44.1102 959.955 18.0257 983.91C-43.8847 1040.78 -93.3695 1101.68 -133.258 1170.08C-178.432 1247.58 -211.48 1339.07 -237.854 1418.34L-238.251 1418.05C-211.875 1338.77 -178.819 1247.26 -133.634 1169.75C-93.7326 1101.32 -44.2321 1040.41 17.6936 983.52C43.7859 959.559 72.2816 936.585 104.819 913.283C133.923 892.494 166.296 871.158 203.799 848.058C254.239 816.986 304.608 782.533 353.319 749.221C366.115 740.469 379.345 731.42 392.377 722.573C428.813 697.981 465.501 674.754 501.418 653.534C567.408 614.591 638.865 577.624 726.301 537.201C789.91 508.16 855.45 478.363 918.829 449.549L934.719 442.327C980.086 421.63 1027 400.23 1072.72 377.263C1100.21 363.452 1127.2 350.952 1153.3 338.862C1202.35 316.146 1248.67 294.687 1289.85 268.426C1338.18 237.607 1379.5 197.626 1423.81 138.802C1443.77 112.308 1461.92 81.8621 1477.75 48.3009C1484.74 33.5504 1491.33 18.086 1498.3 1.71169C1505.58 -15.3681 1513.1 -33.0325 1521.2 -49.9875C1532.44 -73.5596 1543.61 -92.7685 1555.35 -108.7C1569.46 -127.864 1584.49 -142.591 1601.31 -153.716C1624.97 -169.265 1654.22 -177.585 1690.73 -179.142C1722 -180.477 1754.64 -176.907 1791 -172.461L1791.13 -172.01C1727.48 -179.796 1655.34 -188.616 1601.61 -153.301C1570.7 -132.845 1546.01 -100.882 1521.58 -49.6634C1513.48 -32.7126 1505.96 -15.0542 1498.69 2.02552C1491.72 18.4059 1485.13 33.8724 1478.13 48.6249C1462.29 82.1985 1444.14 112.659 1424.17 139.167C1394.98 177.908 1367.09 208.486 1337.65 233.651L1337.65 233.636Z" fill="white" stroke="white"/>
<path d="M1298.5 272.367C1293.9 276.296 1289.24 280.111 1284.5 283.829C1227.54 328.031 1159.4 360.833 1087.26 395.557C1081.96 398.108 1076.64 400.676 1071.29 403.258C1023.67 426.241 975.537 446.281 930.615 464.513C884.647 483.125 837.998 501.543 792.886 519.351C767.24 529.475 740.722 539.947 714.759 550.281C621.023 587.951 546.855 621.737 481.357 656.608C443.546 676.752 405.81 698.701 369.199 721.847C309.644 759.667 250.856 800.263 193.999 839.521L181.274 848.309C146.218 872.505 114.938 896.081 85.651 920.381C55.1885 945.703 27.9332 971.244 2.32611 998.457C-54.6728 1059.04 -101.461 1124.02 -140.717 1197.1C-185.281 1280.09 -218.46 1374.51 -242.384 1447.51L-242.781 1447.22C-218.851 1374.22 -185.669 1279.77 -141.092 1196.77C-101.829 1123.67 -55.0281 1058.68 1.98318 998.076C27.5983 970.856 54.8616 945.309 85.3293 919.983C114.624 895.677 145.909 872.097 180.968 847.899L193.693 839.111C250.547 799.848 309.34 759.248 368.901 721.43C405.52 698.284 443.256 676.329 481.075 656.185C546.582 621.314 620.755 587.523 714.499 549.847C740.462 539.513 766.98 529.042 792.626 518.918C837.74 501.108 884.389 482.69 930.355 464.08C975.275 445.85 1023.4 425.807 1071.01 402.831C1076.36 400.249 1081.69 397.685 1086.99 395.13C1159.11 360.41 1227.24 327.616 1284.18 283.425C1330.84 246.821 1370.06 200.594 1411.32 133.522C1429.12 104.595 1445.81 71.9711 1460.93 36.5495C1466.23 24.1722 1471.29 11.4689 1476.66 -1.97849C1484.76 -22.3017 1493.14 -43.3179 1502.49 -63.329C1513.52 -86.9389 1524.67 -106.127 1536.56 -121.994C1550.79 -140.952 1566.1 -155.321 1583.39 -165.919C1607.69 -180.751 1637.89 -187.735 1675.7 -187.271C1708.17 -186.874 1741.97 -181.29 1779.62 -174.579L1779.72 -174.131C1713.74 -185.89 1638.95 -199.22 1583.68 -165.501C1552.19 -146.193 1526.51 -113.629 1502.87 -63.011C1493.52 -43.008 1485.15 -21.9939 1477.05 -1.67276C1471.69 11.7786 1466.62 24.484 1461.31 36.8633C1446.19 72.2931 1429.49 104.931 1411.69 133.869C1374.6 194.15 1339.17 237.61 1298.49 272.371L1298.5 272.367Z" fill="white" stroke="white"/>
<path d="M1263.73 312.297C1205.15 362.363 1136.05 397.875 1069.58 428.833C1028.79 447.598 983.242 465.851 926.24 486.273C877.684 503.646 828.042 520.447 780.036 536.697C754.733 545.261 728.571 554.118 702.939 562.929C634.856 586.464 545.828 618.684 460.997 659.258C421.489 678.159 382.702 698.832 345.712 720.707C284.263 757.126 221.259 800.003 158.446 848.141C124.593 874.289 94.4044 900.106 66.1664 927.071C37.998 953.994 11.2327 982.906 -13.3849 1013C-64.5617 1075.57 -109.913 1146.6 -148.181 1224.11C-182.085 1292.79 -213.461 1373.04 -246.926 1476.68L-247.323 1476.4C-213.855 1372.74 -182.472 1292.48 -148.563 1223.78C-110.288 1146.26 -64.9217 1075.21 -13.735 1012.63C10.8875 982.527 37.6579 953.61 65.8342 926.681C94.0799 899.71 124.271 873.885 158.129 847.733C220.95 799.589 283.962 756.705 345.416 720.282C382.414 698.407 421.207 677.73 460.72 658.825C545.565 618.247 634.601 586.026 702.689 562.487C728.318 553.672 754.484 544.819 779.786 536.255C827.792 520.005 877.431 503.201 925.985 485.829C982.975 465.409 1028.52 447.158 1069.3 428.398C1141.58 394.741 1216.94 355.702 1278.52 298.43C1323.62 256.266 1360.73 203.779 1398.84 128.248C1414.35 97.5086 1429.16 63.6707 1444.12 24.8039C1447.87 15.064 1451.5 5.25691 1455.33 -5.13041C1464.11 -28.9045 1473.19 -53.4855 1483.79 -76.6626C1507.01 -127.441 1532.96 -159.676 1565.47 -178.107C1590.43 -192.221 1621.57 -197.871 1660.68 -195.388C1694.37 -193.25 1729.32 -185.654 1768.24 -176.687L1768.33 -176.243C1700.01 -191.984 1622.59 -209.819 1565.76 -177.684C1533.3 -159.274 1507.37 -127.076 1484.17 -76.3447C1473.57 -53.1778 1464.5 -28.5988 1455.72 -4.83287C1451.89 5.55651 1448.26 15.3677 1444.5 25.1056C1429.55 63.9765 1414.73 97.8246 1399.21 128.572C1381.38 163.917 1363.94 193.838 1345.89 220.04C1324.93 250.462 1303 276.234 1278.84 298.82C1273.89 303.425 1268.85 307.915 1263.73 312.295L1263.73 312.297Z" fill="white" stroke="white"/>
<path d="M1229.92 355.649C1196.4 384.295 1157.68 409.824 1112.79 432.957C1061.21 459.533 1000.55 483.393 921.866 508.033C871.879 523.686 820.418 538.407 770.647 552.64C660.146 584.245 545.884 616.927 440.64 661.912C282.663 729.439 150.119 820.903 46.6821 933.766C-76.3907 1068.06 -168.343 1244.5 -251.462 1505.86L-251.858 1505.58C-213.262 1384.23 -173.377 1282.92 -129.914 1195.87C-78.131 1092.16 -20.4788 1006.3 46.3423 933.388C99.3463 875.555 160.462 822.885 227.982 776.845C292.083 733.137 363.543 694.324 440.377 661.481C545.635 616.491 659.904 583.804 770.414 552.198C820.18 537.964 871.643 523.246 921.624 507.591C1042.15 469.845 1178.13 417.257 1272.86 313.44C1348.18 230.886 1390.46 119.785 1427.31 13.0638C1429.67 6.22362 1432.07 -0.875286 1434.39 -7.74344C1446.57 -43.7507 1459.16 -80.9873 1476.62 -113.591C1496.42 -150.594 1519.63 -175.684 1547.57 -190.294C1573.17 -203.688 1605.26 -208.008 1645.68 -203.5C1680.58 -199.61 1716.69 -190.004 1756.88 -178.787L1756.94 -178.347C1689.81 -197.086 1606.25 -220.409 1547.85 -189.867C1485.44 -157.224 1458.54 -77.6551 1434.79 -7.4522C1432.47 -0.584043 1430.07 6.521 1427.71 13.3612C1390.85 120.109 1348.57 231.236 1273.2 313.823C1259.83 328.479 1245.43 342.4 1229.93 355.655L1229.92 355.649Z" fill="white" stroke="white"/>
</g>
</g>
</g>
<defs>
<clipPath id="clip0_192_90">
<rect width="1440" height="810" fill="white"/>
</clipPath>
<clipPath id="clip1_192_90">
<rect width="3054.67" height="1285.65" fill="white" transform="matrix(0.785902 -0.618351 -0.618351 -0.785902 -194.018 2216.25)"/>
</clipPath>
</defs>
</svg>
