<svg width="1440" height="810" viewBox="0 0 1440 810" fill="none" xmlns="http://www.w3.org/2000/svg">
<g clip-path="url(#clip0_192_445)">
<g opacity="0.3" clip-path="url(#clip1_192_445)">
<path d="M1103.24 87.2679C1198.83 130.244 1306.73 162.805 1431.68 186.461C1561.61 211.058 1698.19 223.644 1816.02 233.51C1958.54 245.445 2105.92 257.785 2226.06 333.646C2277.18 365.923 2321.42 408.956 2364.21 450.575C2384.05 469.865 2404.56 489.812 2425.51 508.467C2463.58 542.354 2499.44 567.71 2535.13 585.991C2540.58 588.781 2546.01 591.4 2551.44 593.838C2588.98 610.714 2626.08 619.25 2661.96 619.231L2661.96 616.002C2587.46 616.031 2510.82 580.065 2427.66 506.046C2406.75 487.436 2386.27 467.515 2366.46 448.25C2323.56 406.517 2279.19 363.36 2227.79 330.907C2106.98 254.627 1959.2 242.256 1816.29 230.285C1550.95 208.065 1294.05 178.853 1067.84 66.9912C865.862 -32.8969 644.14 -239.79 627.591 -520.893C618.001 -683.78 680.719 -840.57 741.371 -992.201C770.521 -1065.07 800.658 -1140.42 822.507 -1215.67C847.039 -1300.16 858.243 -1375.48 856.774 -1445.94C855.66 -1499.47 846.473 -1553.3 829.487 -1605.94C812.895 -1657.35 789.19 -1706.63 759.034 -1752.4C728.878 -1798.18 692.958 -1839.41 652.271 -1874.95C610.615 -1911.33 564.78 -1941.01 516.038 -1963.17C467.29 -1985.33 414.794 -2000.34 359.99 -2007.81C306.462 -2015.09 251.78 -2015.05 197.462 -2007.67C143.146 -2000.3 90.4282 -1985.76 40.7856 -1964.45C-10.0399 -1942.65 -56.6354 -1914.17 -97.7056 -1879.81L-95.638 -1877.34C70.7102 -2016.5 314.903 -2050.06 512.665 -1961.15C513.352 -1960.84 514.009 -1960.54 514.697 -1960.23C712.827 -1870.16 848.995 -1663.46 853.542 -1445.87C856.809 -1289.5 796.595 -1138.97 738.368 -993.401C707.98 -917.43 676.561 -838.875 654.586 -760.513C629.928 -672.563 620.042 -594.121 624.363 -520.709C628.031 -458.39 642.501 -396.192 667.37 -335.857C690.841 -278.906 723.527 -223.669 764.506 -171.669C803.651 -122.004 849.935 -75.8093 902.063 -34.3613C952.802 5.97273 1008.09 41.0476 1066.4 69.8829C1078.47 75.8541 1090.75 81.6444 1103.23 87.2556L1103.24 87.2679Z" fill="white"/>
<path d="M1102.11 103.233C1169.95 133.739 1247.71 156.23 1338.53 171.698C1439.37 188.86 1542.09 195.19 1629.27 199.113C1655.63 200.306 1682.69 201.348 1708.85 202.355C1750.52 203.957 1793.6 205.616 1836.1 207.967C1871.66 209.909 1900.76 212.164 1927.68 215.065C2001.84 223.044 2066.45 236.503 2125.21 256.213C2175.63 273.099 2219.21 293.806 2258.45 319.527C2312.42 354.91 2359.33 401.28 2404.7 446.12C2423.93 465.115 2443.8 484.763 2463.96 503.317C2549.12 581.716 2626.61 622.967 2700.88 629.421L2701.14 626.358C2627.59 619.961 2550.68 578.974 2466.04 501.05C2445.93 482.537 2426.08 462.909 2406.87 443.932C2361.39 398.985 2314.36 352.509 2260.14 316.956C2220.68 291.091 2176.87 270.27 2126.2 253.298C2067.22 233.517 2002.4 220.01 1928.02 212.009C1901.04 209.106 1871.9 206.843 1836.28 204.902C1793.75 202.548 1750.66 200.891 1708.97 199.288C1682.82 198.285 1655.77 197.24 1629.41 196.045C1542.32 192.124 1439.72 185.805 1339.05 168.672C1232.5 150.523 1143.98 122.685 1068.45 83.5688C1012.39 54.5339 959.072 17.6652 910.003 -26.0035C862.427 -68.3348 819.929 -116.014 783.69 -167.713C706.085 -278.145 661.323 -402.157 654.242 -526.358C653.165 -545.22 652.887 -564.704 653.405 -584.272C657.038 -721.71 698.321 -853.735 738.244 -981.415C741.175 -990.79 744.098 -1000.14 746.996 -1009.46C768.271 -1077.95 790.268 -1148.77 804.586 -1218.9C820.498 -1296.82 824.874 -1363 818.356 -1427.19C815.793 -1452.91 811.077 -1478.97 804.345 -1504.66C782.308 -1588.31 738.631 -1668.15 678.035 -1735.53C616.179 -1804.31 539.002 -1857.31 454.859 -1888.79C405.62 -1907.21 352.963 -1918.71 298.334 -1922.97C244.723 -1927.15 190.17 -1924.29 136.196 -1914.48C82.0099 -1904.62 29.484 -1887.94 -19.9273 -1864.92C-70.6255 -1841.29 -117.216 -1811.33 -158.4 -1775.89L-156.395 -1773.57C8.61829 -1915.58 253.835 -1960.73 453.792 -1885.92C622.782 -1822.69 755.964 -1676.3 801.383 -1503.88C808.077 -1478.35 812.761 -1452.45 815.309 -1426.89C829.627 -1285.82 788.068 -1152.03 744.072 -1010.38C741.175 -1001.06 738.255 -991.719 735.318 -982.347C695.334 -854.47 653.984 -722.237 650.341 -584.366C649.825 -564.713 650.103 -545.145 651.187 -526.195C654.842 -462.111 668.315 -398.149 691.243 -336.079C713.007 -277.158 743.268 -219.916 781.186 -165.961C817.56 -114.065 860.222 -66.2088 907.975 -23.7228C957.235 20.1164 1010.76 57.1279 1067.05 86.2818C1078.44 92.1807 1090.14 97.8268 1102.13 103.218L1102.11 103.233Z" fill="white"/>
<path d="M1102.6 119.941C1171.51 150.918 1252.65 170.513 1349.3 179.609C1444.22 188.516 1535.07 187.088 1643.97 184.288C1649.65 184.145 1655.35 184.001 1661.06 183.85C1724.64 182.214 1790.37 180.521 1856.19 182.415C1891.23 183.382 1922.32 185.423 1951.22 188.648C2022.28 196.579 2090.65 212.632 2154.45 236.361C2205.87 255.445 2250.49 278.03 2290.83 305.405C2347.93 344.156 2397.76 394.164 2445.94 442.523C2464.3 460.95 2483.29 480.006 2502.4 498.158C2542.12 535.889 2578.76 565.207 2614.41 587.787C2657.5 615.091 2699.7 632.518 2739.8 639.59L2740.31 636.714C2667.77 623.931 2590.61 577.914 2504.42 496.044C2485.34 477.918 2466.36 458.878 2448.01 440.467C2399.73 392.009 2349.8 341.899 2292.47 302.991C2251.93 275.486 2207.11 252.795 2155.46 233.628C2091.44 209.815 2022.83 193.71 1951.54 185.751C1922.56 182.517 1891.39 180.471 1856.27 179.501C1790.37 177.611 1724.59 179.3 1660.98 180.935C1655.27 181.081 1649.57 181.228 1643.88 181.373C1535.08 184.17 1444.32 185.6 1349.56 176.711C1236.46 166.066 1144.71 141.017 1069.04 100.138C1013.83 70.3044 961.768 31.1004 914.301 -16.3839C870.659 -60.0327 831.531 -109.922 797.999 -164.673C728.392 -277.743 687.892 -404.696 680.875 -531.828C679.819 -550.934 679.442 -570.76 679.749 -590.761C681.696 -718.079 709.122 -839.583 735.645 -957.091C740.444 -978.37 744.984 -998.466 749.405 -1018.75C765.682 -1093.68 778.677 -1155.94 785.47 -1218.09C793.302 -1289.68 791.53 -1350.17 779.906 -1408.46C775.37 -1431.66 768.813 -1455.15 760.417 -1478.26C732.68 -1553.96 684.76 -1625 621.819 -1683.72C556.804 -1744.36 477.91 -1789.56 393.663 -1814.41C343.931 -1829.09 291.111 -1837.06 236.661 -1838.14C182.966 -1839.19 128.542 -1833.52 74.9028 -1821.28C-35.5217 -1796.08 -137.198 -1744.45 -219.135 -1671.97L-217.201 -1669.78C-51.473 -1816.38 187.977 -1872.05 392.832 -1811.61C560.429 -1762.17 700.235 -1634.06 757.673 -1477.26C766.02 -1454.3 772.537 -1430.96 777.044 -1407.89C802.852 -1278.53 775.502 -1152.65 746.551 -1019.38C742.131 -999.111 737.594 -979.02 732.799 -957.747C706.24 -840.095 678.783 -718.442 676.835 -590.815C676.525 -570.747 676.905 -550.852 677.962 -531.676C681.57 -466.348 693.816 -401.18 714.364 -337.978C734.036 -277.483 761.334 -218.666 795.51 -163.154C829.162 -108.216 868.432 -58.1405 912.239 -14.3293C959.899 33.3576 1012.19 72.7325 1067.66 102.698C1078.94 108.791 1090.59 114.548 1102.6 119.943L1102.6 119.941Z" fill="white"/>
<path d="M1103.98 137.081C1174.57 168.817 1258.8 185.36 1360.04 187.512C1450.28 189.392 1536.85 181.102 1628.5 172.327C1638.51 171.371 1648.56 170.404 1658.65 169.452C1728.27 162.923 1802.43 156.574 1876.27 156.86C1911.96 156.946 1944.18 158.706 1974.75 162.236C2044.7 170.304 2115 188.563 2183.68 216.512C2236.1 237.783 2281.75 262.242 2323.22 291.28C2383.78 333.71 2436.81 387.73 2488.08 439.972C2505.28 457.494 2523.06 475.614 2540.85 493.005C2581.46 532.718 2618.5 564.014 2654.07 588.689C2697.8 619.033 2738.59 639.001 2778.75 649.75L2779.46 647.077C2707.05 627.703 2631.85 578.114 2542.79 491.032C2525.02 473.663 2507.25 455.555 2490.06 438.041C2438.7 385.707 2385.58 331.595 2324.82 289.019C2283.17 259.857 2237.34 235.302 2184.72 213.949C2115.8 185.907 2045.27 167.583 1975.07 159.49C1944.38 155.947 1912.07 154.184 1876.27 154.095C1802.3 153.809 1728.08 160.166 1658.39 166.698C1648.3 167.653 1638.24 168.614 1628.23 169.573C1536.67 178.341 1450.18 186.623 1360.1 184.747C1241.68 182.237 1146.67 159.974 1069.65 116.688C1014.89 85.9136 964.081 44.3686 918.62 -6.78839C878.267 -52.1828 843.493 -102.843 812.321 -161.654C750.738 -276.975 714.498 -406.87 707.526 -537.307C706.492 -556.62 706.02 -576.784 706.118 -597.256C706.616 -708.276 721.927 -814.627 736.734 -917.469C742.285 -956.042 747.53 -992.471 751.821 -1028.04C768.004 -1163.53 777.509 -1276.2 741.468 -1389.72C734.673 -1411.13 726.27 -1432.04 716.496 -1451.86C683.133 -1519.53 630.994 -1581.8 565.719 -1631.95C497.53 -1684.34 416.879 -1721.71 332.487 -1740.02C231.792 -1761.87 121.542 -1757.75 13.6387 -1728.08C-96.3987 -1697.83 -197.884 -1642.49 -279.842 -1568.04L-277.978 -1565.99C-114.039 -1714.89 125.359 -1782.14 331.901 -1737.31C498.202 -1701.22 644.624 -1591.36 714.018 -1450.63C723.728 -1430.94 732.079 -1410.16 738.833 -1388.88C774.707 -1275.88 765.214 -1163.52 749.078 -1028.36C744.799 -992.822 739.552 -956.402 734 -917.852C719.178 -814.912 703.856 -708.47 703.352 -597.256C703.257 -576.738 703.735 -556.51 704.767 -537.145C708.333 -470.471 719.356 -404.095 737.528 -339.865C755.115 -277.708 779.46 -217.31 809.881 -160.34C841.152 -101.331 876.047 -50.4983 916.553 -4.93383C962.218 46.4556 1013.28 88.1904 1068.3 119.119C1079.79 125.574 1091.68 131.573 1103.99 137.105L1103.98 137.081Z" fill="white"/>
<path d="M1104.87 153.951C1139.06 169.325 1176.91 180.598 1217.87 187.589C1264.03 195.464 1315.47 198.094 1370.77 195.408C1453.45 191.347 1531.68 178.23 1614.51 164.345C1633.7 161.128 1653.53 157.805 1673.31 154.617C1743.28 143.407 1818.73 132.815 1896.33 131.309C1932.9 130.537 1966.25 132.012 1998.29 135.824C2067.77 144.076 2139.99 164.547 2212.93 196.665C2266.33 220.109 2313 246.437 2355.62 277.158C2420.06 323.649 2476.62 382.145 2531.33 438.72C2546.99 454.923 2563.19 471.675 2579.3 487.857C2670.44 579.41 2746.19 634.08 2817.71 659.904L2818.6 657.444C2747.46 631.758 2672.01 577.285 2581.16 486.015C2565.06 469.844 2548.87 453.101 2533.21 436.91C2478.43 380.255 2421.78 321.671 2357.15 275.048C2314.38 244.217 2267.55 217.8 2213.98 194.278C2140.8 162.051 2068.34 141.514 1998.6 133.234C1966.44 129.408 1932.97 127.923 1896.28 128.701C1818.51 130.208 1742.96 140.807 1672.9 152.038C1653.11 155.219 1633.27 158.554 1614.08 161.771C1531.34 175.645 1453.18 188.755 1370.65 192.803C1249.23 198.708 1148.17 178.67 1070.26 133.252C1015.67 101.433 966.107 57.5495 922.925 2.81968C886.334 -43.5283 854.842 -96.3398 826.637 -158.626C772.339 -277.319 741.236 -406.563 734.182 -542.779C733.175 -562.234 732.607 -582.745 732.481 -603.741C731.955 -692.588 738.274 -778.835 744.386 -862.241C748.934 -924.329 753.231 -982.965 754.224 -1037.33C756.533 -1174.76 748.894 -1273.42 703.002 -1371.01C694.015 -1390.11 683.774 -1408.43 672.553 -1425.46C633.315 -1485.04 576.943 -1538.53 509.536 -1580.15C474.634 -1601.7 437.119 -1619.84 398.022 -1634.08C357.171 -1648.96 314.547 -1659.57 271.319 -1665.64C169.496 -1679.92 59.2139 -1669.29 -47.6103 -1634.9C-157.239 -1599.6 -258.533 -1540.56 -340.549 -1464.14L-338.768 -1462.22C-174.016 -1615.73 59.6204 -1692.69 270.952 -1663.04C435.41 -1639.97 588.456 -1548.38 670.369 -1424.02C681.518 -1407.09 691.696 -1388.88 700.632 -1369.89C746.311 -1272.77 753.908 -1174.43 751.608 -1037.38C750.616 -983.085 746.324 -924.483 741.777 -862.433C735.663 -778.975 729.337 -692.679 729.865 -603.725C729.99 -582.692 730.558 -562.143 731.566 -542.641C735.098 -474.473 744.89 -406.887 760.686 -341.765C776.2 -277.818 797.583 -215.836 824.252 -157.535C852.535 -95.0568 884.14 -42.0703 920.866 4.45185C964.254 59.4375 1014.07 103.538 1068.94 135.529C1080.42 142.218 1092.4 148.373 1104.87 153.978L1104.87 153.951Z" fill="white"/>
<path d="M1106.69 171.328C1181.58 204.996 1273.78 215.748 1381.49 203.295C1459.5 194.235 1532.42 176.729 1609.62 158.194C1635.12 152.074 1661.49 145.738 1687.96 139.767C1750.31 125.745 1832.62 109.211 1916.39 105.749C1953.94 104.13 1988.43 105.327 2021.81 109.409C2092.26 118.005 2164.34 140.054 2242.18 176.818C2296.54 202.415 2344.24 230.618 2388.01 263.043C2456.86 314.079 2517.41 377.635 2575.95 439.101C2589.62 453.453 2603.76 468.289 2617.75 482.704C2660.37 526.606 2698.19 561.867 2733.4 590.498C2777.28 626.176 2817.61 652.2 2856.69 670.051L2857.72 667.811C2766.16 625.988 2677.93 541.16 2619.53 480.989C2605.55 466.581 2591.42 451.748 2577.75 437.405C2519.13 375.862 2458.51 312.231 2389.49 261.067C2345.59 228.546 2297.75 200.263 2243.24 174.593C2165.17 137.712 2092.84 115.595 2022.12 106.964C1988.6 102.867 1953.98 101.663 1916.3 103.288C1832.33 106.753 1749.88 123.32 1687.43 137.363C1660.94 143.341 1634.56 149.67 1609.05 155.798C1531.92 174.316 1459.07 191.805 1381.21 200.844C1255.51 215.375 1151.1 198.204 1070.85 149.793C1016.23 116.848 967.905 70.6216 927.209 12.4009C894.148 -34.869 866.727 -88.262 840.929 -155.632C794.799 -276.109 767.845 -408.213 760.821 -548.273C759.834 -568.02 759.182 -588.295 758.834 -610.246C757.846 -671.996 758.961 -733.063 760.042 -792.122C761.726 -884.235 763.315 -971.24 756.593 -1046.63C750.29 -1115.97 741.161 -1169.66 727.866 -1215.6C713.192 -1266.31 693.055 -1309.74 664.485 -1352.29C653.237 -1369.05 641.15 -1384.79 628.575 -1399.07C583.314 -1450.45 522.712 -1495.16 453.324 -1528.36C416.903 -1545.78 378.29 -1559.94 338.537 -1570.42C296.785 -1581.43 253.586 -1588.44 210.142 -1591.25C107.208 -1597.91 -3.10822 -1580.78 -108.877 -1541.72C-218.076 -1501.4 -319.185 -1438.65 -401.269 -1360.25L-399.567 -1358.47C-236.407 -1514.3 -2.84046 -1602.55 209.981 -1588.79C374.779 -1578.13 530.576 -1506.6 626.725 -1397.44C639.235 -1383.24 651.248 -1367.59 662.438 -1350.92C723.882 -1259.4 743.533 -1163 754.13 -1046.42C760.844 -971.164 759.25 -884.224 757.568 -792.177C756.488 -733.095 755.369 -672.008 756.361 -610.217C756.712 -588.234 757.357 -567.933 758.35 -548.161C761.842 -478.479 770.45 -409.698 783.936 -343.728C797.362 -278.03 815.76 -214.448 838.619 -154.761C864.492 -87.1928 891.994 -33.6362 925.179 13.8013C966.073 72.303 1014.65 118.769 1069.56 151.894C1081.42 159.045 1093.79 165.521 1106.68 171.316L1106.69 171.328Z" fill="white"/>
<path d="M1107.97 188.404C1144.25 204.717 1184.92 215.137 1229.41 219.478C1279.59 224.379 1334.36 221.588 1392.2 211.186C1467.3 197.639 1536.72 175.971 1610.22 153.026C1640.23 143.662 1671.26 133.974 1702.6 124.927C1760.12 108.379 1846.95 85.7357 1936.45 80.2032C1974.51 77.7779 2011.15 78.7234 2045.35 83.0056C2116.11 91.8549 2190.07 116.051 2271.44 156.988C2326.74 184.724 2375.47 214.796 2420.41 248.936C2494.33 305.129 2559.4 374.496 2622.32 441.579C2633.42 453.402 2644.88 465.632 2656.2 477.571C2721.16 546.101 2807.09 631.068 2895.68 680.214L2896.8 678.194C2808.49 629.204 2722.73 544.393 2657.88 475.986C2646.57 464.051 2635.1 451.83 2624.01 440.007C2561.03 372.854 2495.89 303.414 2421.81 247.103C2376.76 212.878 2327.9 182.731 2272.48 154.932C2190.87 113.879 2116.67 89.6085 2045.64 80.7239C2011.3 76.4234 1974.51 75.4727 1936.31 77.9119C1846.58 83.4615 1759.59 106.143 1701.96 122.722C1670.6 131.775 1639.55 141.461 1609.53 150.833C1536.1 173.752 1466.74 195.4 1391.78 208.922C1302.58 224.972 1174.59 230.618 1071.44 166.367C1017.4 132.706 969.007 82.7939 931.481 22.012C901.482 -26.5374 877.968 -80.3933 855.211 -152.609C817.341 -272.82 794.545 -407.784 787.464 -553.737C786.515 -573.225 785.775 -593.827 785.19 -616.719C784.407 -647.106 783.851 -677.702 783.307 -707.297C780.952 -836.289 778.725 -958.126 758.955 -1055.9C745.826 -1120.21 729.848 -1170.68 708.676 -1214.74C687.708 -1258.38 661.421 -1296.12 625.966 -1333.54C612.183 -1348.07 598.655 -1360.86 584.591 -1372.63C533.161 -1415.68 468.328 -1451.61 397.109 -1476.53C318.279 -1504.11 234.799 -1517.67 148.988 -1516.83C44.9647 -1515.81 -65.3856 -1492.19 -170.122 -1448.53C-223.567 -1426.24 -275.183 -1398.91 -323.544 -1367.29C-373.565 -1334.59 -420.144 -1297.25 -461.982 -1256.33L-460.365 -1254.67C-296.216 -1415.25 -68.4142 -1512.39 149.007 -1514.52C311.448 -1516.11 473.726 -1462.4 583.104 -1370.85C597.093 -1359.15 610.564 -1346.42 624.281 -1331.95C693.943 -1258.45 731.064 -1180.93 756.682 -1055.44C776.406 -957.881 778.628 -836.146 780.984 -707.266C781.523 -677.674 782.081 -647.07 782.867 -616.674C783.447 -593.762 784.191 -573.143 785.138 -553.64C792.234 -407.489 815.062 -272.331 852.99 -151.933C875.797 -79.5268 899.396 -25.5128 929.492 23.2103C947.464 52.3218 967.907 79.0243 990.251 102.581C1014.78 128.436 1041.67 150.547 1070.19 168.312C1082.18 175.776 1094.77 182.48 1107.94 188.396L1107.97 188.404Z" fill="white"/>
<path d="M1109.62 205.688C1146.93 222.46 1188.97 232.438 1235.15 235.43C1287.48 238.824 1343.91 233.318 1402.88 219.07C1476.2 201.316 1543.29 175.595 1614.32 148.357C1647.68 135.567 1682.18 122.334 1717.23 110.088C1809.03 78.0714 1885.06 60.455 1956.52 54.6533C1995.64 51.4044 2033.44 52.0577 2068.9 56.5961C2141.22 65.8447 2214.88 91.4368 2300.71 137.145C2356.93 166.996 2406.69 198.944 2452.82 234.817C2532.69 296.972 2602.98 373.128 2670.96 446.777C2678.87 455.34 2686.76 463.896 2694.67 472.421C2765.53 548.854 2849.47 634.518 2934.71 690.364L2935.89 688.555C2850.84 632.843 2767.03 547.29 2696.25 470.957C2688.35 462.432 2680.45 453.877 2672.55 445.314C2604.51 371.599 2534.15 295.382 2454.14 233.116C2407.91 197.165 2358.05 165.147 2301.71 135.243C2215.64 89.4086 2141.75 63.7405 2069.16 54.4566C2033.56 49.8966 1995.6 49.2381 1956.34 52.5029C1884.7 58.3202 1808.5 75.9678 1716.51 108.055C1681.43 120.319 1646.92 133.554 1613.54 146.348C1542.58 173.551 1475.55 199.252 1402.37 216.975C1310.47 239.181 1178.57 251.301 1072.03 182.917C1017.68 148.033 970.565 95.7033 935.759 31.5904C901.749 -31.0009 883.178 -95.1362 869.503 -149.616C839.587 -268.779 821.467 -402.763 814.116 -559.216C813.236 -577.881 812.448 -597.618 811.556 -623.208C808.514 -709.78 805.424 -787.464 798.43 -861.493C790.482 -945.528 778.348 -1012.14 761.325 -1065.15C742.012 -1124.86 718.52 -1173.51 689.498 -1213.87C662.89 -1250.87 630.464 -1282.92 587.439 -1314.75C571.245 -1326.72 555.928 -1337 540.618 -1346.16C482.874 -1380.69 413.819 -1407.85 340.908 -1424.67C258.917 -1443.58 173.78 -1449.55 87.8617 -1442.41C-17.2222 -1433.67 -127.597 -1403.56 -231.345 -1355.33C-284.618 -1330.56 -336.055 -1301.1 -384.236 -1267.76C-434.11 -1233.26 -480.685 -1194.44 -522.673 -1152.41L-521.144 -1150.89C-358.323 -1313.9 -130.59 -1422.08 88.0383 -1440.26C250.437 -1453.77 414.99 -1418.79 539.505 -1344.3C554.755 -1335.18 570.012 -1324.94 586.155 -1313.01C673.877 -1248.12 722.414 -1178.45 759.271 -1064.48C798.148 -943.424 804.125 -773.263 809.4 -623.128C810.294 -597.529 811.088 -577.789 811.961 -559.112C819.323 -402.516 837.456 -268.395 867.411 -149.087C881.118 -94.474 899.742 -30.1777 933.863 32.6261C968.843 97.0586 1016.22 149.66 1070.87 184.739C1083.14 192.617 1096.07 199.608 1109.63 205.7L1109.62 205.688Z" fill="white"/>
<path d="M1111.31 223.003C1149.63 240.237 1193.03 249.757 1240.89 251.391C1294.64 253.225 1354.35 244.776 1413.56 226.952C1485.85 205.157 1551.38 175.423 1620.76 143.947C1656.71 127.637 1693.88 110.767 1731.83 95.242C1822.94 58.0529 1903 36.4166 1976.56 29.0972C2016.76 25.0241 2055.75 25.3884 2092.42 30.1859C2165.51 39.7259 2240.99 67.4118 2329.97 117.31C2387.09 149.253 2437.88 183.076 2485.22 220.71C2572.18 289.893 2648.63 374.152 2722.55 455.639L2733.12 467.282C2810.05 552.016 2892.45 638.921 2973.74 700.522L2974.95 698.922C2893.8 637.42 2811.48 550.594 2734.61 465.929L2724.05 454.286C2650.06 372.742 2573.57 288.421 2486.47 219.133C2439.04 181.431 2388.17 147.554 2330.95 115.553C2241.75 65.5271 2166.04 37.7633 2092.69 28.1915C2055.86 23.3744 2016.72 23.0049 1976.37 27.0994C1902.61 34.4419 1822.38 56.1202 1731.08 93.3822C1693.09 108.925 1655.9 125.796 1619.93 142.113C1550.62 173.56 1485.15 203.265 1412.99 225.025C1335.61 248.319 1188.49 275.971 1072.63 199.451C1003.46 153.773 962.345 88.1576 940.033 41.1497C909.958 -22.1452 894.728 -89.3044 883.79 -146.65C861.994 -260.981 848.724 -389.915 840.774 -564.716C840.161 -578.223 839.569 -591.923 838.996 -605.164C838.642 -613.352 838.285 -621.535 837.93 -629.709C833.547 -728.706 826.959 -805.546 817.202 -871.529C804.839 -955.088 787.334 -1021.45 763.687 -1074.4C738.14 -1131.29 707.601 -1176.62 670.324 -1213C638.027 -1244.51 600.589 -1270.09 548.919 -1295.94C530.337 -1305.23 513.244 -1313 496.651 -1319.68C432.504 -1345.51 359.219 -1363.88 284.711 -1372.81C199.629 -1383.01 112.84 -1381.4 26.7485 -1368.01C-25.9431 -1359.82 -79.7188 -1346.74 -133.079 -1329.11C-187.147 -1311.25 -240.807 -1288.73 -292.563 -1262.17C-345.65 -1234.92 -396.916 -1203.33 -444.922 -1168.28C-494.641 -1131.97 -541.223 -1091.68 -583.363 -1048.54L-581.924 -1047.13C-417.833 -1215.15 -195.865 -1331.38 27.0587 -1366.04C246.203 -1400.1 414.867 -1350.45 495.906 -1317.82C512.446 -1311.16 529.498 -1303.42 548.027 -1294.15C636.892 -1249.69 707.265 -1195.17 761.86 -1073.58C815.089 -954.398 829.17 -782.28 835.928 -629.632C836.292 -621.461 836.644 -613.281 836.994 -605.087C837.563 -591.841 838.159 -578.147 838.774 -564.63C846.729 -389.727 860.006 -260.707 881.825 -146.278C892.784 -88.8056 908.05 -21.4958 938.222 42.0106C960.644 89.2454 1001.98 155.199 1071.52 201.128C1084.1 209.432 1097.37 216.724 1111.32 222.996L1111.31 223.003Z" fill="white"/>
<path d="M1113.02 240.336C1152.36 258.024 1197.1 267.09 1246.61 267.355C1302.56 267.655 1363.97 256.413 1424.22 234.84C1496.03 209.093 1560.53 175.361 1628.82 139.652C1666.82 119.782 1706.11 99.2353 1746.44 80.4058C1838.24 37.6292 1920.08 12.4879 1996.61 3.5485C2037.93 -1.34971 2078.08 -1.27213 2115.97 3.77564C2190.99 13.7569 2266.02 42.6563 2359.24 97.4755C2416.43 131.02 2469.72 167.731 2517.63 206.596C2613.17 284.181 2697.33 378.721 2771.58 462.136C2853.31 553.939 2933.25 642.028 3012.78 710.686L3014 709.277C2934.55 640.696 2854.65 552.655 2772.97 460.902C2698.67 377.436 2614.46 282.831 2518.8 205.151C2470.82 166.224 2417.46 129.455 2360.18 95.8653C2317.5 70.7733 2279.23 51.442 2243.16 36.7786C2198.98 18.8152 2157.46 7.41557 2116.21 1.92696C2078.17 -3.14583 2037.86 -3.22311 1996.4 1.69656C1919.66 10.6611 1837.64 35.8554 1745.66 78.7172C1705.3 97.564 1665.98 118.12 1627.96 138.001C1559.73 173.68 1495.29 207.379 1423.6 233.085C1359.61 256.001 1197.36 300.212 1073.21 216.003C1003.44 168.681 964.591 99.9978 944.286 50.7191C917.949 -13.1348 906.503 -80.4463 898.06 -143.671C880.363 -276.166 874.165 -416.976 867.602 -566.056L867.417 -570.193C866.502 -591.001 865.487 -613.394 864.283 -636.191C853.362 -841.947 821.223 -988.301 766.029 -1083.61C734.242 -1138.25 696.661 -1180.28 651.148 -1212.08C613.535 -1238.36 570.127 -1258.4 510.402 -1277.06C489.611 -1283.56 470.737 -1288.82 452.688 -1293.14C381.146 -1310.28 305.719 -1319.62 228.514 -1320.9C140.449 -1322.35 52.0014 -1313.17 -34.3692 -1293.59C-87.5374 -1281.54 -141.469 -1264.95 -194.676 -1244.27C-248.771 -1223.24 -302.304 -1197.91 -353.793 -1168.98C-462.532 -1107.89 -560.198 -1032.41 -644.074 -944.628L-642.729 -943.344C-479.587 -1114.07 -257.697 -1241.07 -33.9629 -1291.78C171.741 -1338.4 343.982 -1317.28 452.25 -1291.34C470.258 -1287.02 489.093 -1281.78 509.842 -1275.3C614.401 -1242.63 697.702 -1197.36 764.412 -1082.68C819.45 -987.637 851.509 -841.559 862.416 -636.1C863.618 -613.311 864.633 -590.919 865.551 -570.116L865.736 -565.979C872.304 -416.858 878.508 -276.007 896.211 -143.424C904.671 -80.0677 916.146 -12.6176 942.561 51.4285C962.964 100.942 1002.01 169.958 1072.16 217.54C1085.05 226.276 1098.68 233.878 1113.02 240.327L1113.02 240.336Z" fill="white"/>
<path d="M1114.76 257.687C1155.11 275.824 1201.18 284.43 1252.33 283.327C1325.81 281.739 1392.16 260.37 1434.87 242.723C1506.57 213.072 1573.4 173.582 1638.03 135.387C1677.7 111.942 1718.72 87.6949 1761.03 65.5609C1853.6 17.2121 1937.22 -11.4328 2016.65 -22.0109C2059.08 -27.7309 2100.41 -27.9422 2139.5 -22.6399C2236.99 -9.43243 2323.79 37.8884 2388.51 77.6375C2446.55 113.195 2500.89 151.84 2550.02 192.483C2646.39 272.255 2731.31 366.895 2810.04 456.992L2822.64 471.422C2898.58 558.361 2977.09 648.259 3051.84 720.852L3053.02 719.628C2978.33 647.09 2899.83 557.219 2823.92 470.303L2811.32 455.872C2732.55 365.725 2647.57 271.023 2551.11 191.167C2501.91 150.468 2447.5 111.777 2389.4 76.1759C2324.53 36.3388 2237.53 -11.0841 2139.72 -24.3374C2100.47 -29.6593 2058.99 -29.4497 2016.42 -23.7083C1936.78 -13.1016 1852.98 15.6019 1760.23 64.0448C1717.88 86.1927 1676.84 110.455 1637.15 133.913C1572.57 172.072 1505.8 211.535 1434.21 241.141C1368.54 268.266 1201.96 321.734 1073.78 232.553C1003.34 183.54 966.783 111.819 948.528 60.2814C924.47 -7.56256 917.219 -79.0377 912.318 -140.708C905.155 -230.82 902.34 -323.586 899.361 -421.801C897.84 -471.97 896.266 -523.846 894.056 -575.674C892.997 -600.526 891.88 -622.444 890.638 -642.673C884.892 -735.92 872.802 -819.652 854.707 -891.54C833.843 -974.446 804.797 -1042.15 768.374 -1092.79C730.29 -1145.55 685.678 -1184.26 631.99 -1211.15C588.754 -1232.79 539.381 -1247.3 471.917 -1258.17C449.217 -1261.83 428.556 -1264.58 408.75 -1266.59C330.895 -1274.49 251.357 -1275.29 172.332 -1268.97C81.4336 -1261.7 -8.6669 -1244.94 -95.4758 -1219.17C-149.101 -1203.26 -203.198 -1183.15 -256.262 -1159.42C-310.361 -1135.23 -363.777 -1107.1 -415.013 -1075.8C-523.148 -1009.75 -620.643 -930.661 -704.781 -840.724L-703.535 -839.562C-538.702 -1015.75 -322.587 -1149.98 -94.9936 -1217.54C109.306 -1278.18 291.615 -1276.76 408.578 -1264.89C428.35 -1262.88 448.982 -1260.13 471.642 -1256.48C591.498 -1237.17 687.593 -1201.77 766.985 -1091.79C835.386 -996.686 876.412 -845.55 888.929 -642.568C890.169 -622.347 891.287 -600.444 892.345 -575.601C894.552 -523.781 896.13 -471.911 897.648 -421.751C900.628 -323.512 903.444 -230.723 910.612 -140.57C915.524 -78.7949 922.783 -7.18575 946.911 60.8526C959.222 95.5958 975.551 127.581 995.456 155.93C1017.51 187.336 1043.53 213.586 1072.8 233.957C1085.99 243.135 1099.99 251.049 1114.75 257.686L1114.76 257.687Z" fill="white"/>
<path d="M1116.27 274.883C1130.67 281.36 1145.85 286.594 1161.68 290.538C1191.46 297.959 1223.88 300.907 1258.03 299.303C1334.33 295.716 1402.1 270.846 1445.51 250.615C1517.39 217.091 1583.82 173.378 1648.07 131.116C1689.14 104.097 1731.61 76.1545 1775.6 50.7334C1867.71 -2.42261 1955.55 -35.4898 2036.68 -47.5584C2080.23 -54.0988 2122.74 -54.599 2163.03 -49.0457C2262.01 -35.4166 2351.17 15.219 2417.78 57.8093C2476.62 95.3494 2532.02 135.919 2582.43 178.38C2681.93 262.254 2769.11 359.391 2848.49 451.866C2869.43 476.249 2890.59 501.107 2911.05 525.148C2973.64 598.675 3032.76 668.132 3090.91 731.034L3092.05 729.981C3033.93 667.101 2974.82 597.665 2912.24 524.144C2891.77 500.101 2870.61 475.237 2849.68 450.854C2770.25 358.331 2683.02 261.141 2583.43 177.199C2532.98 134.689 2477.52 94.086 2418.63 56.5032C2372.76 27.184 2333.99 5.75831 2296.7 -10.8821C2250.18 -31.6367 2206.53 -44.6217 2163.25 -50.5839C2122.82 -56.1589 2080.16 -55.6604 2036.46 -49.0952C1992.72 -42.5892 1946.8 -29.9794 1899.97 -11.6098C1859.69 4.1916 1817.58 24.7165 1774.83 49.3882C1730.8 74.8285 1688.31 102.784 1647.22 129.818C1583.02 172.05 1516.64 215.729 1444.86 249.204C1392.33 273.68 1210.36 346.021 1074.37 249.104C1018.83 209.525 975.646 145.862 952.773 69.839C932.069 1.10093 928.487 -70.4011 926.585 -137.746C924.834 -199.671 924.711 -262.062 924.58 -328.126C924.411 -410.388 924.24 -495.447 920.709 -581.153C919.698 -605.604 918.488 -627.852 917.001 -649.157C910.458 -742.66 895.815 -827.572 873.468 -901.535C848.245 -985.038 813.678 -1052.47 770.736 -1101.96C726.277 -1153.04 674.633 -1188.44 612.854 -1210.19C563.55 -1227.55 508.228 -1236.51 433.478 -1239.25C409.182 -1240.13 386.737 -1240.39 364.863 -1240.01C183.187 -1236.94 7.75764 -1204.89 -156.555 -1144.75C-266.842 -1104.39 -374.392 -1049.84 -476.213 -982.624C-583.696 -911.67 -681.014 -828.974 -765.47 -736.824L-764.322 -735.775C-599.9 -915.175 -383.865 -1059.9 -156.016 -1143.29C8.12864 -1203.37 183.391 -1235.39 364.889 -1238.46C386.741 -1238.83 409.157 -1238.58 433.426 -1237.69C549.899 -1233.43 671.237 -1213.91 769.568 -1100.93C872.301 -982.534 905.605 -789.845 915.453 -649.043C916.936 -627.755 918.151 -605.528 919.16 -581.086C922.693 -495.408 922.866 -410.363 923.03 -328.119C923.164 -262.046 923.288 -199.646 925.04 -137.698C926.944 -70.2459 930.54 1.37002 951.292 70.2891C962.154 106.398 977.457 139.705 996.771 169.295C1018.17 202.074 1043.98 229.355 1073.47 250.377C1086.82 259.887 1101.12 268.076 1116.27 274.883Z" fill="white"/>
<path d="M1117.95 292.213C1132.7 298.842 1148.26 304.122 1164.54 308.012C1195.18 315.333 1228.55 317.778 1263.73 315.282C1295.98 312.993 1329.59 306.59 1363.62 296.243C1395.1 286.675 1426.23 273.979 1456.15 258.509C1528.42 221.11 1594.68 173.169 1658.75 126.806C1701.02 96.2216 1744.72 64.5983 1790.18 35.9033C1883.16 -22.7122 1972.84 -59.3941 2056.73 -73.1108C2101.42 -80.4738 2145.1 -81.2574 2186.57 -75.4564C2286.56 -61.4712 2374.37 -10.27 2447.08 37.9796C2506.7 77.477 2563.14 119.967 2614.84 164.273C2722.9 256.926 2817.03 363.887 2886.97 446.727C2933.55 501.898 2979.57 558.18 3024.07 612.611C3060.87 657.616 3095.62 700.129 3130 741.215L3131.08 740.313C3096.71 699.236 3061.95 656.726 3025.16 611.72C2980.65 557.286 2934.63 500.998 2888.04 445.82C2818.07 362.946 2723.89 255.926 2615.76 163.207C2564.02 118.86 2507.52 76.3344 2447.85 36.8065C2400.73 5.53651 2361.21 -17.1924 2323.47 -34.7209C2275.81 -56.872 2231.1 -70.6462 2186.77 -76.8433C2145.16 -82.6714 2101.33 -81.8773 2056.5 -74.4951C1972.42 -60.7485 1882.57 -24.0067 1789.43 34.7129C1743.93 63.4363 1700.2 95.0692 1657.92 125.666C1593.89 172.002 1527.69 219.912 1455.5 257.258C1344.6 314.595 1186.39 346.909 1074.95 265.652C1018.79 224.709 976.91 158.558 957.011 79.3837C939.251 8.7939 939.233 -62.2083 940.843 -134.797C941.662 -178.326 943.102 -221.586 944.635 -267.379C948.094 -371.073 951.674 -478.292 947.347 -586.634C946.374 -611.024 945.065 -633.59 943.351 -655.634C936.106 -748.501 918.428 -836.981 892.22 -911.514C862.609 -995.729 822.525 -1062.88 773.094 -1111.1C722.189 -1160.63 663.515 -1192.73 593.726 -1209.23C537.93 -1222.42 476.659 -1225.83 395.066 -1220.31C369.765 -1218.6 344.846 -1216.28 320.992 -1213.43C129.572 -1190.54 -51.6462 -1142.39 -217.626 -1070.33C-328.602 -1022.15 -436.196 -961.287 -537.417 -889.443C-644.176 -813.665 -741.333 -727.361 -826.169 -632.923L-825.126 -631.985C-658.373 -817.599 -448.109 -968.73 -217.066 -1069.04C-51.2101 -1141.05 129.872 -1189.16 321.163 -1212.03C344.99 -1214.88 369.887 -1217.2 395.165 -1218.91C517.731 -1227.21 658.371 -1220.77 772.124 -1110.09C865.917 -1018.61 926.232 -857.172 941.963 -655.52C943.676 -633.499 944.983 -610.942 945.955 -586.576C950.278 -478.289 946.697 -371.093 943.237 -267.423C941.706 -221.62 940.263 -178.355 939.45 -134.822C937.834 -62.1387 937.863 8.96862 955.663 79.7269C965.076 117.192 979.346 151.817 998.074 182.652C1018.82 216.806 1044.4 245.11 1074.13 266.784C1087.76 276.725 1102.4 285.216 1117.96 292.207L1117.95 292.213Z" fill="white"/>
<path d="M-885.922 -528.197C-718.798 -717.878 -508.623 -879.224 -278.121 -994.792C-110.101 -1079.03 76.8092 -1143.24 277.412 -1185.62C304.513 -1191.24 331.246 -1196.13 356.875 -1200.13C490.688 -1221.05 644.968 -1227.8 774.675 -1119.27C880.514 -1030.54 951.153 -863.864 968.476 -662.002C970.384 -639.756 971.818 -616.226 972.751 -592.066C977.65 -465.112 968.605 -339.443 959.862 -217.913C957.825 -189.613 955.721 -160.355 953.866 -131.944C948.513 -53.4568 945.28 17.3512 960.031 89.1701C976.978 171.782 1017.73 240.69 1074.78 283.196C1101.85 303.372 1133.01 317.601 1167.38 325.477C1198.88 332.697 1233.2 334.645 1269.41 331.256C1333.38 325.276 1403.46 302.237 1466.77 266.389C1539.6 225.128 1605.84 172.917 1669.89 122.432C1713.19 88.3031 1757.97 53.0138 1804.75 21.0627C1898.63 -43.0117 1990.15 -83.294 2076.76 -98.6736C2122.58 -106.854 2167.45 -107.932 2210.11 -101.874C2311.76 -87.454 2401.74 -33.1085 2476.36 18.1429C2536.73 59.5574 2594.23 103.974 2647.25 150.158C2736.3 227.753 2824.69 320.355 2925.43 441.586C3008.86 541.979 3088.29 645.421 3169.08 751.402L3170.08 750.645C3089.28 644.655 3009.84 541.206 2926.4 440.789C2825.61 319.508 2737.18 226.864 2648.08 149.221C2595.02 102.999 2537.49 58.5533 2477.07 17.1172C2402.33 -34.2141 2312.19 -88.6488 2210.29 -103.106C2167.49 -109.184 2122.5 -108.103 2076.54 -99.9006C1989.75 -84.4933 1898.06 -44.1389 1804.04 20.0355C1757.23 52.0128 1712.44 87.3205 1669.12 121.459C1605.1 171.916 1538.9 224.09 1466.16 265.312C1352.63 329.6 1190.4 367.798 1075.53 282.2C1018.73 239.873 978.141 171.235 961.252 88.9227C946.536 17.2547 949.762 -53.4673 955.109 -131.859C956.964 -160.271 959.069 -189.529 961.107 -217.82C969.856 -339.383 978.898 -465.085 973.997 -592.109C973.06 -616.287 971.621 -639.834 969.713 -662.104C961.661 -755.9 941.352 -845.593 910.979 -921.482C876.957 -1006.49 831.365 -1073.35 775.467 -1120.22C718.048 -1168.27 652.35 -1197.06 574.612 -1208.24C512.815 -1217.13 443.56 -1214.95 356.672 -1201.36C331.021 -1197.35 304.265 -1192.46 277.142 -1186.84C182.749 -1166.89 90.8536 -1142.04 4.01138 -1112.97C-94.2375 -1080.09 -189.351 -1040.7 -278.699 -995.906C-509.341 -880.272 -719.646 -718.825 -886.882 -529.023L-885.945 -528.196L-885.922 -528.197Z" fill="white"/>
<path d="M-946.727 -424.405C-778.704 -618.753 -568.622 -790.308 -339.192 -920.531C-165.862 -1018.92 26.8679 -1099.21 233.64 -1159.19C264.12 -1167.95 291.9 -1175.2 318.567 -1181.35C454.522 -1213.23 629.521 -1236.01 777.216 -1128.46C896.432 -1041.51 975.807 -873.855 994.988 -668.484C997.108 -645.759 998.644 -621.901 999.554 -597.558C1004.85 -455.639 989.07 -314.854 973.813 -178.703C971.987 -162.396 970.092 -145.532 968.289 -129.052C960.865 -62.7287 951.624 19.8161 964.415 98.6242C970.924 138.761 983.131 176.031 1000.69 209.403C1020.1 246.287 1045.25 276.643 1075.45 299.616C1103.04 320.605 1134.92 335.192 1170.22 342.965C1202.57 350.09 1237.86 351.533 1275.1 347.254C1341.29 339.654 1413.13 313.737 1477.4 274.291C1550.91 229.153 1617.25 172.66 1681.41 118.023C1725.62 80.3673 1771.35 41.436 1819.31 6.24273C1914.12 -63.2735 2007.48 -107.171 2096.8 -124.218C2143.76 -133.222 2189.81 -134.589 2233.66 -128.279C2337.05 -113.411 2429.17 -55.9389 2505.65 -1.68078C2566.73 41.6039 2625.28 87.9497 2679.67 136.056C2773.22 218.842 2866.2 317.102 2963.9 436.452C3042.49 532.459 3122.39 638.815 3208.18 761.601L3209.08 760.975C3123.27 638.17 3043.35 531.789 2964.75 435.763C2867.01 316.37 2774 218.063 2680.4 135.241C2625.97 87.1052 2567.4 40.7425 2506.29 -2.56795C2429.7 -56.9047 2337.44 -114.459 2233.81 -129.356C2189.84 -135.681 2143.68 -134.313 2096.59 -125.284C2007.12 -108.199 1913.6 -64.2431 1818.66 5.37109C1770.66 40.5872 1724.93 79.5349 1680.69 117.203C1616.57 171.815 1550.26 228.281 1476.82 273.374C1365.99 341.4 1194.55 388.87 1076.11 298.76C1018.64 255.032 979.355 183.901 965.498 98.4658C952.728 19.8073 961.956 -62.6548 969.376 -128.912C971.185 -145.389 973.075 -162.255 974.906 -178.56C990.173 -314.751 1005.96 -455.578 1000.66 -597.576C999.751 -621.939 998.209 -645.823 996.09 -668.563C987.227 -763.451 964.289 -854.348 929.76 -931.435C911.265 -972.726 889.436 -1010.13 864.884 -1042.62C838.91 -1076.99 809.633 -1106.16 777.867 -1129.33C744.846 -1153.37 708.58 -1172.16 670.094 -1185.15C634.699 -1197.1 596.145 -1204.56 555.51 -1207.34C486.46 -1212.08 411.1 -1204.15 318.322 -1182.4C291.638 -1176.25 263.84 -1169 233.336 -1160.23C134.81 -1131.65 38.7961 -1098.28 -52.0348 -1061.03C-152.032 -1020.03 -248.832 -973.075 -339.73 -921.477C-451.642 -857.951 -559.328 -784.48 -659.8 -703.083C-764.857 -617.975 -861.669 -524.45 -947.556 -425.113L-946.725 -424.397L-946.727 -424.405Z" fill="white"/>
<path d="M-1007.53 -320.621C-835.548 -523.242 -631.237 -700.097 -400.269 -846.283C-220.317 -960.179 -21.7701 -1056.57 189.846 -1132.77C221.988 -1144.29 251.555 -1154.05 280.238 -1162.58C414.833 -1202.96 613.05 -1244.29 779.744 -1137.66C910.353 -1054.01 1000.73 -881.047 1021.5 -674.961C1023.83 -651.803 1025.46 -627.604 1026.35 -603.039C1031.92 -448.83 1008.5 -295.279 985.849 -146.782C984.798 -139.891 983.748 -133.015 982.702 -126.144C971.599 -53.8768 959.017 28.0404 968.791 108.094C973.777 148.967 985.259 188.631 1001.99 222.798C1020.73 261.047 1045.66 292.42 1076.11 316.046C1104.21 337.853 1136.82 352.795 1173.05 360.46C1206.26 367.485 1242.5 368.43 1280.77 363.259C1349.19 354.014 1422.79 325.229 1488.02 282.2C1562.31 233.182 1628.86 172.367 1693.21 113.554C1738.25 72.3991 1784.82 29.8365 1833.87 -8.56906C1929.64 -83.5193 2024.84 -131.026 2116.84 -149.763C2164.95 -159.583 2212.17 -161.245 2257.2 -154.684C2362.39 -139.366 2456.63 -78.7607 2534.95 -21.5017C2596.7 23.6206 2656.29 71.8836 2712.09 121.957C2811.33 211.052 2906.29 312.245 3002.37 431.327C3086.94 536.136 3169.35 650.693 3247.29 771.81L3248.09 771.297C3170.13 650.146 3087.71 535.565 3003.12 430.733C2907 311.617 2812.01 210.386 2712.73 121.252C2656.91 71.1599 2597.29 22.871 2535.52 -22.2648C2484.06 -59.8919 2443.43 -85.7888 2403.79 -106.235C2352.76 -132.548 2304.86 -148.706 2257.35 -155.623C2212.21 -162.2 2164.87 -160.545 2116.66 -150.7C2068.09 -140.807 2017.82 -122.521 1967.23 -96.3522C1922.7 -73.3104 1877.64 -44.0265 1833.3 -9.32716C1784.22 29.1025 1737.63 71.6746 1692.58 112.846C1628.25 171.635 1561.73 232.421 1487.5 281.404C1374.18 356.161 1198.6 409.89 1076.7 315.288C998.211 254.386 975.994 159.258 969.742 107.976C959.986 28.0542 972.556 -53.7946 983.649 -126.008C984.695 -132.879 985.744 -139.755 986.795 -146.646C1009.45 -295.183 1032.88 -448.782 1027.31 -603.079C1026.42 -627.666 1024.79 -651.886 1022.45 -675.062C1012.77 -771.146 987.21 -863.25 948.53 -941.419C927.914 -983.078 903.654 -1020.63 876.419 -1053.03C847.608 -1087.31 815.26 -1116.05 780.267 -1138.46C743.891 -1161.73 704.029 -1179.21 661.782 -1190.43C622.916 -1200.75 580.74 -1206.1 536.435 -1206.34C461.305 -1206.73 377.416 -1192.71 279.985 -1163.49C251.285 -1154.95 221.7 -1145.19 189.54 -1133.67C-22.1448 -1057.43 -220.755 -961.017 -400.765 -847.088C-512.86 -776.138 -620.599 -696.35 -720.983 -609.936C-825.001 -520.391 -921.651 -423.259 -1008.25 -321.238L-1007.52 -320.626L-1007.53 -320.621Z" fill="white"/>
<path d="M-1068.33 -216.83C-894.002 -425.942 -689.785 -612.735 -461.355 -772.023C-273.973 -902.689 -69.6138 -1015.18 146.045 -1106.35C179.826 -1120.6 211.185 -1132.85 241.903 -1143.8C467.024 -1224.26 643.778 -1225.27 782.268 -1146.85C926.004 -1065.43 1025.34 -891.443 1048.01 -681.435C1050.56 -657.873 1052.29 -633.343 1053.15 -608.52C1058.89 -444.022 1027.49 -280.943 997.115 -123.236C981.966 -44.8718 966.301 36.1598 973.165 117.565C976.719 159.766 987.132 200.795 1003.27 236.215C1021.32 275.847 1046.05 308.231 1076.76 332.465C1105.34 355.117 1138.67 370.438 1175.82 378.002C1209.87 384.935 1247.07 385.375 1286.38 379.303C1357.04 368.389 1432.41 336.713 1498.61 290.102C1573.76 237.182 1640.59 172.031 1705.21 109.014C1751 64.373 1798.35 18.2084 1848.41 -23.3918C1943.78 -102.636 2043.52 -155.171 2136.85 -175.315C2186.11 -185.957 2234.52 -187.904 2280.72 -181.093C2387.5 -165.357 2480.08 -104.621 2564.22 -41.3215C2626.6 5.57923 2687.24 55.772 2744.48 107.856C2847.9 201.982 2947.6 309.085 3040.82 426.194C3129.63 537.778 3212.25 657.496 3286.37 782.017L3287.06 781.606C3212.92 657.051 3130.28 537.296 3041.44 425.691C2948.2 308.55 2848.47 201.413 2745.01 107.261C2687.76 55.1576 2627.09 4.95139 2564.7 -41.9683C2529.25 -68.6346 2481.95 -102.752 2430.51 -130.081C2378.38 -157.781 2329.42 -174.727 2280.84 -181.888C2234.53 -188.713 2186.03 -186.763 2136.68 -176.104C2086.91 -165.365 2035.55 -145.659 1984.03 -117.547C1938.46 -92.6854 1892.66 -61.2114 1847.89 -24.0141C1797.8 17.6067 1750.45 63.7823 1704.65 108.437C1640.04 171.426 1573.24 236.562 1498.14 289.44C1373.1 377.481 1194.46 424.732 1077.24 331.827C1019.21 286.04 981.561 207.914 973.939 117.489C967.082 36.1947 982.737 -44.7829 997.876 -123.093C1028.25 -280.849 1059.66 -443.971 1053.92 -608.559C1053.05 -633.399 1051.33 -657.952 1048.78 -681.537C1038.27 -778.894 1010.09 -872.202 967.268 -951.376C944.531 -993.418 917.834 -1031.11 887.921 -1063.42C856.268 -1097.61 820.85 -1125.91 782.64 -1147.55C742.906 -1170.05 699.44 -1186.25 653.451 -1195.7C611.093 -1204.4 565.294 -1207.63 517.33 -1205.31C435.045 -1201.33 344.854 -1181.46 241.615 -1144.56C210.879 -1133.61 179.508 -1121.35 145.714 -1107.09C-69.9991 -1015.89 -274.404 -903.379 -461.834 -772.683C-573.88 -694.549 -681.668 -608.45 -782.196 -516.776C-884.992 -423.032 -981.48 -322.291 -1068.97 -217.349L-1068.36 -216.838L-1068.33 -216.83Z" fill="white"/>
<path d="M-1129.14 -113.033C-796.676 -518.862 -370.88 -853.203 102.231 -1079.91C389.8 -1217.72 613.069 -1242.63 784.782 -1156.07C939.272 -1078.19 1050.29 -898.811 1074.52 -687.926C1097.18 -490.723 1049.69 -285.344 1011.53 -120.325L1011.15 -118.688C992.639 -38.625 973.492 44.1698 977.548 127.033C979.675 170.491 989.031 212.868 1004.6 249.581C1021.97 290.546 1046.47 323.954 1077.42 348.876C1106.54 372.317 1140.61 387.987 1178.67 395.439C1213.59 402.275 1251.74 402.209 1292.07 395.257C1364.97 382.687 1442.08 348.147 1509.21 298.001C1585.28 241.179 1652.45 171.654 1717.41 104.42C1763.89 56.3101 1811.95 6.56907 1862.95 -38.213C1967.37 -129.885 2128.69 -233.676 2304.27 -207.507C2412.94 -191.312 2507.51 -127.593 2593.52 -61.1506C2890.73 168.44 3143.84 463.537 3325.49 792.234L3326.06 791.922C3235.2 627.511 3126.68 471.347 3003.54 327.774C2880.4 184.207 2742.58 53.18 2593.92 -61.659C2507.84 -128.155 2413.18 -191.924 2304.37 -208.141C2229.54 -219.292 2150.31 -207.372 2068.9 -172.716C1999.71 -143.262 1930.27 -98.1661 1862.53 -38.6938C1811.51 6.1014 1763.44 55.8589 1716.95 103.971C1652.01 171.186 1584.86 240.693 1508.83 297.487C1381.22 392.812 1198.46 445.517 1077.83 348.376C1019.08 301.066 982.765 220.377 978.188 127.003C974.139 44.2274 993.272 -38.5223 1011.78 -118.545L1012.16 -120.182C1034.22 -215.577 1055.09 -308.967 1068.03 -402.69C1082.68 -508.904 1085.02 -602.231 1075.16 -688.002C1063.82 -786.689 1033.01 -881.198 986.056 -961.317C961.196 -1003.74 932.063 -1041.58 899.478 -1073.8C864.978 -1107.89 826.488 -1135.77 785.071 -1156.65C734.513 -1182.13 678.603 -1198.17 618.91 -1204.32C564.824 -1209.89 506.052 -1207.49 444.243 -1197.19C342.316 -1180.2 230.352 -1142.03 101.951 -1080.5C-134.186 -967.349 -359.16 -827.333 -566.742 -664.343C-774.318 -501.35 -963.702 -316.005 -1129.64 -113.448L-1129.14 -113.042L-1129.14 -113.033Z" fill="white"/>
</g>
<g opacity="0.3" clip-path="url(#clip2_192_445)">
<path d="M141.29 557.42C37.8134 540.774 -74.8399 537.383 -201.644 547.025C-333.502 557.053 -468.663 580.409 -584.998 601.514C-725.725 627.042 -871.248 653.443 -1006.98 611.424C-1064.73 593.546 -1118.63 563.494 -1170.78 534.432C-1194.95 520.962 -1219.94 507.032 -1245.02 494.467C-1290.59 471.643 -1331.81 456.481 -1371.02 448.106C-1377.01 446.828 -1382.94 445.714 -1388.82 444.771C-1429.45 438.234 -1467.49 439.636 -1502.13 448.983L-1501.29 452.1C-1429.36 432.703 -1346.01 447.508 -1246.46 497.362C-1221.44 509.897 -1196.48 523.809 -1172.35 537.262C-1120.07 566.405 -1066 596.544 -1007.93 614.518C-871.45 656.767 -725.536 630.294 -584.426 604.699C-322.434 557.173 -66.7667 518.59 180.742 567.797C401.744 611.74 669.63 753.876 758.691 1021.01C810.298 1175.8 790.499 1343.51 771.353 1505.69C762.15 1583.64 752.637 1664.22 751.105 1742.57C749.382 1830.54 758.145 1906.18 777.88 1973.83C792.873 2025.23 815.739 2074.83 845.826 2121.24C875.212 2166.56 910.914 2207.99 951.934 2244.35C992.953 2280.71 1038.36 2311.18 1086.88 2334.92C1136.57 2359.23 1188.54 2375.97 1241.37 2384.69C1294.2 2393.42 1348.8 2394.26 1403.66 2387.23C1457.24 2380.34 1510.03 2366.09 1560.56 2344.84C1611.09 2323.6 1658.22 2295.85 1700.61 2262.38C1744.02 2228.11 1781.61 2188.5 1812.34 2144.64L1809.7 2142.79C1685.25 2320.41 1458.18 2416.3 1244.1 2381.86C1243.36 2381.74 1242.64 2381.63 1241.9 2381.51C1027.17 2346.04 841.944 2181.85 780.983 1972.92C737.176 1822.78 756.186 1661.78 774.565 1506.07C784.157 1424.81 794.074 1340.79 794.92 1259.41C795.865 1168.07 785.018 1089.76 761.759 1019.99C742.017 960.771 711.874 904.474 672.174 852.679C634.705 803.789 588.781 758.948 535.693 719.39C484.982 681.61 428.28 649.036 367.169 622.566C307.689 596.81 245.187 577.313 181.383 564.63C168.175 562.002 154.812 559.603 141.301 557.43L141.29 557.42Z" fill="white"/>
<path d="M138.231 541.712C64.7886 529.892 -16.1475 528.391 -107.859 537.065C-209.691 546.708 -310.525 567.301 -395.726 586.177C-421.495 591.88 -447.892 597.908 -473.416 603.738C-514.067 613.023 -556.104 622.622 -597.755 631.401C-632.593 638.771 -661.276 644.158 -688.03 648.356C-761.71 659.931 -827.597 663.732 -889.464 659.976C-942.541 656.779 -990.006 648.114 -1034.58 633.479C-1095.89 613.342 -1153.24 580.763 -1208.72 549.262C-1232.22 535.917 -1256.52 522.113 -1280.8 509.436C-1383.42 455.874 -1468.97 436.187 -1542.36 449.262L-1541.82 452.289C-1469.13 439.343 -1384.22 458.927 -1282.23 512.167C-1258 524.815 -1233.72 538.606 -1210.24 551.937C-1154.64 583.516 -1097.14 616.166 -1035.55 636.401C-990.719 651.118 -943 659.832 -889.659 663.047C-827.567 666.816 -761.462 663.006 -687.562 651.395C-660.758 647.185 -632.026 641.793 -597.129 634.407C-555.45 625.623 -513.405 616.02 -472.74 606.732C-447.222 600.9 -420.833 594.877 -395.072 589.178C-309.958 570.323 -209.238 549.75 -107.579 540.122C0.0307583 529.946 92.7376 533.815 175.839 551.95C237.528 565.41 298.594 587.151 357.329 616.561C414.274 645.068 467.707 680.058 516.14 720.559C619.787 807.018 695.249 915.128 734.377 1033.22C740.321 1051.15 745.654 1069.89 750.241 1088.92C782.465 1222.58 776.925 1360.8 771.568 1494.47C771.175 1504.28 770.784 1514.07 770.409 1523.82C767.671 1595.49 764.841 1669.59 769.249 1741.03C774.141 1820.41 787.122 1885.46 810.102 1945.74C819.263 1969.9 830.592 1993.84 843.772 2016.9C886.8 2091.95 949.731 2157.69 1025.76 2207C1103.37 2257.33 1191.67 2288.44 1281.11 2296.97C1333.44 2301.96 1387.28 2299.37 1441.14 2289.28C1493.99 2279.38 1545.92 2262.44 1595.49 2238.92C1645.25 2215.32 1691.64 2185.56 1733.36 2150.48C1776.17 2114.48 1813.37 2073.45 1843.93 2028.52L1841.39 2026.79C1718.97 2206.82 1493.92 2314.17 1281.39 2293.92C1101.77 2276.79 935.114 2170.07 846.431 2015.38C833.329 1992.47 822.073 1968.68 812.967 1944.66C762.466 1812.16 767.814 1672.17 773.472 1523.95C773.847 1514.2 774.237 1504.42 774.636 1494.61C780 1360.73 785.551 1222.29 753.224 1088.22C748.614 1069.11 743.257 1050.28 737.285 1032.27C717.095 971.336 687.456 913.076 649.179 859.101C612.846 807.864 568.744 760.457 518.103 718.216C469.487 677.561 415.85 642.442 358.694 613.831C299.731 584.306 238.427 562.482 176.486 548.966C163.956 546.231 151.189 543.821 138.211 541.733L138.231 541.712Z" fill="white"/>
<path d="M133.408 525.706C58.8216 513.708 -24.6219 515.881 -120.314 532.225C-214.284 548.301 -301.639 573.299 -406.068 604.315C-411.515 605.929 -416.984 607.551 -422.463 609.182C-483.426 627.29 -546.456 646.013 -610.508 661.296C-644.597 669.474 -675.144 675.584 -703.889 679.984C-774.564 690.798 -844.761 693.074 -912.531 686.746C-967.153 681.689 -1016.1 671.478 -1062.18 655.534C-1127.38 632.958 -1188.5 597.624 -1247.6 563.455C-1270.12 550.435 -1293.41 536.971 -1316.58 524.412C-1364.75 498.304 -1407.75 479.521 -1448.04 466.984C-1496.75 451.823 -1542.03 445.964 -1582.59 449.562L-1582.33 452.471C-1508.97 445.957 -1422.5 470.332 -1317.98 526.977C-1294.84 539.519 -1271.57 552.972 -1249.07 565.979C-1189.84 600.218 -1128.6 635.624 -1063.14 658.291C-1016.83 674.309 -967.654 684.568 -912.796 689.648C-844.791 695.999 -774.356 693.713 -703.441 682.863C-674.619 678.453 -643.993 672.325 -609.824 664.131C-545.698 648.823 -482.625 630.092 -421.626 611.975C-416.149 610.35 -410.685 608.727 -405.23 607.108C-300.891 576.119 -213.623 551.142 -119.815 535.092C-7.83795 515.967 87.2744 516.3 170.962 536.104C232.032 550.557 292.499 574.878 350.678 608.389C404.167 639.191 454.92 677.192 501.533 721.343C598.142 812.428 670.255 924.487 710.083 1045.42C716.069 1063.6 721.588 1082.64 726.491 1102.04C757.711 1225.48 762.816 1349.94 767.755 1470.3C768.653 1492.1 769.494 1512.68 770.498 1533.42C774.262 1610.01 777.9 1673.5 787.496 1735.28C798.547 1806.45 815.984 1864.4 842.362 1917.65C852.775 1938.88 865.213 1959.86 879.327 1979.99C925.791 2045.88 990.534 2102.02 1066.57 2142.35C1145.12 2184.01 1233.05 2207.14 1320.86 2209.24C1372.7 2210.48 1425.78 2204.45 1478.63 2191.33C1530.76 2178.39 1581.84 2158.76 1630.45 2133C1730.52 2079.95 1815.28 2003.67 1875.56 1912.38L1873.12 1910.77C1751.2 2095.41 1534.46 2211.41 1320.94 2206.32C1146.25 2202.15 977.944 2114.78 881.717 1978.31C867.688 1958.31 855.328 1937.47 844.979 1916.37C786.426 1798.16 780.109 1669.5 773.418 1533.29C772.416 1512.56 771.574 1491.98 770.674 1470.2C765.732 1349.68 760.618 1225.08 729.319 1101.33C724.401 1081.87 718.862 1062.76 712.855 1044.52C692.388 982.376 663.621 922.632 627.348 866.946C592.625 813.645 550.975 763.947 503.542 719.229C456.765 674.929 405.826 636.785 352.136 605.869C293.716 572.212 232.985 547.786 171.638 533.27C159.159 530.321 146.414 527.79 133.416 525.702L133.408 525.706Z" fill="white"/>
<path d="M127.619 509.515C51.2088 497.222 -34.4214 503.144 -132.742 527.386C-220.37 549.032 -301.802 579.542 -388.021 611.843C-397.442 615.369 -406.889 618.915 -416.39 622.458C-481.92 646.863 -551.874 672.272 -623.254 691.194C-657.741 700.39 -689.304 707.066 -719.747 711.606C-789.388 722.001 -862.013 722.645 -935.603 713.514C-991.752 706.602 -1042.19 694.852 -1089.78 677.594C-1159.29 652.366 -1224.54 613.99 -1287.63 576.875C-1308.8 564.428 -1330.67 551.553 -1352.37 539.384C-1401.91 511.595 -1445.81 491.004 -1486.57 476.423C-1536.69 458.494 -1581.27 449.815 -1622.84 449.877L-1622.83 452.643C-1547.88 452.526 -1462.37 480.859 -1353.73 541.793C-1332.06 553.946 -1310.19 566.811 -1289.04 579.255C-1225.84 616.436 -1160.48 654.877 -1090.73 680.192C-1042.94 697.522 -992.299 709.319 -935.943 716.259C-862.099 725.419 -789.225 724.775 -719.336 714.339C-688.788 709.783 -657.124 703.084 -622.535 693.864C-551.038 674.91 -481.015 649.474 -415.419 625.048C-405.924 621.504 -396.465 617.962 -387.049 614.434C-300.913 582.162 -219.55 551.679 -132.081 530.073C-17.0767 501.709 80.4477 498.507 166.073 520.281C226.951 535.761 286.815 562.667 344.013 600.247C394.78 633.589 441.528 673.466 486.919 722.152C576.365 817.497 645.129 933.504 685.771 1057.64C691.791 1076.02 697.489 1095.37 702.717 1115.16C731.099 1222.5 743.963 1329.17 756.402 1432.33C761.07 1471.02 765.476 1507.56 770.58 1543.02C790.178 1678.06 810.29 1789.32 874.607 1889.57C886.734 1908.48 900.283 1926.48 914.874 1943.08C964.683 1999.75 1031.22 2046.33 1107.29 2077.78C1186.75 2110.64 1274.34 2125.75 1360.59 2121.5C1463.51 2116.42 1568.89 2083.77 1665.37 2027.07C1763.76 1969.25 1847.37 1889.43 1907.16 1796.24L1904.82 1794.75C1785.23 1981.15 1571.55 2108.32 1360.46 2118.73C1190.49 2127.11 1020.54 2059.1 916.947 1941.25C902.451 1924.76 888.986 1906.86 876.931 1888.07C812.913 1788.28 792.868 1677.32 773.311 1542.61C768.204 1507.18 763.802 1470.65 759.141 1431.98C746.691 1328.73 733.814 1221.97 705.387 1114.45C700.145 1094.61 694.425 1075.2 688.394 1056.77C667.616 993.315 639.716 932.087 605.47 874.79C572.329 819.343 533.119 767.35 488.932 720.248C443.396 671.398 396.486 631.385 345.527 597.918C288.071 560.168 227.92 533.142 166.749 517.582C153.974 514.336 140.93 511.635 127.612 509.492L127.619 509.515Z" fill="white"/>
<path d="M122.382 493.453C85.3687 487.497 45.8901 486.452 4.5223 490.349C-42.102 494.746 -92.4606 505.582 -145.157 522.551C-223.942 547.968 -296.071 580.972 -372.437 615.912C-390.13 624.007 -408.422 632.374 -426.69 640.593C-491.339 669.608 -561.436 699.45 -635.985 721.081C-671.089 731.332 -703.676 738.578 -735.605 743.227C-804.848 753.323 -879.899 752.33 -958.682 740.279C-1016.34 731.525 -1068.26 718.237 -1117.4 699.651C-1191.7 671.511 -1261.53 629.733 -1329.07 589.325C-1348.4 577.752 -1368.4 565.787 -1388.16 554.35C-1499.97 489.639 -1587.33 456.542 -1663.1 450.199L-1663.32 452.806C-1587.95 459.115 -1500.93 492.098 -1389.47 556.61C-1369.73 568.042 -1349.74 579.998 -1330.41 591.562C-1262.78 632.026 -1192.85 673.868 -1118.32 702.087C-1069.01 720.738 -1016.92 734.072 -959.08 742.859C-880.04 754.952 -804.726 755.944 -735.229 745.808C-703.181 741.141 -670.48 733.875 -635.257 723.586C-560.554 701.913 -490.353 672.035 -425.624 642.977C-407.343 634.761 -389.047 626.381 -371.354 618.286C-295.065 583.378 -223.005 550.4 -144.363 525.035C-28.6583 487.768 74.1409 480.842 161.18 504.443C222.162 520.976 281.432 550.465 337.358 592.087C384.74 627.328 428.879 670.136 472.307 722.948C555.596 823.443 619.231 940.157 661.455 1069.85C667.485 1088.38 673.366 1108.04 678.946 1128.28C702.552 1213.93 718.873 1298.86 734.655 1380.99C746.405 1442.12 757.499 1499.86 770.675 1552.62C804.174 1685.92 837.199 1779.2 906.884 1861.5C920.529 1877.61 935.18 1892.63 950.443 1906.16C1003.82 1953.49 1072.16 1990.49 1148.07 2013.16C1187.37 2024.89 1228.32 2032.65 1269.77 2036.24C1313.08 2039.98 1357 2039.15 1400.32 2033.77C1502.36 2021.09 1606.08 1982.15 1700.29 1921.17C1796.98 1858.59 1879.44 1775.24 1938.76 1680.13L1936.55 1678.74C1817.37 1869.8 1611.77 2004.85 1400 2031.16C1235.2 2051.64 1063.6 2002.99 952.177 1904.2C937.01 1890.76 922.449 1875.82 908.882 1859.8C839.524 1777.9 806.621 1684.91 773.214 1551.98C760.056 1499.29 748.965 1441.59 737.224 1380.49C721.431 1298.31 705.104 1213.34 681.468 1127.58C675.879 1107.31 669.988 1087.61 663.945 1069.04C642.812 1004.14 615.786 941.419 583.602 882.644C551.998 824.929 515.235 770.637 474.327 721.274C430.773 668.298 386.48 625.35 338.922 589.975C282.731 548.16 223.16 518.528 161.863 501.901C149.042 498.425 135.867 495.598 122.369 493.429L122.382 493.453Z" fill="white"/>
<path d="M116.101 477.148C35.0349 464.108 -56.7876 477.695 -157.555 517.722C-230.532 546.752 -296.392 582.613 -366.116 620.58C-389.15 633.12 -412.966 646.094 -436.974 658.741C-493.531 688.49 -568.714 725.854 -648.711 750.978C-684.546 762.303 -718.155 770.112 -751.456 774.85C-821.718 784.866 -897.052 782.314 -981.769 767.049C-1040.92 756.466 -1094.31 741.634 -1145.01 721.703C-1224.76 690.321 -1299.74 644.692 -1372.25 600.559C-1389.19 590.255 -1406.69 579.604 -1423.95 569.322C-1476.51 538.009 -1522.21 513.795 -1563.65 495.302C-1615.29 472.257 -1661 457.614 -1703.38 450.537L-1703.79 452.966C-1604.5 469.548 -1497.25 528.521 -1425.22 571.44C-1407.97 581.718 -1390.47 592.368 -1373.55 602.664C-1300.94 646.851 -1225.87 692.534 -1145.92 723.996C-1095.07 743.984 -1041.52 758.856 -982.215 769.473C-897.237 784.789 -821.648 787.343 -751.12 777.292C-717.685 772.533 -683.946 764.695 -647.978 753.329C-567.797 728.153 -492.486 690.719 -435.834 660.924C-411.816 648.267 -387.988 635.297 -364.944 622.746C-295.284 584.814 -229.488 548.987 -156.65 520.016C-39.0546 473.306 66.2347 462.741 156.308 488.625C217.615 506.238 276.297 538.31 330.73 583.949C374.943 620.998 415.303 665.427 457.728 723.774C533.593 828.115 593.965 948.668 637.16 1082.09C643.246 1100.9 649.148 1120.31 655.19 1141.41C672.197 1200.78 686.997 1260.04 701.307 1317.35C723.628 1406.73 744.714 1491.16 770.805 1562.21C794.918 1627.52 817.692 1677 842.473 1717.9C869.825 1763.05 900.561 1799.76 939.21 1833.41C954.428 1846.67 970.191 1858.72 986.047 1869.25C1043.11 1907.09 1113.25 1934.51 1188.89 1948.53C1228.58 1955.89 1269.55 1959.51 1310.66 1959.3C1353.84 1959.08 1397.37 1954.62 1440.06 1946.04C1541.18 1925.71 1643.25 1880.49 1735.23 1815.28C1830.19 1747.95 1911.51 1661.07 1970.39 1564.02L1968.28 1562.74C1851.24 1755.64 1648.65 1901.58 1439.57 1943.62C1277.67 1976.17 1108.63 1947.6 987.411 1867.2C971.638 1856.73 955.97 1844.74 940.832 1831.56C857.708 1759.16 813.67 1671.18 773.129 1561.37C747.08 1490.44 726.017 1406.08 703.711 1316.76C689.393 1259.43 674.593 1200.15 657.57 1140.74C651.517 1119.61 645.616 1100.17 639.517 1081.34C618.029 1014.96 591.835 950.78 561.662 890.584C531.618 830.635 497.323 774.023 459.732 722.331C417.183 663.813 376.703 619.248 332.327 582.069C277.629 536.21 218.639 503.972 157.005 486.262C143.696 482.439 130.065 479.403 116.111 477.158L116.101 477.148Z" fill="white"/>
<path d="M110.429 460.991C71.1553 454.671 29.1742 455.183 -14.9114 462.557C-64.6474 470.873 -116.809 487.806 -169.949 512.886C-238.944 545.492 -300.347 584.464 -365.353 625.727C-391.897 642.571 -419.346 659.994 -447.254 676.877C-498.497 707.811 -576.454 752.25 -661.439 780.86C-697.559 793.097 -733.177 801.707 -767.318 806.464C-837.948 816.316 -915.649 812.178 -1004.86 793.804C-1065.47 781.399 -1120.35 765.029 -1172.62 743.747C-1258.61 708.704 -1339.47 658.639 -1417.67 610.222C-1431.46 601.689 -1445.71 592.861 -1459.74 584.274C-1540.29 534.99 -1645.35 475.283 -1743.67 450.859L-1744.23 453.102C-1646.22 477.448 -1541.36 537.047 -1460.95 586.242C-1446.93 594.826 -1432.68 603.646 -1418.9 612.179C-1340.62 660.647 -1259.66 710.765 -1173.5 745.882C-1121.09 767.216 -1066.08 783.626 -1005.33 796.059C-915.859 814.484 -837.904 818.631 -767.008 808.744C-732.726 803.968 -696.956 795.322 -660.708 783.036C-575.505 754.349 -497.404 709.833 -446.062 678.84C-418.13 661.944 -390.667 644.519 -364.114 627.664C-299.167 586.444 -237.823 547.508 -168.96 514.964C-86.9959 476.275 35.126 437.548 151.434 472.773C212.362 491.228 272.068 526.843 324.107 575.779C365.695 614.86 402.403 660.751 443.152 724.567C510.972 830.799 568.072 955.196 612.854 1094.29C618.837 1112.86 624.907 1132.56 631.423 1154.51C640.08 1183.65 648.571 1213.05 656.791 1241.49C692.599 1365.43 726.425 1482.5 770.933 1571.77C800.331 1630.46 828.881 1675.04 860.781 1712.08C892.371 1748.77 927.567 1778.38 971.53 1805.29C988.618 1815.74 1005 1824.57 1021.65 1832.28C1082.5 1860.48 1154.44 1878.32 1229.69 1883.86C1312.98 1890 1397.12 1881.39 1479.76 1858.28C1579.94 1830.25 1680.36 1778.75 1770.14 1709.36C1815.95 1673.95 1858.69 1634.14 1897.17 1591.03C1936.96 1546.45 1972.24 1498.29 2001.99 1447.89L2000 1446.71C1883.24 1644.44 1688.53 1797.46 1479.14 1856.05C1322.7 1899.81 1152.04 1890.14 1022.62 1830.18C1006.07 1822.51 989.751 1813.72 972.743 1803.31C886.37 1750.46 830.37 1685.25 773.01 1570.74C728.6 1481.66 694.806 1364.69 659.025 1240.85C650.812 1212.42 642.316 1183.01 633.655 1153.87C627.138 1131.89 621.06 1112.18 615.074 1093.59C570.226 954.31 513.045 829.734 445.12 723.336C404.274 659.349 367.444 613.328 325.715 574.105C300.793 550.667 274.111 530.197 246.411 513.26C216.007 494.669 184.289 480.31 152.13 470.571C138.618 466.48 124.713 463.281 110.456 460.993L110.429 460.991Z" fill="white"/>
<path d="M104.343 444.731C63.9579 438.235 20.7676 439.53 -24.6043 448.648C-76.0158 458.974 -129.08 478.963 -182.318 508.052C-248.495 544.256 -306.59 586.534 -368.098 631.302C-396.989 652.326 -426.864 674.074 -457.52 695.01C-537.843 749.792 -606.682 786.57 -674.17 810.748C-711.099 824.056 -747.774 833.254 -783.19 838.089C-855.427 847.96 -933.209 842.398 -1027.97 820.575C-1090.02 806.368 -1146.37 788.454 -1200.25 765.808C-1293.53 726.554 -1381.2 671.291 -1465.99 617.849C-1475.85 611.636 -1485.7 605.426 -1495.55 599.249C-1583.85 543.868 -1687.17 482.97 -1783.99 451.205L-1784.67 453.259C-1688.06 484.945 -1584.88 545.766 -1496.7 601.074C-1486.85 607.251 -1477 613.46 -1467.14 619.673C-1382.28 673.164 -1294.53 728.47 -1201.08 767.794C-1147.09 790.489 -1090.62 808.444 -1028.45 822.674C-933.421 844.555 -855.394 850.13 -782.89 840.224C-747.328 835.371 -710.502 826.138 -673.435 812.778C-605.773 788.536 -536.779 751.684 -456.299 696.787C-425.616 675.825 -395.733 654.073 -366.825 633.04C-305.373 588.323 -247.337 546.081 -181.28 509.943C-98.3122 464.608 25.9072 418.612 146.558 456.947C208.107 476.503 267.208 514.784 317.485 567.643C366.598 619.24 401.204 676.342 428.573 725.393C488.44 832.681 540.77 957.347 588.542 1106.51C594.245 1124.3 600.137 1143.16 607.651 1167.64C633.095 1250.44 656.275 1324.65 682.275 1394.31C711.796 1473.39 740.831 1534.56 771.05 1581.32C805.223 1633.96 840.554 1674.82 879.071 1706.25C914.384 1735.07 954.028 1757.59 1003.85 1777.13C1022.6 1784.48 1040.06 1790.42 1057.22 1795.29C1121.96 1813.63 1195.7 1821.89 1270.48 1819.18C1354.57 1816.13 1438.33 1799.76 1519.43 1770.52C1618.63 1734.77 1717.38 1676.99 1805.03 1603.45C1850.03 1565.68 1892.04 1523.86 1929.9 1479.15C1969.08 1432.86 2003.97 1383.27 2033.58 1331.77L2031.71 1330.7C1916.87 1530.44 1725.09 1694.1 1518.71 1768.49C1365.4 1823.75 1197.42 1832.77 1057.82 1793.21C1040.72 1788.37 1023.32 1782.45 1004.63 1775.12C903.06 1735.27 838.078 1680.61 772.86 1580.14C703.847 1473.35 653.838 1310.6 609.712 1167C602.193 1142.51 596.295 1123.66 590.596 1105.85C542.776 956.552 490.397 831.757 430.455 724.339C403.021 675.167 368.322 617.923 319.047 566.15C268.518 513.027 209.099 474.551 147.205 454.886C133.306 450.47 119.007 447.08 104.333 444.722L104.343 444.731Z" fill="white"/>
<path d="M98.2101 428.45C56.7212 421.774 12.3385 423.864 -34.2933 434.726C-86.6746 446.931 -142.138 470.613 -194.672 503.215C-258.81 543.055 -314.358 588.803 -373.168 637.235C-403.643 662.33 -435.146 688.282 -467.765 713.142C-546.07 772.738 -617.749 814.444 -686.88 840.636C-724.642 855.021 -762.379 864.804 -799.039 869.706C-872.094 879.495 -952.18 872.386 -1051.07 847.335C-1114.53 831.341 -1172.36 811.884 -1227.86 787.852C-1329.82 743.657 -1425.54 682.169 -1518.11 622.703L-1531.34 614.208C-1627.66 552.388 -1729.81 489.892 -1824.32 451.543L-1825.08 453.403C-1730.72 491.692 -1628.67 554.132 -1532.43 615.902L-1519.2 624.397C-1426.56 683.904 -1330.78 745.438 -1228.66 789.7C-1173.06 813.776 -1115.13 833.262 -1051.56 849.288C-952.417 874.401 -872.093 881.528 -798.779 871.702C-761.964 866.778 -724.075 856.96 -686.174 842.515C-616.86 816.249 -545.021 774.457 -466.552 714.742C-433.906 689.856 -402.38 663.897 -371.896 638.791C-313.139 590.405 -257.645 544.7 -193.621 504.928C-124.957 462.318 9.91348 397.369 141.685 441.136C220.347 467.262 277.107 519.932 310.873 559.523C356.37 612.823 388.536 673.713 414.007 726.243C464.777 830.977 511.111 952.027 564.231 1118.75C568.335 1131.63 572.469 1144.71 576.464 1157.34C578.935 1165.16 581.407 1172.97 583.875 1180.77C613.844 1275.22 640.182 1347.71 666.758 1408.89C700.419 1486.36 734.574 1545.88 771.174 1590.87C810.633 1639.16 851.908 1675 897.36 1700.43C936.739 1722.46 979.54 1737.43 1036.15 1748.95C1056.51 1753.1 1075.04 1756.15 1092.8 1758.29C1161.45 1766.55 1236.99 1765.24 1311.26 1754.5C1396.07 1742.23 1479.46 1718.1 1559.11 1682.8C1607.86 1661.19 1656.38 1634.57 1703.32 1603.68C1750.89 1572.38 1796.85 1536.68 1839.92 1497.58C1884.1 1457.47 1925.39 1413.64 1962.63 1367.31C2001.2 1319.32 2035.71 1268.31 2065.18 1215.69L2063.43 1214.71C1948.66 1419.6 1764.54 1589.55 1558.29 1680.97C1355.54 1770.83 1179.77 1766.74 1093.03 1756.3C1075.33 1754.17 1056.85 1751.13 1036.55 1746.99C939.18 1727.16 857.053 1692.81 772.727 1589.61C690.343 1488.36 631.998 1325.82 585.788 1180.17C583.312 1172.38 580.846 1164.57 578.377 1156.75C574.384 1144.11 570.248 1131.04 566.14 1118.15C512.988 951.327 466.625 830.195 415.807 725.373C390.284 672.726 358.043 611.7 312.398 558.221C278.467 518.44 221.411 465.499 142.313 439.23C128.015 434.481 113.297 430.891 98.2003 428.461L98.2101 428.45Z" fill="white"/>
<path d="M92.0459 412.16C49.4657 405.306 3.9065 408.184 -43.9745 420.8C-98.077 435.056 -154.455 461.877 -207.025 498.372C-269.664 541.901 -323.18 591.243 -379.839 643.478C-411.369 672.545 -443.966 702.6 -478.015 731.267C-555.538 796.439 -628.018 841.989 -699.602 870.52C-738.219 885.99 -777.011 896.354 -814.911 901.33C-889.946 911.196 -969.912 902.797 -1074.18 874.098C-1138.12 856.575 -1199.13 834.982 -1255.49 809.906C-1367.91 759.828 -1473.76 690.419 -1567.14 629.176C-1669.93 561.776 -1770.02 497.499 -1864.67 451.881L-1865.48 453.558C-1770.93 499.125 -1670.89 563.366 -1568.16 630.729C-1474.72 692.009 -1368.81 761.467 -1256.24 811.606C-1199.79 836.721 -1138.71 858.353 -1074.67 875.898C-1026.93 889.031 -984.948 897.747 -946.314 902.53C-898.983 908.39 -855.925 908.603 -814.668 903.179C-776.615 898.188 -737.669 887.782 -698.913 872.253C-627.139 843.644 -554.494 797.994 -476.817 732.693C-442.742 704.001 -410.126 673.931 -378.579 644.849C-321.974 592.659 -268.505 543.364 -205.967 499.905C-150.13 461.14 -4.95173 376.267 136.817 425.306C216.487 452.862 271.86 509.083 304.279 551.389C346.311 606.2 374.863 668.221 399.452 727.077C450.986 850.415 493.579 984.772 538.674 1127.02L539.928 1130.97C546.221 1150.82 553.022 1172.18 560.112 1193.88C624.15 1389.72 693.233 1522.69 771.306 1600.37C816.206 1644.87 863.421 1675.68 915.637 1694.55C958.789 1710.15 1005.91 1718.22 1068.44 1720.72C1090.2 1721.59 1109.8 1721.75 1128.35 1721.24C1201.88 1719.18 1277.15 1708.6 1352.03 1689.76C1437.44 1668.27 1520.46 1636.4 1598.77 1595.05C1646.98 1569.59 1694.74 1539.54 1740.74 1505.74C1787.51 1471.37 1832.62 1433 1874.82 1391.68C1963.93 1304.41 2038.62 1206.14 2096.79 1099.57L2095.16 1098.68C1982.01 1305.95 1800.77 1486.27 1597.91 1593.4C1411.4 1691.9 1239.59 1716.28 1128.3 1719.38C1109.79 1719.9 1090.24 1719.73 1068.52 1718.86C959.062 1714.5 866.858 1692.45 772.626 1599.05C694.772 1521.59 625.838 1388.87 561.892 1193.31C554.806 1171.61 548.005 1150.26 541.709 1130.41L540.455 1126.46C495.345 984.174 452.737 849.779 401.174 726.358C376.533 667.379 347.917 605.232 305.76 550.255C273.186 507.749 217.537 451.257 137.427 423.55C122.718 418.462 107.578 414.666 92.0504 412.168L92.0459 412.16Z" fill="white"/>
<path d="M85.8593 395.856C42.186 388.831 -4.5372 392.499 -53.6452 406.863C-124.19 427.5 -182.698 465.383 -219.357 493.528C-280.883 540.8 -335.145 596.306 -387.619 649.989C-419.835 682.943 -453.139 717.02 -488.237 749.392C-565.054 820.144 -638.351 869.543 -712.305 900.409C-751.783 916.962 -791.638 927.911 -830.762 932.954C-928.339 945.547 -1024.45 922.419 -1097.28 900.863C-1162.57 881.616 -1225.08 858.427 -1283.1 831.956C-1396.89 779.979 -1503.5 710.672 -1602.94 644.14L-1618.86 633.483C-1714.79 569.275 -1813.97 502.879 -1905.02 452.217L-1905.85 453.706C-1814.86 504.33 -1715.7 570.705 -1619.81 634.897L-1603.88 645.554C-1504.39 712.123 -1397.71 781.477 -1283.81 833.509C-1225.71 860.016 -1163.12 883.233 -1097.76 902.504C-1024.77 924.108 -928.431 947.282 -830.534 934.65C-791.255 929.586 -751.255 918.599 -711.638 901.987C-637.498 871.042 -564.035 821.537 -487.07 750.648C-451.938 718.252 -418.615 684.154 -386.387 651.184C-333.954 597.549 -279.738 542.084 -218.307 494.884C-161.944 451.618 -14.9928 356.682 131.964 409.473C212.727 438.486 266.672 498.238 297.697 543.257C338.566 602.513 364.15 669.646 384.915 727.921C415.259 813.073 442.095 901.917 470.505 995.98C485.016 1044.03 500.023 1093.71 515.631 1143.18C523.114 1166.91 529.892 1187.78 536.35 1206.99C566.141 1295.54 599.583 1373.25 635.745 1437.96C677.446 1512.59 723.095 1570.42 771.43 1609.84C821.922 1650.89 875.063 1676.67 933.895 1688.67C981.271 1698.33 1032.72 1699.51 1100.69 1692.46C1123.56 1690.09 1144.22 1687.38 1163.87 1684.17C1241.11 1671.56 1318.12 1651.66 1392.78 1625C1478.66 1594.35 1561.31 1554.75 1638.43 1507.3C1686.08 1477.99 1733.09 1444.51 1778.16 1407.8C1824.11 1370.38 1868.37 1329.32 1909.71 1285.78C1996.95 1193.89 2070.54 1092.17 2128.4 983.456L2126.89 982.658C2013.53 1195.64 1839.75 1381.44 1637.54 1505.84C1456.03 1617.51 1279.62 1663.54 1163.6 1682.48C1143.98 1685.69 1123.34 1688.4 1100.51 1690.76C979.76 1703.27 877.766 1694.08 772.512 1608.52C681.738 1534.47 602.831 1399.19 537.973 1206.44C531.519 1187.24 524.744 1166.38 517.264 1142.67C501.661 1093.2 486.652 1043.53 472.145 995.487C443.728 901.401 416.886 812.535 386.526 727.345C365.723 668.971 340.097 601.711 299.11 542.285C278.19 511.937 254.107 485.297 227.516 463.098C198.059 438.504 166.104 419.923 132.544 407.862C117.42 402.429 101.85 398.425 85.8736 395.854L85.8593 395.856Z" fill="white"/>
<path d="M79.9342 379.644C64.3433 377.134 48.3283 376.025 32.0122 376.334C1.32329 376.911 -30.7486 382.493 -63.3007 392.918C-136.045 416.218 -195.017 457.852 -231.679 488.674C-292.375 539.733 -345.156 599.213 -396.206 656.725C-428.838 693.492 -462.584 731.515 -498.455 767.499C-573.577 842.773 -649.798 897.54 -725.006 930.287C-765.358 947.924 -806.276 959.459 -846.618 964.57C-945.736 977.141 -1045 951.427 -1120.39 927.62C-1186.97 906.668 -1251.01 881.896 -1310.72 853.998C-1428.61 798.876 -1538.04 727.745 -1638.74 659.089C-1665.29 640.986 -1692.19 622.484 -1718.2 604.591C-1797.75 549.863 -1872.9 498.164 -1945.4 452.542L-1946.22 453.856C-1873.75 499.463 -1798.62 551.144 -1719.08 605.868C-1693.07 623.763 -1666.17 642.271 -1639.62 660.374C-1538.87 729.066 -1429.37 800.236 -1311.39 855.401C-1251.61 883.331 -1187.51 908.122 -1120.87 929.1C-1068.96 945.488 -1025.95 956.097 -985.618 962.471C-935.302 970.417 -889.776 971.608 -846.432 966.112C-805.943 960.985 -764.88 949.413 -724.395 931.714C-683.849 914.06 -642.785 889.945 -602.343 860.033C-567.547 834.3 -532.228 803.535 -497.362 768.598C-461.456 732.584 -427.698 694.545 -395.047 657.757C-344.036 600.287 -291.288 540.851 -230.682 489.866C-186.32 452.576 -29.4187 335.414 127.096 393.643C191.013 417.423 249.262 467.67 291.113 535.133C328.975 596.125 351.024 664.237 370.369 728.771C388.158 788.112 404.497 848.326 421.799 912.083C443.348 991.473 465.628 1073.56 491.319 1155.4C498.651 1178.75 505.603 1199.92 512.579 1220.11C543.206 1308.69 579.42 1386.88 620.227 1452.49C666.293 1526.56 717.2 1582.68 771.532 1619.31C827.744 1657.08 886.815 1677.83 952.124 1682.78C1004.25 1686.72 1059.99 1680.99 1132.89 1664.2C1156.58 1658.74 1178.32 1653.15 1199.34 1647.1C1373.97 1596.9 1535.04 1520.35 1678.06 1419.56C1774.06 1351.91 1863.73 1271.28 1944.58 1179.9C2029.92 1083.44 2102.39 978.29 2159.99 867.352L2158.61 866.638C2046.48 1082.61 1875.5 1278.53 1677.16 1418.29C1534.28 1518.97 1373.37 1595.46 1198.91 1645.61C1177.91 1651.65 1156.2 1657.23 1132.53 1662.68C1018.95 1688.85 896.716 1701.55 772.394 1618.02C642.412 1530.4 560.159 1352.99 514.044 1219.59C507.077 1199.42 500.126 1178.28 492.797 1154.94C467.111 1073.12 444.834 991.047 423.294 911.674C405.987 847.908 389.644 787.686 371.848 728.323C352.473 663.686 330.382 595.467 292.427 534.313C272.55 502.27 249.114 474.087 222.772 450.535C193.585 424.447 161.574 404.813 127.632 392.181C112.268 386.468 96.329 382.279 79.9342 379.644Z" fill="white"/>
<path d="M73.7986 363.349C57.8345 360.781 41.4396 359.727 24.7105 360.203C-6.78007 361.099 -39.6424 367.415 -72.9619 378.971C-103.505 389.565 -134.293 404.486 -164.466 423.325C-192.372 440.746 -219.133 461.099 -244.008 483.818C-304.072 538.719 -355.585 602.237 -405.399 663.663C-438.261 704.184 -472.238 746.081 -508.68 785.61C-583.219 866.381 -660.279 925.117 -737.722 960.172C-778.958 978.899 -820.935 991.013 -862.49 996.193C-962.673 1008.68 -1060.77 982.071 -1143.53 954.383C-1211.36 931.744 -1276.92 905.39 -1338.36 876.049C-1466.78 814.672 -1585.49 735.862 -1674.56 674.053C-1733.87 632.888 -1792.95 590.505 -1850.07 549.516C-1897.3 515.625 -1941.92 483.61 -1985.79 452.873L-1986.6 454.025C-1942.73 484.754 -1898.12 516.767 -1850.89 550.659C-1793.76 591.65 -1734.69 634.039 -1675.36 675.208C-1586.25 737.042 -1467.48 815.897 -1338.96 877.315C-1277.47 906.685 -1211.86 933.061 -1143.97 955.718C-1090.34 973.662 -1046.27 985.334 -1005.27 992.45C-953.486 1001.45 -906.733 1003.12 -862.319 997.584C-820.619 992.392 -778.507 980.232 -737.14 961.449C-659.526 926.316 -582.314 867.478 -507.646 786.564C-471.172 746.998 -437.177 705.086 -404.304 664.548C-354.521 603.16 -303.047 539.684 -243.052 484.856C-150.872 400.659 -6.50014 328.324 122.234 377.814C187.099 402.752 244.741 455.739 284.539 527.017C320.04 590.563 338.517 659.119 355.833 729.63C366.36 771.875 376.216 814.022 386.641 858.639C410.259 959.667 434.677 1064.13 467.021 1167.62C474.302 1190.92 481.432 1212.37 488.819 1233.21C519.958 1321 560.031 1401.84 604.715 1467C655.202 1540.62 711.366 1595.04 771.633 1628.75C833.663 1663.34 898.664 1679.08 970.343 1676.87C1027.65 1675.1 1087.7 1662.47 1165.05 1635.93C1189.04 1627.69 1212.5 1618.98 1234.79 1610.02C1413.68 1538.16 1576.15 1444.55 1717.69 1331.82C1812.32 1256.44 1900.39 1169.7 1979.45 1074.01C2062.84 973.084 2134.22 864.489 2191.59 751.243L2190.34 750.608C2077.57 973.192 1913.83 1173.79 1716.81 1330.72C1575.38 1443.37 1413.03 1536.9 1234.26 1608.72C1212 1617.67 1188.56 1626.37 1164.59 1634.6C1048.4 1674.48 910.922 1704.82 772.308 1627.53C657.955 1563.57 557.745 1423.37 490.129 1232.74C482.75 1211.92 475.624 1190.48 468.351 1167.2C436.024 1063.76 411.613 959.323 388.002 858.318C377.572 813.692 367.718 771.54 357.186 729.292C339.85 658.688 321.335 590.033 285.752 526.335C266.922 492.606 244.141 462.881 218.04 437.975C189.131 410.389 157.068 389.71 122.731 376.509C106.984 370.453 90.6347 366.062 73.7968 363.355L73.7986 363.349Z" fill="white"/>
<path d="M2222.06 634.582C2110 861.19 1948.99 1071.63 1756.46 1243.15C1616.12 1368.18 1452.33 1478.76 1269.64 1571.84C1244.94 1584.32 1220.39 1595.98 1196.69 1606.51C1072.91 1661.5 925.692 1708.13 772.23 1637.05C646.961 1578.88 535.419 1436.31 466.213 1245.89C458.587 1224.91 451.085 1202.56 443.903 1179.47C406.167 1058.16 382.23 934.456 359.077 814.832C353.686 786.976 348.112 758.177 342.517 730.26C327.281 653.08 311.994 583.867 279.078 518.352C241.237 442.986 183.971 387.043 117.831 360.831C86.4437 348.387 52.6605 342.747 17.4273 344.077C-14.8651 345.293 -48.5162 352.337 -82.6032 365.024C-142.813 387.427 -204.5 427.895 -256.312 478.969C-315.908 537.744 -366.292 605.38 -415.023 670.783C-447.961 714.996 -482.02 760.711 -518.888 803.726C-592.879 890.004 -670.78 952.694 -750.42 990.063C-792.537 1009.87 -835.579 1022.58 -878.35 1027.82C-980.253 1040.32 -1081.27 1011.24 -1166.65 981.15C-1235.71 956.855 -1302.77 928.913 -1365.98 898.103C-1472.14 846.326 -1581.57 779.888 -1710.36 689.016C-1817.02 613.765 -1920.61 534.53 -2026.18 453.198L-2026.95 454.188C-1921.37 535.528 -1817.77 614.766 -1711.09 690.037C-1582.24 780.946 -1472.76 847.413 -1366.54 899.223C-1303.28 930.06 -1236.17 958.02 -1167.06 982.325C-1081.55 1012.46 -980.361 1041.59 -878.2 1029.06C-835.297 1023.8 -792.129 1011.06 -749.888 991.191C-670.085 953.749 -592.042 890.946 -517.937 804.534C-481.046 761.486 -446.974 715.747 -414.018 671.52C-365.319 606.155 -314.961 538.565 -255.436 479.849C-162.528 388.257 -15.8027 309.195 117.372 361.986C183.222 388.091 240.256 443.818 277.964 518.908C310.806 584.286 326.077 653.415 341.294 730.502C346.889 758.419 352.463 787.218 357.85 815.066C381.006 934.724 404.955 1058.45 442.711 1179.84C449.901 1202.94 457.412 1225.3 465.045 1246.31C497.205 1334.79 540.134 1416.12 589.191 1481.5C644.145 1554.74 705.551 1607.45 771.713 1638.18C839.647 1669.64 910.571 1680.36 988.545 1670.95C1050.53 1663.47 1116.83 1643.36 1197.2 1607.65C1220.93 1597.11 1245.49 1585.43 1270.22 1572.95C1356.18 1529.15 1438.46 1481.26 1514.76 1430.61C1601.08 1373.32 1682.68 1310.56 1757.31 1244.07C1949.96 1072.45 2111.06 861.884 2223.2 635.131L2222.08 634.575L2222.06 634.582Z" fill="white"/>
<path d="M2253.79 518.553C2142.07 749.9 1983.81 970.173 1796.13 1155.56C1654.34 1295.63 1489.11 1423.26 1305.04 1534.94C1277.88 1551.33 1252.94 1565.55 1228.79 1578.42C1105.8 1644.54 942.743 1712.04 772.164 1646.58C634.444 1593.62 514.211 1452.37 442.297 1259.04C434.342 1237.65 426.657 1215.01 419.449 1191.74C377.44 1056.08 356.076 916.034 335.412 780.598C332.935 764.377 330.381 747.601 327.838 731.218C317.763 665.246 305.227 583.137 272.387 510.364C255.668 473.299 234.19 440.484 208.56 412.824C180.23 382.255 148.05 359.481 112.919 345.149C80.8171 332.056 46.2393 326.259 10.1375 327.93C-22.9548 329.46 -57.4044 337.241 -92.2508 351.054C-154.189 375.6 -216.827 419.305 -268.63 474.103C-327.873 536.799 -377.25 608.597 -424.995 678.035C-457.901 725.891 -491.93 775.37 -529.095 821.823C-602.57 913.597 -681.31 980.257 -763.126 1019.94C-806.134 1040.84 -850.239 1054.13 -894.22 1059.44C-997.926 1071.96 -1101.82 1040.42 -1189.78 1007.91C-1260.01 981.991 -1328.59 952.46 -1393.62 920.148C-1505.48 864.531 -1620.8 793.821 -1746.17 703.975C-1847.02 631.701 -1951.82 549.775 -2066.58 453.513L-2067.29 454.353C-1952.51 550.628 -1847.68 632.573 -1746.81 704.861C-1621.4 794.74 -1506.03 865.486 -1394.11 921.125C-1329.04 953.456 -1260.43 982.996 -1190.16 1008.93C-1102.08 1041.49 -998.028 1073.08 -894.091 1060.52C-849.99 1055.2 -805.768 1041.87 -762.65 1020.92C-680.69 981.155 -601.82 914.399 -528.239 822.495C-491.044 776.011 -457.01 726.513 -424.092 678.641C-376.37 609.236 -327.017 537.471 -267.833 474.838C-178.5 380.338 -25.2928 289.929 112.5 346.148C179.365 373.431 235.79 431.903 271.383 510.798C304.163 583.432 316.691 665.458 326.751 731.365C329.288 747.746 331.848 764.524 334.318 780.744C354.984 916.221 376.355 1056.31 418.389 1192.05C425.598 1215.34 433.296 1238 441.254 1259.41C474.481 1348.73 520.262 1430.53 573.644 1495.99C602.238 1531.06 633.041 1561.5 665.194 1586.49C699.21 1612.92 735.065 1633.48 771.762 1647.59C809.899 1662.23 849.8 1670.94 890.341 1673.47C927.626 1675.81 966.794 1672.99 1006.76 1665.12C1074.66 1651.74 1145.37 1624.49 1229.3 1579.37C1253.47 1566.49 1278.43 1552.26 1305.6 1535.87C1393.31 1482.66 1477.35 1425.47 1555.37 1365.89C1641.27 1300.3 1722.54 1229.79 1796.89 1156.34C1888.44 1065.9 1973.32 966.961 2049.18 862.243C2128.5 752.748 2197.67 637.27 2254.77 519.021L2253.79 518.545L2253.79 518.553Z" fill="white"/>
<path d="M2285.52 402.529C2172.13 642.894 2020.82 866.785 1835.8 1067.99C1691.65 1224.75 1524.99 1369.44 1340.46 1498.05C1312.42 1517.53 1286.4 1534.63 1260.93 1550.33C1141.46 1624.31 960.8 1715.76 772.115 1656.12C624.252 1609.31 492.017 1465.79 418.382 1272.19C410.111 1250.43 402.241 1227.49 394.997 1204C349.53 1056.54 332.228 902.183 315.491 752.903C314.714 745.976 313.94 739.064 313.164 732.157C305.097 659.488 295.95 577.117 265.701 502.356C250.26 464.186 228.861 428.87 203.819 400.229C175.785 368.166 143.551 344.354 108.01 329.455C75.2098 315.703 39.8293 309.755 2.85733 311.771C-31.0369 313.621 -66.275 322.13 -101.889 337.074C-165.557 363.79 -229.141 410.718 -280.939 469.226C-339.932 535.872 -388.381 611.897 -435.229 685.418C-468.021 736.867 -501.921 790.073 -539.307 839.911C-612.293 937.181 -691.87 1007.8 -775.833 1049.81C-819.736 1071.8 -864.905 1085.69 -910.09 1091.06C-1015.65 1103.61 -1122.4 1069.59 -1212.91 1034.66C-1284.27 1007.15 -1354.36 976.036 -1421.26 942.19C-1540.25 881.96 -1658.25 808.932 -1781.99 718.925C-1890.9 639.707 -2000.25 550.513 -2107 453.823L-2107.64 454.528C-2000.87 551.245 -1891.49 640.459 -1782.55 719.693C-1658.77 809.725 -1540.73 882.78 -1421.69 943.037C-1354.77 976.896 -1284.65 1008.02 -1213.26 1035.55C-1153.79 1058.5 -1107.82 1072.95 -1064.23 1082.38C-1008.12 1094.53 -957.665 1097.68 -909.988 1092C-864.691 1086.62 -819.415 1072.71 -775.415 1050.67C-731.085 1028.49 -687.299 997.766 -645.259 959.347C-608.247 925.519 -572.347 885.527 -538.552 840.493C-501.15 790.625 -467.232 737.405 -434.434 685.937C-387.602 612.445 -339.17 536.456 -280.233 469.86C-190.245 368.213 -34.6685 270.684 107.639 330.34C199.259 368.744 245.444 454.824 264.812 502.718C295.011 577.355 304.152 659.658 312.215 732.272C312.991 739.178 313.765 746.091 314.542 753.018C331.28 902.338 348.588 1056.75 394.084 1204.29C401.334 1227.8 409.206 1250.76 417.485 1272.53C451.818 1362.8 500.443 1445.09 558.115 1510.51C588.853 1545.38 622.043 1575.34 656.764 1599.54C693.496 1625.15 732.202 1644.49 771.818 1657.03C812.993 1670.05 856.03 1676.57 899.741 1676.42C939.955 1676.28 982.071 1670.48 1024.91 1659.19C1097.56 1640.03 1174.92 1604.69 1261.41 1551.14C1286.9 1535.43 1312.93 1518.32 1340.99 1498.83C1525.57 1370.18 1692.29 1225.45 1836.49 1068.64C1926.28 970.986 2009.58 865.932 2084.04 756.392C2161.2 642.884 2229.28 523.964 2286.37 402.938L2285.52 402.536L2285.52 402.529Z" fill="white"/>
<path d="M2317.25 286.5C2203.28 533.744 2054.65 767.206 1875.48 980.404C1728.51 1155.29 1560.43 1317.04 1375.88 1461.14C1346.97 1483.69 1319.88 1503.67 1293.06 1522.23C1096.6 1658.45 926.183 1705.37 772.068 1665.66C612.107 1624.4 470.952 1482.23 394.462 1285.33C385.88 1263.24 377.834 1240.01 370.546 1216.26C322.237 1058.91 310.164 893.277 298.491 733.097C292.746 653.488 286.806 571.171 259.014 494.35C244.612 454.523 223.89 417.612 199.1 387.606C171.362 354.029 139.064 329.189 103.113 313.771C69.6227 299.329 33.4548 293.2 -4.37779 295.553C-39.0639 297.712 -75.1004 306.958 -111.477 323.041C-176.868 351.949 -241.414 402.131 -293.221 464.35C-352.03 534.988 -399.621 615.272 -445.64 692.923C-478.247 747.933 -511.966 804.82 -549.487 858.003C-620.978 959.318 -703.632 1035.98 -788.512 1079.69C-833.313 1102.77 -879.551 1117.24 -925.939 1122.68C-1033.13 1135.24 -1138.32 1100.66 -1236.03 1061.41C-1308.45 1032.34 -1380.06 999.641 -1448.87 964.228C-1573.21 900.226 -1697.32 822.726 -1817.78 733.878C-1932.55 649.221 -2043.45 555.098 -2147.39 454.129L-2147.95 454.703C-2043.98 555.7 -1933.05 649.853 -1818.25 734.525C-1697.76 823.397 -1573.6 900.923 -1449.23 964.942C-1380.4 1000.37 -1308.76 1033.07 -1236.32 1062.16C-1195.15 1078.69 -1140.62 1099.34 -1083.84 1112.36C-1026.29 1125.55 -974.613 1129.19 -925.84 1123.47C-879.354 1118.02 -833.027 1103.53 -788.14 1080.41C-742.876 1057.1 -698.408 1024.72 -655.965 984.179C-618.431 948.327 -582.389 906.028 -548.825 858.469C-511.282 805.259 -477.56 748.36 -444.941 693.333C-398.931 615.713 -351.36 535.45 -292.594 464.866C-194.743 347.346 -34.5272 255.276 102.818 314.511C170.749 343.638 227.418 409.289 258.287 494.624C286.042 571.34 291.979 653.603 297.719 733.156C309.398 893.385 321.479 1059.06 369.809 1216.5C377.106 1240.26 385.158 1263.52 393.747 1285.63C429.205 1376.91 480.681 1459.68 542.61 1525C575.495 1559.69 611.074 1589.14 648.357 1612.56C687.811 1637.35 729.37 1655.47 771.891 1666.43C816.107 1677.83 862.29 1682.17 909.154 1679.33C952.318 1676.72 997.383 1667.94 1043.09 1653.23C1121.52 1627.99 1203.44 1585.36 1293.53 1522.89C1320.37 1504.32 1347.47 1484.33 1376.4 1461.77C1560.98 1317.63 1729.11 1155.85 1876.12 980.916C1964 876.34 2045.69 765.179 2118.93 650.522C2193.82 533.276 2260.8 410.915 2318 286.837L2317.28 286.501L2317.25 286.5Z" fill="white"/>
<path d="M2348.98 170.464C2133.46 648.772 1809.22 1082.31 1411.32 1424.23C1169.46 1632.05 960.349 1714.16 772.036 1675.21C602.612 1640.18 448.772 1495.83 370.55 1298.49C297.404 1113.96 289.864 903.3 283.811 734.034L283.753 732.355C280.816 650.231 277.779 565.306 252.32 486.347C238.968 444.935 218.918 406.448 194.341 375.045C166.912 340.006 134.57 314.116 98.2052 298.097C63.9991 283.031 27.0267 276.757 -11.67 279.458C-47.164 281.935 -83.9848 291.917 -121.117 309.114C-188.241 340.204 -253.727 393.605 -305.511 459.478C-364.195 534.124 -410.977 618.72 -456.223 700.531C-488.596 759.069 -522.072 819.595 -559.68 876.097C-636.67 991.762 -765.46 1133.92 -941.805 1154.3C-1050.95 1166.92 -1158.83 1129.97 -1259.16 1088.18C-1605.84 943.749 -1926.96 724.602 -2187.83 454.435L-2188.29 454.882C-2057.81 590.017 -1912.43 712.6 -1756.19 819.222C-1599.96 925.838 -1432.82 1016.53 -1259.42 1088.77C-1159 1130.6 -1051.03 1167.57 -941.739 1154.94C-866.585 1146.25 -793.182 1114.15 -723.576 1059.52C-664.42 1013.09 -609.098 951.49 -559.146 876.451C-521.527 819.932 -488.045 759.388 -455.664 700.845C-410.431 619.058 -363.662 534.484 -305.01 459.876C-206.567 334.652 -43.7915 236.245 97.9427 298.685C166.972 329.095 223.016 397.568 251.71 486.542C277.14 565.418 280.178 650.297 283.113 732.379L283.171 734.059C286.673 831.908 290.796 927.513 302.671 1021.38C316.13 1127.75 338.139 1218.47 369.954 1298.73C406.56 1391.08 460.882 1474.33 527.052 1539.48C562.086 1573.98 600.057 1602.96 639.896 1625.59C682.074 1649.54 726.489 1666.46 771.908 1675.85C827.353 1687.31 885.512 1688.27 944.75 1678.68C998.424 1670 1054.55 1652.4 1111.56 1626.39C1205.56 1583.49 1303.75 1517.52 1411.74 1424.73C1610.34 1254.07 1791.18 1060.38 1949.25 849.029C2107.31 637.675 2242 409.467 2349.57 170.735L2348.99 170.472L2348.98 170.464Z" fill="white"/>
</g>
</g>
<defs>
<clipPath id="clip0_192_445">
<rect width="1440" height="810" fill="white"/>
</clipPath>
<clipPath id="clip1_192_445">
<rect width="4316.5" height="2442.52" fill="white" transform="matrix(-0.851236 -0.524783 -0.524783 0.851236 3785.16 47.2285)"/>
</clipPath>
<clipPath id="clip2_192_445">
<rect width="4316.5" height="2442.52" fill="white" transform="matrix(0.958398 0.285435 0.285435 -0.958398 -2438 1293.32)"/>
</clipPath>
</defs>
</svg>
