<svg width="1440" height="810" viewBox="0 0 1440 810" fill="none" xmlns="http://www.w3.org/2000/svg">
<g clip-path="url(#clip0_192_537)">
<g clip-path="url(#clip1_192_537)">
<g opacity="0.5">
<path d="M1751.26 577.198C1735.85 579.521 1721.66 580.122 1708.51 579.027C1690.38 577.519 1673.83 572.714 1659.3 564.741C1643.28 555.95 1629.17 543.003 1617.37 526.271C1589.84 487.248 1571.52 435.379 1553.8 385.215C1534.14 329.541 1513.8 271.97 1480.87 232.228C1443.96 187.698 1394.69 170.657 1330.23 180.127C1329.76 180.194 1329.29 180.267 1328.82 180.334C1212.66 197.853 1102.36 271.021 1004.97 335.617C995.7 341.768 986.111 348.127 976.828 354.231C950.148 371.775 923.1 390.283 896.942 408.182C813.302 465.413 726.813 524.59 633.923 565.385C602.24 579.299 573.112 588.209 545.602 592.36C537.139 593.637 528.832 594.462 520.644 594.844C501.06 595.759 481.97 594.056 463.907 589.78C444.6 585.21 425.805 577.547 408.045 567.006C360.022 538.503 318.781 497.684 278.899 458.21C258.446 437.964 237.295 417.031 215.616 398.177C133.087 326.4 60.5872 291.542 -12.5511 288.475C-100.381 284.794 -179.812 326.573 -256.629 366.979L-256.861 367.099L-257.013 366.787L-256.782 366.667C-218.89 346.735 -179.705 326.127 -139.139 311.029C-93.3032 293.969 -51.8926 286.478 -12.5431 288.129C8.34986 289.006 29.624 292.607 50.6935 298.828C70.1091 304.562 89.9934 312.718 109.793 323.068C143.499 340.69 178.182 365.168 215.826 397.908C237.512 416.769 258.667 437.709 279.124 457.957C318.991 497.415 360.217 538.219 408.203 566.702C471.691 604.385 545.477 603.849 633.782 565.065C726.643 524.281 813.12 465.112 896.748 407.889C922.906 389.99 949.957 371.482 976.64 353.934C985.923 347.83 995.512 341.468 1004.78 335.32C1054.79 302.155 1106.49 267.856 1160.86 239.335C1222.63 206.924 1278.01 187.442 1330.17 179.779C1347.68 177.206 1364.26 176.568 1379.47 177.878C1393.97 179.128 1407.69 182.196 1420.25 186.995C1443.45 195.852 1463.36 210.574 1481.11 232.001C1495.91 249.856 1509.44 272.822 1522.47 302.219C1534.1 328.428 1544.27 357.237 1554.12 385.1C1571.83 435.239 1590.14 487.085 1617.64 526.066C1670.34 600.78 1755.42 581.248 1814.84 560.058C1898.03 530.386 1978 486.953 2055.33 444.947C2072.43 435.659 2090.12 426.053 2107.48 416.793L2107.64 417.104C2090.28 426.364 2072.59 435.966 2055.49 445.258C1978.15 487.268 1898.17 530.71 1814.95 560.389C1791.6 568.717 1770.49 574.299 1751.26 577.201L1751.26 577.198Z" fill="white" stroke="white"/>
<path d="M1739.17 564.515C1727.24 566.315 1716.07 567.048 1705.42 566.769C1686.55 566.284 1669.27 562.405 1654.06 555.233C1637.3 547.33 1622.44 535.154 1609.89 519.041C1581.78 482.945 1562.02 434.656 1542.91 387.958C1533.93 366.034 1524.65 343.36 1514.61 322.168C1478.96 246.661 1430.08 179.007 1314.78 195.103C1268.4 201.466 1219.83 216.43 1166.33 240.857C1105.03 268.827 1046.82 304.693 990.543 339.38C980.502 345.57 970.118 351.967 960.067 358.101C932.284 375.099 904.112 393.069 876.865 410.447C830.898 439.77 783.364 470.087 735.19 497.385C691.918 521.911 652.612 541.448 615.018 557.113C583.743 570.172 554.981 578.632 527.845 582.727C518.985 584.063 510.3 584.931 501.751 585.347C482.174 586.292 463.092 584.764 445.034 580.804C425.732 576.571 406.931 569.415 389.158 559.537C350.385 538.096 315.662 508.946 286.812 483.26C277.602 475.065 268.339 466.629 259.38 458.473C238.41 439.377 216.727 419.631 194.578 401.946C142.172 360.101 61.5067 304.264 -33.5719 302.474C-121.068 300.831 -200.153 342.784 -276.634 383.353L-276.786 383.042C-239.091 363.045 -200.113 342.368 -159.491 326.88C-113.871 309.488 -72.68 301.388 -33.5678 302.122C-12.8357 302.512 8.31386 305.481 29.2945 310.95C48.6246 315.988 68.4649 323.316 88.2652 332.738C121.88 348.732 156.723 371.278 194.783 401.667C216.939 419.359 238.626 439.108 259.604 458.21C268.563 466.366 277.823 474.802 287.032 482.994C315.871 508.667 350.571 537.802 389.319 559.229C453.624 594.969 525.304 594.192 614.901 556.79C652.482 541.133 691.775 521.598 735.038 497.08C783.206 469.787 830.733 439.467 876.697 410.148C903.944 392.769 932.119 374.795 959.901 357.798C969.953 351.663 980.336 345.267 990.378 339.077C1046.67 304.385 1104.88 268.511 1166.2 240.536C1219.73 216.098 1268.32 201.124 1314.74 194.756C1366.64 187.511 1408.53 196.653 1442.79 222.709C1457.58 233.952 1470.92 248.242 1483.58 266.398C1494.18 281.603 1504.43 299.798 1514.92 322.014C1524.97 343.216 1534.25 365.89 1543.22 387.821C1562.32 434.496 1582.08 482.76 1610.16 518.819C1634.3 549.821 1665.47 565.392 1705.43 566.416C1733.92 567.163 1766.07 560.649 1806.61 545.92C1852.25 529.331 1896.36 509.269 1929.69 493.647C1962.6 478.254 1995.34 462.258 2027.01 446.789C2050.7 435.216 2075.2 423.248 2099.18 411.83L2099.32 412.147C2075.34 423.565 2050.84 435.532 2027.15 447.105C1995.48 462.575 1962.74 478.571 1929.83 493.964C1896.49 509.59 1852.37 529.654 1806.72 546.248C1781.3 555.483 1759.17 561.492 1739.17 564.511L1739.17 564.515Z" fill="white" stroke="white"/>
<path d="M1726.64 551.912C1716.53 553.436 1707 554.19 1697.89 554.204C1679.23 554.259 1662.05 551.042 1646.83 544.649C1630.17 537.655 1615.23 526.607 1602.42 511.806C1573.64 478.546 1552.41 433.735 1531.87 390.401C1522.27 370.123 1512.33 349.157 1501.69 329.457C1463.76 258.74 1412.99 195.337 1299.33 210.077C1252.59 216.144 1203.99 230.068 1150.76 252.654C1090.03 278.387 1032.11 311.405 976.099 343.342C965.295 349.502 954.123 355.872 943.305 361.967C914.26 378.427 884.794 395.877 856.299 412.755C811.013 439.575 764.187 467.312 716.813 492.423C673.192 515.561 633.713 534.011 596.121 548.836C554.629 565.257 517.591 574.072 482.885 575.786C463.326 576.75 444.253 575.397 426.19 571.757C406.893 567.872 388.076 561.245 370.268 552.068C331.146 531.903 296.08 504.846 266.937 481.038C257.921 473.68 248.846 466.115 240.07 458.798C218.514 440.829 196.225 422.247 173.537 405.711C120.672 367.193 39.5086 316.033 -54.5962 316.466C-141.78 316.873 -223.931 360.824 -296.414 399.601L-296.57 399.29C-260.896 380.206 -220.465 358.574 -179.731 342.681C-134.38 324.988 -93.45 316.298 -54.6018 316.115C-34.0303 316.022 -13.0054 318.36 7.886 323.073C27.1336 327.411 46.9302 333.918 66.727 342.404C100.261 356.78 135.262 377.397 173.727 405.424C196.427 421.965 218.719 440.551 240.28 458.523C249.054 465.836 258.13 473.402 267.146 480.76C296.273 504.555 331.324 531.6 370.418 551.75C434.834 584.956 506.516 583.925 595.999 548.506C633.582 533.686 673.049 515.241 716.66 492.107C764.027 466.998 810.85 439.264 856.133 412.445C884.628 395.567 914.094 378.117 943.145 361.653C953.963 355.555 965.132 349.188 975.936 343.028C1031.96 311.09 1089.89 278.064 1150.64 252.326C1203.89 229.725 1252.52 215.79 1299.29 209.724C1350.48 203.083 1392.31 211.765 1427.17 236.264C1442.2 246.823 1455.9 260.228 1469.06 277.246C1480.07 291.477 1490.84 308.501 1501.98 329.283C1512.63 348.991 1522.57 369.963 1532.18 390.244C1552.7 433.559 1573.92 478.345 1602.67 511.572C1627.39 540.134 1658.54 553.963 1697.88 553.852C1725.89 553.8 1757.82 546.79 1798.37 531.785C1841.74 515.72 1885.96 496.17 1921.48 480.459C1928.07 477.555 1934.63 474.665 1941.17 471.782C1992.86 448.994 2041.68 427.468 2090.87 406.867L2091 407.193C2041.81 427.79 1992.99 449.315 1941.3 472.103C1934.77 474.986 1928.21 477.876 1921.62 480.78C1886.09 496.491 1841.87 516.046 1798.49 532.112C1771.1 542.25 1747.63 548.743 1726.64 551.908L1726.64 551.912Z" fill="white" stroke="white"/>
<path d="M1713.83 539.456C1705.63 540.694 1697.84 541.414 1690.35 541.639C1671.92 542.227 1654.83 539.677 1639.58 534.065C1623.02 527.973 1608 518.052 1594.94 504.576C1565.16 473.837 1543.25 433.924 1520.06 391.668C1510.05 373.439 1499.7 354.588 1488.76 336.746C1448.27 270.763 1395.43 211.563 1283.88 225.057C1236.94 230.736 1188.3 243.624 1135.19 264.46C1075.01 288.008 1017.36 318.256 961.62 347.509C950.063 353.575 938.113 359.844 926.538 365.838C896.02 381.775 865.053 398.727 835.106 415.118C790.705 439.425 744.791 464.561 698.431 487.465C654.434 509.219 614.785 526.589 577.217 540.563C535.691 556.099 498.657 564.506 463.999 566.259C444.454 567.25 425.385 566.069 407.327 562.749C388.032 559.204 369.211 553.098 351.382 544.598C312.095 525.868 276.603 500.835 247.069 478.812C238.33 472.31 229.536 465.635 221.028 459.178C198.801 442.312 175.816 424.873 152.499 409.476C99.1932 374.289 17.5524 327.812 -75.6169 330.458C-162.513 332.94 -244.156 376.986 -316.187 415.849L-316.344 415.538C-280.944 396.439 -240.824 374.795 -199.959 358.485C-154.878 340.492 -114.21 331.211 -75.6291 330.112C-35.9932 328.985 3.52894 336.167 45.1932 352.075C78.6558 364.849 113.814 383.53 152.675 409.184C176.003 424.586 198.992 442.031 221.223 458.898C229.73 465.351 238.524 472.026 247.264 478.528C276.786 500.538 312.26 525.563 351.521 544.279C415.949 574.997 487.629 573.706 577.105 540.229C614.663 526.256 654.303 508.89 698.29 487.142C744.644 464.241 790.555 439.106 834.953 414.803C864.903 398.408 895.869 381.456 926.391 365.519C937.963 359.525 949.912 353.252 961.47 347.19C1017.22 317.933 1074.88 287.679 1135.07 264.126C1188.21 243.28 1236.88 230.385 1283.84 224.703C1334.26 218.603 1376.02 226.816 1411.48 249.813C1439.44 267.936 1463.36 294.687 1489.04 336.553C1500 354.405 1510.34 373.259 1520.35 391.491C1543.53 433.727 1565.43 473.617 1595.18 504.322C1620.48 530.426 1651.6 542.516 1690.34 541.282C1717.84 540.448 1749.55 532.938 1790.13 517.641C1821.51 505.799 1852.99 492.561 1883.43 479.764C1893.22 475.648 1903.34 471.39 1913.27 467.261C1968.07 444.597 2023.45 423.217 2082.56 401.898L2082.67 402.229C2023.57 423.543 1968.19 444.923 1913.4 467.586C1903.47 471.715 1893.35 475.97 1883.56 480.089C1853.12 492.89 1821.64 506.125 1790.25 517.971C1760.68 529.119 1735.81 536.135 1713.84 539.448L1713.83 539.456Z" fill="white" stroke="white"/>
<path d="M1701.21 527.125C1694.88 528.081 1688.78 528.723 1682.82 529.077C1664.6 530.193 1647.62 528.307 1632.32 523.48C1615.86 518.284 1600.77 509.491 1587.47 497.348C1556.63 469.189 1533.09 432.261 1508.17 393.164C1497.8 376.9 1487.08 360.081 1475.83 344.038C1432.87 282.761 1378.01 227.753 1268.43 240.034C1221.27 245.322 1172.6 257.171 1119.62 276.264C1058.55 298.197 999.885 326.419 943.145 353.716C932.157 359.002 920.796 364.467 909.779 369.711C876.52 385.534 842.791 402.526 810.173 418.96C767.875 440.269 724.136 462.304 680.054 482.51C635.652 502.886 595.832 519.169 558.319 532.296C516.758 546.947 479.728 554.945 445.113 556.743C425.578 557.756 406.517 556.754 388.462 553.753C369.171 550.549 350.343 544.961 332.495 537.138C293.077 519.862 257.147 496.842 227.202 476.6C218.849 470.968 210.438 465.195 202.301 459.614C179.3 443.834 155.513 427.521 131.461 413.251C73.1975 378.704 -5.38401 339.665 -96.6374 344.463C-183.27 349.033 -264.39 393.17 -335.96 432.11L-336.116 431.802C-264.514 392.844 -183.359 348.692 -96.6528 344.117C-57.3247 342.047 -17.9723 347.819 23.6624 361.754C57.0713 372.935 92.3867 389.684 131.63 412.953C155.692 427.224 179.481 443.545 202.488 459.328C210.622 464.909 219.036 470.678 227.385 476.31C257.32 496.543 293.231 519.555 332.628 536.82C397.051 565.056 468.734 563.512 558.211 531.968C595.719 518.845 635.529 502.563 679.92 482.192C723.996 461.987 767.732 439.956 810.027 418.647C842.648 402.213 876.377 385.221 909.639 369.394C920.657 364.154 932.017 358.685 943.005 353.399C999.751 326.098 1058.43 297.871 1119.51 275.932C1172.51 256.83 1221.21 244.974 1268.39 239.687C1318.05 234.121 1359.74 241.857 1395.84 263.342C1424.12 280.176 1448.88 305 1476.1 343.832C1487.36 359.882 1498.08 376.703 1508.45 392.971C1533.36 432.045 1556.89 468.953 1587.7 497.082C1613.57 520.706 1644.68 531.055 1682.81 528.724C1710.11 527.109 1740.68 519.334 1781.9 503.512C1803.98 495.027 1826.26 485.919 1847.82 477.112C1866.6 469.436 1886.02 461.502 1905.06 454.078C1967.86 429.784 2025.83 411.563 2074.26 396.945L2074.35 397.282C2025.93 411.898 1967.96 430.119 1905.18 454.408C1886.14 461.832 1866.72 469.765 1847.94 477.441C1826.39 486.248 1804.1 495.357 1782.02 503.842C1749.74 516.229 1723.99 523.688 1701.22 527.124L1701.21 527.125Z" fill="white" stroke="white"/>
<path d="M1687.65 515.022C1683.51 515.646 1679.38 516.148 1675.29 516.513C1657.3 518.15 1640.39 516.932 1625.05 512.892C1608.69 508.583 1593.53 500.92 1580 490.118C1547.84 464.443 1522.5 430.352 1495.67 394.261C1485.13 380.088 1474.24 365.432 1462.9 351.327C1417.4 294.753 1360.47 243.926 1252.98 255.011C1205.57 259.9 1156.85 270.713 1104.04 288.066C1043.15 307.988 984.41 333.673 927.608 358.512C916.218 363.492 904.441 368.643 893.009 373.582C857.526 388.918 821.528 405.499 786.717 421.534C746.039 440.271 703.976 459.65 661.665 477.554C616.822 496.552 576.832 511.755 539.409 524.025C510.808 533.492 484.363 540.037 459.401 543.802C448.055 545.513 437.02 546.648 426.216 547.224C406.691 548.265 387.637 547.434 369.584 544.753C350.298 541.89 331.462 536.815 313.603 529.673C274.096 513.871 237.711 492.854 207.325 474.382C199.499 469.635 191.609 464.783 183.978 460.089C160.067 445.381 135.34 430.167 110.418 417.027C51.732 386.098 -27.2262 351.49 -117.663 358.467C-204.067 365.149 -284.649 409.361 -355.742 448.369L-355.901 448.062C-315.261 425.764 -278.52 406.011 -240.429 390.116C-195.895 371.531 -155.747 361.063 -117.692 358.122C-78.6712 355.112 -39.4792 359.466 2.11638 371.433C35.9512 381.166 70.411 395.558 110.566 416.721C135.498 429.866 160.23 445.083 184.144 459.795C191.775 464.489 199.665 469.34 207.491 474.087C237.863 492.554 274.237 513.562 313.72 529.357C378.126 555.116 449.808 553.319 539.305 523.7C576.722 511.431 616.702 496.233 661.538 477.235C703.843 459.335 745.903 439.958 786.581 421.22C821.395 405.185 857.393 388.601 892.88 373.267C904.308 368.328 916.085 363.178 927.475 358.198C984.287 333.357 1043.03 307.668 1103.94 287.74C1156.77 270.378 1205.51 259.562 1252.94 254.67C1360.6 243.571 1417.59 294.462 1463.15 351.11C1474.5 365.221 1485.4 379.877 1495.94 394.052C1522.75 430.125 1548.08 464.196 1580.2 489.844C1606.65 510.968 1637.74 519.577 1675.26 516.169C1709.46 513.138 1745.81 500.266 1773.65 489.386C1788.39 483.62 1803.33 477.589 1817.78 471.759C1843.7 461.297 1870.51 450.478 1896.84 440.899C1958.58 418.646 2016.5 403.987 2065.94 391.995L2066.02 392.333C2016.58 404.325 1958.67 418.979 1896.95 441.23C1870.63 450.808 1843.82 461.624 1817.9 472.086C1803.45 477.915 1788.51 483.946 1773.77 489.713C1749.24 499.297 1718.11 510.432 1687.64 515.026L1687.65 515.022Z" fill="white" stroke="white"/>
<path d="M1674.34 503.061C1672.14 503.394 1669.94 503.691 1667.76 503.949C1649.99 506.099 1633.17 505.546 1617.77 502.304C1601.5 498.882 1586.28 492.348 1572.53 482.887C1538.71 459.608 1511.3 428.176 1482.28 394.898C1471.87 382.96 1461.1 370.616 1449.98 358.619C1401.85 306.738 1342.81 260.095 1237.53 269.993C1189.84 274.474 1141.08 284.251 1088.47 299.874C1027.73 317.815 968.914 340.996 912.035 363.411C900.256 368.052 888.076 372.855 876.248 377.456C838.148 392.287 799.485 408.46 762.097 424.1C723.421 440.278 683.43 457.008 643.288 472.596C597.314 490.478 558.298 504.19 520.512 515.755C478.859 528.641 441.837 535.822 407.328 537.713C366.543 539.943 329.71 534.872 294.721 522.211C255.294 507.942 219.869 489.726 187.461 472.163C180.328 468.312 173.127 464.378 166.168 460.576C141.18 446.924 115.343 432.806 89.3833 420.796C30.3149 393.482 -48.99 363.305 -138.68 372.465C-224.893 381.291 -304.914 425.56 -375.512 464.624L-375.671 464.316C-335.387 442.03 -298.928 422.252 -260.655 405.923C-216.4 387.046 -176.512 375.987 -138.716 372.118C-99.9903 368.164 -60.968 371.103 -19.4149 381.103C14.403 389.241 49.0166 401.751 89.5167 420.481C115.483 432.494 141.327 446.614 166.319 460.269C173.281 464.071 180.479 468.005 187.612 471.856C220.009 489.41 255.419 507.621 294.825 521.881C359.195 545.177 430.877 543.123 520.414 515.422C558.197 503.862 597.203 490.15 643.171 472.273C683.309 456.685 723.297 439.956 761.97 423.778C799.361 408.138 838.027 391.961 876.131 377.129C887.957 372.525 900.135 367.726 911.914 363.085C968.8 340.669 1027.62 317.484 1088.37 299.541C1141.01 283.912 1189.79 274.132 1237.5 269.649C1285.59 265.13 1327.15 271.911 1364.55 290.38C1401.49 308.621 1429.74 336.301 1450.22 358.382C1461.35 370.386 1472.12 382.733 1482.53 394.67C1511.53 427.929 1538.93 459.345 1572.71 482.601C1599.37 500.943 1631.33 508.011 1667.72 503.609C1700.85 499.689 1735.7 487.072 1765.42 475.252C1774.22 471.746 1783.16 468.139 1791.8 464.653C1823.52 451.863 1856.32 438.635 1888.63 427.71C1948.32 407.756 2004.85 396.674 2057.64 387.035L2057.71 387.379C2004.93 397.016 1948.41 408.097 1888.74 428.045C1856.44 438.966 1823.64 452.193 1791.92 464.982C1783.28 468.469 1774.34 472.076 1765.54 475.581C1737.76 486.629 1705.5 498.371 1674.34 503.071L1674.34 503.061Z" fill="white" stroke="white"/>
<path d="M1660.66 491.319C1660.46 491.35 1660.27 491.378 1660.06 491.41C1642.58 494.046 1625.9 494.151 1610.47 491.725C1594.29 489.181 1579.01 483.772 1565.06 475.655C1529.03 454.69 1499.13 425.69 1467.48 394.986C1457.65 385.452 1447.49 375.595 1437.05 365.907C1386.19 318.714 1324.95 276.247 1222.08 284.967C1174.06 289.039 1125.26 297.773 1072.9 311.674C1012.28 327.663 953.362 348.377 896.385 368.407C884.244 372.673 871.689 377.089 859.49 381.321C818.251 395.633 776.384 411.412 735.893 426.67C699.738 440.295 662.355 454.381 624.911 467.633C578.341 484.147 539.162 496.807 501.613 507.477C459.904 519.484 422.882 526.261 388.435 528.193C347.671 530.481 310.839 526.077 275.837 514.737C236.481 501.985 200.558 485.669 167.595 469.936C161.374 466.979 155.096 463.969 149.018 461.057C121.526 447.874 95.5558 435.422 68.3481 424.56C8.93752 400.861 -70.6707 375.109 -159.702 386.457C-245.766 397.451 -328.672 443.703 -395.289 480.871L-395.448 480.564C-357.009 459.119 -319.321 438.48 -280.888 421.724C-236.915 402.554 -197.285 390.904 -159.744 386.11C-121.306 381.21 -82.4474 382.735 -40.9466 390.768C-7.11494 397.316 27.653 407.95 68.4665 424.233C95.6849 435.1 121.658 447.552 149.158 460.738C155.232 463.65 161.514 466.663 167.732 469.617C200.683 485.344 236.595 501.655 275.934 514.401C340.242 535.239 411.923 532.932 501.521 507.137C539.066 496.467 578.239 483.811 624.803 467.299C662.24 454.047 699.623 439.961 735.777 426.336C776.269 411.078 818.143 395.299 859.385 380.986C871.584 376.751 884.139 372.338 896.28 368.071C953.263 348.038 1012.19 327.323 1072.82 311.332C1125.2 297.429 1174.02 288.688 1222.06 284.618C1269.34 280.61 1310.84 286.91 1348.93 303.882C1386.07 320.431 1415.66 345.583 1437.28 365.647C1447.72 375.334 1457.88 385.195 1467.72 394.732C1499.35 425.42 1529.24 454.407 1565.23 475.349C1592.4 491.163 1624.3 496.45 1660.02 491.063C1660.22 491.032 1660.42 491.004 1660.62 490.973C1692.54 486.158 1725.89 473.78 1757.19 461.109C1761.08 459.531 1764.96 457.95 1768.85 456.369C1805.35 441.531 1843.09 426.185 1880.43 414.513C1939.04 396.435 1993.77 388.851 2049.35 382.067L2049.39 382.414C1993.83 389.196 1939.11 396.779 1880.53 414.849C1843.2 426.516 1805.47 441.858 1768.98 456.695C1765.09 458.276 1761.2 459.857 1757.31 461.435C1726 474.112 1692.62 486.5 1660.67 491.318L1660.66 491.319Z" fill="white" stroke="white"/>
<path d="M1646.43 479.865C1613.63 484.812 1583.77 480.97 1557.59 468.424C1518.55 449.713 1485.47 422.84 1450.46 394.395C1441.93 387.466 1433.11 380.305 1424.13 373.199C1374.06 333.6 1311.84 292.013 1206.63 299.947C1158.88 303.549 1108.65 311.464 1057.32 323.476C996.79 337.538 937.741 355.821 880.634 373.503C868.163 377.364 855.267 381.358 842.725 385.189C797.616 398.97 751.78 414.384 707.456 429.289C674.551 440.354 640.525 451.798 606.528 462.673C559.216 477.843 519.871 489.447 482.709 499.205C457.949 505.8 434.548 510.773 412.307 514.13C353.933 522.934 303.486 520.601 256.947 507.271C217.804 496.062 181.321 481.636 147.725 467.718C142.697 465.645 137.689 463.569 132.696 461.498C103.559 449.42 76.0416 438.009 47.3103 428.329C-12.3868 408.23 -92.2519 386.899 -180.722 400.456C-260.22 412.66 -333.884 451.456 -415.062 497.126L-415.224 496.819C-377.163 475.407 -339.796 454.762 -301.12 437.536C-257.432 418.077 -218.066 405.837 -180.774 400.114C-180.48 400.068 -180.185 400.024 -179.89 399.981C-142.013 394.271 -103.599 394.423 -62.4833 400.446C-28.6033 405.409 6.31824 414.164 47.4115 428C76.1536 437.686 103.678 449.096 132.818 461.177C137.812 463.248 142.819 465.324 147.847 467.394C181.432 481.31 217.905 495.73 257.034 506.937C321.248 525.325 392.93 522.762 482.624 498.871C519.783 489.117 559.122 477.513 606.43 462.344C640.424 451.469 674.45 440.025 707.352 428.961C751.679 414.055 797.515 398.641 842.627 384.859C855.169 381.029 868.066 377.035 880.537 373.174C937.65 355.491 996.705 337.204 1057.25 323.14C1108.59 311.123 1158.84 303.206 1206.61 299.602C1253.05 296.101 1294.48 301.919 1333.29 317.386C1370.29 332.132 1400.07 353.736 1424.33 372.925C1433.31 380.03 1442.13 387.194 1450.66 394.123C1485.66 422.56 1518.73 449.417 1557.73 468.112C1585.51 481.425 1617.45 484.914 1652.64 478.481C1685.08 472.657 1719.36 459.166 1748.94 446.979C1789.08 430.415 1830.58 413.286 1872.21 401.333C1930.28 384.907 1983.03 380.647 2041.04 377.116L2041.06 377.465C1983.07 380.993 1930.35 385.255 1872.3 401.67C1830.69 413.62 1789.2 430.745 1749.07 447.304C1719.47 459.497 1685.17 472.993 1652.7 478.825C1650.6 479.209 1648.51 479.557 1646.43 479.871L1646.43 479.865Z" fill="white" stroke="white"/>
<path d="M1632.17 468.631C1602.47 473.111 1574.93 470.62 1550.13 461.193C1506.77 444.709 1469.32 419.529 1429.68 392.87C1423.67 388.828 1417.46 384.65 1411.2 380.488C1358.24 345.241 1293.19 308.2 1191.18 314.922C1142.96 318.101 1092.68 324.949 1041.75 335.277C981.24 347.441 922.01 363.334 864.724 378.704C851.976 382.124 838.792 385.664 825.957 389.059C775.895 402.309 724.985 417.417 675.751 432.024C647.163 440.505 617.6 449.279 588.144 457.712C539.846 471.572 500.335 482.128 463.801 490.929C421.934 501.184 384.914 507.151 350.63 509.176C309.884 511.581 273.061 508.513 238.053 499.799C201.516 490.704 167.572 479.507 127.85 465.493C124.394 464.282 120.945 463.069 117.507 461.86C86.3328 450.897 56.8882 440.541 26.2654 432.095C-33.6594 415.583 -113.732 398.658 -201.753 414.449C-281.215 428.73 -354.329 467.698 -434.849 513.375L-435.011 513.068C-398.849 492.553 -360.286 471.044 -321.363 453.338C-277.965 433.595 -238.862 420.762 -201.812 414.105C-163.914 407.305 -125.386 405.998 -84.0285 410.11C-50.0599 413.487 -14.984 420.367 26.3483 431.754C56.9814 440.203 86.433 450.561 117.611 461.527C121.049 462.737 124.498 463.949 127.954 465.16C167.666 479.172 201.603 490.366 238.126 499.46C302.203 515.41 373.888 512.59 463.719 490.588C500.249 481.786 539.754 471.235 588.049 457.372C617.505 448.939 647.064 440.166 675.652 431.685C724.889 417.073 775.802 401.965 825.868 388.715C838.699 385.32 851.884 381.78 864.631 378.36C921.92 362.986 981.157 347.093 1041.68 334.927C1092.62 324.594 1142.91 317.744 1191.15 314.567C1236.72 311.563 1278.1 316.897 1317.65 330.869C1354.48 343.877 1385.7 363.098 1411.38 380.189C1417.63 384.351 1423.85 388.53 1429.85 392.571C1469.48 419.218 1506.91 444.386 1550.23 460.856C1578.55 471.625 1610.47 473.322 1645.09 465.908C1676.1 459.369 1709.32 445.983 1740.7 432.835C1782.08 415.457 1822.64 398.963 1863.99 388.136C1926.46 372.05 1985.38 372.103 2032.72 372.147L2032.73 372.495C1985.4 372.452 1926.5 372.396 1864.07 388.474C1822.75 399.298 1782.19 415.787 1740.82 433.157C1709.44 446.31 1676.2 459.702 1645.16 466.247C1640.78 467.185 1636.45 467.977 1632.16 468.622L1632.17 468.631Z" fill="white" stroke="white"/>
<path d="M1617.02 457.792C1590.6 461.778 1565.66 460.5 1542.66 453.954C1492.76 439.764 1450.79 416.671 1402.21 389.932L1398.28 387.776C1339.54 355.463 1273.97 324.376 1175.73 329.901C1126.89 332.649 1076.58 338.425 1026.18 347.081C965.613 357.371 906.121 370.912 848.59 384.009C835.64 386.958 822.247 390.003 809.196 392.933C752.513 405.655 697.359 419.908 638.97 434.998C616.363 440.84 592.985 446.883 569.765 452.758C535.807 461.374 490.926 472.56 444.901 482.663C402.92 492.045 365.905 497.612 331.734 499.678C290.982 502.144 254.163 499.743 219.171 492.34C179.459 483.936 142.472 473.373 107.989 463.276L103.829 462.067C70.096 452.255 38.2335 442.991 5.23821 435.869C-54.8358 422.923 -135.042 410.378 -222.763 428.454C-302.153 444.835 -377.735 485.663 -454.611 529.635L-454.773 529.328C-419.015 508.873 -380.821 487.382 -341.581 469.151C-298.484 449.129 -259.639 435.705 -222.829 428.11C-185.176 420.352 -146.814 417.631 -105.552 419.789C-71.441 421.577 -36.215 426.575 5.30707 435.523C38.3161 442.646 70.1824 451.914 103.923 461.729L108.082 462.938C142.561 473.031 179.541 483.592 219.243 491.993C283.123 505.513 354.807 502.44 444.838 482.316C490.861 472.217 535.738 461.031 569.693 452.415C592.913 446.54 616.288 440.498 638.895 434.656C697.287 419.565 752.44 405.308 809.13 392.589C822.181 389.66 835.571 386.614 848.525 383.665C906.062 370.568 965.557 357.027 1026.13 346.736C1076.54 338.078 1126.87 332.3 1175.72 329.554C1274.05 324.025 1339.66 355.132 1398.45 387.471L1402.37 389.627C1450.94 416.358 1492.89 439.442 1542.75 453.623C1571.6 461.829 1603.5 461.736 1637.56 453.353C1666.94 446.224 1696.66 433.977 1732.48 418.706C1769.44 402.913 1812.51 385.206 1855.8 374.953C1883.06 368.613 1911.54 365.205 1942.85 364.53C1970.14 363.943 1995.95 365.388 2024.44 367.196L2024.42 367.543C1974.63 364.384 1918.19 360.807 1855.87 375.291C1812.61 385.537 1769.56 403.24 1732.61 419.028C1696.78 434.304 1667.04 446.555 1637.64 453.691C1630.68 455.406 1623.81 456.774 1617.03 457.794L1617.02 457.792Z" fill="white" stroke="white"/>
<path d="M1600.6 447.488C1577.76 450.933 1555.85 450.683 1535.19 446.723C1480.89 436.317 1433.33 416.347 1385.36 395.064C1320.16 366.138 1253.89 340.531 1160.28 344.88C1110.61 347.184 1060.25 351.897 1010.6 358.883C949.854 367.324 889.99 378.544 832.097 389.4C819.057 391.843 805.577 394.372 792.428 396.8C726.308 409.019 661.856 423.316 593.616 438.45C579.8 441.516 565.515 444.685 551.381 447.797C511.458 456.613 468.638 465.94 425.996 474.387C383.865 482.901 346.845 488.067 312.828 490.179C272.06 492.71 235.245 490.973 200.281 484.867C162.275 478.23 126.998 470.154 88.1171 461.051C56.2577 453.653 20.1481 445.272 -15.8039 439.631C-105.131 425.645 -175.443 426.514 -243.791 442.446C-323.302 461.002 -398.241 501.962 -474.395 545.884L-474.561 545.577C-398.385 501.642 -323.42 460.672 -243.87 442.104C-206.44 433.379 -168.245 429.243 -127.1 429.457C-93.264 429.636 -56.8445 432.849 -15.7591 439.281C20.2032 444.924 56.3197 453.308 88.1826 460.705C127.061 469.809 162.33 477.885 200.329 484.52C263.926 495.624 335.609 492.293 425.927 474.04C468.565 465.594 511.382 456.267 551.305 447.451C565.439 444.339 579.724 441.17 593.54 438.104C661.783 422.966 726.238 408.669 792.361 396.449C805.51 394.021 818.991 391.492 832.03 389.049C889.927 378.197 949.794 366.973 1010.55 358.531C1060.21 351.543 1110.58 346.829 1160.26 344.523C1203.91 342.496 1245.17 346.849 1286.41 357.827C1323.07 367.59 1355.45 381.413 1385.49 394.738C1433.44 416.017 1480.99 435.975 1535.25 446.375C1564.61 452.001 1596.49 450.119 1630.01 440.783C1659.36 432.708 1690.77 419.081 1721.14 405.904L1724.23 404.565C1763.11 387.669 1804.96 370.789 1847.57 361.758C1874.96 356.072 1903.49 353.776 1934.8 354.742C1961.85 355.578 1987.63 358.629 2016.12 362.231L2016.08 362.577C1966.35 356.285 1909.99 349.153 1847.64 362.098C1805.06 371.122 1763.22 387.996 1724.36 404.884L1721.27 406.222C1690.89 419.404 1659.47 433.036 1630.1 441.117C1620.12 443.899 1610.27 446.02 1600.6 447.477L1600.6 447.488Z" fill="white" stroke="white"/>
<path d="M1582.34 437.909C1563.55 440.744 1545.29 441.274 1527.72 439.487C1479.68 434.595 1434.69 423.835 1372.44 402.351L1370.9 401.823C1309.24 380.537 1239.36 356.413 1144.83 359.858C1093.94 361.714 1043.54 365.356 995.026 370.687C933.892 377.299 873.455 386.237 815.007 394.881C802.082 396.794 788.716 398.77 775.664 400.673C694.89 412.45 612.592 427.902 532.999 442.842L522.762 444.773C485.056 451.879 446.065 459.228 407.093 466.121C364.745 473.776 327.73 478.54 293.927 480.692C253.12 483.291 216.308 482.215 181.392 477.407C144.295 472.298 108.566 465.972 74.0114 459.855L68.2467 458.835C34.7761 452.978 -0.911919 446.961 -36.8408 443.406C-126.095 434.598 -196.402 438.621 -264.814 456.452C-344.545 477.253 -418.8 518.319 -494.17 562.145L-494.336 561.842C-452.977 537.793 -418.056 518.203 -382.054 500.775C-339.581 480.21 -301.258 465.601 -264.896 456.114C-227.667 446.411 -189.635 440.86 -148.632 439.144C-114.538 437.716 -77.9579 438.997 -36.8091 443.061C-0.866436 446.618 34.825 452.635 68.3026 458.494L74.0673 459.514C108.618 465.632 144.344 471.958 181.434 477.065C245.476 485.885 315.05 482.405 407.034 465.78C446.007 458.887 484.994 451.539 522.7 444.432L532.937 442.502C612.53 427.558 694.835 412.105 775.615 400.331C788.667 398.428 802.033 396.451 814.959 394.539C873.41 385.894 933.851 376.959 994.991 370.344C1043.51 365.012 1093.92 361.368 1144.82 359.511C1187.09 357.971 1227.99 361.762 1269.88 371.098C1306.77 379.32 1339.43 390.594 1371.01 401.493L1372.54 402.022C1434.77 423.499 1479.74 434.254 1527.75 439.142C1557.6 442.181 1589.47 438.508 1622.48 428.229C1649.34 419.951 1678.08 407.225 1705.86 394.918C1709.24 393.425 1712.62 391.928 1715.99 390.438C1752.42 374.339 1795.56 356.779 1839.36 348.577C1901.91 337.13 1958.18 347.835 2007.82 357.282L2007.76 357.626C1958.15 348.183 1901.91 337.484 1839.43 348.921C1795.65 357.116 1752.54 374.669 1716.13 390.759C1712.75 392.249 1709.37 393.742 1706 395.239C1678.2 407.551 1649.46 420.278 1622.57 428.562C1608.95 432.807 1595.51 435.924 1582.34 437.912L1582.34 437.909Z" fill="white" stroke="white"/>
<path d="M1561.33 429.385C1547.38 431.489 1533.67 432.446 1520.26 432.252C1467.7 431.483 1418.12 424.506 1359.52 409.636C1354.05 408.25 1348.42 406.801 1342.98 405.401C1283.14 390.014 1215.31 372.572 1129.38 374.833C1075.71 376.247 1026.67 378.748 979.453 382.485C917.534 387.287 856.139 393.969 796.767 400.431C784.332 401.783 771.472 403.185 758.898 404.533C673.497 413.706 587.489 426.532 514.618 437.874C494.683 440.987 474.285 444.23 454.561 447.363C432.867 450.811 410.436 454.375 388.191 457.838C325.81 467.78 243.777 478.14 162.507 469.927C131.767 466.819 101.78 463.141 72.781 459.58C64.6115 458.578 56.4794 457.578 48.3803 456.598C14.9094 452.609 -21.1299 448.702 -57.8775 447.157C-145.659 443.485 -218.094 450.88 -285.836 470.433C-365.86 493.549 -442.403 536.436 -513.948 578.383L-514.114 578.08C-442.553 536.124 -365.987 493.224 -285.928 470.096C-248.865 459.398 -211 452.433 -170.172 448.801C-135.742 445.739 -99.0044 445.087 -57.8665 446.808C-21.1084 448.355 14.9375 452.261 48.415 456.25C56.5175 457.228 64.6462 458.229 72.8157 459.231C101.811 462.792 131.795 466.471 162.536 469.579C243.771 477.789 325.774 467.43 388.138 457.489C410.382 454.022 432.814 450.459 454.508 447.014C474.232 443.882 494.627 440.639 514.565 437.525C587.44 426.187 673.454 413.356 758.862 404.183C771.435 402.834 784.296 401.433 796.731 400.08C856.106 393.618 917.505 386.935 979.427 382.133C1026.65 378.396 1075.7 375.893 1129.37 374.479C1215.35 372.216 1283.2 389.663 1343.06 405.057C1348.5 406.458 1354.13 407.902 1359.6 409.292C1418.17 424.155 1467.73 431.127 1520.26 431.897C1550.55 432.342 1582.4 426.878 1614.93 415.659C1639.28 407.342 1665.28 395.543 1690.42 384.133C1696.09 381.556 1701.97 378.891 1707.75 376.296C1743.7 360.144 1786.47 342.651 1831.15 335.385C1831.83 335.277 1832.51 335.173 1833.19 335.069C1895.14 325.727 1950.56 339.846 1999.52 352.323L1999.44 352.663C1950.51 340.196 1895.12 326.085 1833.24 335.417C1832.56 335.518 1831.89 335.626 1831.21 335.734C1786.56 342.995 1743.82 360.477 1707.89 376.621C1702.1 379.215 1696.23 381.88 1690.55 384.458C1665.4 395.872 1639.4 407.672 1615.04 415.994C1596.87 422.258 1578.92 426.728 1561.33 429.382L1561.33 429.385Z" fill="white" stroke="white"/>
<path d="M1536.2 422.417C1528.33 423.603 1520.53 424.469 1512.79 425.01C1455.01 429.055 1403.75 426.557 1346.6 416.916C1334.5 414.877 1322.47 412.692 1309.73 410.38C1253.46 400.169 1189.69 388.598 1113.94 389.808C1055.09 390.749 1007.41 392.173 963.884 394.286C900.324 397.277 837.128 401.726 776.011 406.028C764.688 406.826 753.398 407.62 742.137 408.403C667.423 413.6 589.286 421.389 496.238 432.916C455.578 437.976 414.689 443.452 369.29 449.568C325.485 455.615 289.525 459.477 256.127 461.712C215.119 464.459 178.317 464.704 143.622 462.464C122.446 461.098 101.477 459.574 81.1986 458.098C63.859 456.838 45.9276 455.535 28.5163 454.379C-14.977 451.565 -48.1093 450.502 -78.9118 450.925C-166.194 452.153 -238.625 462.801 -306.853 484.432C-387.399 509.992 -463.092 552.891 -533.718 594.637L-533.886 594.334C-500.837 574.795 -461.759 552.158 -422.517 532.373C-380.723 511.301 -342.919 495.507 -306.951 484.095C-238.691 462.45 -166.231 451.799 -78.9143 450.574C-48.1057 450.146 -14.9664 451.213 28.5369 454.025C45.9511 455.177 63.883 456.483 81.2227 457.743C101.501 459.215 122.47 460.74 143.646 462.11C223.044 467.236 302.245 458.469 369.251 449.217C414.653 443.101 455.542 437.626 496.202 432.565C589.256 421.037 667.397 413.248 742.118 408.05C753.375 407.268 764.668 406.473 775.991 405.676C837.108 401.373 900.305 396.928 963.871 393.932C1007.4 391.819 1055.08 390.394 1113.94 389.453C1189.72 388.239 1253.51 399.816 1309.79 410.031C1322.53 412.344 1334.56 414.528 1346.66 416.568C1403.79 426.205 1455.02 428.698 1512.77 424.657C1543.46 422.508 1575.3 415.256 1607.4 403.094C1629.2 394.903 1651.38 384.546 1674.86 373.582C1682.93 369.815 1691.28 365.918 1699.53 362.157C1733 346.867 1777.28 328.497 1822.95 322.192C1886 313.697 1941.9 331.581 1991.22 347.362L1991.13 347.694C1941.84 331.923 1885.98 314.051 1823 322.538C1777.37 328.837 1733.11 347.197 1699.66 362.478C1691.41 366.239 1683.07 370.135 1675 373.902C1651.52 384.87 1629.33 395.228 1607.52 403.424C1583.48 412.53 1559.58 418.888 1536.21 422.412L1536.2 422.417Z" fill="white" stroke="white"/>
<path d="M1517.54 416.348C1513.45 416.965 1509.37 417.445 1505.31 417.774C1494.76 418.621 1484.25 419.558 1474.09 420.463C1427.19 424.646 1382.9 428.594 1333.68 424.202C1312.75 422.331 1291.66 419.829 1269.33 417.177C1216.59 410.915 1162.06 404.438 1098.48 404.788C1090.36 404.831 1082.25 404.873 1074.15 404.913C1032.7 405.12 989.823 405.335 948.308 406.088C880.563 407.226 813.065 409.421 747.787 411.544C740.303 411.786 732.833 412.031 725.372 412.271C644.795 414.874 563.83 420.003 477.858 427.955C439.575 431.514 399.07 435.754 350.389 441.295C278.505 449.693 201.417 457.163 124.735 454.995C118.105 454.81 111.508 454.617 104.945 454.426C71.6739 453.468 40.2493 452.557 8.64423 452.154C-33.3021 451.675 -67.8093 452.482 -99.9504 454.691C-186.45 460.654 -258.876 474.554 -327.877 498.431C-409.171 526.58 -486.964 571.241 -553.497 610.896L-553.666 610.593C-487.119 570.933 -409.308 526.259 -327.985 498.1C-258.958 474.216 -186.505 460.309 -99.976 454.346C-67.825 452.136 -33.311 451.328 8.64573 451.809C40.2545 452.215 71.6819 453.122 104.95 454.081C111.513 454.271 118.109 454.461 124.74 454.65C201.401 456.817 278.476 449.348 350.347 440.952C399.028 435.411 439.536 431.171 477.822 427.612C563.805 419.662 644.773 414.532 725.357 411.928C732.818 411.688 740.288 411.443 747.772 411.201C813.05 409.078 880.551 406.883 948.296 405.745C989.815 404.992 1032.69 404.776 1074.15 404.569C1082.25 404.529 1090.36 404.487 1098.48 404.443C1162.08 404.095 1216.62 410.571 1269.37 416.834C1291.7 419.483 1312.78 421.99 1333.7 423.857C1382.9 428.25 1427.18 424.299 1474.06 420.118C1484.22 419.21 1494.73 418.273 1505.28 417.429C1537.54 414.841 1571.19 402.384 1599.85 390.542C1619.06 382.659 1638.53 373.27 1659.15 363.329C1669.65 358.265 1680.5 353.031 1691.28 348.035C1724.43 332.644 1768.41 314.299 1814.73 309.016C1842.64 305.92 1871.41 308.085 1902.67 315.63C1931.55 322.602 1960.02 333.59 1982.91 342.419L1982.79 342.746C1933.71 323.807 1878.07 302.342 1814.77 309.363C1768.5 314.64 1724.54 332.971 1691.42 348.352C1680.64 353.352 1669.78 358.586 1659.29 363.646C1638.67 373.591 1619.19 382.98 1599.98 390.868C1574.9 401.23 1546 412.059 1517.54 416.351L1517.54 416.348Z" fill="white" stroke="white"/>
<path d="M1428.24 424.039C1390.92 429.667 1356.19 432.021 1320.76 431.486C1288.04 430.994 1254.64 428.645 1219.27 426.164C1176.29 423.144 1131.83 420.023 1083.03 419.77C1049.85 419.596 1016.34 419.098 983.942 418.613C967.124 418.362 949.731 418.104 932.733 417.896C853.568 416.838 775.535 416.439 708.609 416.144C622.245 415.765 540.751 418.009 459.476 423.001C418.907 425.512 377.041 428.789 331.486 433.026C254.985 440.337 180.161 446.946 105.85 447.532C71.1589 447.806 30.121 448.303 -11.2227 449.935C-51.762 451.583 -87.6647 454.372 -120.987 458.463C-205.186 468.81 -279.737 486.465 -348.9 512.434C-427.336 541.899 -503.093 584.985 -573.273 627.154L-573.441 626.851C-503.246 584.673 -427.476 541.582 -349.015 512.103C-312.139 498.256 -274.771 487.048 -234.778 477.836C-198.811 469.55 -161.602 463.099 -121.027 458.112C-87.697 454.025 -51.785 451.231 -11.2353 449.585C30.1117 447.953 71.1526 447.452 105.847 447.181C180.149 446.596 254.963 439.988 331.457 432.678C377.015 428.441 418.884 425.159 459.456 422.652C540.742 417.659 622.24 415.418 708.613 415.796C775.543 416.09 853.575 416.489 932.741 417.547C949.739 417.755 967.128 418.014 983.95 418.264C1016.35 418.749 1049.85 419.247 1083.04 419.421C1131.85 419.673 1176.31 422.797 1219.3 425.816C1254.66 428.297 1288.06 430.643 1320.77 431.137C1377.14 431.988 1431.73 425.528 1497.79 410.193C1528.96 402.956 1560.76 392.118 1592.32 377.981C1608.9 370.593 1625.63 362.226 1643.34 353.369C1656.29 346.893 1669.68 340.198 1683.05 333.896C1731.87 310.858 1769.95 299.117 1806.53 295.826C1834.59 293.377 1863.41 296.657 1894.64 305.851C1923.53 314.352 1951.85 327.169 1974.61 337.465L1974.48 337.784C1925.61 315.675 1870.22 290.618 1806.56 296.174C1770.02 299.46 1731.98 311.193 1683.2 334.215C1669.82 340.518 1656.44 347.213 1643.49 353.685C1625.77 362.542 1609.04 370.909 1592.46 378.302C1560.88 392.449 1529.06 403.296 1497.87 410.536C1473.31 416.238 1450.33 420.712 1428.25 424.041L1428.24 424.039Z" fill="white" stroke="white"/>
<path d="M1366.63 432.728C1346.76 435.724 1327.35 437.7 1307.83 438.764C1259.17 441.416 1208.88 439.486 1155.63 437.443C1127.31 436.356 1098.01 435.233 1067.58 434.742C1016.97 433.927 966.23 431.774 917.156 429.691L899.984 428.949C831.486 425.981 760.653 422.913 691.84 420.009C596.984 416.321 517.305 415.695 441.088 418.038C399.591 419.326 356.355 421.583 312.578 424.751C296.891 425.918 280.928 427.141 265.488 428.321C206.715 432.821 145.937 437.476 86.9555 440.061C43.1122 441.981 4.49801 444.484 -31.0947 447.709C-70.9171 451.355 -107.204 456.101 -142.03 462.225C-224.695 476.769 -299.241 497.771 -369.924 526.43C-449.99 558.904 -527.647 603.788 -593.053 643.406L-593.225 643.104C-527.81 603.477 -450.137 558.585 -370.052 526.105C-299.346 497.436 -224.781 476.431 -142.092 461.881C-107.256 455.756 -70.9634 451.006 -31.1307 447.362C4.46885 444.136 43.0863 441.633 86.9367 439.715C145.915 437.134 206.689 432.476 265.459 427.976C280.898 426.793 296.862 425.57 312.549 424.406C356.33 421.238 399.572 418.98 441.073 417.691C517.296 415.352 596.982 415.977 691.848 419.663C760.662 422.567 831.494 425.635 899.992 428.603L917.165 429.349C966.235 431.429 1016.98 433.582 1067.58 434.398C1098.02 434.889 1127.31 436.012 1155.64 437.098C1208.88 439.141 1259.16 441.069 1307.81 438.419C1364.89 435.311 1421.17 424.372 1490.28 402.961C1521.4 393.317 1553.19 380.688 1584.76 365.42C1598.67 358.721 1612.63 351.457 1627.4 343.766C1642.82 335.743 1658.76 327.444 1674.8 319.764C1697.08 309.081 1716.9 301.024 1735.39 295.138C1757.64 288.057 1778.21 283.968 1798.3 282.644C1826.5 280.842 1855.38 285.233 1886.58 296.076C1913.32 305.365 1938.5 318.072 1966.29 332.512L1966.14 332.826C1917.5 307.546 1862.36 278.898 1798.32 282.993C1761.4 285.433 1723.35 296.872 1674.94 320.084C1658.91 327.764 1642.97 336.058 1627.55 344.081C1612.77 351.777 1598.81 359.041 1584.9 365.74C1553.32 381.013 1521.51 393.648 1490.37 403.297C1444.86 417.399 1404.9 426.962 1366.62 432.736L1366.63 432.728Z" fill="white" stroke="white"/>
<path d="M1312.83 443.605C1306.86 444.506 1300.89 445.319 1294.91 446.045C1223.3 454.493 1148.67 452.412 1069.64 450.204C1063.83 450.041 1058 449.881 1052.13 449.721C999.94 448.302 948.932 444.93 901.583 441.496C853.156 437.955 804.27 434.076 756.998 430.323C730.122 428.19 702.331 425.986 675.078 423.878C576.484 416.486 496.29 413.054 422.708 413.08C380.223 413.104 336.811 414.247 293.677 416.481C223.419 420.217 152.275 425.886 83.4719 431.367L68.0722 432.594C25.6545 435.968 -13.2823 440.184 -50.9603 445.483C-90.1762 451.024 -126.845 457.733 -163.061 465.989C-243.682 484.375 -318.221 508.724 -390.942 540.425C-473.514 576.431 -552.892 623.059 -612.823 659.66L-612.995 659.358C-553.055 622.752 -473.664 576.115 -391.073 540.103C-318.336 508.394 -243.777 484.039 -163.137 465.647C-126.911 457.389 -90.2319 450.679 -51.0094 445.137C-13.3216 439.837 25.6218 435.62 68.0428 432.246L83.4427 431.018C152.246 425.534 223.396 419.864 293.657 416.132C336.798 413.9 380.214 412.753 422.706 412.732C496.295 412.709 576.496 416.14 675.1 423.531C702.353 425.639 730.144 427.843 757.019 429.976C804.295 433.729 853.181 437.607 901.605 441.148C948.95 444.583 999.954 447.952 1052.14 449.372C1058 449.532 1063.84 449.696 1069.65 449.855C1148.66 452.061 1223.28 454.144 1294.86 445.696C1353.74 438.536 1411.69 423.126 1482.79 395.721C1513.45 383.902 1545.23 369.481 1577.22 352.852C1588.42 347.049 1599.6 340.969 1611.43 334.535C1629.32 324.81 1647.81 314.754 1666.56 305.622C1688.68 294.846 1708.47 286.793 1727.07 281C1749.29 274.08 1769.91 270.3 1790.09 269.445C1818.43 268.287 1847.37 273.796 1878.55 286.287C1905.33 297.013 1930.37 311.319 1957.98 327.55L1957.82 327.854C1909.42 299.408 1854.55 267.166 1790.11 269.795C1753.33 271.351 1714.12 282.834 1666.71 305.938C1647.96 315.066 1629.47 325.122 1611.59 334.847C1599.75 341.284 1588.57 347.364 1577.37 353.168C1545.36 369.798 1513.58 384.227 1482.91 396.051C1419.01 420.682 1365.71 435.629 1312.83 443.605L1312.83 443.605Z" fill="white" stroke="white"/>
<path d="M1262.02 456.625C1185.86 468.111 1108.93 467.365 1036.69 464.699C992.48 462.923 944.602 459.3 886.01 453.296C836.111 448.167 785.624 442.34 736.799 436.706C711.065 433.737 684.456 430.668 658.313 427.741C588.801 420.049 497.11 410.868 404.327 408.114C361.113 406.835 317.527 406.864 274.775 408.204C203.711 410.477 127.811 416.171 49.1851 425.12C6.6974 430.067 -32.5619 435.997 -70.8291 443.253C-109.016 450.507 -147.127 459.421 -184.101 469.747C-260.969 491.217 -337.633 519.705 -411.963 554.416C-477.822 585.173 -547.93 623.779 -632.6 675.908L-632.772 675.605C-548.092 623.468 -477.975 584.861 -412.104 554.096C-337.757 519.376 -261.073 490.885 -184.189 469.409C-147.206 459.079 -109.088 450.164 -70.8916 442.909C-32.6144 435.651 6.6511 429.718 49.1455 424.77C127.781 415.819 203.691 410.124 274.762 407.85C317.521 406.513 361.114 406.483 404.335 407.762C497.131 410.517 588.829 419.701 658.348 427.392C684.49 430.315 711.1 433.388 736.834 436.358C785.659 441.991 836.146 447.815 886.041 452.944C944.623 458.946 992.497 462.569 1036.7 464.346C1115.24 467.245 1199.32 467.874 1281.92 452.978C1342.55 441.936 1402.19 422.047 1475.31 388.488C1505.07 374.831 1535.94 359.065 1569.69 340.291C1578.15 335.589 1586.55 330.804 1595.43 325.734C1615.77 314.132 1636.8 302.137 1658.33 291.486C1705.48 268.147 1744.74 256.953 1781.88 256.259C1810.37 255.747 1839.36 262.372 1870.52 276.509C1897.35 288.683 1922.24 304.582 1949.68 322.596L1949.51 322.892C1901.35 291.276 1846.76 255.444 1781.89 256.61C1744.8 257.305 1705.58 268.486 1658.47 291.803C1636.95 302.448 1615.93 314.444 1595.59 326.041C1586.71 331.111 1578.31 335.9 1569.84 340.599C1536.09 359.373 1505.21 375.144 1475.44 388.805C1441.23 404.51 1410.31 417.046 1380.93 427.13C1346.82 438.838 1314.46 447.407 1281.98 453.32C1275.34 454.518 1268.68 455.615 1262.02 456.622L1262.02 456.625Z" fill="white" stroke="white"/>
<path d="M1210.13 472.033C1166.55 478.604 1120.36 481.604 1070.35 481.158C1012.89 480.641 949.369 475.541 870.438 465.097C820.293 458.462 769.435 450.785 720.248 443.357C611.043 426.868 498.121 409.819 385.947 403.153C217.568 393.148 57.2029 405.891 -90.7005 441.028C-266.682 482.835 -439.91 560.287 -652.376 692.163L-652.551 691.864C-553.901 630.637 -465.172 581.997 -381.288 543.168C-281.349 496.909 -186.323 463.388 -90.776 440.689C-14.9867 422.684 64.7142 410.434 146.103 404.279C223.37 398.435 304.071 397.941 385.965 402.806C498.153 409.474 611.084 426.522 720.297 443.013C769.48 450.438 820.339 458.119 870.48 464.751C991.386 480.747 1133.28 492.72 1268.98 460.265C1376.89 434.458 1472.98 380.643 1562.15 327.734C1567.87 324.343 1573.76 320.807 1579.46 317.387C1609.33 299.454 1640.22 280.908 1672.62 266.745C1709.38 250.671 1742.44 242.928 1773.68 243.077C1802.32 243.212 1831.37 250.951 1862.49 266.737C1889.38 280.37 1914.13 297.863 1941.39 317.65L1941.2 317.938C1895.66 284.881 1838.99 243.739 1773.68 243.429C1703.89 243.099 1637.88 282.729 1579.63 317.693C1573.93 321.113 1568.04 324.653 1562.32 328.043C1473.13 380.966 1377.02 434.794 1269.06 460.611C1249.91 465.193 1230.3 468.997 1210.14 472.039L1210.13 472.033Z" fill="white" stroke="white"/>
</g>
</g>
</g>
<defs>
<clipPath id="clip0_192_537">
<rect width="1440" height="810" fill="white"/>
</clipPath>
<clipPath id="clip1_192_537">
<rect width="3054.67" height="876.781" fill="white" transform="matrix(0.992564 -0.121726 -0.121726 -0.992564 -994.272 1142.09)"/>
</clipPath>
</defs>
</svg>
