<svg width="1440" height="810" viewBox="0 0 1440 810" fill="none" xmlns="http://www.w3.org/2000/svg">
<g clip-path="url(#clip0_192_637)">
<g opacity="0.3" clip-path="url(#clip1_192_637)">
<path d="M723.995 617.976C599.21 601.667 468.408 566.957 325.789 512.398C177.485 455.663 29.9482 382.455 -96.6954 318.294C-249.893 240.68 -408.31 160.417 -578.908 162.253C-651.492 163.035 -723.827 179.143 -793.794 194.717C-826.225 201.935 -859.756 209.4 -892.931 215.263C-953.194 225.911 -1005.82 229.234 -1053.82 225.431C-1061.14 224.85 -1068.35 224.099 -1075.44 223.17C-1124.44 216.765 -1167.74 202.113 -1204.4 179.484L-1202.36 176.185C-1126.23 223.162 -1025.24 234.693 -893.597 211.437C-860.5 205.59 -827.015 198.132 -794.63 190.922C-724.478 175.302 -651.933 159.147 -578.947 158.365C-407.404 156.522 -248.561 237.001 -94.9453 314.824C190.262 459.318 471.258 591.351 772.952 619.556C1042.34 644.733 1399.33 572.974 1593.38 296.067C1705.82 135.612 1740.51 -64.1764 1774.07 -257.39C1790.19 -350.245 1806.86 -446.251 1831.95 -536.945C1860.12 -638.768 1896.13 -722.817 1942.03 -793.91C1976.9 -847.927 2020.21 -897.166 2070.74 -940.263C2120.09 -982.354 2175.37 -1017.79 2235.04 -1045.58C2294.71 -1073.37 2357.4 -1092.87 2421.38 -1103.56C2486.89 -1114.5 2552.44 -1115.96 2616.22 -1107.89C2680.01 -1099.83 2743.12 -1082.09 2803.84 -1055.18C2863.15 -1028.9 2919.01 -994.396 2969.88 -952.623C3020.75 -910.858 3065.47 -862.773 3102.79 -809.717C3141 -755.398 3170.68 -696.928 3191.01 -635.926L3187.34 -634.702C3105 -881.77 2876.55 -1069.96 2618.39 -1103.7C2617.5 -1103.82 2616.64 -1103.92 2615.74 -1104.04C2356.47 -1136.83 2087.05 -1011.36 1945.29 -791.804C1843.42 -634.028 1810.11 -442.217 1777.89 -256.724C1761.08 -159.92 1743.7 -59.8241 1716.78 34.1226C1686.56 139.562 1647.24 225.973 1596.56 298.29C1553.54 359.679 1499.56 414.138 1436.12 460.139C1376.25 503.562 1308.03 539.426 1233.38 566.755C1162.08 592.854 1085.66 610.906 1006.26 620.424C928.984 629.678 850.376 630.693 772.604 623.421C756.504 621.918 740.304 620.098 724.011 617.969L723.995 617.976Z" fill="white"/>
<path d="M715.09 635.006C626.523 623.436 532.868 597.423 430.3 556.006C316.418 510.005 207.438 451.744 115.859 400.817C88.1589 385.421 59.8473 369.437 32.4727 353.979C-11.1255 329.36 -56.2106 303.905 -101.133 279.525C-138.698 259.103 -169.86 243.073 -199.209 229.071C-280.032 190.496 -354.552 163.538 -427.035 146.656C-489.211 132.143 -546.802 125.846 -603.116 127.411C-680.57 129.572 -757.738 147.407 -832.374 164.646C-863.992 171.949 -896.687 179.507 -928.979 185.772C-1065.43 212.242 -1170.63 205.575 -1250.6 165.374L-1248.94 162.075C-1169.73 201.888 -1065.29 208.455 -929.684 182.14C-897.461 175.891 -864.798 168.34 -833.21 161.045C-758.404 143.759 -681.043 125.893 -603.224 123.717C-546.593 122.145 -488.692 128.472 -426.206 143.054C-353.46 159.999 -278.693 187.042 -197.63 225.733C-168.226 239.766 -137.01 255.82 -99.3828 276.28C-54.4294 300.675 -9.33667 326.138 34.277 350.766C61.6439 366.223 89.9479 382.2 117.64 397.588C209.126 448.46 317.982 506.659 431.671 552.583C552.019 601.179 660.031 628.501 761.878 636.114C837.482 641.767 915.208 637.678 992.879 623.963C1068.18 610.673 1141.66 588.718 1211.28 558.709C1360.19 494.733 1484.08 396.178 1569.58 273.686C1582.57 255.084 1595.13 235.344 1606.93 215.015C1689.82 72.2401 1730.82 -88.726 1770.47 -244.395C1773.38 -255.826 1776.28 -267.225 1779.19 -278.579C1800.61 -361.993 1822.75 -448.242 1852.3 -528.953C1885.14 -618.625 1922.37 -689.037 1969.48 -750.534C1988.3 -775.208 2009.54 -798.875 2032.61 -820.892C2107.85 -892.519 2202.8 -946.598 2307.2 -977.289C2413.76 -1008.61 2526.04 -1014.15 2631.88 -993.312C2693.82 -981.114 2754.89 -959.686 2813.41 -929.615C2870.84 -900.101 2924.8 -862.804 2973.78 -818.754C3022.95 -774.534 3066.13 -724.389 3102.12 -669.714C3139.05 -613.614 3167.8 -553.634 3187.56 -491.455L3184.05 -490.34C3104.87 -739.491 2882.68 -940.17 2631.16 -989.703C2418.59 -1031.56 2190.23 -965.858 2035.15 -818.235C2012.22 -796.358 1991.11 -772.83 1972.41 -748.312C1868.88 -613.134 1827.05 -450.193 1782.76 -277.68C1779.85 -266.327 1776.95 -254.935 1774.04 -243.504C1734.33 -87.5953 1693.28 73.6263 1610.12 216.85C1598.27 237.264 1585.65 257.09 1572.6 275.777C1528.49 338.979 1474.41 395.869 1411.86 444.867C1352.49 491.38 1285.49 530.822 1212.74 562.078C1142.85 592.203 1069.09 614.236 993.514 627.572C915.541 641.341 837.513 645.446 761.6 639.769C746.244 638.623 730.725 637.02 715.074 634.975L715.09 635.006Z" fill="white"/>
<path d="M704.055 651.773C614.109 640.017 518.828 608.916 414.309 557.308C311.679 506.598 219.72 447.888 110.175 376.4C104.46 372.675 98.7217 368.934 92.9757 365.178C29.0266 323.444 -37.0907 280.292 -105.562 240.75C-141.99 219.654 -175.048 202.152 -206.62 187.236C-284.245 150.567 -364.247 123.888 -444.404 107.942C-508.996 95.0399 -568.826 90.0138 -627.315 92.5694C-710.09 96.2015 -792.531 115.919 -872.255 134.985C-902.634 142.249 -934.051 149.761 -965.019 156.274C-1029.39 169.812 -1085.32 176.688 -1135.98 177.308C-1197.24 178.059 -1251.34 169.285 -1296.79 151.241L-1295.5 147.98C-1213.3 180.623 -1105.44 182.21 -965.747 152.844C-934.826 146.339 -903.432 138.834 -873.076 131.578C-793.19 112.472 -710.578 92.7166 -627.47 89.069C-568.694 86.5056 -508.586 91.5549 -443.715 104.511C-363.279 120.511 -283.006 147.283 -205.118 184.077C-173.461 199.031 -140.317 216.58 -103.804 237.722C-35.2554 277.318 30.9083 320.493 94.8962 362.251C100.642 365.999 106.373 369.74 112.096 373.472C221.548 444.898 313.414 503.554 415.866 554.179C538.173 614.569 647.741 646.786 750.836 652.679C826.068 656.977 903.987 649.713 982.425 631.088C1054.54 613.973 1125.97 587.634 1194.74 552.8C1337.13 481.088 1458.53 376.841 1545.81 251.313C1558.93 232.448 1571.81 212.421 1584.09 191.782C1662.33 60.4149 1710.86 -81.0665 1757.8 -217.894C1766.3 -242.668 1774.32 -266.071 1782.59 -289.591C1813.17 -376.444 1839.12 -448.272 1871.33 -516.074C1908.44 -594.191 1948.37 -654.907 1996.98 -707.158C2016.24 -728.021 2037.74 -747.901 2060.88 -766.224C2136.93 -826.127 2230.68 -868.55 2332.01 -888.902C2436.67 -909.92 2545.79 -906.404 2647.56 -878.718C2707.64 -862.378 2766.66 -837.247 2822.99 -804.032C2878.53 -771.273 2930.59 -731.181 2977.7 -684.87C3074.69 -589.521 3146.08 -472.675 3184.15 -346.953L3180.8 -345.939C3103.78 -600.216 2894.11 -808.013 2646.65 -875.334C2444.19 -930.412 2220.57 -887.555 2063.06 -763.475C2040.06 -745.268 2018.69 -725.52 1999.55 -704.78C1891.65 -588.809 1840.29 -442.905 1785.9 -288.437C1777.65 -264.933 1769.62 -241.537 1761.12 -216.771C1714.13 -79.7732 1665.54 61.8786 1587.11 193.563C1574.78 214.272 1561.85 234.368 1548.69 253.303C1503.84 317.806 1450.26 376.702 1389.43 428.356C1331.2 477.796 1266.24 520.716 1196.33 555.921C1127.31 590.872 1055.62 617.311 983.238 634.488C904.475 653.198 826.215 660.493 750.642 656.172C735.27 655.289 719.736 653.833 704.062 651.781L704.055 651.773Z" fill="white"/>
<path d="M691.842 668.424C599.698 656.381 503.185 620.215 398.348 558.617C304.926 503.671 221.671 440.647 133.523 373.922C123.889 366.634 114.233 359.316 104.514 351.982C37.4673 301.435 -34.3264 248.216 -109.984 201.974C-146.52 179.57 -180.555 161.068 -214.031 145.409C-290.611 109.576 -373.966 83.9426 -461.782 69.2283C-528.767 57.9371 -590.834 54.1733 -651.523 57.7202C-740.152 62.9321 -828.394 84.7325 -913.724 105.82C-942.345 112.891 -971.935 120.209 -1001.07 126.777C-1067.61 141.777 -1125.19 150.428 -1177.09 153.239C-1240.91 156.693 -1295.18 151.404 -1343 137.084L-1342.05 133.901C-1255.83 159.729 -1147.71 156.43 -1001.81 123.539C-972.709 116.98 -943.135 109.669 -914.529 102.599C-829.052 81.4722 -740.663 59.6331 -651.724 54.4057C-590.78 50.8433 -528.465 54.6225 -461.232 65.9525C-373.114 80.7209 -289.472 106.44 -212.622 142.405C-179.029 158.118 -144.886 176.681 -108.242 199.147C-32.4602 245.466 39.4031 298.74 106.52 349.333C116.23 356.667 125.903 363.986 135.528 371.273C223.592 437.937 306.777 500.906 400.029 555.751C522.653 627.812 633.786 664.923 739.785 669.214C815.148 672.265 893.261 661.818 971.962 638.174C1041.81 617.203 1109.28 587.333 1178.2 546.861C1313.81 467.791 1432.7 357.852 1522.02 228.917C1535.25 209.827 1548.43 189.514 1561.23 168.526C1630.68 54.731 1682.05 -63.6259 1731.72 -178.08C1750.35 -221.006 1767.94 -261.548 1785.97 -300.611C1854.81 -449.302 1916.08 -570.454 2024.46 -663.789C2044.9 -681.392 2066.66 -697.462 2089.14 -711.564C2165.88 -759.711 2258.41 -790.51 2356.73 -800.632C2459.43 -811.211 2565.42 -798.587 2663.21 -764.125C2779.91 -723.01 2889.99 -649.315 2981.59 -550.993C3075 -450.727 3143.85 -330.209 3180.72 -202.466L3177.52 -201.545C3103.78 -457.054 2901.46 -676.653 2662.11 -760.989C2469.38 -828.891 2250.5 -808.872 2090.89 -708.745C2068.56 -694.736 2046.93 -678.759 2026.62 -661.265C1918.75 -568.363 1857.65 -447.529 1788.97 -299.209C1770.95 -260.185 1753.37 -219.651 1734.75 -176.748C1685.04 -62.1855 1633.62 56.2721 1564.06 170.269C1551.23 191.302 1537.99 211.678 1524.74 230.822C1479.08 296.726 1425.99 357.628 1366.94 411.83C1309.8 464.283 1246.86 510.679 1179.86 549.742C1110.72 590.353 1043.02 620.324 972.907 641.373C893.85 665.125 815.365 675.611 739.637 672.552C723.824 671.909 707.888 670.546 691.827 668.447L691.842 668.424Z" fill="white"/>
<path d="M680.312 685.112C635.676 679.281 589.886 666.952 543.616 648.288C491.469 627.246 437.23 597.516 382.404 559.925C300.45 503.67 228.757 440.964 152.851 374.579C135.265 359.199 117.082 343.3 98.8762 327.579C34.4237 272.029 -36.0149 213.66 -114.391 163.213C-151.275 139.384 -186.293 119.876 -221.443 103.582C-297.666 68.2288 -384.374 43.6481 -479.167 30.5137C-548.522 20.8255 -612.819 18.3241 -675.738 22.8701C-770.895 29.7857 -865.572 53.9326 -957.136 77.2896C-983.357 83.9807 -1010.47 90.8964 -1037.13 97.2855C-1187.97 133.436 -1299.85 141.583 -1389.22 122.911L-1388.58 119.837C-1299.69 138.408 -1188.24 130.276 -1037.87 94.2342C-1011.23 87.8451 -984.124 80.9372 -957.918 74.2538C-866.223 50.8659 -771.407 26.6803 -675.971 19.7491C-612.827 15.1877 -548.312 17.6968 -478.741 27.4082C-383.638 40.5814 -296.628 65.2549 -220.126 100.739C-184.845 117.096 -149.703 136.665 -112.695 160.58C-34.1562 211.127 36.3906 269.574 100.921 325.202C119.142 340.922 137.325 356.837 154.911 372.217C230.739 438.54 302.363 501.192 384.169 557.338C504.548 639.885 620.474 683.091 728.726 685.763C804.57 687.637 882.884 674.014 961.508 645.283C1028.11 620.966 1093.58 586.829 1161.66 540.936C1291.95 453.827 1405.18 341.318 1498.22 206.527C1511.51 187.275 1525.02 166.667 1538.37 145.285C1594.9 54.8 1642.79 -37.3422 1689.09 -126.449C1723.57 -192.779 1756.12 -255.423 1789.37 -311.624C1873.61 -453.554 1943.58 -549.584 2051.98 -620.414C2073.21 -634.284 2095.21 -646.551 2117.42 -656.89C2195.06 -693.064 2286.39 -712.215 2381.51 -712.285C2430.77 -712.316 2480.54 -707.22 2529.48 -697.137C2580.6 -686.597 2630.86 -670.589 2678.86 -649.548C2791.94 -599.984 2897.96 -519.621 2985.48 -417.148C3075.29 -311.988 3141.62 -187.799 3177.29 -58.0041L3174.27 -57.1677C3102.6 -317.904 2912.29 -543.791 2677.6 -646.659C2494.97 -726.713 2280.83 -729.539 2118.74 -654.04C2096.68 -643.763 2074.8 -631.566 2053.7 -617.781C1945.81 -547.292 1876.08 -451.556 1792.07 -310.021C1758.87 -253.897 1726.33 -191.292 1691.88 -125C1645.54 -35.8398 1597.63 56.3566 1541.04 146.95C1527.66 168.371 1514.13 189.017 1500.81 208.316C1454.24 275.769 1401.65 338.684 1344.47 395.296C1288.32 450.884 1227.4 500.766 1163.41 543.553C1095.13 589.594 1029.44 623.839 962.584 648.249C883.589 677.112 804.88 690.797 728.641 688.922C712.696 688.527 696.566 687.265 680.288 685.135L680.312 685.112Z" fill="white"/>
<path d="M667.496 701.725C569.737 688.947 468.725 641.838 366.483 561.234C292.451 502.811 228.951 438.967 161.726 371.374C139.517 349.047 116.556 325.954 93.2625 303.17C38.3737 249.548 -35.3406 180.778 -118.789 124.446C-156.145 99.1295 -192.147 78.6225 -228.845 61.7553C-306.269 26.1468 -393.837 3.26221 -496.56 -8.20721C-568.253 -16.3 -634.78 -17.5314 -699.953 -11.9709C-802.482 -3.18884 -904.415 23.6221 -1002.99 49.5579C-1026 55.614 -1049.8 61.8714 -1073.19 67.7881C-1144.41 85.8091 -1205.29 98.0143 -1259.32 105.093C-1326.64 113.913 -1384.27 115.098 -1435.46 108.717L-1435.1 105.782C-1315.16 120.728 -1171.53 89.6194 -1073.92 64.9149C-1050.55 58.9983 -1026.76 52.7408 -1003.75 46.6925C-905.058 20.7257 -803.001 -6.11615 -700.216 -14.9214C-634.85 -20.4974 -568.129 -19.2583 -496.242 -11.15C-393.202 0.350342 -305.339 23.32 -227.622 59.0602C-190.776 75.9971 -154.635 96.5815 -117.139 121.991C-33.4974 178.447 40.3406 247.341 95.3223 301.048C118.624 323.847 141.6 346.941 163.817 369.283C230.98 436.814 294.418 500.596 368.31 558.904C487.628 652.966 605.173 701.214 717.699 702.298C794.287 703.041 872.81 686.244 951.093 652.378C1014.67 624.893 1076.34 587.596 1145.16 534.989C1268.23 440.911 1379.02 322.864 1474.46 184.124C1487.91 164.561 1501.35 144.248 1515.54 122.029C1555.46 59.5327 1592.8 -3.59155 1628.91 -64.6402C1685.23 -159.857 1738.43 -249.792 1792.81 -322.62C1842.94 -389.523 1886.11 -438.653 1928.64 -477.236C1975.59 -519.822 2023.55 -551.527 2079.56 -577.014C2101.61 -587.05 2123.88 -595.523 2145.74 -602.198C2224.38 -626.198 2314.49 -633.71 2406.33 -623.921C2454.54 -618.779 2502.92 -608.913 2550.16 -594.578C2599.78 -579.523 2648.35 -559.465 2694.52 -534.962C2803.93 -476.903 2905.89 -389.879 2989.39 -283.302C3075.59 -173.27 3139.4 -45.4109 3173.89 86.452L3171.03 87.2032C3102.46 -174.904 2919.34 -412.299 2693.14 -532.344C2517.98 -625.3 2313.66 -650.36 2146.6 -599.372C2124.87 -592.735 2102.73 -584.309 2080.79 -574.326C1960.32 -519.497 1879.49 -433.341 1795.19 -320.854C1740.91 -248.158 1687.75 -158.285 1631.47 -63.1378C1595.35 -2.06586 1558 61.0815 1518.05 123.617C1503.84 145.867 1490.39 166.211 1476.91 185.796C1429.43 254.822 1377.29 319.704 1321.94 378.638C1266.82 437.333 1207.95 490.73 1146.97 537.335C1077.95 590.098 1016.1 627.511 952.285 655.088C873.623 689.117 794.689 706 717.692 705.256C701.065 705.094 684.339 703.916 667.511 701.717L667.496 701.725Z" fill="white"/>
<path d="M655.43 718.375C608.069 712.187 559.932 697.21 511.727 673.613C457.341 646.995 403.119 609.629 350.561 562.551C282.337 501.379 225.032 435.482 164.366 365.713C139.594 337.229 113.977 307.77 87.6476 278.775C39.2792 225.61 -35.2017 147.749 -123.196 85.6932C-160.568 59.2307 -198.606 37.113 -236.264 19.936C-314.168 -15.6105 -405.004 -37.4807 -513.968 -46.9132C-587.969 -53.4107 -656.727 -53.3798 -724.177 -46.8048C-835.139 -35.9472 -945.358 -6.04633 -1051.94 22.871C-1070.73 27.9668 -1090.16 33.2408 -1109.25 38.3133C-1218.83 67.4243 -1360.2 100.129 -1481.72 94.5372L-1481.59 91.7648C-1360.45 97.3407 -1219.36 64.6905 -1109.97 35.6337C-1090.89 30.5612 -1071.47 25.295 -1052.68 20.1993C-945.985 -8.74908 -835.65 -38.6809 -724.455 -49.5617C-656.836 -56.1522 -587.907 -56.1832 -513.736 -49.6702C-404.454 -40.2066 -313.324 -18.2591 -235.126 17.4191C-197.312 34.6657 -159.112 56.8765 -121.608 83.4396C-33.3895 145.658 41.2306 223.659 89.6919 276.924C116.044 305.942 141.677 335.409 166.457 363.909C227.069 433.608 284.319 499.442 352.411 560.499C433.475 633.118 560.738 719.544 706.656 718.871C783.096 718.514 864.012 697.992 940.669 659.51C1001.92 628.788 1059.89 588.557 1128.66 529.08C1243.11 430.069 1351.46 306.477 1450.67 161.75C1463.92 142.428 1477.65 121.836 1492.68 98.8044C1512.63 68.2374 1532.47 37.3143 1551.68 7.40558C1635.37 -122.963 1714.42 -246.098 1796.23 -333.578C1850.17 -391.041 1898.31 -432.566 1947.72 -464.264C1996.64 -495.651 2047.3 -517.669 2107.11 -533.568C2130.36 -539.74 2152.24 -544.286 2174.03 -547.453C2253.72 -559.047 2342.63 -554.919 2431.13 -535.512C2529.08 -514.029 2622.95 -475.284 2710.13 -420.353C2815.82 -353.76 2913.72 -260.076 2993.26 -149.441C3033.85 -92.9843 3069.38 -32.5242 3098.89 30.2747C3129.41 95.2265 3153.49 162.742 3170.46 230.938L3167.77 231.612C3101.17 -35.9627 2929.54 -278.81 2708.66 -417.999C2543.63 -521.99 2343.92 -569.354 2174.43 -544.704C2152.76 -541.552 2130.97 -537.03 2107.83 -530.881C1990.32 -499.655 1903.52 -443.803 1798.27 -331.68C1716.63 -244.386 1637.65 -121.352 1554.03 8.90033C1534.84 38.809 1514.98 69.7398 1495.02 100.314C1479.99 123.369 1466.24 143.977 1452.98 163.315C1353.64 308.235 1245.14 432.005 1130.5 531.171C1061.57 590.81 1003.41 631.151 941.947 661.989C905.233 680.42 867.512 694.832 829.831 704.83C788.47 715.804 747.048 721.457 706.703 721.643C689.751 721.721 672.653 720.636 655.461 718.383L655.43 718.375Z" fill="white"/>
<path d="M642.855 735.001C594.153 728.635 544.894 712.342 495.806 686.297C440.181 656.791 385.966 615.599 334.671 563.875C270.923 499.527 218.559 430.958 163.12 358.355C137.077 324.257 110.152 288.989 82.0492 254.387C8.38916 163.81 -58.2239 97.8897 -127.601 46.9319C-165.539 18.9594 -204.591 -4.19626 -243.69 -21.8998C-323.437 -58.0194 -414.854 -78.2787 -531.384 -85.6436C-607.661 -90.5612 -678.65 -89.2602 -748.407 -81.663C-869.204 -68.4589 -989.041 -34.9103 -1104.94 -2.4693C-1118.41 1.30222 -1131.87 5.07376 -1145.32 8.80652C-1265.92 42.2776 -1405.69 76.949 -1528 80.3177L-1528.07 77.7234C-1406.03 74.3701 -1266.46 39.7374 -1146.02 6.31277C-1132.57 2.57999 -1119.11 -1.19144 -1105.63 -4.96295C-989.637 -37.435 -869.699 -71.0067 -748.685 -84.234C-678.773 -91.8467 -607.638 -93.1555 -531.214 -88.2224C-414.358 -80.8343 -322.655 -60.5054 -242.614 -24.2541C-203.352 -6.48087 -164.137 16.7676 -126.06 44.8486C-56.5046 95.938 10.2631 161.997 84.0625 252.761C112.188 287.402 139.122 322.677 165.18 356.791C220.572 429.317 272.882 497.823 336.514 562.055C416.454 642.666 543.64 738.177 695.622 735.412C773.154 734.002 854.286 710.204 930.262 666.603C1004.46 624.056 1063.86 570.202 1112.17 523.132C1217.83 420.178 1320.78 294.642 1426.88 139.353C1439.54 120.828 1452.78 101.15 1469.82 75.555C1527.48 -11.019 1579.59 -88.4779 1633.38 -159.741C1694.46 -240.631 1748.84 -301.076 1799.64 -344.529C1857.01 -393.396 1911.67 -428.315 1966.77 -451.285C2017.28 -472.342 2070.62 -484.671 2134.65 -490.084C2158.75 -492.121 2180.88 -492.973 2202.3 -492.686C2283.08 -491.602 2370.77 -475.842 2455.9 -447.088C2551.62 -414.755 2642.4 -367.205 2725.72 -305.761C2827.62 -230.61 2921.46 -130.274 2997.11 -15.5959C3035.95 43.2921 3069.96 105.82 3098.21 170.253C3127.44 236.955 3150.59 305.98 3167.02 375.401L3164.49 375.997C3100.79 106.765 2936.19 -147.319 2724.18 -303.678C2566.7 -419.82 2376.47 -487.769 2202.27 -490.092C2180.93 -490.378 2158.89 -489.527 2134.86 -487.498C2004.32 -476.454 1910.8 -435.82 1801.32 -342.554C1685.3 -243.311 1571.97 -73.1442 1471.97 76.9954C1454.93 102.598 1441.68 122.277 1429.02 140.817C1322.82 296.246 1219.77 421.913 1113.97 524.99C1065.55 572.177 1006 626.162 931.547 668.857C855.192 712.674 773.626 736.589 695.66 738.006C678.151 738.324 660.534 737.325 642.839 735.009L642.855 735.001Z" fill="white"/>
<path d="M630.216 751.636C580.183 745.1 529.824 727.482 479.884 698.998C423.787 666.998 368.078 620.734 318.795 565.207C258.641 497.374 210.396 425.685 159.317 349.79C132.849 310.464 105.49 269.799 76.4731 230.008C6.78589 134.582 -61.407 62.0179 -131.985 8.17917C-170.511 -21.319 -210.585 -45.5123 -251.094 -63.7193C-331.808 -100.025 -426.408 -119.293 -548.792 -124.358C-627.308 -127.703 -700.526 -125.132 -772.63 -116.497C-905.113 -100.582 -1036.34 -62.6274 -1163.25 -25.9192L-1181.38 -20.6763C-1313.41 17.4569 -1452.39 54.3665 -1574.29 66.1069L-1574.53 63.7061C-1452.82 51.9811 -1313.98 15.1026 -1182.06 -22.9996L-1163.92 -28.2425C-1036.92 -64.9739 -905.6 -102.96 -772.917 -118.898C-700.681 -127.548 -627.339 -130.119 -548.692 -126.774C-425.99 -121.693 -331.111 -102.364 -250.11 -65.9264C-209.432 -47.642 -169.194 -23.3558 -130.529 6.25861C-59.7651 60.2444 8.58264 132.964 78.4171 228.583C107.457 268.412 134.839 309.093 161.315 348.435C212.348 424.26 260.546 495.879 320.592 563.596C385.006 636.168 517.953 757.142 684.594 751.938C784.072 748.833 867.443 707.672 919.869 673.682C990.493 627.936 1048.38 568.885 1095.69 517.161C1190.02 414.029 1284.82 290.6 1403.1 116.933C1412.23 103.512 1421.47 89.882 1430.4 76.7089C1435.92 68.5618 1441.44 60.4225 1446.96 52.2909C1513.82 -46.1397 1568.97 -120.532 1620.52 -181.828C1685.81 -259.45 1745.52 -316.247 1803.05 -355.472C1865.01 -397.524 1924.79 -424.621 1985.82 -438.313C2038.68 -450.17 2093.07 -452.725 2162.17 -446.584C2187.02 -444.377 2209.38 -441.543 2230.56 -437.918C2312.39 -423.893 2398.88 -396.494 2480.66 -358.67C2574.05 -315.48 2661.74 -259.14 2741.3 -191.207C2790 -149.627 2836.72 -102.364 2880.15 -50.7242C2924.16 1.60428 2964.82 58.44 3000.98 118.203C3038.07 179.507 3070.57 244.103 3097.55 310.185C3125.49 378.63 3147.71 449.165 3163.59 519.825L3161.24 520.352C3099.39 245.21 2945.76 -13.4817 2739.74 -189.379C2537.21 -362.295 2333.53 -417.829 2230.15 -435.549C2209.04 -439.165 2186.73 -441.992 2161.95 -444.191C2043.11 -454.747 1936.82 -443.363 1804.41 -353.489C1674.9 -265.204 1552.05 -98.1429 1448.96 53.6308C1443.43 61.7546 1437.92 69.8939 1432.4 78.0486C1423.47 91.2295 1414.23 104.852 1405.09 118.281C1286.74 292.048 1191.87 415.563 1097.47 518.779C1050.05 570.62 992.034 629.802 921.178 675.703C868.496 709.855 784.691 751.226 684.664 754.347C666.582 754.912 648.415 753.998 630.208 751.621L630.216 751.636Z" fill="white"/>
<path d="M617.539 768.271C566.189 761.565 514.747 742.637 463.97 711.706C406.595 676.756 350.909 626.565 302.92 566.547C245.755 494.981 201.08 419.853 153.78 340.319C127.459 296.06 100.247 250.299 70.8894 205.637C4.01306 104.062 -63.7845 26.7967 -136.384 -30.5734C-175.521 -61.6127 -216.61 -86.836 -258.52 -105.554C-341.489 -142.626 -436.39 -160.369 -566.217 -163.079C-645.808 -164.829 -723.41 -160.887 -796.861 -151.346C-943.407 -132.249 -1089 -88.6482 -1217.46 -50.1743C-1358.84 -7.83594 -1496.05 31.8306 -1620.61 51.8885L-1620.97 49.6812C-1496.55 29.6466 -1359.4 -9.99661 -1218.1 -52.3117C-1089.56 -90.8089 -943.871 -134.44 -797.147 -153.561C-723.58 -163.118 -645.87 -167.075 -566.162 -165.317C-506.728 -164.07 -455.425 -159.71 -409.325 -151.974C-352.849 -142.495 -303.226 -127.982 -257.607 -107.599C-215.526 -88.8108 -174.275 -63.4868 -134.997 -32.3313C-62.2048 25.1937 5.7478 102.629 72.7559 204.406C102.136 249.106 129.364 294.891 155.701 339.173C202.954 418.637 247.59 493.695 304.663 565.145C355.633 628.896 493.614 776.333 673.566 768.488C774.694 764.082 857.686 718.359 909.492 680.783C976.647 632.11 1030.76 570.519 1079.23 511.213C1180.81 386.932 1275.87 246.906 1376.52 98.6565L1379.31 94.5443C1393.36 73.8514 1408.51 51.6018 1424.11 29.0581C1564.92 -174.378 1689.99 -303.724 1806.46 -366.36C1873.38 -402.186 1938.28 -421.461 2004.84 -425.287C2059.84 -428.447 2116.84 -421.578 2189.64 -403.022C2214.99 -396.563 2237.59 -390.043 2258.77 -383.088C2342.69 -355.518 2425.67 -317.54 2505.39 -270.191C2596.31 -216.182 2680.93 -151.06 2756.88 -76.6212C2803.63 -30.7979 2848.29 20.1521 2889.65 74.8195C2931.69 130.401 2970.45 190.024 3004.84 252.041C3077.49 383.013 3129.75 521.714 3160.17 664.296L3157.99 664.76C3098.82 387.443 2952.05 117.801 2755.32 -75.0258C2574.45 -252.309 2385.08 -339.255 2258.08 -380.966C2236.95 -387.905 2214.39 -394.41 2189.1 -400.861C2061.65 -433.357 1947.98 -439.583 1807.53 -364.393C1691.39 -301.927 1566.57 -172.814 1425.96 30.3282C1410.37 52.8642 1395.22 75.1137 1381.17 95.7989L1378.38 99.9111C1277.7 248.2 1182.6 388.264 1080.97 512.63C1032.4 572.061 978.165 633.775 910.808 682.596C858.754 720.349 775.352 766.289 673.667 770.718C654.996 771.531 636.272 770.711 617.547 768.263L617.539 768.271Z" fill="white"/>
<path d="M604.832 784.914C552.165 778.029 499.654 757.793 448.064 724.431C373.955 676.501 319.608 612.85 287.068 567.894C232.466 492.402 189.046 409.925 147.059 330.158C121.279 281.191 94.6324 230.558 65.3373 181.273C1.18677 73.5184 -66.2316 -8.45551 -140.759 -69.326C-180.516 -101.906 -222.627 -128.168 -265.924 -147.381C-373.897 -195.319 -492.433 -201.646 -583.633 -201.801C-665.354 -202.025 -745.248 -196.767 -821.084 -186.188C-969.844 -165.371 -1116.28 -122.15 -1253.52 -79.6647L-1275.5 -72.8575C-1407.89 -31.8435 -1544.79 10.5723 -1666.93 37.6697L-1667.38 35.6718C-1545.32 8.5975 -1408.46 -33.8028 -1276.1 -74.8091L-1254.12 -81.6163C-1116.81 -124.125 -970.278 -167.377 -821.363 -188.217C-745.426 -198.811 -665.439 -204.078 -583.617 -203.853C-492.216 -203.698 -373.409 -197.348 -265.079 -149.255C-221.613 -129.964 -179.347 -103.61 -139.45 -70.9137C-64.7371 -9.88824 2.8363 72.2638 67.1106 180.228C96.4368 229.551 123.099 280.215 148.886 329.206C190.843 408.903 234.224 491.318 288.741 566.694C338.774 635.804 475.346 795.431 662.554 785.045C765.44 779.338 847.998 729.062 899.131 687.885C966.472 633.698 1018.92 565.207 1062.79 505.258C1126.89 417.662 1188.23 324.613 1253.16 226.097C1286.33 175.775 1320.62 123.74 1355.54 72.1553C1372.28 47.4199 1387.24 25.7202 1401.25 5.82501C1465.88 -85.868 1531 -163.838 1594.8 -225.917C1668.36 -297.513 1740.71 -348.417 1809.85 -377.226C1882.03 -407.158 1952.01 -418.611 2023.83 -412.261C2081.66 -407.142 2141.27 -390.856 2217.07 -359.452C2242.58 -348.889 2265.43 -338.682 2286.95 -328.258C2371.5 -287.275 2453.3 -237.967 2530.09 -181.704C2618.42 -116.992 2699.95 -43.0883 2772.44 37.9563C2817.22 88.0157 2859.85 142.66 2899.13 200.355C2939.18 259.174 2976.05 321.593 3008.7 385.871C3077.61 521.529 3127.42 663.808 3156.75 808.759L3154.74 809.161C3097.28 525.199 2960.98 251.801 2770.92 39.3271C2600.31 -151.401 2413.08 -264.84 2286.05 -326.407C2264.57 -336.816 2241.75 -347.007 2216.29 -357.555C2081.62 -413.345 1961.09 -437.717 1810.64 -375.328C1680.8 -321.219 1543.63 -192.585 1402.93 7.00992C1388.92 26.8974 1373.98 48.5815 1357.24 73.3092C1322.33 124.887 1288.04 176.913 1254.88 227.228C1189.93 325.767 1128.58 418.839 1064.45 506.474C1020.5 566.523 967.959 635.146 900.424 689.488C865.948 717.244 829.103 739.648 790.894 756.082C748.566 774.289 705.425 784.72 662.671 787.098C643.404 788.166 624.114 787.438 604.847 784.922L604.832 784.914Z" fill="white"/>
<path d="M592.457 801.541C573.654 799.086 554.844 794.873 536.174 788.925C501.055 777.743 466.061 760.326 432.173 737.17C356.446 685.422 302.85 617.295 271.224 569.257C218.875 489.692 178.522 403.149 139.485 319.463C114.534 265.965 88.7314 210.64 59.7848 156.933C-0.865479 44.5545 -69.8094 -44.5983 -145.134 -108.063C-185.527 -142.193 -228.66 -169.491 -273.335 -189.201C-383.089 -237.642 -506.132 -242.071 -601.056 -240.515C-684.853 -239.221 -767.039 -232.662 -845.315 -221.022C-999.867 -197.991 -1150.18 -153.639 -1289.6 -109.14C-1326.36 -97.407 -1363.65 -85.3336 -1399.72 -73.6552C-1510.02 -37.9382 -1614.21 -4.19611 -1713.28 23.459L-1713.79 21.6623C-1614.76 -5.98499 -1510.59 -39.7116 -1400.3 -75.4286C-1364.23 -87.107 -1326.93 -99.1883 -1290.17 -110.921C-1150.69 -155.443 -1000.29 -199.818 -845.601 -222.865C-767.241 -234.521 -684.977 -241.08 -601.095 -242.381C-535.744 -243.45 -482.614 -240.917 -434.013 -234.428C-373.386 -226.327 -320.588 -212.093 -272.591 -190.912C-227.754 -171.133 -184.466 -143.741 -143.942 -109.496C-103.333 -75.2814 -64.3422 -33.4542 -28.0542 14.8318C3.16919 56.3724 33.2695 103.884 61.4186 156.042C90.3962 209.796 116.207 265.144 141.173 318.673C180.179 402.297 220.509 488.778 272.781 568.227C311.051 626.348 451.456 814.962 651.527 801.595C733.233 796.135 817.487 758.273 888.769 694.979C953.245 637.764 1001.96 566.934 1046.34 499.295C1087.15 437.1 1126.59 373.403 1168.35 305.957C1220.36 221.977 1274.14 135.14 1331.75 49.7588C1348.19 25.4029 1363.45 3.42429 1378.39 -17.4157C1444 -108.869 1512.47 -186.436 1581.92 -247.957C1660.32 -317.416 1738.14 -364.556 1813.21 -388.083C1890.85 -412.284 1965.94 -415.924 2042.79 -399.227C2104.12 -385.899 2166.31 -360.196 2244.44 -315.89C2269.83 -301.486 2292.93 -287.6 2315.06 -273.436C2498.81 -155.807 2657.92 -12.498 2787.98 152.518C2875.27 263.278 2950.82 386.808 3012.54 519.678C3077.69 659.936 3125.05 805.793 3153.31 953.206L3151.48 953.555C3096.46 666.565 2966.84 382.495 2786.5 153.672C2656.59 -11.1737 2497.63 -154.351 2314.05 -271.864C2291.95 -286.013 2268.88 -299.883 2243.51 -314.264C2121.78 -383.305 1985.46 -439.823 1813.76 -386.302C1634.15 -330.016 1478.69 -154.041 1379.9 -16.3238C1364.97 4.50079 1349.72 26.4561 1333.29 50.8043C1275.69 136.155 1221.93 222.977 1169.93 306.941C1128.16 374.394 1088.72 438.099 1047.89 500.317C1003.44 568.064 954.639 639.003 890 696.373C856.144 726.436 819.516 750.839 781.129 768.914C738.6 788.933 695.032 800.557 651.643 803.461C632.005 804.77 612.227 804.128 592.457 801.541Z" fill="white"/>
<path d="M579.811 818.192C560.56 815.675 541.332 811.268 522.243 804.987C486.311 793.162 450.658 774.63 416.275 749.91C384.758 727.25 354.44 699.525 326.175 667.502C300.032 637.888 276.212 605.292 255.373 570.62C205.068 486.85 167.557 396.094 131.284 308.327C107.356 250.43 82.614 190.567 54.2249 132.585C-3.86987 14.0807 -72.4189 -79.9279 -149.525 -146.816C-190.56 -182.502 -234.716 -210.831 -280.761 -231.036C-391.77 -279.747 -513.782 -282.744 -618.503 -279.244C-704.329 -276.441 -788.799 -268.58 -869.561 -255.872C-1038.39 -229.254 -1202 -179.241 -1325.68 -138.638C-1408.06 -111.594 -1490.56 -83.0643 -1570.34 -55.4712C-1636.32 -32.6563 -1698.63 -11.1039 -1759.65 9.23279L-1760.19 7.62973C-1699.17 -12.6992 -1636.86 -34.2517 -1570.89 -57.0666C-1491.1 -84.6596 -1408.6 -113.198 -1326.21 -140.241C-1202.47 -180.86 -1038.77 -230.904 -869.824 -257.537C-788.993 -270.261 -704.453 -278.129 -618.557 -280.932C-550.69 -283.201 -495.972 -281.529 -446.356 -275.666C-383.677 -268.27 -329.3 -254.176 -280.087 -232.577C-233.879 -212.31 -189.584 -183.88 -148.418 -148.086C-71.1412 -81.0508 -2.45276 13.1282 55.7427 131.841C84.155 189.877 108.912 249.764 132.849 307.684C169.098 395.397 206.578 486.091 256.828 569.753C334.051 698.247 475.4 830.978 640.508 818.145C723.7 811.679 808.194 770.455 878.424 702.065C941.056 641.102 985.816 568.537 1029.91 493.324C1056.5 448.314 1082.29 403.188 1109.58 355.413C1171.38 247.24 1235.29 135.388 1307.98 27.3701C1324.34 3.05283 1339.9 -19.189 1355.54 -40.6408C1421.46 -131.002 1495.29 -210.304 1569.04 -269.974C1652.37 -337.396 1735.66 -380.78 1816.57 -398.917C1899.81 -417.465 1980 -413.299 2061.73 -386.186C2127.07 -364.509 2191.85 -329.389 2271.77 -272.328C2296.55 -254.632 2320.56 -236.565 2343.14 -218.614C2524.37 -74.592 2679.26 88.8214 2803.5 267.073C2886.57 386.258 2958.2 516.271 3016.38 653.493C3077.75 798.227 3122.68 947.669 3149.88 1097.66L3148.22 1097.96C3094.74 803.152 2975.06 516.17 2802.12 268.041C2677.97 89.9211 2523.2 -73.3684 2342.09 -217.297C2319.53 -235.225 2295.54 -253.277 2270.78 -270.958C2150.74 -356.68 2002.93 -438.723 1816.92 -397.276C1663.41 -362.867 1500.03 -235.86 1356.89 -39.6495C1341.26 -18.2209 1325.71 4.01309 1309.36 28.3071C1236.71 136.271 1172.82 248.099 1111.03 356.249C1083.74 404.032 1057.95 449.166 1031.35 494.176C987.202 569.49 942.365 642.155 879.585 703.266C846.356 735.629 809.952 762.03 771.38 781.747C728.656 803.586 684.671 816.395 640.632 819.818C620.436 821.39 600.115 820.84 579.811 818.184V818.192Z" fill="white"/>
<path d="M3144.96 1242.36C3093.67 943.162 2980.51 645.795 2817.74 382.409C2699.08 190.419 2548.5 7.01016 2370.16 -162.723C2346.01 -185.553 2321.76 -207.392 2298.09 -227.636C2174.5 -333.338 2021.06 -437.461 1820.1 -408.265C1656 -384.257 1478.78 -258.404 1333.87 -62.9833C1317.91 -41.4463 1301.61 -18.2983 1285.44 5.80981C1200.43 132.492 1130.49 266.647 1062.84 396.38C1047.09 426.591 1030.81 457.824 1014.8 488.035C970.816 571.635 929.503 646.05 869.17 710.166C799.792 783.93 714.718 828.685 629.62 836.182C589.236 839.744 548.425 834.656 508.335 821.049C471.59 808.581 435.279 788.941 400.401 762.657C338.79 716.237 281.671 648.521 239.552 571.983C191.114 483.915 156.313 388.806 122.65 296.834C99.8987 234.663 76.3727 170.377 48.6882 108.236C-6.88977 -16.4165 -75.0514 -115.265 -153.892 -185.568C-195.57 -222.803 -240.748 -252.178 -288.171 -272.87C-401.155 -322.186 -527.373 -323.34 -635.934 -317.974C-723.735 -313.683 -810.49 -304.514 -893.791 -290.721C-1033.7 -267.519 -1182.4 -228.565 -1361.75 -168.128C-1510.29 -118.084 -1656.66 -62.4024 -1806.02 -4.98584L-1806.56 -6.38751C-1657.19 -63.8118 -1510.81 -119.494 -1362.24 -169.553C-1182.81 -230.013 -1034.04 -268.983 -894.046 -292.2C-810.683 -306.008 -723.874 -315.186 -636.012 -319.468C-527.28 -324.843 -400.845 -323.681 -287.575 -274.241C-240.004 -253.486 -194.695 -224.027 -152.893 -186.684C-73.89 -116.241 -5.60425 -17.2141 50.059 107.632C77.7589 169.82 101.293 234.136 124.06 296.331C157.699 388.249 192.485 483.295 240.861 571.271C316.387 708.524 458.139 849.804 629.489 834.695C714.215 827.221 798.948 782.637 868.078 709.143C928.279 645.16 969.546 570.837 1013.48 487.338C1029.48 457.127 1045.77 425.894 1061.51 395.691C1129.17 265.919 1199.14 131.733 1284.19 4.98111C1300.38 -19.1425 1316.69 -42.3059 1332.67 -63.8661C1400.01 -154.669 1477.28 -233.552 1556.15 -291.983C1644.49 -357.439 1733.22 -397.051 1819.89 -409.736C1908.85 -422.662 1994.14 -410.689 2080.65 -373.136C2149.41 -343.282 2218.82 -297.405 2299.07 -228.766C2322.76 -208.499 2347.03 -186.645 2371.21 -163.799C2455.12 -83.9317 2533.39 -0.618011 2603.83 83.8186C2683.53 179.345 2755.93 279.541 2819.03 381.635C2981.91 645.175 3095.13 942.728 3146.47 1242.12L3144.99 1242.38L3144.96 1242.36Z" fill="white"/>
<path d="M3141.71 1386.77C3092.44 1082.24 2985.81 774.49 2833.36 496.801C2718.2 287.007 2571.8 83.4857 2398.25 -108.125C2372.62 -136.291 2348.79 -161.205 2325.41 -184.298C2206.53 -302.554 2042.02 -436.121 1823.29 -419.254C1646.65 -405.508 1459.88 -284.154 1310.86 -86.3168C1294.37 -64.4236 1277.77 -41.0046 1261.5 -16.6951C1166.66 125.034 1094.08 278.883 1023.88 427.668C1015.47 445.487 1006.78 463.919 998.238 481.901C964.033 554.373 921.465 644.571 858.731 717.066C826.788 753.991 790.825 784.395 751.85 807.443C708.771 832.914 663.934 848.093 618.593 852.546C577.163 856.611 535.385 851.43 494.412 837.134C456.854 824.031 419.877 803.268 384.51 775.427C321.646 725.949 264.542 654.182 223.708 573.362C177.02 480.902 144.806 381.349 113.66 285.071C92.1938 218.717 69.9921 150.11 43.1439 83.9117C-9.95593 -46.8903 -77.7229 -150.595 -158.275 -224.305C-200.603 -263.105 -246.803 -293.517 -295.598 -314.698C-410.649 -364.656 -541.017 -363.959 -653.381 -356.695C-743.086 -350.941 -832.134 -340.463 -918.037 -325.563C-1065.83 -299.898 -1222.77 -258.048 -1397.84 -197.619C-1538.66 -149.007 -1687.35 -90.6459 -1852.41 -19.1965L-1852.93 -20.4047C-1687.85 -91.8618 -1539.13 -150.239 -1398.27 -198.858C-1223.15 -259.31 -1066.13 -301.184 -918.269 -326.856C-832.312 -341.764 -743.226 -352.242 -653.474 -358.004C-540.955 -365.284 -410.385 -365.973 -295.079 -315.898C-246.153 -294.655 -199.829 -264.166 -157.392 -225.266C-76.7007 -151.416 -8.81775 -47.5563 44.3596 83.4315C71.231 149.677 93.4327 218.307 114.907 284.684C146.037 380.915 178.236 480.422 224.878 572.789C295.293 712.164 440.615 868.724 618.454 851.252C704.752 842.772 789.726 794.819 857.725 716.222C920.342 643.866 962.872 553.761 997.038 481.359C1005.57 463.377 1014.27 444.945 1022.67 427.125C1092.88 278.295 1165.49 124.399 1260.38 -17.4077C1276.66 -41.7404 1293.29 -65.1825 1309.78 -87.0912C1378.63 -178.498 1459.36 -256.956 1543.22 -313.993C1588.14 -344.544 1634.03 -369.024 1679.59 -386.759C1727.8 -405.523 1776.1 -416.892 1823.17 -420.555C1872.08 -424.326 1920.98 -420.671 1968.5 -409.697C2012.21 -399.606 2056.32 -382.941 2099.61 -360.18C2173.17 -321.505 2245.2 -265.916 2326.32 -185.22C2349.72 -162.111 2373.56 -137.182 2399.22 -109C2481.92 -17.7018 2559.02 76.9185 2628.39 172.228C2704.76 277.156 2774.12 386.15 2834.51 496.174C2908.87 631.63 2972.64 774.591 3024.04 921.106C3077.79 1074.3 3117.81 1230.91 3143 1386.57L3141.7 1386.78L3141.71 1386.77Z" fill="white"/>
<path d="M3138.46 1531.17C3090.35 1215.69 2992.97 906.159 2849.01 611.185C2736.84 381.364 2594.64 157.723 2426.37 -53.5274C2400.77 -85.558 2376.7 -114.158 2352.76 -140.961C2240.63 -267.047 2064.08 -434.208 1826.5 -430.251C1640.3 -427.06 1438.94 -307.209 1287.84 -109.643C1270.87 -87.44 1253.95 -63.7346 1237.56 -39.185C1134.7 114.935 1061.88 286.651 991.461 452.713C988.193 460.418 984.933 468.108 981.673 475.791C947.484 556.657 908.726 648.319 848.292 723.989C817.44 762.626 780.711 795.934 742.077 820.313C698.827 847.604 653.572 863.96 607.565 868.925C565.105 873.509 522.351 868.228 480.496 853.234C442.125 839.488 404.489 817.618 368.627 788.213C304.516 735.644 247.427 659.843 207.872 574.756C162.825 477.835 133.127 373.736 104.413 273.067C84.3098 202.617 63.533 129.766 37.5908 59.5941C-13.062 -77.3646 -80.4338 -185.917 -162.659 -263.043C-205.645 -303.399 -252.867 -334.856 -303.025 -356.525C-420.197 -407.157 -554.709 -404.594 -670.837 -395.417C-762.385 -388.207 -853.709 -376.428 -942.291 -360.405C-1099.87 -331.875 -1260.69 -288.274 -1433.94 -227.101C-1586.42 -173.263 -1742.83 -108.094 -1898.82 -33.4077L-1899.31 -34.4377C-1743.29 -109.147 -1586.85 -174.331 -1434.32 -228.178C-1261.02 -289.366 -1100.14 -332.982 -942.5 -361.528C-853.887 -377.559 -762.517 -389.345 -670.937 -396.555C-594.629 -402.588 -536.782 -403.456 -483.38 -399.374C-414.645 -394.116 -355.505 -380.447 -302.583 -357.578C-252.302 -335.855 -204.964 -304.336 -161.884 -263.887C-118.472 -223.167 -78.614 -172.798 -43.4025 -114.173C-12.4037 -62.5574 15.2034 -4.22702 38.6597 59.1837C64.6094 129.394 85.4019 202.268 105.505 272.742C134.212 373.372 163.902 477.425 208.902 574.268C277.621 722.092 423.229 887.658 607.441 867.778C726.039 854.985 808.69 771.749 847.394 723.269C907.727 647.723 946.454 556.138 980.62 475.334C983.88 467.651 987.14 459.961 990.408 452.256C1060.85 286.147 1133.69 114.378 1236.61 -39.8277C1253.01 -64.4005 1269.94 -88.1292 1286.93 -110.348C1357.38 -202.459 1441.54 -280.499 1530.33 -336.026C1577.65 -365.617 1626.11 -388.718 1674.36 -404.672C1725.41 -421.554 1776.58 -430.545 1826.47 -431.397C1878.32 -432.265 1930.08 -425.016 1980.33 -409.86C2026.56 -395.92 2073.04 -374.809 2118.47 -347.131C2195.51 -300.185 2272.42 -232.995 2353.59 -141.728C2377.54 -114.909 2401.63 -86.2938 2427.24 -54.2477C2595.57 157.072 2737.82 380.783 2850.02 610.674C2919.89 753.836 2979.73 903.286 3027.88 1054.87C3077.78 1211.95 3115.36 1372.14 3139.58 1531L3138.46 1531.17V1531.17Z" fill="white"/>
<path d="M3135.2 1675.58C3088.79 1351.98 2997.76 1032.35 2864.65 725.585C2755.46 473.941 2617.46 230.18 2454.48 1.0863C2428.94 -34.77 2404.61 -67.0562 2380.1 -97.5998C2200.71 -321.713 2020.68 -434.123 1829.71 -441.24C1631.49 -448.589 1420.33 -333.345 1264.82 -132.968C1247.37 -110.486 1230.15 -86.5022 1213.63 -61.6738C1104.1 102.855 1033.44 289.339 965.108 469.681C931.213 559.33 896.164 652.029 837.853 730.913C807.628 771.811 771.131 807.188 732.319 833.224C688.891 862.358 643.21 879.876 596.553 885.297C553.063 890.439 509.341 885.096 466.61 869.421C427.434 855.047 389.133 832.055 352.782 801.077C287.439 745.395 230.359 665.52 192.066 576.158C148.599 474.707 121.348 366 95.0038 260.863C76.3333 186.378 57.0277 109.352 32.0768 35.2853C-15.4707 -105.817 -84.3141 -222.369 -167.011 -301.772C-210.656 -343.692 -258.908 -376.187 -310.428 -398.344C-429.475 -449.542 -562.376 -445.801 -688.268 -434.123C-781.575 -425.488 -875.191 -412.4 -966.514 -395.23C-1131.54 -364.191 -1300.93 -317.539 -1470 -256.576C-1631.09 -198.485 -1790.97 -128.175 -1945.2 -47.6024L-1945.64 -48.4543C-1791.37 -129.05 -1631.44 -199.384 -1470.32 -257.482C-1301.2 -318.461 -1131.75 -365.128 -966.685 -396.175C-875.33 -413.352 -781.683 -426.44 -688.346 -435.083C-635.308 -440.001 -565.473 -445.073 -495.67 -440.589C-424.929 -436.051 -364.21 -422.522 -310.041 -399.227C-258.412 -377.024 -210.067 -344.466 -166.337 -302.469C-122.236 -260.13 -82.1613 -207.624 -47.2131 -146.42C-16.3071 -92.295 10.6726 -31.2618 32.9983 34.9756C57.9646 109.081 77.2701 186.122 95.9485 260.63C122.293 365.729 149.529 474.405 192.964 575.779C265.292 744.567 418.11 905.44 596.468 884.344C684.624 874.106 772.339 817.975 837.109 730.348C895.344 651.573 930.369 558.935 964.241 469.348C1032.6 288.951 1103.28 102.421 1212.86 -62.2005C1229.4 -87.0443 1246.64 -111.052 1264.1 -133.557C1336.19 -226.45 1423.8 -304.064 1517.45 -358.011C1567.18 -386.657 1618.22 -408.365 1669.15 -422.537C1723.05 -437.538 1777.09 -444.152 1829.78 -442.192C1884.56 -440.148 1939.2 -429.313 1992.16 -409.991C2040.94 -392.195 2089.79 -366.638 2137.35 -334.042C2218.95 -278.12 2298.61 -200.971 2380.88 -98.1962C2405.4 -67.637 2429.74 -35.3353 2455.29 0.536469C2618.31 229.692 2756.33 473.507 2865.55 725.214C2930.84 875.686 2986.76 1031.62 3031.75 1188.67C3077.74 1349.28 3112.89 1513.05 3136.18 1675.45L3135.24 1675.59L3135.2 1675.58Z" fill="white"/>
<path d="M3131.95 1820C3047.86 1195.67 2823.33 585.59 2482.61 55.7142C2275.52 -266.358 2063.01 -432.52 1832.95 -452.245C1625.97 -469.995 1399.46 -356.602 1241.81 -156.31C1094.39 30.9865 1013.52 270.844 948.537 463.57L947.894 465.483C916.369 558.988 883.767 655.684 827.407 737.828C797.848 780.91 761.583 818.331 722.539 846.048C678.964 876.971 632.872 895.681 585.534 901.652C541.006 907.267 496.309 901.815 452.703 885.443C412.705 870.427 373.754 846.319 336.916 813.8C270.326 755.013 213.269 671.111 176.253 577.551C134.304 471.531 109.462 358.139 85.4326 248.479C68.2412 170.013 50.4612 88.8832 26.5481 10.9674C-22.4088 -148.535 -121.895 -356.285 -317.846 -440.179C-439.124 -492.105 -575.935 -486.568 -705.715 -472.853C-1154.17 -425.465 -1598.83 -283.325 -1991.62 -61.8139L-1992 -62.4877C-1795.53 -173.286 -1586.21 -264.53 -1369.88 -333.687C-1153.54 -402.836 -930.118 -449.922 -705.808 -473.627C-575.919 -487.35 -438.992 -492.887 -317.552 -440.892C-234.042 -405.136 -160.575 -343.027 -99.1973 -256.298C-47.0344 -182.587 -4.48157 -92.7371 27.2839 10.7429C51.2048 88.6819 68.9846 169.835 86.1838 248.308C110.205 357.937 135.04 471.299 176.966 577.265C247.334 755.122 400.927 924.165 585.433 900.885C675.293 889.548 763.256 829.955 826.772 737.395C883.07 655.336 915.656 558.694 947.166 465.235L947.809 463.322C985.375 351.912 1022.89 243.298 1068.72 139.345C1120.67 21.5385 1177.09 -75.3278 1241.21 -156.791C1314.99 -250.52 1406.03 -327.708 1504.51 -380.014C1556.65 -407.707 1610.28 -428.036 1663.88 -440.427C1720.63 -453.538 1777.54 -457.782 1833.02 -453.019C1900.76 -447.211 1968.01 -428.377 2032.9 -397.043C2091.69 -368.653 2150.25 -329.164 2206.94 -279.686C2300.41 -198.091 2390.8 -88.5165 2483.27 55.2883C2653.33 319.758 2795.05 604.649 2904.51 902.063C3013.97 1199.48 3090.75 1508.27 3132.73 1819.89L3131.96 1819.99L3131.95 1820Z" fill="white"/>
</g>
</g>
<defs>
<clipPath id="clip0_192_637">
<rect width="1440" height="810" fill="white"/>
</clipPath>
<clipPath id="clip1_192_637">
<rect width="5183" height="2933" fill="white" transform="translate(-1992 -1113)"/>
</clipPath>
</defs>
</svg>
