<svg width="61" height="62" viewBox="0 0 61 62" fill="none" xmlns="http://www.w3.org/2000/svg">
<path d="M41.7071 30.8842C42.0976 31.2747 42.0976 31.9079 41.7071 32.2984L35.3431 38.6624C34.9526 39.0529 34.3195 39.0529 33.9289 38.6624C33.5384 38.2719 33.5384 37.6387 33.9289 37.2482L39.5858 31.5913L33.9289 25.9345C33.5384 25.5439 33.5384 24.9108 33.9289 24.5202C34.3195 24.1297 34.9526 24.1297 35.3431 24.5202L41.7071 30.8842ZM19 30.5913L41 30.5913L41 32.5913L19 32.5913L19 30.5913Z" fill="white"/>
<circle cx="30.5" cy="30.5" r="30" transform="matrix(-1 0 0 1 61 0.591309)" stroke="white"/>
</svg>
