<svg width="1440" height="810" viewBox="0 0 1440 810" fill="none" xmlns="http://www.w3.org/2000/svg">
<g clip-path="url(#clip0_192_15)">
<g opacity="0.3" clip-path="url(#clip1_192_15)">
<path d="M879.922 477.386C776.836 420.965 660.819 373.204 526.767 331.927C387.372 289.005 241.119 257.137 114.98 230.635C-37.6058 198.577 -195.392 165.429 -325.417 72.7031C-380.737 33.2506 -428.94 -15.9707 -475.567 -63.5752C-497.181 -85.6406 -519.526 -108.456 -542.322 -130.045C-583.733 -169.261 -622.598 -199.646 -661.132 -222.944C-667.013 -226.499 -672.883 -229.882 -678.738 -233.084C-719.22 -255.241 -759.051 -269.006 -797.398 -274.057L-797.327 -270.833C-717.7 -260.333 -635.022 -213.591 -544.562 -127.93C-521.818 -106.393 -499.505 -83.6077 -477.924 -61.5724C-431.175 -13.838 -382.832 35.5255 -327.203 75.194C-196.458 168.432 -38.2468 201.668 114.755 233.816C398.824 293.499 674.031 358.973 918.187 502.634C1136.19 630.916 1377.59 868.835 1401.27 1151.86C1415 1315.86 1351.31 1463.56 1289.72 1606.39C1260.12 1675.03 1229.51 1746.01 1207.77 1818.07C1183.35 1898.96 1172.98 1972.59 1176.06 2043.15C1178.39 2096.76 1189.36 2151.81 1208.63 2206.77C1227.46 2260.44 1253.85 2313 1287.06 2362.97C1320.27 2412.94 1359.54 2459.18 1403.78 2500.42C1449.08 2542.64 1498.7 2578.75 1551.27 2607.76C1603.85 2636.79 1660.28 2659.19 1719.01 2674.39C1776.38 2689.23 1834.82 2696.91 1892.72 2697.22C1950.61 2697.53 2006.65 2690.46 2059.25 2676.21C2113.11 2661.61 2162.3 2639.77 2205.47 2611.26L2203.2 2608.5C2028.38 2723.94 1768.1 2722.95 1554.83 2606.22C1554.09 2605.82 1553.38 2605.43 1552.64 2605.02C1338.96 2487.09 1189.01 2261.45 1179.51 2043.54C1172.68 1886.94 1233.83 1745.14 1292.95 1608.01C1323.81 1536.45 1355.72 1462.45 1377.53 1387.31C1402.01 1302.98 1410.9 1226.05 1404.72 1152.13C1399.47 1089.39 1382.68 1025.24 1354.81 961.477C1328.51 901.294 1292.39 841.52 1247.49 783.806C1204.59 728.683 1154.13 676.016 1097.53 627.263C1042.44 579.819 982.607 536.983 919.667 499.951C906.639 492.282 893.39 484.765 879.93 477.399L879.922 477.386Z" fill="white"/>
<path d="M880.788 461.604C807.625 421.556 724.032 388.109 626.64 359.831C518.498 328.445 408.575 307.609 315.314 291.372C287.109 286.455 258.169 281.591 230.185 276.889C185.617 269.401 139.53 261.655 94.0547 253.302C56.0107 246.339 24.8635 239.975 -3.9767 233.273C-83.4049 214.827 -152.748 192.258 -215.975 164.272C-270.225 140.286 -317.245 113.452 -359.732 82.2241C-418.165 39.2674 -469.294 -13.6626 -518.751 -64.8485C-539.702 -86.5326 -561.364 -108.959 -583.301 -130.335C-675.996 -220.652 -759.702 -272.793 -839.212 -289.731L-839.432 -286.71C-760.679 -269.929 -677.607 -218.134 -585.483 -128.366C-563.592 -107.038 -541.951 -84.6331 -521.02 -62.9707C-471.454 -11.6633 -420.19 41.3905 -361.485 84.5525C-318.757 115.956 -271.486 142.936 -216.967 167.044C-153.51 195.13 -83.9385 217.777 -4.27365 236.277C24.6222 242.988 55.8215 249.366 93.9306 256.337C139.437 264.697 185.533 272.442 230.116 279.934C258.094 284.631 287.025 289.497 315.221 294.414C408.386 310.636 518.186 331.445 626.144 362.778C740.419 395.958 835.616 436.263 917.177 485.995C977.722 522.91 1035.49 567.258 1088.87 617.796C1140.62 666.787 1187.06 720.401 1226.9 777.145C1312.2 898.38 1362.68 1028.53 1372.9 1153.55C1374.46 1172.54 1375.17 1192.03 1375.03 1211.5C1374.08 1348.22 1332.78 1474.21 1292.83 1596.06C1289.9 1605.01 1286.97 1613.93 1284.07 1622.83C1262.8 1688.21 1240.8 1755.82 1226.99 1823.82C1211.65 1899.38 1208.38 1964.85 1216.72 2029.85C1220 2055.9 1225.6 2082.58 1233.34 2109.19C1258.68 2195.84 1307.07 2281.72 1373.27 2357.57C1440.85 2434.99 1524.47 2498.81 1615.07 2542.14C1668.09 2567.5 1724.62 2586.42 1783.1 2598.39C1840.49 2610.14 1898.73 2615 1956.21 2612.82C2013.91 2610.64 2069.7 2601.41 2122.02 2585.4C2175.7 2568.97 2224.86 2545.64 2268.12 2516.07L2265.93 2513.46C2092.59 2631.95 1831.46 2642.38 1616.15 2539.42C1434.19 2452.41 1288.72 2287.42 1236.49 2108.83C1228.79 2082.4 1223.24 2055.87 1219.97 2029.99C1201.65 1887.1 1243.22 1759.39 1287.22 1624.17C1290.12 1615.27 1293.04 1606.35 1295.98 1597.41C1335.98 1475.37 1377.36 1349.18 1378.31 1212.02C1378.44 1192.47 1377.73 1172.9 1376.16 1153.82C1370.89 1089.32 1355.13 1023.54 1329.3 958.325C1304.78 896.416 1271.21 834.983 1229.54 775.75C1189.55 718.79 1142.93 664.976 1090.99 615.805C1037.4 565.07 979.408 520.55 918.615 483.483C906.318 475.984 893.69 468.693 880.762 461.616L880.788 461.604Z" fill="white"/>
<path d="M879.902 444.851C805.597 404.183 718.458 373.151 614.963 350.411C513.323 328.104 416.253 316.692 299.918 304.099C293.851 303.439 287.759 302.776 281.654 302.12C213.74 294.769 143.523 287.171 73.1316 275.978C35.6562 270.061 2.38868 263.63 -28.5693 256.326C-104.683 238.365 -178.106 212.674 -246.795 179.965C-302.17 153.642 -350.333 124.786 -394.041 91.7504C-455.89 44.9885 -510.214 -11.9871 -562.746 -67.0838C-582.765 -88.078 -603.468 -109.789 -624.277 -130.614C-667.536 -173.902 -707.325 -208.355 -745.903 -235.939C-792.548 -269.292 -838.015 -292.656 -881.031 -305.385L-881.513 -302.584C-803.714 -279.57 -720.261 -222.718 -626.386 -128.788C-605.609 -107.993 -584.92 -86.2995 -564.916 -65.3227C-512.276 -10.1137 -457.84 46.9782 -395.742 93.9289C-351.818 127.123 -303.431 156.114 -247.817 182.552C-178.889 215.375 -105.217 241.151 -28.8451 259.173C2.19569 266.498 35.5496 272.945 73.1113 278.878C143.587 290.077 213.85 297.685 281.804 305.042C287.905 305.703 293.992 306.361 300.068 307.02C416.304 319.604 513.278 331.001 614.742 353.268C735.85 379.879 834.453 417.857 916.193 469.368C975.841 506.959 1032.32 553.462 1084.07 607.584C1131.65 657.335 1174.53 712.68 1211.54 772.088C1288.35 894.827 1334.34 1027.32 1344.56 1155.25C1346.09 1174.48 1346.92 1194.33 1347.02 1214.26C1347.65 1341.11 1320.93 1458.56 1295.09 1572.14C1290.41 1592.71 1285.99 1612.14 1281.7 1631.77C1265.9 1704.29 1253.34 1764.62 1247.4 1825.71C1240.56 1896.09 1243.75 1956.75 1257.41 2016.59C1262.76 2040.4 1270.27 2064.78 1279.73 2089.04C1310.99 2168.55 1363.73 2246.26 1432.25 2313.78C1503.03 2383.52 1588.32 2439.8 1678.89 2476.52C1732.36 2498.2 1788.99 2513.63 1847.2 2522.4C1904.62 2531.04 1962.66 2533.07 2019.73 2528.43C2137.22 2518.86 2244.79 2481.68 2330.82 2420.88L2328.7 2418.43C2154.7 2541.39 1899.96 2563.13 1679.72 2473.84C1499.54 2400.79 1347.38 2253.11 1282.64 2088.43C1273.23 2064.32 1265.77 2040.1 1260.46 2016.43C1230.12 1883.61 1256.66 1761.78 1284.76 1632.8C1289.05 1613.18 1293.47 1593.76 1298.15 1573.2C1324.02 1459.48 1350.77 1341.88 1350.13 1214.72C1350.03 1194.73 1349.2 1174.81 1347.66 1155.51C1342.41 1089.77 1327.94 1022.97 1304.63 956.956C1282.31 893.77 1251.88 831.183 1214.17 770.924C1177.03 711.312 1133.99 655.761 1086.23 605.824C1034.27 551.473 977.543 504.766 917.623 467.007C905.434 459.33 892.861 451.935 879.911 444.85L879.902 444.851Z" fill="white"/>
<path d="M878.06 427.541C801.939 385.878 711.566 357.457 603.312 341.001C506.82 326.372 414.477 322.417 316.706 318.227C306.023 317.767 295.309 317.313 284.54 316.837C210.267 313.518 131.146 309.379 52.2142 298.657C14.0642 293.528 -20.4033 287.219 -53.1585 279.373C-128.093 261.433 -203.614 233.267 -277.622 195.653C-334.105 167.005 -383.413 136.133 -428.36 101.276C-493.985 50.3524 -551.816 -11.0813 -607.736 -70.4923C-626.494 -90.4182 -645.882 -111.024 -665.265 -130.903C-709.52 -176.296 -749.773 -212.779 -788.311 -242.444C-835.705 -278.923 -879.722 -304.626 -922.872 -321.033L-923.58 -318.465C-845.773 -288.887 -764.339 -228.745 -667.293 -129.206C-647.936 -109.353 -628.556 -88.7607 -609.81 -68.8431C-553.795 -9.32805 -495.869 52.2096 -430.013 103.31C-384.877 138.313 -335.371 169.309 -278.681 198.065C-204.417 235.806 -128.637 264.07 -53.4355 282.07C-20.5667 289.944 14.0118 296.271 52.2731 301.419C131.335 312.156 210.534 316.298 284.881 319.624C295.644 320.096 306.371 320.558 317.048 321.015C414.725 325.199 506.99 329.151 603.306 343.754C729.932 362.995 831.947 398.651 915.19 452.756C974.375 491.223 1029.57 539.887 1079.25 597.392C1123.35 648.422 1161.59 703.921 1196.17 767.05C1264.45 890.902 1305.95 1025.73 1316.19 1156.96C1317.7 1176.39 1318.64 1196.59 1318.97 1217.01C1320.81 1327.8 1306.71 1431.83 1293.08 1532.43C1287.97 1570.16 1283.14 1605.79 1279.31 1640.7C1264.91 1773.7 1257.15 1884.86 1298.1 2003.31C1305.81 2025.65 1315.24 2047.71 1326.11 2068.88C1363.21 2141.17 1420.27 2210.72 1491.11 2270.01C1565.1 2331.96 1652.1 2380.67 1742.69 2410.88C1850.78 2446.94 1968.53 2458.39 2083.22 2444.02C2200.19 2429.36 2307.47 2388.44 2393.48 2325.69L2391.45 2323.38C2219.4 2448.89 1964.97 2482.21 1743.26 2408.26C1564.75 2348.72 1405.9 2218.34 1328.73 2068.01C1317.94 2046.97 1308.57 2025.04 1300.89 2002.84C1260.14 1884.94 1267.89 1774.08 1282.25 1641.41C1286.07 1606.53 1290.9 1570.9 1296.01 1533.19C1309.66 1432.5 1323.76 1328.38 1321.93 1217.41C1321.59 1196.93 1320.65 1176.67 1319.13 1157.18C1313.9 1090.1 1300.7 1022.27 1279.91 955.566C1259.78 891.016 1232.48 827.267 1198.74 766.082C1164.06 702.742 1125.68 647.053 1081.42 595.833C1031.51 538.066 976.054 489.178 916.586 450.52C904.166 442.451 891.326 434.78 878.058 427.518L878.06 427.541Z" fill="white"/>
<path d="M876.759 410.572C839.886 390.388 799.192 373.784 755.266 361.015C705.757 346.628 650.718 336.732 591.674 331.6C503.387 323.97 420.055 326.014 331.83 328.174C311.389 328.674 290.256 329.19 269.187 329.578C194.643 330.883 114.233 330.798 31.316 321.335C-7.74536 316.94 -43.4222 310.753 -77.7474 302.42C-152.191 284.361 -229.809 253.715 -308.454 211.337C-366.03 180.382 -416.478 147.497 -462.685 110.799C-532.547 55.2709 -594.254 -11.1319 -653.929 -75.3539C-671.017 -93.7465 -688.687 -112.762 -706.25 -131.196C-805.612 -235.493 -887.742 -300.787 -964.732 -336.679L-965.629 -334.348C-889.052 -298.648 -807.242 -233.592 -708.193 -129.62C-690.648 -111.198 -672.981 -92.1916 -655.901 -73.8122C-596.139 -9.49957 -534.343 57.003 -464.274 112.69C-417.902 149.519 -367.284 182.515 -309.531 213.572C-230.631 256.091 -152.739 286.839 -78.0221 304.963C-43.5679 313.327 -7.76805 319.539 31.4269 323.947C114.514 333.432 195.042 333.525 269.68 332.211C290.762 331.831 311.901 331.305 332.342 330.805C420.48 328.644 503.734 326.597 591.859 334.218C721.502 345.48 829.948 379.77 914.188 436.13C973.209 475.615 1027.12 526.438 1074.44 587.189C1114.54 638.64 1149.33 695.823 1180.8 762.002C1241.37 888.193 1277.37 1021.64 1287.81 1158.65C1289.3 1178.22 1290.35 1198.78 1290.93 1219.76C1293.39 1308.55 1288.48 1393.78 1283.72 1476.2C1280.19 1537.55 1276.84 1595.49 1276.94 1649.64C1277.41 1786.54 1287.68 1886.13 1338.81 1990.06C1348.82 2010.41 1360.16 2030.14 1372.52 2048.73C1415.72 2113.77 1477.12 2175.15 1550.05 2226.24C1587.81 2252.68 1628.3 2276.1 1670.39 2295.84C1714.37 2316.47 1760.15 2333.09 1806.48 2345.26C1915.61 2373.91 2033.26 2378.88 2146.7 2359.63C2263.12 2339.88 2370.12 2295.23 2456.15 2230.52L2454.21 2228.35C2281.39 2358.36 2033.32 2402.18 1806.82 2342.71C1630.55 2296.44 1465.02 2183.36 1374.82 2047.6C1362.54 2029.13 1351.27 2009.51 1341.32 1989.28C1290.42 1885.85 1280.21 1786.58 1279.74 1650.06C1279.64 1595.98 1282.98 1538.07 1286.52 1476.76C1291.27 1394.29 1296.19 1309.01 1293.73 1220.12C1293.15 1199.1 1292.1 1178.5 1290.61 1158.88C1285.38 1090.32 1273.47 1021.45 1255.2 954.19C1237.25 888.145 1213.07 823.233 1183.33 761.25C1151.76 694.868 1116.85 637.494 1076.61 585.851C1029.06 524.815 974.875 473.74 915.551 434.043C903.142 425.742 890.199 417.902 876.751 410.544L876.759 410.572Z" fill="white"/>
<path d="M874.436 392.962C793.677 348.762 694.906 324.997 580.053 322.211C496.863 320.233 419.301 327.408 337.188 335.007C310.061 337.514 282.012 340.114 253.848 342.335C187.511 347.527 99.888 352.404 10.4202 344.022C-29.6755 340.333 -66.5582 334.265 -102.33 325.471C-177.81 306.933 -255.321 274.73 -339.296 227.021C-397.944 193.78 -449.53 158.878 -497.006 120.315C-571.68 59.6259 -637.747 -12.3915 -701.633 -82.0402C-716.549 -98.3023 -731.974 -115.114 -747.238 -131.486C-793.721 -181.344 -834.903 -221.898 -873.146 -255.463C-920.8 -297.287 -964.462 -328.972 -1006.61 -352.319L-1007.66 -350.228C-908.911 -295.528 -812.8 -198.358 -749.1 -130.024C-733.848 -113.661 -718.429 -96.8531 -703.516 -80.6002C-639.549 -10.8651 -573.401 61.2388 -498.541 122.08C-450.924 160.757 -399.186 195.758 -340.382 229.093C-256.15 276.952 -178.375 309.257 -102.61 327.868C-66.6935 336.697 -29.6688 342.79 10.5759 346.493C100.248 354.899 188.022 350.008 254.469 344.812C282.646 342.585 310.707 339.993 337.846 337.479C419.884 329.888 497.371 322.719 580.401 324.697C714.435 327.95 826.402 359.85 913.203 419.53C972.283 460.145 1024.92 513.132 1069.66 577.017C1106 628.889 1136.45 686.078 1165.46 756.994C1217.34 883.811 1248.96 1019.53 1259.46 1160.37C1260.93 1180.23 1262.06 1200.57 1262.9 1222.53C1265.28 1284.33 1265.39 1345.15 1265.49 1403.97C1265.66 1495.71 1265.82 1582.36 1274.61 1658.59C1282.83 1728.72 1293.73 1783.62 1308.92 1831.37C1325.68 1884.08 1348.13 1930.29 1379.58 1976.81C1391.96 1995.13 1405.21 2012.56 1418.96 2028.6C1468.43 2086.3 1534.15 2139.51 1609.02 2182.46C1648.32 2205.01 1689.89 2224.59 1732.61 2240.68C1777.47 2257.58 1823.79 2270.68 1870.28 2279.63C1980.44 2300.82 2097.98 2299.31 2210.19 2275.25C2326.05 2250.42 2432.77 2202.05 2518.83 2135.37L2516.97 2133.34C2345.91 2265.89 2098.16 2321.01 1870.4 2277.19C1694.03 2243.26 1525.99 2149.82 1420.9 2027.23C1407.22 2011.28 1394.05 1993.96 1381.74 1975.74C1314.11 1875.67 1291.05 1776.63 1277.24 1658.73C1268.46 1582.63 1268.31 1496.05 1268.14 1404.38C1268.03 1345.53 1267.93 1284.7 1265.55 1222.86C1264.7 1200.86 1263.58 1180.49 1262.1 1160.61C1256.88 1090.54 1246.21 1020.64 1230.39 952.864C1214.64 885.366 1193.62 819.279 1167.91 756.45C1138.82 685.326 1108.28 627.962 1071.8 575.906C1026.84 511.712 973.929 458.45 914.534 417.614C901.708 408.798 888.346 400.583 874.445 392.975L874.436 392.962Z" fill="white"/>
<path d="M872.707 375.731C833.583 354.315 789.892 338.163 742.251 327.542C688.506 315.556 630.027 310.603 568.436 312.817C488.458 315.732 414.72 327.558 336.654 340.082C304.779 345.192 271.816 350.479 238.515 355.084C177.387 363.479 85.0664 373.819 -10.4747 366.695C-51.1004 363.739 -90.2732 357.618 -126.922 348.509C-202.742 329.673 -282.301 295.062 -370.143 242.688C-429.84 207.178 -482.566 170.264 -531.33 129.823C-611.534 63.2681 -682.56 -15.1917 -751.246 -91.0673C-763.353 -104.44 -775.872 -118.273 -788.221 -131.793C-859.118 -209.402 -952.767 -306.385 -1048.5 -367.977L-1049.66 -366.119C-954.224 -304.721 -860.757 -207.918 -789.985 -130.448C-777.642 -116.932 -765.125 -103.109 -753.018 -89.7359C-684.263 -13.7821 -613.161 64.7601 -532.79 131.455C-483.902 171.997 -431.046 209.002 -371.211 244.593C-283.111 297.118 -203.292 331.837 -127.186 350.746C-90.3874 359.893 -51.0478 366.041 -10.2756 369.003C85.5112 376.142 178.001 365.787 239.247 357.377C272.575 352.769 305.554 347.485 337.443 342.369C415.435 329.861 489.103 318.047 568.928 315.136C663.927 311.716 800.604 324.165 912.223 402.897C970.694 444.144 1023.48 500.821 1064.89 566.816C1097.99 619.533 1124.27 676.632 1150.13 751.957C1193.17 877.341 1220.42 1015.33 1231.1 1162.06C1232.53 1181.66 1233.76 1202.33 1234.87 1225.27C1236.36 1255.73 1237.61 1286.36 1238.82 1315.98C1244.09 1445.12 1249.07 1567.09 1272.28 1667.51C1287.69 1733.58 1305.84 1786.24 1329.41 1833.23C1352.75 1879.76 1381.65 1921.16 1420.35 1963.53C1435.39 1979.99 1450.12 1994.67 1465.4 2008.41C1521.29 2058.66 1591.35 2103.7 1668 2138.65C1752.84 2177.33 1842.36 2202.67 1934.05 2213.96C2045.21 2227.64 2162.65 2219.65 2273.66 2190.85C2330.31 2176.15 2384.89 2156.15 2435.91 2131.41C2488.67 2105.83 2537.66 2075.13 2581.5 2040.18L2579.74 2038.29C2407.72 2175.43 2166.32 2240.24 1933.98 2211.64C1760.4 2190.28 1585.81 2113.72 1466.95 2006.85C1451.75 1993.18 1437.08 1978.57 1422.11 1962.18C1346.09 1878.95 1304.76 1796.29 1274.7 1667.37C1251.54 1567.17 1246.57 1445.3 1241.3 1316.28C1240.09 1286.66 1238.84 1256.02 1237.36 1225.56C1236.25 1202.6 1235.01 1181.9 1233.58 1162.3C1222.88 1015.36 1195.6 877.174 1152.49 751.595C1126.57 676.073 1100.19 618.805 1066.99 565.901C1047.16 534.292 1024.74 504.741 1000.36 478.062C973.591 448.779 944.374 422.9 913.512 401.131C900.544 391.985 886.939 383.511 872.735 375.742L872.707 375.731Z" fill="white"/>
<path d="M870.576 358.24C830.343 336.221 785.196 320.316 735.772 310.803C679.771 300.019 619.569 297.541 556.846 303.435C478.866 310.803 407.71 327.006 332.373 344.166C296.986 352.222 260.393 360.56 223.199 367.836C125.761 386.831 44.873 393.677 -31.3731 389.373C-73.1149 387.089 -113.535 381.094 -151.527 371.553C-229.02 352.098 -308.295 316.134 -401.006 258.365C-461.736 220.613 -515.598 181.681 -565.67 139.342C-652.357 65.9937 -729.112 -19.9837 -803.345 -103.13C-811.975 -112.797 -820.594 -122.456 -829.225 -132.085C-906.597 -218.42 -998.134 -315.818 -1090.43 -383.627L-1091.66 -381.988C-999.567 -314.339 -908.161 -217.069 -830.886 -130.848C-822.256 -121.219 -813.637 -111.56 -805.006 -101.893C-730.711 -18.6725 -653.888 67.3739 -567.046 140.854C-516.862 183.286 -462.89 222.301 -402.041 260.122C-309.07 318.052 -229.543 354.124 -151.765 373.651C-113.617 383.235 -73.0303 389.257 -31.1326 391.546C45.3095 395.861 126.379 389.008 224.008 369.967C261.238 362.678 297.84 354.339 333.246 346.282C408.512 329.147 479.599 312.955 557.437 305.6C655.187 296.413 795.91 302.952 911.235 386.289C970.067 428.802 1021.54 487.712 1060.11 556.648C1097.8 623.953 1119.01 690.617 1134.79 746.949C1169.31 870.163 1191.53 1006.51 1202.73 1163.77C1204.07 1182.53 1205.33 1202.35 1206.83 1228.03C1211.93 1314.9 1216.89 1392.91 1225.94 1467.81C1236.23 1552.85 1250.62 1621.08 1269.95 1676.41C1291.86 1738.76 1318.01 1790.66 1349.89 1835.06C1379.12 1875.77 1414.46 1912.36 1461.12 1950.21C1478.69 1964.46 1495.28 1976.88 1511.84 1988.19C1574.29 2030.84 1648.68 2067.71 1726.96 2094.81C1815 2125.28 1906.12 2143.27 1997.8 2148.28C2109.93 2154.41 2227.25 2139.93 2337.11 2106.44C2393.52 2089.23 2447.87 2067.08 2498.65 2040.61C2551.22 2013.2 2600.17 1981.03 2644.15 1944.99L2642.49 1943.25C2471.94 2083.02 2230.85 2158.85 1997.56 2146.11C1824.28 2136.65 1647.66 2078.47 1512.99 1986.5C1496.49 1975.24 1479.97 1962.86 1462.46 1948.66C1367.32 1871.47 1313.95 1795.04 1272.13 1676.04C1227.99 1549.66 1217.98 1378.91 1209.13 1228.25C1207.63 1202.57 1206.36 1182.74 1205.03 1163.97C1193.82 1006.57 1171.58 870.081 1137.02 746.716C1121.2 690.247 1099.92 623.415 1062.12 555.882C1023.35 486.602 971.599 427.384 912.437 384.633C899.151 375.033 885.187 366.226 870.568 358.227L870.576 358.24Z" fill="white"/>
<path d="M868.401 340.712C827.07 318.087 780.48 302.449 729.301 294.054C671.81 284.628 608.169 284.626 545.271 294.057C468.473 305.604 399.066 326.034 325.585 347.659C287.509 358.864 248.144 370.457 207.904 380.595C111.322 404.854 26.2189 415.146 -52.2499 412.059C-95.1326 410.445 -136.806 404.572 -176.106 394.599C-254.425 374.745 -335.694 336.433 -431.856 274.036C-493.592 234.068 -548.59 193.119 -599.993 148.85C-694.418 67.4803 -777.92 -27.4563 -858.67 -119.269L-870.211 -132.388C-954.244 -227.867 -1044.16 -326.288 -1132.36 -399.285L-1133.62 -397.859C-1045.57 -324.98 -955.741 -226.65 -871.778 -131.248L-860.237 -118.129C-779.426 -26.2519 -695.867 68.7546 -601.298 150.248C-549.801 194.597 -494.708 235.612 -432.871 275.651C-336.459 338.209 -254.948 376.63 -176.349 396.553C-136.883 406.567 -95.0433 412.467 -52.0011 414.081C26.6767 417.173 111.968 406.864 208.751 382.559C249.026 372.408 288.416 360.818 326.505 349.607C399.919 328.001 469.259 307.592 545.922 296.061C628.129 283.737 784.78 276.916 910.247 369.695C985.146 425.079 1030.49 496.408 1055.34 546.499C1088.84 613.95 1106.55 683.162 1119.46 741.969C1145.19 859.21 1162.13 989.828 1174.36 1165.49C1175.3 1179.07 1176.22 1192.83 1177.12 1206.13C1177.67 1214.36 1178.23 1222.58 1178.78 1230.79C1185.58 1330.26 1194.26 1407.92 1206.1 1475.18C1221.09 1560.37 1241.22 1629.1 1267.62 1685.31C1296.14 1745.73 1329.75 1795.31 1370.36 1836.9C1405.56 1872.93 1446.12 1903.76 1501.89 1936.87C1521.95 1948.78 1540.39 1958.95 1558.26 1967.97C1627.38 2002.82 1706.09 2031.53 1785.92 2050.97C1877.07 2073.18 1969.8 2083.83 2061.53 2082.63C2117.67 2081.9 2174.87 2076.43 2231.52 2066.38C2288.93 2056.18 2345.8 2041.28 2400.55 2022.07C2456.71 2002.37 2510.83 1978.07 2561.39 1949.85C2613.76 1920.62 2662.69 1886.98 2706.8 1849.85L2705.24 1848.24C2533.44 1992.82 2298.68 2077.52 2061.16 2080.61C1827.66 2083.66 1646.33 2010.25 1559.02 1966.22C1541.2 1957.23 1522.81 1947.09 1502.81 1935.21C1406.88 1878.26 1330.5 1813.88 1269.56 1684.76C1210.12 1558.23 1191.4 1384.38 1180.92 1231C1180.36 1222.79 1179.81 1214.57 1179.26 1206.34C1178.37 1193.03 1177.44 1179.27 1176.49 1165.69C1164.26 989.923 1147.31 859.217 1121.55 741.875C1108.61 682.939 1090.86 613.571 1057.26 545.895C1032.28 495.562 986.703 423.866 911.389 368.176C897.775 358.108 883.427 348.95 868.388 340.718L868.401 340.712Z" fill="white"/>
<path d="M866.196 323.162C823.778 299.941 775.765 284.566 722.838 277.304C663.034 269.099 597.636 271.646 533.7 284.672C457.507 300.235 389.285 324.802 317.057 350.807C276.864 365.278 235.309 380.242 192.606 393.344C95.4008 423.085 8.47641 436.625 -73.1388 434.735C-117.187 433.789 -160.104 428.037 -200.71 417.642C-281.105 397.075 -361.916 357.615 -462.722 289.704C-524.562 248.127 -582.303 203.94 -634.33 158.364C-738.103 67.3913 -830.071 -38.9009 -911.211 -132.685C-1000.52 -235.901 -1087.84 -335.156 -1174.31 -414.952L-1175.58 -413.717C-1089.2 -334.011 -1001.93 -234.809 -912.67 -131.649C-831.481 -37.8082 -739.45 68.5579 -635.551 159.641C-583.442 205.29 -525.625 249.545 -463.692 291.179C-417.54 322.265 -376.219 346.976 -337.362 366.714C-289.759 390.894 -245.137 408.144 -200.933 419.454C-160.165 429.895 -117.078 435.668 -72.8701 436.615C8.96359 438.509 96.0839 424.941 193.481 395.141C236.219 382.026 277.797 367.056 318.012 352.578C390.173 326.593 458.334 302.051 534.403 286.513C602.313 272.674 774.785 251.457 909.268 353.085C984.845 410.195 1027.84 484.267 1050.59 536.343C1080.1 603.823 1093.77 672.653 1104.14 736.977C1125.88 871.776 1135.51 1013.25 1145.71 1163.04L1146 1167.2C1147.42 1188.1 1148.98 1210.61 1150.75 1233.54C1166.82 1440.53 1204.29 1591.21 1265.31 1694.18C1300.45 1753.23 1341.52 1800.51 1390.84 1838.69C1431.6 1870.25 1478.42 1896.39 1542.66 1923.47C1565.02 1932.9 1585.3 1940.82 1604.68 1947.68C1681.51 1974.9 1762.33 1994.89 1844.88 2007.08C1939.03 2020.97 2033.37 2024.3 2125.26 2016.96C2181.83 2012.44 2239.12 2003.49 2295.55 1990.36C2352.92 1977.01 2409.59 1959.28 2464.01 1937.67C2578.92 1892.04 2681.7 1830.47 2769.48 1754.67L2768.01 1753.2C2597.28 1900.62 2362.84 1996.07 2124.79 2015.09C1905.93 2032.58 1721.39 1987.14 1605.12 1945.94C1585.78 1939.09 1565.53 1931.19 1543.22 1921.79C1430.77 1874.39 1340.77 1817.42 1267.02 1693.48C1206.17 1590.8 1168.79 1440.41 1152.75 1233.71C1150.98 1210.79 1149.41 1188.29 1147.99 1167.38L1147.7 1163.23C1137.5 1013.4 1127.86 871.88 1106.12 736.992C1095.72 672.534 1082.02 603.562 1052.42 535.878C1029.56 483.555 986.347 409.122 910.354 351.698C896.4 341.154 881.667 331.637 866.198 323.171L866.196 323.162Z" fill="white"/>
<path d="M863.971 305.591C820.462 281.779 771.039 266.676 716.389 260.549C637.882 251.749 567.428 263.711 522.151 275.296C446.149 294.771 375.567 324.759 307.31 353.765C265.404 371.569 222.081 389.984 177.335 406.106C79.4281 441.302 -9.33346 458.088 -94.0098 457.425C-139.23 457.142 -183.4 451.512 -225.293 440.694C-329.778 413.729 -423.558 354.212 -493.581 305.376C-556.366 261.671 -615.27 215.404 -668.657 167.877C-773.352 74.6052 -866.139 -31.8947 -952.202 -132.983L-965.982 -149.173C-1049 -246.714 -1134.83 -347.574 -1216.27 -430.622L-1217.51 -429.568C-1136.13 -346.581 -1050.32 -245.751 -967.328 -148.237L-953.547 -132.046C-867.435 -30.9014 -774.591 75.6684 -669.788 169.038C-616.331 216.629 -557.359 262.951 -494.497 306.71C-424.32 355.654 -330.321 415.301 -225.493 442.358C-183.434 453.217 -139.103 458.87 -93.7235 459.153C-8.83463 459.816 80.1263 442.998 178.223 407.733C223.01 391.602 266.359 373.176 308.281 355.361C376.483 326.384 447.007 296.415 522.891 276.969C592.504 259.165 769.405 229.316 908.305 336.479C984.642 395.373 1025.24 472.154 1045.85 526.195C1073.01 597.338 1082.29 669.732 1088.84 732.003C1098.42 822.994 1103.41 916.02 1108.69 1014.51C1111.38 1064.82 1114.17 1116.84 1117.64 1168.91C1119.3 1193.87 1120.97 1215.91 1122.72 1236.29C1130.86 1330.21 1145.56 1415.53 1166.44 1489.86C1190.51 1575.6 1222.99 1647.31 1263 1703.02C1304.83 1761.08 1353.34 1806.04 1411.3 1840.47C1457.97 1868.19 1511.05 1889.65 1583.39 1910.04C1607.73 1916.9 1629.87 1922.57 1651.08 1927.38C1734.46 1946.27 1819.49 1958.31 1903.82 1963.16C2000.81 1968.75 2096.76 1964.75 2188.99 1951.29C2245.96 1942.97 2303.35 1930.54 2359.56 1914.34C2416.87 1897.83 2473.36 1877.29 2527.45 1853.28C2641.62 1802.61 2744.13 1737.41 2832.14 1659.5L2830.79 1658.16C2658.37 1810.79 2430.25 1914.29 2188.44 1949.58C1971.37 1981.26 1776.49 1954.09 1651.23 1925.7C1630.05 1920.9 1607.94 1915.24 1583.64 1908.4C1455.13 1872.18 1351.67 1823.25 1264.47 1702.21C1189.33 1597.58 1142.26 1440.88 1124.55 1236.42C1122.79 1216.06 1121.13 1194.03 1119.47 1169.07C1116 1117.02 1113.21 1065 1110.52 1014.7C1105.24 916.189 1100.25 823.139 1090.66 732.107C1084.1 669.729 1074.81 597.2 1047.57 525.853C1033.67 489.422 1015.53 455.176 993.655 424.056C969.417 389.581 941.041 359.692 909.322 335.215C895.027 324.187 879.902 314.306 863.986 305.594L863.971 305.591Z" fill="white"/>
<path d="M861.994 288.208C846.462 279.705 830.13 272.334 813.122 266.158C781.13 254.539 746.416 247.014 709.958 243.791C628.485 236.59 556.584 251.847 510.614 265.913C434.5 289.229 364.432 323.49 296.667 356.611C253.349 377.786 208.552 399.686 162.075 418.852C64.7633 458.914 -28.4132 479.519 -114.874 480.104C-161.281 480.481 -206.704 474.973 -249.879 463.735C-355.958 436.14 -452.337 372.979 -524.443 321.038C-588.133 275.239 -648.208 226.901 -702.986 177.38C-811.123 79.5694 -906.375 -29.7427 -993.197 -133.299C-1016.09 -160.605 -1039.24 -188.417 -1061.62 -215.313C-1130.09 -297.576 -1194.76 -375.285 -1258.24 -446.31L-1259.44 -445.419C-1195.98 -374.42 -1131.32 -296.733 -1062.87 -214.479C-1040.48 -187.578 -1017.33 -159.761 -994.442 -132.456C-907.577 -28.847 -812.27 80.5259 -704.039 178.417C-649.202 227.994 -589.069 276.373 -525.317 322.223C-475.674 357.98 -433.776 384.853 -393.565 406.738C-343.401 434.036 -296.47 453.17 -250.082 465.24C-206.751 476.52 -161.168 482.051 -114.607 481.67C-67.9944 481.355 -19.1828 475.253 30.4749 463.528C73.1993 453.443 117.761 438.898 162.926 420.304C209.448 401.124 254.261 379.214 297.604 358.027C365.319 324.93 435.34 290.697 511.342 267.414C566.966 250.398 759.908 203.878 907.327 319.869C967.53 367.238 1015.04 436.909 1041.11 516.051C1064.71 587.613 1070.06 659.516 1073.53 727.029C1076.72 789.11 1078.19 851.426 1079.74 917.411C1081.67 999.575 1083.67 1084.53 1089.27 1170.61C1090.87 1195.17 1092.64 1217.55 1094.69 1239.04C1103.67 1333.33 1121.14 1420.18 1146.6 1497.19C1175.34 1584.14 1213.72 1656.35 1260.67 1711.83C1309.28 1769.13 1365.24 1811.77 1431.73 1842.22C1484.8 1866.52 1544.12 1883.28 1624.07 1896.58C1650.05 1900.9 1674.05 1904.32 1697.42 1907.04C1891.53 1929.65 2078.35 1922.43 2252.68 1885.6C2369.7 1860.88 2483.48 1821.62 2590.88 1768.89C2704.24 1713.23 2806.49 1644.41 2894.79 1564.33L2893.54 1563.12C2721.63 1719.02 2493.82 1833 2252.08 1884.07C2077.92 1920.86 1891.28 1928.07 1697.36 1905.49C1674.01 1902.77 1650.05 1899.35 1624.09 1895.03C1499.51 1874.32 1369.41 1837.69 1261.9 1710.98C1149.57 1578.24 1109.87 1381.13 1096.34 1239.14C1094.3 1217.68 1092.53 1195.31 1090.93 1170.76C1085.32 1084.71 1083.32 999.768 1081.39 917.623C1079.84 851.629 1078.37 789.304 1075.18 727.2C1071.71 659.579 1066.34 587.561 1042.69 515.811C1030.3 478.221 1013.24 442.801 991.965 410.525C968.391 374.771 940.228 343.884 908.26 318.725C893.788 307.342 878.327 297.145 861.994 288.208Z" fill="white"/>
<path d="M859.82 270.666C843.916 261.962 827.176 254.491 809.695 248.306C776.79 236.666 741.067 229.509 703.522 227.031C669.105 224.759 633.32 226.403 597.166 231.926C563.729 237.031 530.726 245.309 499.071 256.528C422.624 283.658 352.833 322.165 285.343 359.406C240.821 383.972 194.787 409.373 146.806 431.6C48.6853 476.991 -46.3829 500.945 -135.757 502.786C-183.361 503.824 -230.033 498.433 -274.483 486.78C-381.647 458.686 -476.589 395.153 -555.33 336.7C-619.894 288.836 -681.133 238.432 -737.335 186.886C-854.798 79.101 -957.69 -41.0032 -1034.21 -133.604C-1085.17 -195.275 -1135.56 -257.978 -1184.28 -318.617C-1224.57 -368.755 -1262.63 -416.117 -1300.24 -461.999L-1301.38 -461.251C-1263.76 -415.377 -1225.71 -368.02 -1185.42 -317.881C-1136.69 -257.238 -1086.31 -194.53 -1035.34 -132.851C-958.784 -40.2109 -855.841 79.959 -738.289 187.821C-682.041 239.414 -620.752 289.86 -556.135 337.761C-505.104 375.644 -462.378 403.924 -421.672 426.759C-370.252 455.613 -322.173 475.685 -274.663 488.137C-230.06 499.837 -183.235 505.238 -135.481 504.201C-45.9104 502.356 49.3418 478.366 147.634 432.895C195.658 410.645 241.714 385.238 286.252 360.661C353.7 323.442 423.44 284.958 499.796 257.869C617.103 216.288 785.512 206.38 906.355 303.264C967.243 352.082 1013.42 424.053 1036.38 505.923C1056.87 578.917 1058.4 649.817 1058.23 722.071C1058.28 765.42 1057.67 808.412 1057 853.921C1055.52 956.972 1053.98 1063.53 1060.92 1172.32C1062.48 1196.81 1064.36 1219.53 1066.66 1241.78C1076.39 1335.54 1097.17 1426.38 1126.77 1504.51C1160.21 1592.78 1204.49 1665.5 1258.35 1720.63C1313.81 1777.28 1377.21 1817.62 1452.15 1843.96C1512.07 1865.02 1577.63 1877.08 1664.72 1883.1C1691.72 1884.97 1718.31 1886.18 1743.74 1886.7C1947.84 1890.89 2140.5 1868.42 2316.37 1819.93C2433.95 1787.5 2547.65 1741.93 2654.3 1684.5C2766.79 1623.92 2868.79 1551.47 2957.45 1469.16L2956.31 1468.08C2782.05 1629.85 2560.54 1751.04 2315.74 1818.56C2140.01 1867.02 1947.49 1889.47 1743.53 1885.28C1718.12 1884.76 1691.56 1883.55 1664.58 1881.69C1533.76 1872.66 1383.31 1846.35 1259.37 1719.76C1157.17 1615.16 1089.26 1445.44 1068.14 1241.86C1065.84 1219.63 1063.96 1196.93 1062.4 1172.46C1055.47 1063.72 1057.01 957.19 1058.5 854.162C1059.16 808.643 1059.78 765.646 1059.72 722.293C1059.89 649.945 1058.35 578.939 1037.81 505.77C1026.95 467.031 1010.96 430.44 990.286 397.004C967.387 359.97 939.438 328.093 907.206 302.25C892.425 290.398 876.591 279.85 859.816 270.671L859.82 270.666Z" fill="white"/>
<path d="M3019.08 1373.03C2844.5 1538.82 2623.31 1670.22 2379.41 1753.05C2201.63 1813.42 2003.23 1851.11 1789.73 1865.08C1760.88 1866.87 1732.41 1867.97 1705.11 1868.35C1562.53 1870.32 1397.78 1855.26 1256.83 1728.57C1141.82 1625.01 1062.76 1448.6 1039.94 1244.59C1037.43 1222.11 1035.39 1198.41 1033.88 1174.15C1025.94 1046.69 1032.92 922.489 1039.67 802.375C1041.25 774.405 1042.87 745.488 1044.25 717.38C1048.3 639.766 1050.24 569.52 1032.94 495.723C1013.07 410.838 968.039 336.274 906.155 285.769C876.789 261.797 843.187 243.186 806.287 230.466C772.467 218.805 735.739 212.01 697.106 210.276C628.869 207.208 554.451 220.309 487.552 247.157C410.594 278.066 340.914 320.839 273.526 362.198C227.975 390.157 180.875 419.067 131.554 444.36C32.5847 495.073 -64.374 522.363 -156.622 525.48C-205.419 527.173 -253.348 521.909 -299.076 509.832C-408.027 481.068 -505.361 414.088 -586.206 352.368C-651.612 302.484 -714.011 250.009 -771.672 196.4C-868.499 106.336 -964.949 1.38011 -1075.21 -133.906C-1166.52 -245.94 -1253.62 -360.453 -1342.24 -477.695L-1343.29 -477.081C-1254.67 -359.83 -1167.55 -245.308 -1076.22 -133.248C-965.919 2.09554 -869.422 107.099 -772.536 197.218C-714.835 250.87 -652.398 303.38 -586.941 353.292C-505.969 415.108 -408.465 482.2 -299.238 511.037C-253.369 523.153 -205.301 528.433 -156.36 526.736C-63.9242 523.616 33.2102 496.278 132.332 445.485C181.686 420.171 228.806 391.245 274.379 363.279C341.726 321.943 411.365 279.201 488.234 248.32C608.199 200.17 780.781 184.954 905.382 286.659C966.992 336.949 1011.83 411.221 1031.64 495.797C1048.9 569.439 1046.96 639.6 1042.92 717.12C1041.54 745.228 1039.92 774.145 1038.34 802.106C1031.58 922.253 1024.6 1046.49 1032.55 1174.02C1034.07 1198.29 1036.11 1222.01 1038.62 1244.52C1049.23 1339.31 1072.85 1431.74 1106.93 1511.81C1145.11 1601.5 1195.26 1674.7 1256.01 1729.41C1318.4 1785.49 1389.23 1823.52 1472.56 1845.68C1538.8 1863.29 1612.77 1870.89 1705.35 1869.61C1732.68 1869.22 1761.17 1868.13 1790.04 1866.34C1890.5 1859.77 1988.19 1847.94 2080.39 1831.18C2184.7 1812.23 2285.51 1786.34 2380.05 1754.24C2624.1 1671.37 2845.43 1539.88 3020.12 1373.99L3019.1 1373.03L3019.08 1373.03Z" fill="white"/>
<path d="M3081.85 1277.99C2906.42 1448.3 2685.54 1589.92 2443.1 1687.53C2259.94 1761.27 2055.67 1814.21 1835.95 1844.88C1803.56 1849.32 1774.02 1852.63 1745.65 1855.01C1601.02 1867.63 1414.47 1865.65 1254.31 1737.38C1125.04 1633.72 1036.63 1455.09 1011.74 1247.32C1008.99 1224.32 1006.84 1200.29 1005.35 1175.85C996.663 1033.39 1010.52 895.046 1023.93 761.252C1025.53 745.227 1027.2 728.657 1028.77 712.455C1035.29 647.279 1043.41 566.163 1028.05 485.664C1020.24 444.667 1006.4 405.727 986.92 369.923C965.389 330.351 937.858 296.485 905.093 269.279C875.152 244.422 840.766 225.352 802.877 212.603C768.147 200.916 730.4 194.489 690.69 193.499C620.107 191.734 543.871 207.46 476.022 237.766C398.422 272.45 328.717 319.483 261.313 364.974C214.858 396.325 166.82 428.737 116.307 457.101C16.4593 513.116 -82.3912 543.755 -177.492 548.155C-227.495 550.51 -276.677 545.368 -323.677 532.871C-434.504 503.413 -534.186 433.01 -617.089 368.024C-683.295 316.172 -746.861 261.621 -806.017 205.9C-907.778 110.016 -1009.24 -1.23695 -1116.21 -134.216C-1202.26 -241.186 -1289.93 -358.677 -1384.24 -493.404L-1385.19 -492.906C-1290.86 -358.157 -1203.17 -240.64 -1117.11 -133.649C-1010.1 -0.620858 -908.591 110.685 -806.779 206.611C-747.585 262.366 -683.99 316.938 -617.752 368.819C-534.737 433.898 -434.897 504.405 -323.821 533.925C-276.693 546.453 -227.38 551.611 -177.249 549.249C-81.9781 544.834 17.0314 514.158 117.023 458.063C167.574 429.682 215.623 397.255 262.094 365.893C329.466 320.424 399.138 273.412 476.66 238.763C593.664 186.5 775.89 163.327 904.402 270.04C966.762 321.825 1010.27 398.402 1026.9 485.669C1042.23 566.016 1034.12 647.051 1027.61 712.162C1026.02 728.359 1024.36 744.933 1022.75 760.954C1009.34 894.786 995.479 1033.17 1004.17 1175.71C1005.66 1200.17 1007.82 1224.23 1010.57 1247.24C1022.07 1343.24 1048.52 1437.24 1087.07 1519.09C1107.72 1562.94 1131.85 1603.37 1158.78 1639.28C1187.28 1677.27 1219.19 1710.54 1253.64 1738.16C1289.44 1766.83 1328.6 1790.71 1370.02 1809.12C1408.1 1826.06 1449.47 1838.96 1492.96 1847.48C1566.86 1861.96 1647.24 1864.7 1745.93 1856.1C1774.32 1853.72 1803.88 1850.41 1836.29 1845.96C1940.99 1831.35 2042.9 1811.59 2139.18 1787.24C2245.19 1760.43 2347.64 1727.22 2443.7 1688.55C2561.95 1640.93 2675.48 1582.78 2781.13 1515.71C2891.6 1445.57 2993.08 1365.86 3082.75 1278.81L3081.85 1277.98L3081.85 1277.99Z" fill="white"/>
<path d="M3144.62 1182.95C2965.13 1360.97 2750.54 1508.69 2506.8 1622.02C2316.89 1710.32 2106.74 1778.5 1882.19 1824.69C1848.08 1831.65 1816.69 1837.21 1786.22 1841.69C1643.22 1862.98 1432.25 1876.24 1251.81 1746.21C1110.43 1644.23 1010.15 1458.75 983.548 1250.04C980.563 1226.58 978.298 1202.19 976.826 1177.53C967.585 1022.77 989.343 872.754 1010.38 727.677C1011.36 720.945 1012.33 714.227 1013.3 707.515C1023.63 636.923 1035.33 556.905 1023.18 475.589C1016.97 434.072 1003.86 392.844 985.241 356.363C964.402 315.524 937.082 280.673 904.038 252.78C873.542 227.034 838.361 207.506 799.48 194.733C763.835 183.025 725.084 176.96 684.286 176.716C611.351 176.278 533.303 194.619 464.505 228.367C386.149 266.814 316.319 318.135 248.795 367.767C201.534 402.497 152.671 438.416 101.058 469.832C0.304096 531.138 -100.434 565.121 -198.362 570.83C-249.573 573.837 -300.012 568.823 -348.278 555.909C-461.037 525.748 -563.053 451.916 -647.978 383.674C-714.94 329.893 -779.664 273.28 -840.367 215.396C-948.342 112.408 -1051.99 -2.05301 -1157.22 -134.536C-1249.85 -251.141 -1340.37 -377.173 -1426.26 -509.125L-1427.1 -508.726C-1341.2 -376.737 -1250.66 -250.679 -1158.01 -134.049C-1052.74 -1.52619 -949.05 112.978 -841.035 216.009C-780.312 273.915 -715.555 330.558 -648.57 384.356C-592.766 429.199 -548.788 460.799 -505.982 486.817C-450.884 520.302 -399.344 543.204 -348.415 556.826C-300.03 569.771 -249.474 574.808 -198.149 571.791C-146.447 568.777 -93.1092 557.622 -39.6044 538.64C7.50155 521.925 55.0404 499.052 101.692 470.67C153.329 439.233 202.214 403.308 249.486 368.563C316.987 318.952 386.789 267.657 465.075 229.235C584.597 170.603 771.114 141.765 903.424 253.454C988.61 325.357 1014.39 423.483 1022.16 475.572C1034.29 556.754 1022.6 636.706 1012.29 707.245C1011.32 713.957 1010.34 720.675 1009.37 727.407C988.32 872.522 966.555 1022.58 975.804 1177.44C977.279 1202.12 979.538 1226.53 982.528 1250C994.931 1347.31 1024.21 1442.89 1067.22 1526.41C1090.15 1570.92 1116.88 1611.85 1146.68 1648.05C1178.2 1686.35 1213.39 1719.61 1251.27 1746.93C1290.64 1775.31 1333.62 1798.4 1379.01 1815.57C1420.77 1831.37 1465.97 1842.67 1513.32 1849.17C1593.63 1860.18 1682.99 1858.04 1786.5 1842.63C1817 1838.15 1848.41 1832.59 1882.54 1825.63C2107.16 1779.42 2317.38 1711.21 2507.34 1622.89C2625.64 1567.89 2739.09 1503.44 2844.54 1431.34C2953.8 1356.63 3055.03 1273.3 3145.4 1183.67L3144.62 1182.95L3144.62 1182.95Z" fill="white"/>
<path d="M3207.4 1087.9C3025.53 1272.07 2811.25 1429.73 2570.5 1556.5C2373.01 1660.49 2156.99 1743.94 1928.44 1804.5C1892.64 1813.96 1859.39 1821.76 1826.79 1828.35C1587.89 1876.88 1399 1852.9 1249.31 1755.03C1093.94 1653.42 984.059 1465.65 955.346 1252.75C952.125 1228.87 949.755 1204.13 948.301 1179.22C938.656 1014.16 968.741 855.756 997.838 702.575C1012.36 626.467 1027.37 547.769 1018.3 465.515C1013.6 422.874 1001.59 380.435 983.592 342.787C963.449 300.661 936.328 264.832 902.991 236.294C871.957 209.636 836.006 189.628 796.145 176.826C759.6 165.091 719.829 159.395 677.947 159.904C602.66 160.817 522.777 181.794 453.016 218.981C373.823 261.203 303.788 316.814 236.062 370.605C188.076 408.71 138.455 448.115 85.8413 482.58C-14.4029 548.229 -119.886 586.591 -219.205 593.518C-271.628 597.182 -323.326 592.286 -372.857 578.956C-487.31 548.155 -587.558 474.426 -678.843 399.329C-746.509 343.684 -812.4 284.995 -874.688 224.9C-987.236 116.298 -1096.08 -4.73494 -1198.21 -134.844C-1295.51 -258.812 -1386.37 -390.027 -1468.25 -524.839L-1468.97 -524.525C-1387.07 -389.678 -1296.19 -258.422 -1198.86 -134.428C-1096.7 -4.28495 -987.826 116.787 -875.245 225.419C-812.937 285.536 -747.022 344.241 -679.336 399.908C-640.877 431.544 -589.605 472.294 -534.037 506.852C-477.726 541.878 -425.037 565.718 -372.959 579.734C-323.324 593.092 -271.527 597.999 -219.003 594.33C-166.04 590.64 -111.57 578.22 -57.1018 557.43C-8.93314 539.045 39.3463 514.089 86.4081 483.274C139.052 448.793 188.68 409.378 236.682 371.262C304.391 317.496 374.399 261.897 453.533 219.708C585.298 149.468 775.224 127.531 902.495 236.864C965.486 290.782 1007.4 374.113 1017.47 465.482C1026.54 547.624 1011.53 626.27 997.022 702.325C967.918 855.553 937.831 1014 947.475 1179.15C948.934 1204.08 951.305 1228.84 954.528 1252.75C967.836 1351.44 999.954 1448.6 1047.41 1533.71C1072.61 1578.9 1101.94 1620.31 1134.6 1656.8C1169.17 1695.41 1207.62 1728.68 1248.92 1755.68C1291.87 1783.76 1338.67 1806.07 1388.03 1822.01C1433.49 1836.68 1482.51 1846.38 1533.72 1850.85C1621.58 1858.5 1717.56 1851.4 1827.11 1829.15C1859.73 1822.56 1893 1814.75 1928.81 1805.28C2157.42 1744.7 2373.49 1661.24 2571.03 1557.23C2689.12 1495.04 2802.48 1424.3 2907.97 1346.97C3015.84 1267.89 3116.82 1180.94 3208.09 1088.51L3207.42 1087.92L3207.4 1087.9Z" fill="white"/>
<path d="M3270.17 992.853C2923.49 1351.1 2475.53 1624.78 1974.71 1784.29C1670.29 1881.25 1432.19 1874.58 1246.82 1763.88C1080.03 1664.29 957.546 1469.48 927.149 1255.49C898.726 1055.38 945.099 857.012 982.364 697.63L982.736 696.049C1000.82 618.721 1019.51 538.755 1013.41 455.441C1010.21 411.746 999.307 368.111 981.886 329.253C962.439 285.892 935.542 249.072 901.931 219.813C870.314 192.293 833.566 171.831 792.719 159.011C755.253 147.25 714.48 141.925 671.527 143.168C593.881 145.419 512.195 169.01 441.517 209.595C361.423 255.583 291.118 315.513 223.124 373.469C174.473 414.939 124.167 457.815 70.6094 495.323C-39.0323 572.105 -209.238 652.945 -397.456 602.003C-513.948 570.476 -616.384 493.488 -709.73 414.989C-1032.29 143.738 -1309.11 -186.689 -1510.28 -540.569L-1510.88 -540.337C-1410.25 -363.33 -1290.94 -192.063 -1156.26 -31.3017C-1021.58 129.455 -871.489 279.763 -710.151 415.439C-616.725 494.001 -514.201 571.052 -397.552 602.621C-317.337 624.33 -232.914 623.623 -146.637 600.524C-73.3113 580.891 -0.0626062 545.674 71.0723 495.863C124.646 458.344 174.963 415.453 223.623 373.982C291.597 316.042 361.882 256.128 441.934 210.162C576.295 133.012 770.507 106.211 901.507 220.255C965.308 275.797 1005.84 361.498 1012.73 455.38C1018.82 538.606 1000.14 618.529 982.066 695.818L981.694 697.399C960.154 789.536 939.836 879.837 928.01 971.593C914.609 1075.58 914.106 1168.44 926.469 1255.47C940.694 1355.62 975.642 1454.34 1027.54 1540.98C1055.01 1586.85 1086.96 1628.75 1122.47 1665.52C1160.07 1704.44 1201.81 1737.72 1246.52 1764.42C1301.1 1797.01 1361.2 1820.93 1425.13 1835.5C1483.06 1848.71 1545.82 1854.62 1611.66 1853.07C1720.24 1850.51 1839.09 1828.21 1975.02 1784.92C2224.99 1705.3 2462.45 1597.29 2680.84 1463.87C2899.22 1330.45 3097.68 1172.15 3270.72 993.339L3270.18 992.863L3270.17 992.853Z" fill="white"/>
</g>
</g>
<defs>
<clipPath id="clip0_192_15">
<rect width="1440" height="810" fill="white"/>
</clipPath>
<clipPath id="clip1_192_15">
<rect width="4851.73" height="2312.6" fill="white" transform="matrix(0.819401 0.57322 0.57322 -0.819401 -1985.68 138.376)"/>
</clipPath>
</defs>
</svg>
