<svg width="1440" height="810" viewBox="0 0 1440 810" fill="none" xmlns="http://www.w3.org/2000/svg">
<g clip-path="url(#clip0_192_289)">
<g opacity="0.5">
<g opacity="0.5">
<path d="M-1606.52 349.354C-1584.93 343.784 -1564.65 341.839 -1545.4 343.456C-1518.88 345.684 -1493.74 354.818 -1470.67 370.611C-1445.23 388.025 -1421.43 414.139 -1399.93 448.204C-1349.8 527.655 -1309.5 634.161 -1270.52 737.165C-1227.26 851.484 -1182.52 969.699 -1124.41 1050.37C-1059.3 1140.76 -983.726 1173.62 -893.373 1150.82C-892.723 1150.66 -892.055 1150.49 -891.405 1150.33C-728.718 1108.31 -589.38 951.348 -466.367 812.774C-454.657 799.578 -442.544 785.937 -430.803 772.839C-397.06 735.19 -363.046 695.53 -330.151 657.173C-224.969 534.527 -116.203 407.712 6.71423 318.647C48.6391 288.269 88.2234 268.38 126.753 258.426C138.606 255.364 150.353 253.245 162.05 252.05C190.026 249.189 217.99 251.773 245.166 259.735C274.211 268.245 303.35 283.187 331.767 304.137C408.608 360.791 478.977 443.284 547.029 523.057C581.929 563.972 618.019 606.277 654.312 644.249C792.476 788.81 906.292 857.415 1012.51 860.155C1140.05 863.44 1243.31 773.003 1343.17 685.537L1343.48 685.277L1343.78 685.916L1343.48 686.175C1294.22 729.322 1243.28 773.932 1188.87 807.2C1127.4 844.791 1069.73 862.347 1012.59 860.871C982.245 860.087 950.624 853.681 918.596 841.839C889.081 830.923 858.241 815.015 826.936 794.56C773.641 759.733 717.103 710.756 654.082 644.816C617.777 606.831 581.679 564.512 546.772 523.592C478.747 443.85 408.404 361.389 331.62 304.775C230.033 229.876 123.853 234.629 7.0025 319.303C-115.875 408.345 -224.626 535.142 -329.792 657.769C-362.687 696.126 -396.706 735.788 -430.452 773.445C-442.193 786.542 -454.305 800.191 -466.017 813.38C-529.179 884.528 -594.49 958.107 -665.184 1019.85C-745.509 1090.02 -820.086 1133.1 -893.198 1151.54C-917.736 1157.73 -941.467 1159.87 -963.729 1157.91C-984.954 1156.04 -1005.55 1150.36 -1024.94 1141.05C-1060.74 1123.85 -1093.38 1094.35 -1124.71 1050.85C-1150.82 1014.61 -1176.46 967.719 -1203.13 907.487C-1226.9 853.786 -1249.29 794.631 -1270.94 737.42C-1309.9 634.465 -1350.19 528.007 -1400.26 448.642C-1496.23 296.527 -1613.6 341.173 -1693.54 387.988C-1805.47 453.541 -1909.06 547.431 -2009.23 638.236C-2031.38 658.314 -2054.29 679.078 -2076.83 699.112L-2077.14 698.475C-2054.6 678.442 -2031.69 657.685 -2009.54 637.6C-1909.36 546.785 -1805.76 452.878 -1693.8 387.309C-1662.38 368.91 -1633.45 356.308 -1606.52 349.348L-1606.52 349.354Z" fill="white" stroke="white"/>
<path d="M-1585.69 375.023C-1568.99 370.706 -1553.1 368.637 -1537.66 368.688C-1510.34 368.76 -1484.4 375.941 -1460.56 390.041C-1434.29 405.579 -1409.62 430.059 -1387.22 462.807C-1337.03 536.168 -1295.61 635.187 -1255.56 730.947C-1236.75 775.905 -1217.3 822.4 -1197.15 865.789C-1125.53 1020.39 -1036.96 1158.07 -875.124 1119.05C-809.997 1103.58 -744.029 1070.2 -673.487 1016.97C-592.638 956.024 -518.387 878.88 -446.585 804.268C-433.774 790.955 -420.527 777.197 -407.687 763.997C-372.21 727.427 -336.431 688.823 -301.828 651.49C-243.451 588.498 -183.082 523.371 -120.981 464.464C-65.2017 411.537 -13.7988 369.141 36.1731 334.844C77.74 306.258 116.917 287.317 154.923 277.498C167.332 274.294 179.614 272.067 191.821 270.785C219.778 267.861 247.684 270.082 274.768 277.391C303.716 285.203 332.727 299.095 360.985 318.672C422.605 361.159 480.454 419.808 528.912 471.574C544.381 488.091 559.99 505.101 575.086 521.548C610.422 560.056 646.961 599.877 683.618 635.406C770.352 719.471 901.557 831.116 1039.04 830.127C1165.56 829.211 1268.28 738.428 1367.61 650.641L1367.91 651.279C1318.96 694.548 1268.33 739.292 1213.95 773.371C1152.87 811.639 1095.69 830.447 1039.13 830.857C1009.15 831.073 977.881 825.969 946.182 815.68C916.977 806.201 886.423 792.006 855.366 773.473C802.639 742.012 746.388 697.045 683.397 635.993C646.728 600.451 610.182 560.625 574.834 522.104C559.737 505.657 544.133 488.645 528.666 472.136C480.228 420.395 422.415 361.776 360.836 319.318C258.592 248.482 155.511 253.63 36.4286 335.508C-13.5277 369.786 -64.9117 412.178 -120.68 465.088C-182.773 523.985 -243.131 589.118 -301.506 652.102C-336.109 689.434 -371.89 728.046 -407.367 764.617C-420.207 777.816 -433.455 791.575 -446.265 804.888C-518.08 879.51 -592.342 956.671 -673.212 1017.63C-743.798 1070.88 -809.792 1104.29 -874.974 1119.77C-947.83 1137.33 -1010.64 1120.47 -1066.99 1068.2C-1091.31 1045.65 -1114.36 1016.72 -1137.47 979.745C-1156.83 948.782 -1176.48 911.61 -1197.55 866.122C-1217.72 822.715 -1237.17 776.219 -1255.98 731.247C-1296.01 635.536 -1337.41 536.564 -1387.54 463.281C-1430.65 400.272 -1479.73 369.567 -1537.58 369.419C-1578.84 369.28 -1623.42 384.355 -1677.89 416.859C-1739.21 453.465 -1797.4 497.189 -1841.24 531.184C-1884.54 564.685 -1927.43 599.425 -1968.91 633.023C-1999.95 658.159 -2032.05 684.151 -2063.53 708.979L-2063.82 708.33C-2032.33 683.502 -2000.24 657.51 -1969.2 632.374C-1927.72 598.776 -1884.82 564.036 -1841.53 530.533C-1797.67 496.529 -1739.47 452.803 -1678.14 416.186C-1643.98 395.805 -1613.7 382.269 -1585.69 375.031L-1585.69 375.023Z" fill="white" stroke="white"/>
<path d="M-1564.26 400.502C-1550.11 396.847 -1536.58 394.816 -1523.45 394.337C-1496.58 393.302 -1470.96 399.114 -1447.31 411.6C-1421.43 425.261 -1396.94 447.402 -1374.51 477.419C-1324.12 544.875 -1281.52 636.62 -1240.31 725.343C-1221.03 766.861 -1201.09 809.786 -1180.47 850.057C-1106.86 994.624 -1016.71 1123.41 -856.88 1087.28C-791.151 1072.41 -724.86 1041.17 -654.213 991.772C-573.595 935.486 -498.985 864.252 -426.834 795.351C-412.917 782.062 -398.526 768.318 -384.57 755.163C-347.13 719.644 -309.347 682.053 -272.811 645.696C-214.744 587.92 -154.704 528.17 -93.1706 473.832C-36.5161 423.762 15.4279 383.607 65.6232 351.051C121.01 314.997 172.018 294.915 221.57 289.652C249.495 286.69 277.342 288.55 304.346 295.195C333.194 302.288 362.085 315.082 390.207 333.207C451.987 373.032 509.77 427.332 558.146 475.193C573.111 489.985 588.216 505.203 602.823 519.922C638.703 556.068 675.802 593.448 712.928 626.57C799.431 703.724 930.101 805.657 1065.59 800.114C1191.11 794.967 1297.71 699.897 1391.76 616.017L1392.07 616.654C1345.78 657.934 1293.31 704.728 1238.88 739.649C1178.27 778.527 1121.62 798.544 1065.69 800.841C1036.07 802.049 1005.15 798.247 973.782 789.519C944.883 781.486 914.612 768.988 883.81 752.392C831.634 724.277 775.671 683.312 712.731 627.174C675.587 594.04 638.481 556.654 602.596 520.503C587.99 505.791 572.885 490.573 557.92 475.781C509.57 427.944 451.811 373.668 390.076 333.872C288.353 268.29 185.336 273.963 65.8864 351.728C15.7039 384.274 -36.2233 424.418 -92.8654 474.477C-154.389 528.813 -214.426 588.555 -272.489 646.33C-309.025 682.687 -346.807 720.278 -384.256 755.806C-398.209 768.969 -412.598 782.704 -426.514 795.993C-498.68 864.897 -573.3 936.148 -653.941 992.447C-724.625 1041.88 -790.959 1073.14 -856.723 1088.01C-928.716 1104.29 -991.319 1088.37 -1048.12 1039.36C-1072.6 1018.24 -1095.94 991.156 -1119.47 956.563C-1139.14 927.637 -1159.22 892.917 -1180.85 850.431C-1201.48 810.146 -1221.42 767.207 -1240.71 725.683C-1281.89 637 -1324.48 545.304 -1374.81 477.918C-1418.09 419.992 -1466.68 392.893 -1523.35 395.064C-1563.7 396.556 -1607.83 412.649 -1662.23 445.722C-1720.42 481.131 -1778.89 523.8 -1825.88 558.089C-1834.59 564.427 -1843.27 570.735 -1851.92 577.028C-1920.29 626.771 -1984.87 673.757 -2050.23 718.846L-2050.5 718.178C-1985.15 673.098 -1920.57 626.111 -1852.19 576.37C-1843.55 570.077 -1834.87 563.769 -1826.16 557.43C-1779.17 523.141 -1720.7 480.464 -1662.49 445.052C-1625.74 422.705 -1593.66 408.1 -1564.27 400.511L-1564.26 400.502Z" fill="white" stroke="white"/>
<path d="M-1542.47 425.665C-1530.98 422.696 -1519.95 420.82 -1509.22 419.984C-1482.81 417.857 -1457.51 422.294 -1434.02 433.162C-1408.53 444.96 -1384.23 464.761 -1361.8 492.023C-1310.64 554.208 -1268.37 635.779 -1223.62 722.137C-1204.32 759.39 -1184.35 797.917 -1163.8 834.324C-1087.77 968.963 -995.756 1088.95 -838.628 1055.5C-772.508 1041.42 -705.883 1012.33 -634.929 966.557C-554.528 914.823 -479.571 849.337 -407.085 786.008C-392.058 772.876 -376.519 759.304 -361.446 746.32C-321.742 711.81 -281.664 675.177 -242.905 639.755C-185.439 587.229 -126.016 532.91 -65.3517 483.19C-7.7848 435.971 44.6933 398.043 95.0821 367.249C150.756 333.027 201.868 313.791 251.339 308.448C279.237 305.432 307.033 306.936 333.943 312.92C362.698 319.307 391.455 331.023 419.426 347.743C481.058 384.591 538.912 434.676 587.373 478.822C601.71 491.856 616.172 505.244 630.163 518.195C666.712 552.025 704.508 587.002 742.235 617.735C828.48 687.968 958.583 780.182 1092.13 770.102C1216.68 760.673 1322.52 665.43 1415.9 581.396L1416.21 582.033C1370.32 623.331 1318.31 670.132 1263.79 705.924C1203.65 745.411 1147.54 766.638 1092.24 770.819C1035.43 775.109 976.551 762.188 912.249 731.304C860.605 706.503 804.935 669.554 742.059 618.349C704.315 587.605 666.512 552.615 629.957 518.785C615.968 505.842 601.506 492.453 587.169 479.42C538.729 435.3 480.903 385.23 419.31 348.412C318.236 287.981 215.292 294.193 95.333 367.936C44.9583 398.727 -7.50741 436.644 -65.0618 483.854C-125.718 533.565 -185.137 587.882 -242.6 640.401C-281.361 675.83 -321.44 712.464 -361.148 746.974C-376.217 759.958 -391.754 773.536 -406.783 786.661C-479.281 850 -554.251 915.497 -634.673 967.243C-705.662 1013.04 -772.327 1042.14 -838.48 1056.23C-909.504 1071.35 -971.87 1056.4 -1029.14 1010.53C-1074.28 974.381 -1115.92 920.166 -1164.16 834.739C-1184.73 798.312 -1204.69 759.778 -1224 722.518C-1268.72 636.2 -1310.97 554.677 -1362.08 492.561C-1405.52 439.754 -1453.62 416.254 -1509.11 420.723C-1548.51 423.808 -1592.19 440.925 -1646.56 474.606C-1688.61 500.677 -1730.42 529.645 -1770.85 557.65C-1783.86 566.656 -1797.3 575.973 -1810.5 585.014C-1883.4 634.653 -1957.46 681.661 -2036.93 728.726L-2037.18 728.047C-1957.72 680.991 -1883.66 633.983 -1810.77 584.347C-1797.57 575.306 -1784.13 565.995 -1771.13 556.983C-1730.69 528.97 -1688.89 500.01 -1646.83 473.93C-1607.2 449.383 -1573.24 433.626 -1542.48 425.682L-1542.47 425.665Z" fill="white" stroke="white"/>
<path d="M-1520.98 450.576C-1512.1 448.283 -1503.49 446.651 -1495 445.624C-1469.05 442.414 -1444.06 445.481 -1420.73 454.721C-1395.62 464.67 -1371.52 482.133 -1349.1 506.621C-1297.11 563.411 -1253.29 638.72 -1206.89 718.451C-1187.59 751.619 -1167.63 785.917 -1147.12 818.585C-1068.79 943.357 -974.993 1054.56 -820.386 1023.72C-753.848 1010.44 -686.883 983.497 -615.658 941.344C-533.549 892.909 -456.573 831.569 -382.129 772.241C-367.712 760.753 -352.806 748.875 -338.336 737.472C-294.652 703.063 -250.604 666.211 -208.007 630.569C-152.769 584.352 -95.6481 536.563 -37.5436 492.543C20.9763 448.157 73.9912 412.472 124.528 383.435C180.489 351.044 231.705 332.654 281.103 327.222C308.981 324.158 336.716 325.293 363.539 330.615C392.195 336.297 420.824 346.94 448.639 362.257C510.072 396.087 568.017 441.984 616.594 482.422C630.141 493.672 643.807 505.211 657.029 516.366C694.403 547.909 733.053 580.516 771.538 608.878C864.755 677.542 988.455 754.504 1118.66 740.061C1242.28 726.321 1347.34 630.916 1440.03 546.745L1440.34 547.375C1347.6 631.585 1242.5 727.022 1118.78 740.777C1062.66 747.006 1004.41 736.996 940.678 710.196C889.539 688.692 834.16 655.751 771.374 609.504C732.874 581.139 694.221 548.517 656.836 516.969C643.619 505.813 629.949 494.282 616.407 483.031C567.848 442.611 509.932 396.73 448.533 362.924C348.131 307.633 245.251 314.37 124.771 384.108C74.242 413.136 21.2412 448.819 -37.2662 493.195C-95.3613 537.212 -152.479 584.994 -207.713 631.209C-250.314 666.852 -294.363 703.704 -338.05 738.122C-352.521 749.517 -367.425 761.402 -381.842 772.891C-456.294 832.228 -533.282 893.578 -615.414 942.025C-686.668 984.199 -753.669 1011.15 -820.241 1024.43C-890.307 1038.41 -952.451 1024.45 -1010.23 981.742C-1055.5 948.278 -1097.82 898.094 -1147.46 819.026C-1167.98 786.344 -1187.95 752.04 -1207.25 718.864C-1253.62 639.18 -1297.42 563.912 -1349.35 507.184C-1392.97 459.54 -1440.57 439.646 -1494.88 446.355C-1533.8 451.049 -1575.76 468.657 -1630.92 503.457C-1660.46 522.118 -1690.13 542.079 -1718.82 561.381C-1743.83 578.205 -1769.69 595.594 -1795.14 611.906C-1879.11 665.316 -1957.77 705.911 -2023.64 738.572L-2023.86 737.88C-1958.01 705.221 -1879.36 664.628 -1795.4 611.228C-1769.95 594.916 -1744.09 577.528 -1719.09 560.706C-1690.4 541.403 -1660.72 521.441 -1631.17 502.779C-1587.99 475.535 -1552.88 458.818 -1520.99 450.578L-1520.98 450.576Z" fill="white" stroke="white"/>
<path d="M-1498.18 474.968C-1492.39 473.473 -1486.58 472.229 -1480.78 471.271C-1455.29 466.993 -1430.6 468.681 -1407.42 476.289C-1382.68 484.403 -1358.78 499.523 -1336.39 521.225C-1283.17 572.804 -1237.52 642.149 -1189.18 715.563C-1170.2 744.391 -1150.57 774.203 -1130.44 802.851C-1049.71 917.759 -954.062 1020.2 -802.128 991.94C-735.127 979.475 -667.822 954.677 -596.372 916.135C-513.971 871.874 -436.216 815.785 -361.024 761.543C-345.946 750.668 -330.357 739.421 -315.208 728.628C-268.188 695.117 -220.761 659.003 -174.897 624.08C-121.303 583.27 -65.886 541.064 -9.7157 501.899C49.8098 460.343 103.358 426.885 153.996 399.631C192.672 378.613 229.024 363.753 263.985 354.725C279.875 350.621 295.473 347.725 310.887 345.999C338.743 342.879 366.422 343.66 393.155 348.32C421.713 353.298 450.216 362.875 477.864 376.784C539.03 407.557 597.094 449.282 645.832 486.033C658.382 495.477 671.052 505.135 683.306 514.478C721.704 543.757 761.415 574.04 800.848 600.019C893.706 661.171 1016.76 728.939 1145.21 710.025C1267.92 691.92 1372.19 596.387 1464.18 512.099L1464.49 512.728C1411.9 560.91 1364.26 603.627 1313.63 638.424C1254.44 679.108 1199.39 702.769 1145.34 710.737C1089.92 718.897 1032.28 711.817 969.132 689.089C917.768 670.605 864.253 642.502 800.718 600.661C761.267 574.67 721.55 544.381 683.146 515.096C670.891 505.753 658.222 496.096 645.671 486.652C596.956 449.911 538.91 408.204 477.782 377.445C378.068 327.283 275.257 334.544 154.233 400.298C103.604 427.551 50.0684 460.998 -9.44784 502.553C-65.6104 541.708 -121.023 583.913 -174.617 624.723C-220.485 659.647 -267.911 695.768 -314.936 729.273C-330.081 740.065 -345.671 751.312 -360.748 762.187C-435.954 816.432 -513.717 872.53 -596.14 916.804C-667.62 955.367 -734.953 980.17 -801.987 992.642C-954.141 1020.94 -1049.92 918.372 -1130.75 803.315C-1150.89 774.653 -1170.52 744.842 -1189.5 716.007C-1237.82 642.632 -1283.45 573.327 -1336.61 521.803C-1380.38 479.365 -1427.5 463.072 -1480.64 471.982C-1529.11 479.947 -1578.04 508.397 -1615.24 532.302C-1634.93 544.971 -1654.84 558.197 -1674.1 570.982C-1708.66 593.927 -1744.39 617.656 -1779.76 638.793C-1862.76 687.921 -1942.29 721.138 -2010.32 748.413L-2010.53 747.716C-1942.5 720.443 -1862.99 687.237 -1780.01 638.113C-1744.64 616.978 -1708.91 593.256 -1674.36 570.313C-1655.11 557.527 -1635.2 544.302 -1615.5 531.631C-1582.72 510.573 -1540.85 485.977 -1498.18 474.959L-1498.18 474.968Z" fill="white" stroke="white"/>
<path d="M-1475.8 499.081C-1472.72 498.283 -1469.64 497.559 -1466.56 496.918C-1441.53 491.588 -1417.15 491.902 -1394.08 497.854C-1369.72 504.139 -1346.03 516.918 -1323.69 535.83C-1268.71 582.367 -1220.79 646.104 -1170.05 713.583C-1151.85 737.789 -1133.03 762.82 -1113.78 787.114C-1030.53 892.174 -932.944 985.847 -783.888 960.152C-716.365 948.518 -648.725 925.863 -577.104 890.915C-494.389 850.762 -415.851 799.856 -339.897 750.629C-324.168 740.437 -307.904 729.89 -292.094 719.778C-241.168 687.185 -189.79 651.785 -140.108 617.55C-88.7124 582.139 -35.5705 545.52 18.0937 511.259C79.5489 471.959 132.094 441.636 183.443 415.822C240.009 387.081 291.433 370.382 340.654 364.764C398.826 358.13 453.261 366.814 507.074 391.305C567.714 418.906 623.643 454.879 675.051 489.648C686.362 497.271 697.793 505.062 708.84 512.592C748.507 539.629 789.522 567.588 830.149 591.177C922.588 644.822 1044.95 703.397 1171.74 679.999C1293.61 657.467 1397.05 561.842 1488.31 477.463L1488.62 478.092C1436.54 526.231 1389.31 568.987 1338.54 604.692C1279.83 645.968 1225.31 670.839 1171.89 680.716C1117.14 690.818 1060.12 686.657 997.566 668.002C946.653 652.818 893.422 628.621 830.041 591.836C789.404 568.242 748.377 540.278 708.704 513.235C697.653 505.706 686.227 497.913 674.915 490.291C623.526 455.54 567.618 419.578 507.012 391.992C408.011 346.931 305.27 354.723 183.674 416.506C132.328 442.312 79.7967 472.632 18.3491 511.923C-35.3104 546.183 -88.4475 582.8 -139.838 618.211C-189.525 652.446 -240.906 687.855 -291.837 720.449C-307.645 730.568 -323.906 741.107 -339.635 751.298C-415.599 800.527 -494.145 851.443 -576.878 891.599C-648.531 926.562 -716.198 949.223 -783.749 960.863C-851.833 972.596 -913.542 960.606 -972.392 924.207C-1030.51 888.256 -1078.63 832.331 -1114.06 787.616C-1133.32 763.309 -1152.15 738.272 -1170.35 714.066C-1221.06 646.626 -1268.96 582.921 -1323.88 536.432C-1367.2 499.766 -1415.16 486.706 -1466.41 497.62C-1513.11 507.372 -1559.93 535.22 -1599.59 561.165C-1611.33 568.859 -1623.25 576.77 -1634.77 584.417C-1677.05 612.468 -1720.77 641.48 -1764.4 665.699C-1845.06 709.967 -1923.55 735.708 -1997.04 758.274L-1997.22 757.565C-1923.75 735.003 -1845.27 709.265 -1764.64 665.01C-1721.02 640.801 -1677.31 611.79 -1635.03 583.74C-1623.51 576.094 -1611.59 568.182 -1599.85 560.489C-1562.78 536.239 -1519.45 510.332 -1475.8 499.059L-1475.8 499.081Z" fill="white" stroke="white"/>
<path d="M-1452.95 522.72C-1452.67 522.645 -1452.39 522.577 -1452.11 522.502C-1427.63 516.18 -1403.62 515.139 -1380.73 519.4C-1356.73 523.87 -1333.26 534.315 -1310.99 550.436C-1253.45 592.073 -1202.59 650.649 -1148.75 712.669C-1132.03 731.925 -1114.74 751.837 -1097.11 771.383C-1011.17 866.599 -911.542 951.515 -765.644 928.379C-697.536 917.577 -629.559 897.08 -557.832 865.709C-474.769 829.605 -395.42 783.801 -318.687 739.511C-302.335 730.075 -285.428 720.311 -268.982 710.945C-213.396 679.271 -157.295 644.53 -103.037 610.934C-54.5918 580.933 -4.50002 549.919 45.9039 520.626C108.585 484.131 161.647 455.98 212.893 432.029C269.777 405.106 321.308 389.244 370.428 383.543C428.555 376.792 482.81 384.093 536.288 405.849C596.418 430.311 652.556 462.325 704.272 493.278C714.03 499.094 723.884 505.018 733.422 510.747C776.572 536.689 817.332 561.192 859.45 582.342C951.413 628.486 1073.03 677.881 1198.28 649.987C1319.35 622.97 1426.42 523.098 1512.45 442.84L1512.76 443.469C1463.12 489.775 1414.34 534.374 1363.45 570.972C1305.23 612.84 1251.25 638.921 1198.44 650.702C1144.36 662.748 1087.96 661.508 1026 646.922C975.495 635.034 922.544 614.728 859.367 583.026C817.233 561.865 776.468 537.363 733.307 511.415C723.773 505.685 713.913 499.756 704.162 493.945C652.462 463.004 596.341 431.001 536.238 406.548C437.985 366.572 335.313 374.888 213.117 432.73C161.876 456.679 108.821 484.821 46.1497 521.314C-4.24473 550.605 -54.3363 581.619 -102.782 611.62C-157.04 645.216 -213.15 679.959 -268.741 711.634C-285.185 721.007 -302.093 730.764 -318.445 740.2C-395.187 784.499 -474.545 830.306 -557.627 866.413C-629.381 897.79 -697.385 918.3 -765.518 929.1C-832.571 939.735 -894.057 928.738 -953.493 895.474C-1011.46 863.039 -1060.83 812.413 -1097.37 771.932C-1115 752.388 -1132.3 732.469 -1149.02 713.206C-1202.84 651.218 -1253.67 592.667 -1311.15 551.078C-1354.55 519.672 -1401.92 510.298 -1451.96 523.218C-1452.24 523.293 -1452.52 523.36 -1452.79 523.435C-1497.49 534.98 -1542.23 562.259 -1583.94 590.045C-1589.12 593.504 -1594.3 596.97 -1599.48 600.435C-1648.09 632.964 -1698.36 666.606 -1749.04 692.62C-1828.65 732.95 -1905.49 751.359 -1983.75 768.15L-1983.9 767.435C-1905.66 750.648 -1828.84 732.243 -1749.27 691.929C-1698.61 665.927 -1648.35 632.295 -1599.75 599.767C-1594.57 596.301 -1589.39 592.835 -1584.21 589.376C-1542.48 561.579 -1497.7 534.277 -1452.96 522.723L-1452.95 522.72Z" fill="white" stroke="white"/>
<path d="M-1429.37 545.737C-1383.43 533.873 -1339.37 540.354 -1298.29 565.043C-1237.01 601.863 -1182.14 655.877 -1124.06 713.054C-1109.91 726.981 -1095.29 741.375 -1080.44 755.645C-997.678 835.177 -896.865 918.221 -747.397 896.599C-679.556 886.782 -609.291 867.911 -538.551 840.502C-455.092 808.392 -374.905 767.616 -297.355 728.18C-280.42 719.569 -262.907 710.662 -245.861 702.11C-184.554 671.345 -122.637 637.162 -62.7625 604.108C-18.3121 579.57 27.6501 554.191 73.7246 529.992C137.834 496.243 191.419 470.269 242.352 448.228C276.263 433.348 308.651 421.895 339.801 413.845C421.556 392.731 494.874 395.072 565.51 420.377C624.919 441.656 681.358 469.728 733.501 496.891C741.302 500.937 749.074 504.988 756.825 509.029C802.048 532.601 844.759 554.873 888.756 573.5C980.166 612.173 1100.97 652.404 1224.82 619.961C1336.1 590.764 1431.85 506.787 1536.59 408.205L1536.9 408.833C1487.79 455.053 1439.48 499.65 1388.37 537.231C1330.63 579.682 1277.19 606.973 1224.99 620.666C1224.57 620.777 1224.16 620.881 1223.75 620.985C1170.7 634.68 1115.3 636.262 1054.44 625.819C1004.29 617.215 951.622 600.808 888.698 574.186C844.684 555.548 801.964 533.278 756.734 509.7C748.984 505.659 741.211 501.607 733.412 497.569C681.285 470.41 624.863 442.35 565.474 421.073C468.014 386.166 365.408 395.014 242.564 448.915C191.634 470.949 138.058 496.921 73.9535 530.669C27.8837 554.867 -18.0785 580.246 -62.5243 604.782C-122.403 637.837 -184.32 672.02 -245.632 702.787C-262.678 711.339 -280.191 720.246 -297.126 728.857C-374.685 768.295 -454.88 809.08 -538.353 841.193C-609.115 868.614 -679.404 887.49 -747.268 897.312C-813.245 906.854 -874.516 896.851 -934.581 866.739C-991.847 838.029 -1040.56 794.761 -1080.66 756.224C-1095.51 741.953 -1110.14 727.554 -1124.28 713.626C-1182.35 656.467 -1237.19 602.484 -1298.41 565.697C-1342 539.498 -1388.96 533.852 -1437.95 548.91C-1483.13 562.573 -1528.91 592.202 -1568.27 618.9C-1621.67 655.183 -1676.87 692.703 -1733.67 719.51C-1812.94 756.392 -1887.81 767.819 -1970.45 777.995L-1970.58 777.274C-1887.96 767.104 -1813.13 755.676 -1733.89 718.817C-1677.12 692.015 -1621.92 654.505 -1568.55 618.232C-1529.16 591.522 -1483.35 561.88 -1438.13 548.201C-1435.2 547.302 -1432.28 546.478 -1429.37 545.724L-1429.37 545.737Z" fill="white" stroke="white"/>
<path d="M-1405.81 568.295C-1364.21 557.553 -1323.85 561.351 -1285.59 579.648C-1218.69 611.643 -1157.99 661.937 -1093.72 715.184C-1083.98 723.257 -1073.9 731.603 -1063.77 739.914C-978 810.287 -874.337 883.781 -729.149 864.824C-660.507 855.86 -589.894 839.197 -519.274 815.294C-435.341 787.117 -354.251 751.281 -275.823 716.625C-258.371 708.914 -240.321 700.931 -222.736 693.266C-154.149 663.357 -84.8394 629.558 -17.8084 596.878C21.1118 577.903 61.3594 558.275 101.545 539.357C167.427 508.272 221.532 484.462 271.817 464.431C329.398 441.129 381.143 426.943 430.003 421.058C488.073 414.065 541.957 418.602 594.738 434.917C649.827 451.948 701.74 473.458 762.737 500.517C768.041 502.855 773.336 505.195 778.615 507.53C826.475 528.693 871.68 548.684 918.072 564.662C1008.85 595.897 1128.77 626.992 1251.37 589.945C1362.05 556.448 1456.96 472.144 1560.74 373.578L1561.06 374.206C1514.45 418.474 1464.65 464.919 1413.3 503.508C1356.06 546.533 1303.15 575.04 1251.55 590.655C1198.76 606.607 1143.59 611.216 1082.9 604.742C1033.04 599.427 980.655 586.912 918.043 565.371C871.636 549.389 826.421 529.393 778.554 508.225C773.275 505.889 767.98 503.549 762.676 501.211C701.695 474.156 649.792 452.651 594.724 435.624C498.115 405.757 395.575 415.137 272.027 465.134C221.746 485.164 167.649 508.965 101.773 540.056C61.5882 558.974 21.3454 578.601 -17.5748 597.576C-84.609 630.264 -153.924 664.064 -222.515 693.974C-240.095 701.638 -258.145 709.621 -275.597 717.332C-354.028 751.996 -435.127 787.834 -519.075 816.015C-589.712 839.929 -660.344 856.596 -729.01 865.558C-793.863 874.027 -854.919 865.025 -915.664 838.046C-972.225 812.927 -1022.36 774.666 -1063.94 740.541C-1074.07 732.231 -1084.15 723.885 -1093.89 715.811C-1158.13 662.588 -1218.81 612.318 -1285.65 580.35C-1329.34 559.45 -1375.8 557.511 -1423.69 574.573C-1466.63 589.645 -1510.92 619.005 -1552.6 647.781C-1607.57 685.81 -1661.6 721.97 -1718.28 746.432C-1803.99 782.828 -1888.9 785.628 -1957.14 787.873L-1957.23 787.153C-1889.02 784.906 -1804.14 782.113 -1718.49 745.737C-1661.84 721.281 -1607.82 685.133 -1552.87 647.12C-1511.17 618.333 -1466.86 588.961 -1423.89 573.874C-1417.83 571.716 -1411.8 569.862 -1405.79 568.315L-1405.81 568.295Z" fill="white" stroke="white"/>
<path d="M-1381.08 589.995C-1344.07 580.435 -1307.8 581.85 -1272.89 594.269C-1197.18 621.192 -1130.52 666.94 -1053.34 719.913L-1047.11 724.184C-953.8 788.196 -850.978 849.335 -710.902 833.043C-641.258 824.942 -570.304 810.495 -499.999 790.081C-415.484 765.782 -333.387 734.804 -253.997 704.843C-236.126 698.097 -217.643 691.129 -199.623 684.418C-121.353 655.275 -45.6982 623.035 34.3937 588.904C65.4043 575.689 97.4721 562.023 129.357 548.71C175.98 529.191 237.654 503.81 301.267 480.616C359.246 459.114 411.092 445.76 459.777 439.793C517.84 432.674 571.539 435.828 623.947 449.432C683.425 464.874 739.554 484.922 791.95 504.127L798.268 506.426C849.508 525.079 897.905 542.691 947.359 555.808C1037.4 579.651 1156.34 601.669 1277.89 559.907C1387.9 522.063 1485.87 433.784 1584.86 338.931L1585.18 339.559C1539.13 383.683 1489.86 430.074 1438.2 469.763C1381.46 513.353 1329.09 543.071 1278.08 560.615C1225.9 578.539 1171.35 586.069 1111.32 583.636C1061.68 581.619 1009.58 573.008 947.353 556.528C897.878 543.407 849.475 525.79 798.225 507.131L791.906 504.832C739.517 485.633 683.398 465.591 623.936 450.153C528.262 425.309 425.79 435.214 301.451 481.332C237.841 504.518 176.171 529.898 129.553 549.416C97.6685 562.729 65.6052 576.394 34.5946 589.609C-45.502 623.741 -121.155 655.988 -199.436 685.126C-217.456 691.837 -235.935 698.804 -253.81 705.551C-333.21 735.514 -415.312 766.493 -499.836 790.794C-570.154 811.211 -641.132 825.663 -710.791 833.761C-850.992 850.064 -953.886 788.888 -1047.26 724.823L-1053.49 720.552C-1130.65 667.597 -1197.28 621.864 -1272.93 594.961C-1316.71 579.392 -1362.65 581.16 -1409.49 600.201C-1449.9 616.415 -1489.45 643.242 -1536.96 676.634C-1586 711.163 -1643.31 749.959 -1702.94 773.328C-1740.53 787.804 -1780.65 796.266 -1825.59 799.211C-1864.76 801.774 -1902.33 800.055 -1943.87 797.718L-1943.94 796.998C-1871.34 801.081 -1789.05 805.703 -1703.14 772.631C-1643.55 749.277 -1586.26 710.493 -1537.24 675.975C-1489.71 642.572 -1450.14 615.733 -1409.69 599.504C-1400.12 595.609 -1390.58 592.438 -1381.09 589.99L-1381.08 589.995Z" fill="white" stroke="white"/>
<path d="M-1354.65 610.521C-1322.66 602.258 -1291.02 601.694 -1260.19 608.875C-1179.16 627.742 -1105.27 666.748 -1030.44 708.453C-928.733 765.132 -826.367 814.888 -692.65 801.261C-621.696 794.037 -550.391 781.79 -480.713 764.872C-395.444 744.392 -312.188 718.202 -231.675 692.864C-213.54 687.161 -194.793 681.259 -176.497 675.581C-84.4948 647.013 4.54742 614.224 98.823 579.515C117.91 572.484 137.645 565.217 157.177 558.075C212.342 537.846 271.546 516.418 330.727 496.82C389.155 477.108 441.116 464.583 489.568 458.531C547.636 451.276 601.151 453.055 653.171 463.974C709.716 475.841 762.714 490.823 821.181 507.754C869.074 521.5 923.354 537.073 976.672 546.979C1109.14 571.531 1210.23 566.258 1304.44 529.892C1414.04 487.541 1511.05 399.02 1609.01 304.306L1609.33 304.933C1511.34 399.676 1414.3 488.219 1304.65 530.597C1253.05 550.513 1199.12 560.963 1139.78 562.551C1090.97 563.851 1037.63 558.996 976.701 547.706C923.367 537.797 869.077 522.218 821.18 508.473C762.717 491.54 709.728 476.557 653.194 464.695C558.576 444.84 456.174 455.276 330.92 497.535C271.743 517.131 212.545 538.558 157.38 558.787C137.847 565.929 118.112 573.197 99.0255 580.227C4.74671 614.945 -84.3003 647.734 -176.307 676.304C-194.603 681.982 -213.351 687.884 -231.485 693.587C-312.005 718.918 -395.264 745.117 -480.547 765.599C-550.238 782.521 -621.553 794.77 -692.526 801.998C-754.883 808.351 -815.508 801.374 -877.865 780.677C-933.308 762.271 -983.685 735.243 -1030.54 709.133C-1105.34 667.437 -1179.2 628.455 -1260.18 609.599C-1303.99 599.398 -1349.43 604.868 -1395.23 625.857C-1435.36 644.028 -1476.97 673.799 -1517.2 702.585L-1521.29 705.509C-1572.79 742.417 -1628.57 779.439 -1687.55 800.244C-1725.49 813.371 -1765.99 819.536 -1811.37 819.08C-1850.57 818.686 -1888.54 813.64 -1930.56 807.587L-1930.59 806.869C-1857.25 817.444 -1774.11 829.429 -1687.74 799.544C-1628.8 778.756 -1573.04 741.745 -1521.56 704.856L-1517.47 701.933C-1477.22 673.135 -1435.6 643.355 -1395.45 625.17C-1381.81 618.916 -1368.2 614.037 -1354.65 610.543L-1354.65 610.521Z" fill="white" stroke="white"/>
<path d="M-1325.77 629.454C-1299.46 622.656 -1273.29 620.656 -1247.49 623.489C-1176.94 631.247 -1109.23 651.307 -1013.77 692.723L-1011.42 693.742C-916.859 734.776 -809.692 781.282 -674.403 769.48C-601.569 763.124 -529.919 753.093 -461.438 739.658C-375.117 722.949 -290.424 701.456 -208.519 680.668C-190.406 676.07 -171.675 671.317 -153.378 666.731C-40.1419 638.356 74.3065 602.295 184.994 567.426L199.228 562.922C251.657 546.344 305.872 529.201 360.183 513.003C419.153 495.061 471.215 483.367 519.348 477.242C577.453 469.844 630.786 470.255 682.389 478.487C737.215 487.236 790.396 498.571 841.828 509.533L850.408 511.36C900.209 521.836 953.248 532.535 1005.97 538.122C1136.95 551.955 1237.18 540.153 1330.98 499.85C1440.3 452.837 1536.29 364.131 1633.15 269.655L1633.47 270.274C1580.32 322.118 1535.25 364.408 1488.04 402.277C1432.35 446.96 1381.04 479.104 1331.19 500.546C1280.15 522.477 1226.83 535.849 1168.21 541.427C1119.46 546.068 1066.41 545.222 1006.02 538.837C953.275 533.247 900.231 522.55 850.419 512.069L841.839 510.242C790.412 499.278 737.235 487.943 682.42 479.199C587.773 464.096 488.449 474.737 360.359 513.707C306.047 529.905 251.837 547.046 199.409 563.625L185.175 568.128C74.4887 603.004 -39.9691 639.067 -153.217 667.437C-171.514 672.023 -190.244 676.776 -208.357 681.374C-290.267 702.163 -374.966 723.65 -461.295 740.368C-529.785 753.805 -601.449 763.839 -674.293 770.197C-734.788 775.475 -794.75 769.643 -857.615 752.379C-912.976 737.173 -963.053 715.44 -1011.48 694.43L-1013.84 693.41C-1109.26 652.009 -1176.94 631.957 -1247.44 624.205C-1291.26 619.387 -1336.2 628.565 -1381.01 651.481C-1417.51 669.949 -1455.5 697.721 -1492.24 724.579C-1496.71 727.838 -1501.17 731.105 -1505.64 734.358C-1553.81 769.494 -1611.27 807.986 -1672.19 827.135C-1759.25 853.928 -1843.2 834.537 -1917.27 817.425L-1917.28 816.71C-1843.25 833.815 -1759.35 853.193 -1672.37 826.426C-1611.49 807.294 -1554.07 768.816 -1505.91 733.699C-1501.45 730.447 -1496.98 727.187 -1492.52 723.92C-1455.77 697.053 -1417.76 669.278 -1381.24 650.797C-1362.75 641.334 -1344.22 634.215 -1325.77 629.448L-1325.77 629.454Z" fill="white" stroke="white"/>
<path d="M-1293.21 646.069C-1273.67 641.023 -1254.17 638.363 -1234.79 638.103C-1158.84 637.101 -1085.54 649.1 -997.107 677.001C-988.854 679.601 -980.36 682.322 -972.14 684.952C-881.786 713.861 -779.375 746.632 -656.154 737.707C-579.194 732.13 -509.197 724.528 -442.16 714.458C-354.223 701.458 -267.544 684.589 -183.722 668.276C-166.166 664.861 -148.01 661.324 -130.254 657.91C-9.65063 634.699 110.847 603.892 212.813 576.806C240.705 569.376 269.229 561.652 296.81 554.191C327.147 545.98 358.515 537.493 389.642 529.224C476.866 505.554 592.297 480.051 711.607 493.045C756.736 497.963 800.934 504.1 843.675 510.041C855.716 511.714 867.702 513.383 879.636 515.011C928.936 521.62 981.916 527.931 1035.28 529.316C1162.76 532.586 1265.15 513.694 1357.53 469.859C1466.64 418.039 1565.45 325.45 1657.3 235.053L1657.62 235.673C1565.74 326.089 1466.92 418.707 1357.75 470.552C1307.21 494.538 1254.52 510.829 1196.66 520.367C1147.86 528.408 1095.1 531.571 1035.36 530.04C981.978 528.651 928.989 522.342 879.679 515.735C867.741 514.108 855.759 512.438 843.719 510.765C800.982 504.823 756.789 498.685 711.66 493.767C592.4 480.778 477.012 506.278 389.811 529.943C358.686 538.22 327.318 546.706 296.98 554.911C269.398 562.372 240.879 570.094 212.983 577.526C111.011 604.605 -9.49501 635.422 -130.107 658.635C-147.864 662.048 -166.02 665.585 -183.576 669C-267.403 685.315 -354.086 702.184 -442.028 715.186C-509.07 725.257 -579.08 732.861 -656.045 738.439C-779.328 747.37 -881.775 714.592 -972.167 685.669C-980.382 683.038 -988.875 680.324 -997.129 677.716C-1085.52 649.829 -1158.79 637.838 -1234.7 638.839C-1278.46 639.413 -1322.9 652.301 -1366.77 677.139C-1399.63 695.565 -1433.92 721.282 -1467.09 746.15C-1474.58 751.768 -1482.33 757.576 -1489.97 763.234C-1537.44 798.458 -1594.38 836.795 -1656.82 854.047C-1657.77 854.304 -1658.72 854.554 -1659.67 854.802C-1746.43 877.205 -1830.08 850.706 -1903.97 827.285L-1903.95 826.578C-1830.1 849.979 -1746.5 876.465 -1659.84 854.083C-1658.89 853.841 -1657.94 853.585 -1656.99 853.328C-1594.61 836.087 -1537.7 797.774 -1490.25 762.569C-1482.61 756.911 -1474.86 751.104 -1467.37 745.485C-1434.19 720.607 -1399.89 694.887 -1367.01 676.45C-1342.51 662.581 -1317.84 652.438 -1293.2 646.075L-1293.21 646.069Z" fill="white" stroke="white"/>
<path d="M-1255.13 659.257C-1244.11 656.411 -1233.09 654.233 -1222.09 652.731C-1139.91 641.502 -1065.38 644.144 -980.444 661.286C-962.463 664.912 -944.534 668.841 -925.557 673.001C-841.746 691.367 -746.749 712.18 -637.911 705.934C-553.362 701.08 -485.038 695.777 -422.888 689.252C-332.101 679.919 -242.229 667.587 -155.313 655.659C-139.211 653.448 -123.155 651.247 -107.139 649.069C-0.870066 634.619 109.637 614.631 240.627 586.166C297.862 573.679 355.315 560.322 419.093 545.415C480.596 530.729 531.378 520.957 578.905 514.678C637.261 506.965 690.225 504.642 740.821 507.566C771.701 509.349 802.326 511.472 831.943 513.527C857.267 515.279 883.455 517.092 908.854 518.626C972.282 522.305 1020.31 522.871 1064.58 520.474C1190.03 513.622 1291.54 487.996 1384.06 439.834C1493.27 382.925 1590.85 290.353 1681.43 200.418L1681.75 201.037C1639.36 243.13 1589.12 291.937 1537.88 334.846C1483.3 380.545 1433.06 415.117 1384.29 440.525C1291.73 488.718 1190.17 514.353 1064.68 521.201C1020.4 523.607 972.361 523.036 908.92 519.361C883.517 517.835 857.327 516.014 832.003 514.262C802.388 512.214 771.763 510.092 740.882 508.302C625.096 501.607 513.319 523.672 419.244 546.139C355.461 561.046 298.008 574.403 240.774 586.89C109.774 615.357 -0.73783 635.346 -107.016 649.798C-123.028 651.975 -139.088 654.177 -155.19 656.389C-242.106 668.316 -331.98 680.641 -422.775 689.984C-484.929 696.51 -553.262 701.815 -637.816 706.669C-746.696 712.925 -841.715 692.101 -925.552 673.726C-944.529 669.566 -962.458 665.637 -980.435 662.01C-1065.34 644.875 -1139.83 642.24 -1221.97 653.462C-1265.61 659.427 -1309.55 676.017 -1352.55 702.786C-1381.77 720.825 -1410.95 743.368 -1441.85 767.231C-1452.47 775.431 -1463.45 783.911 -1474.33 792.108C-1518.46 825.423 -1577.34 865.651 -1641.47 880.962C-1730.04 901.668 -1815.39 867.392 -1890.69 837.148L-1890.64 836.457C-1815.39 866.681 -1730.1 900.932 -1641.62 880.248C-1577.56 864.95 -1518.71 824.745 -1474.61 791.45C-1463.73 783.254 -1452.75 774.774 -1442.14 766.575C-1411.24 742.703 -1382.04 720.158 -1352.8 702.108C-1320.6 682.066 -1287.87 667.718 -1255.15 659.268L-1255.13 659.257Z" fill="white" stroke="white"/>
<path d="M-1226.61 670.905C-1220.88 669.424 -1215.13 668.23 -1209.37 667.348C-1194.39 665.072 -1179.5 662.613 -1165.11 660.239C-1098.65 649.26 -1035.88 638.896 -963.773 645.562C-933.111 648.403 -902.056 652.543 -869.172 656.933C-791.499 667.295 -711.179 678.015 -619.659 674.152C-607.971 673.663 -596.293 673.175 -584.634 672.692C-524.949 670.216 -463.228 667.653 -403.607 664.045C-306.292 658.343 -209.618 650.465 -116.122 642.846C-105.403 641.974 -94.7038 641.099 -84.017 640.234C31.3956 630.865 146.69 616.244 268.443 595.532C322.653 586.272 379.884 575.493 448.547 561.614C549.88 540.676 658.96 521.399 770.04 522.102C779.643 522.159 789.201 522.233 798.709 522.303C846.909 522.645 892.435 522.979 938.086 522.254C998.658 521.173 1048.17 517.798 1093.89 511.639C1216.93 495.019 1317.57 462.659 1410.6 409.806C1520.2 347.501 1620.33 251.176 1705.57 165.773L1705.89 166.392C1620.63 251.806 1520.48 348.159 1410.85 410.487C1317.78 463.355 1217.11 495.731 1094.02 512.352C1048.28 518.515 998.764 521.892 938.176 522.968C892.519 523.687 846.99 523.361 798.794 523.018C789.286 522.948 779.73 522.881 770.125 522.817C659.076 522.115 550.014 541.388 448.7 562.322C380.036 576.201 322.801 586.981 268.586 596.242C146.818 616.95 31.5185 631.572 -83.9035 640.943C-94.5903 641.808 -105.289 642.683 -116.009 643.555C-209.504 651.174 -306.184 659.053 -403.498 664.755C-463.124 668.364 -524.845 670.927 -584.534 673.404C-596.194 673.887 -607.872 674.375 -619.564 674.865C-711.114 678.727 -791.447 668.01 -869.136 657.644C-902.015 653.26 -933.066 649.112 -963.722 646.277C-1035.79 639.61 -1098.54 649.977 -1164.98 660.951C-1179.37 663.334 -1194.26 665.792 -1209.24 668.061C-1255.02 675.012 -1300.18 702.47 -1338.31 728.408C-1363.88 745.682 -1389.41 766.085 -1416.46 787.688C-1430.23 798.693 -1444.46 810.068 -1458.66 820.947C-1502.3 854.456 -1560.76 894.615 -1626.09 907.843C-1665.48 915.633 -1707.51 912.569 -1754.57 898.487C-1798.06 885.476 -1842.04 864.129 -1877.39 846.976L-1877.31 846.293C-1801.5 883.088 -1715.57 924.791 -1626.24 907.127C-1560.98 893.914 -1502.55 853.784 -1458.94 820.297C-1444.75 809.411 -1430.51 798.035 -1416.74 787.038C-1389.7 765.427 -1364.15 745.022 -1338.57 727.739C-1305.21 705.044 -1266.47 681.19 -1226.62 670.899L-1226.61 670.905Z" fill="white" stroke="white"/>
<path d="M-1100 650.568C-1047.73 637.071 -998.315 630.483 -947.108 629.84C-899.834 629.244 -851.069 632.458 -799.447 635.851C-736.691 639.98 -671.8 644.249 -601.414 642.364C-553.544 641.086 -505.131 640.462 -458.312 639.866C-434.01 639.556 -408.879 639.232 -384.329 638.823C-269.969 637.105 -157.418 634.079 -60.899 631.384C63.6511 627.906 180.482 619.234 296.26 604.884C354.045 597.682 413.496 588.827 478.004 577.805C586.281 558.888 692.329 541.507 799.254 536.624C849.169 534.343 908.171 531.288 967.309 525.869C1025.28 520.453 1076.27 512.904 1123.19 502.789C1241.75 477.205 1344.44 436.962 1437.14 379.772C1542.27 314.882 1639.88 221.919 1729.71 131.129L1730.03 131.748C1640.19 222.557 1542.56 315.531 1437.4 380.45C1387.97 410.947 1337.13 436 1281.97 457.051C1232.36 475.986 1180.47 491.183 1123.34 503.513C1076.41 513.623 1025.41 521.181 967.422 526.593C908.279 532.014 849.274 535.077 799.352 537.351C692.441 542.232 586.407 559.61 478.139 578.524C413.627 589.548 354.173 598.411 296.381 605.606C180.589 619.959 63.7522 628.625 -60.812 632.106C-157.335 634.802 -269.887 637.829 -384.247 639.546C-408.797 639.955 -433.923 640.278 -458.23 640.59C-505.048 641.185 -553.461 641.809 -601.331 643.087C-671.732 644.975 -736.629 640.7 -799.395 636.573C-851.012 633.18 -899.77 629.971 -947.03 630.564C-1028.49 631.585 -1105.43 647.658 -1196.5 682.674C-1239.48 699.2 -1282.4 723.214 -1324.08 754.047C-1345.99 770.166 -1367.86 788.318 -1391.01 807.534C-1407.93 821.583 -1425.43 836.107 -1443.01 849.82C-1507.19 899.937 -1558.91 926.131 -1610.74 934.751C-1650.51 941.208 -1692.92 935.838 -1740.39 918.342C-1784.29 902.165 -1828.55 877.022 -1864.1 856.824L-1864 856.158C-1787.65 899.527 -1701.12 948.682 -1610.88 934.033C-1559.1 925.425 -1507.43 899.248 -1443.3 849.165C-1425.72 835.453 -1408.23 820.929 -1391.31 806.887C-1368.15 787.671 -1346.28 769.518 -1324.37 753.39C-1282.66 722.536 -1239.71 698.502 -1196.7 681.969C-1162.84 668.949 -1130.93 658.549 -1100.01 650.564L-1100 650.568Z" fill="white" stroke="white"/>
<path d="M-1013.54 629.534C-985.715 622.349 -958.27 617.298 -930.433 614.13C-861.028 606.237 -788.041 607.751 -710.767 609.352C-669.655 610.203 -627.143 611.082 -583.163 610.597C-510.016 609.786 -436.317 611.738 -365.044 613.629L-340.101 614.319C-240.601 617.082 -137.709 619.938 -37.7711 622.555C99.9036 625.507 214.888 622.869 324.087 614.255C383.538 609.539 445.235 602.73 507.469 594.008C529.761 590.816 552.435 587.495 574.367 584.29C657.853 572.069 744.184 559.429 828.483 551.164C891.146 545.022 946.117 537.933 996.542 529.496C1052.95 519.979 1103.96 508.361 1152.51 493.959C1267.73 459.76 1369.52 412.587 1463.69 349.751C1570.36 278.549 1670.23 181.77 1753.85 96.4976L1754.18 97.1154C1670.54 182.405 1570.65 279.203 1463.96 350.418C1369.76 413.276 1267.94 460.455 1152.69 494.669C1104.13 509.073 1053.11 520.701 996.686 530.213C946.253 538.652 891.277 545.743 828.603 551.879C744.307 560.136 657.982 572.782 574.501 585.002C552.571 588.215 529.896 591.535 507.603 594.721C445.364 603.443 383.658 610.254 324.202 614.971C214.992 623.58 99.9986 626.22 -37.6903 623.271C-137.628 620.654 -240.52 617.798 -340.02 615.035L-364.965 614.338C-436.232 612.454 -509.926 610.5 -583.069 611.31C-627.053 611.796 -669.565 610.917 -710.681 610.067C-787.946 608.464 -860.923 606.955 -930.304 614.843C-1011.73 624.099 -1089.9 649.53 -1183.74 697.282C-1226.01 718.788 -1268.42 746.51 -1309.82 779.687C-1328.07 794.245 -1346.23 809.976 -1365.47 826.634C-1385.53 844.009 -1406.28 861.981 -1427.33 878.677C-1456.57 901.899 -1482.97 919.563 -1508.04 932.665C-1538.2 948.426 -1566.75 957.909 -1595.34 961.642C-1635.49 966.767 -1678.28 959.099 -1726.16 938.187C-1767.17 920.272 -1806.86 895.201 -1850.78 866.67L-1850.65 866.014C-1773.78 915.962 -1686.65 972.563 -1595.47 960.921C-1542.92 954.046 -1491.15 928.479 -1427.61 878.02C-1406.58 861.326 -1385.83 843.363 -1365.77 825.988C-1346.53 809.322 -1328.36 793.589 -1310.11 779.03C-1268.7 745.843 -1226.25 718.108 -1183.97 696.59C-1122.16 665.14 -1067.14 643.364 -1013.53 629.516L-1013.54 629.534Z" fill="white" stroke="white"/>
<path d="M-938.94 604.354C-930.569 602.192 -922.191 600.215 -913.766 598.415C-812.849 577.386 -704.738 578.01 -590.274 578.68C-581.861 578.732 -573.411 578.775 -564.917 578.816C-489.324 579.178 -414.918 583.642 -345.77 588.416C-275.038 593.357 -203.554 598.975 -134.429 604.412C-95.1298 607.503 -54.493 610.694 -14.6563 613.714C129.398 624.154 245.877 627.301 351.9 623.614C413.114 621.468 475.364 616.957 536.921 610.2C637.16 598.995 738.157 583.743 835.832 568.996L857.694 565.694C917.913 556.613 972.89 545.96 1025.76 533.126C1080.79 519.715 1131.83 504.012 1181.8 485.126C1293.05 443.072 1393.93 388.969 1490.22 319.733C1599.55 241.093 1701.44 140.617 1777.98 61.8629L1778.31 62.4805C1701.75 141.245 1599.85 241.74 1490.5 320.392C1394.18 389.647 1293.27 443.764 1182 485.831C1132.02 504.721 1080.96 520.427 1025.93 533.839C973.04 546.676 918.054 557.331 857.83 566.413L835.968 569.715C738.294 584.469 637.288 599.724 537.042 610.923C475.475 617.674 413.221 622.193 351.997 624.335C245.963 628.016 129.474 624.871 -14.5941 614.434C-54.4307 611.414 -95.0677 608.223 -134.367 605.132C-203.497 599.696 -274.981 594.078 -345.707 589.136C-414.851 584.361 -489.251 579.903 -564.83 579.539C-573.324 579.497 -581.776 579.447 -590.187 579.403C-704.63 578.736 -812.723 578.108 -913.606 599.136C-996.52 616.871 -1075.91 651.643 -1171.01 711.904C-1212.03 737.894 -1253.94 769.325 -1295.59 805.339C-1310.17 817.911 -1324.65 831.052 -1339.98 844.96C-1363.14 865.981 -1387.1 887.72 -1411.67 907.556C-1440.66 930.962 -1467.02 948.616 -1492.26 961.531C-1522.42 976.959 -1551.12 985.804 -1579.97 988.57C-1620.51 992.369 -1663.68 982.388 -1711.96 958.061C-1753.42 937.174 -1793.34 908.784 -1837.48 876.537L-1837.33 875.898C-1759.95 932.414 -1672.25 996.474 -1580.09 987.847C-1527.52 982.809 -1474.1 957.094 -1411.96 906.908C-1387.4 887.081 -1363.45 865.343 -1340.29 844.322C-1324.96 830.407 -1310.48 817.266 -1295.89 804.693C-1254.23 768.675 -1212.3 737.226 -1171.27 711.226C-1085.79 657.066 -1012.99 623.48 -938.931 604.352L-938.94 604.354Z" fill="white" stroke="white"/>
<path d="M-869.217 574.881C-762.54 547.335 -651.495 545.082 -546.67 547.035C-482.494 548.531 -412.533 553.668 -326.493 563.208C-253.214 571.366 -178.901 580.94 -107.035 590.195C-69.1563 595.073 -29.9899 600.116 8.46676 604.885C110.695 617.382 245.281 631.867 379.718 632.987C442.332 633.503 505.131 631.291 566.377 626.405C668.17 618.189 776.014 602.651 886.914 580.236C946.812 567.894 1001.79 553.677 1054.99 536.761C1108.07 519.854 1160.6 499.512 1211.11 476.304C1316.12 428.048 1418.96 365.269 1516.76 289.72C1603.42 222.776 1694.09 139.369 1802.13 27.2393L1802.46 27.857C1694.41 140.004 1603.72 223.414 1517.05 290.376C1419.23 365.945 1316.36 428.73 1211.33 476.998C1160.81 500.217 1108.27 520.561 1055.17 537.47C1001.96 554.389 946.972 568.615 887.065 580.959C776.151 603.378 668.292 618.918 566.49 627.137C505.234 632.017 442.425 634.231 379.802 633.718C245.344 632.594 110.748 618.104 8.51024 605.609C-29.9449 600.847 -69.1131 595.797 -106.991 590.919C-178.858 581.664 -253.169 572.097 -326.443 563.939C-412.467 554.403 -482.424 549.264 -546.591 547.766C-660.555 545.641 -781.869 548.49 -896.915 583.415C-981.309 609.274 -1061.92 653.405 -1158.29 726.511C-1197.51 756.262 -1237.77 790.435 -1281.37 830.978C-1292.31 841.133 -1303.12 851.456 -1314.56 862.393C-1340.76 887.423 -1367.85 913.302 -1396.02 936.42C-1457.71 987.079 -1511.28 1012.2 -1564.61 1015.47C-1605.53 1017.94 -1649.08 1005.65 -1697.76 977.913C-1739.69 954.027 -1779.82 922.331 -1824.2 886.383L-1824.02 885.762C-1746.15 948.855 -1657.88 1020.36 -1564.72 1014.74C-1511.46 1011.47 -1457.95 986.382 -1396.31 935.771C-1368.15 912.664 -1341.07 886.785 -1314.88 861.765C-1303.43 850.827 -1292.62 840.497 -1281.68 830.348C-1238.07 789.803 -1197.79 755.62 -1158.56 725.86C-1113.47 691.649 -1072.28 664.162 -1032.65 641.831C-986.643 615.902 -942.297 596.56 -897.086 582.711C-887.836 579.902 -878.536 577.3 -869.211 574.887L-869.217 574.881Z" fill="white" stroke="white"/>
<path d="M-798.573 540.413C-737.538 524.652 -671.775 516.159 -599.598 514.614C-516.659 512.847 -423.754 520.272 -307.216 538.002C-233.18 549.267 -157.836 562.653 -84.9672 575.606C76.8162 604.359 244.105 634.089 407.533 642.354C652.848 654.759 880.515 620.452 1084.22 540.388C1326.6 445.124 1555.46 276.182 1826.27 -7.39771L1826.6 -6.78816C1700.86 124.874 1586.04 229.977 1475.57 314.527C1343.96 415.255 1216.02 489.363 1084.42 541.086C980.038 582.112 868.473 611.415 752.844 628.181C643.069 644.097 526.913 649.105 407.6 643.073C244.152 634.805 76.8491 605.078 -84.9453 576.32C-157.807 563.373 -233.154 549.98 -307.184 538.721C-485.696 511.566 -693.376 493.778 -880.221 567.687C-1028.8 626.458 -1152.84 742.642 -1267.14 856.61C-1274.47 863.914 -1282.01 871.526 -1289.31 878.89C-1327.55 917.501 -1367.09 957.433 -1409.98 988.361C-1458.64 1023.46 -1504.2 1041.13 -1549.26 1042.36C-1590.56 1043.5 -1634.49 1028.91 -1683.58 997.752C-1725.97 970.847 -1766.33 935.845 -1810.91 896.215L-1810.71 895.611C-1736.24 961.816 -1643.55 1044.22 -1549.36 1041.63C-1448.7 1038.87 -1364.2 953.546 -1289.64 878.266C-1282.34 870.901 -1274.8 863.281 -1267.47 855.977C-1153.13 741.98 -1029.07 625.768 -880.428 566.975C-854.054 556.541 -826.82 547.695 -798.581 540.4L-798.573 540.413Z" fill="white" stroke="white"/>
</g>
</g>
</g>
<defs>
<clipPath id="clip0_192_289">
<rect width="1440" height="810" fill="white"/>
</clipPath>
</defs>
</svg>
